M48
;DRILL file {kicad (2014-10-25 BZR 5223)-product} date 02/11/2014 18:34:49
;FORMAT={-:-/ absolute / inch / decimal}
FMAT,2
INCH,TZ
T1C0.010
T2C0.014
T3C0.035
T4C0.040
T5C0.060
%
G90
G05
M72
T1
X2.4583Y-4.1013
X2.4881Y-4.1004
X2.5204Y-4.1037
X2.5515Y-4.1037
X2.5817Y-4.1036
X2.6128Y-5.065
X2.6145Y-4.1018
X2.6224Y-5.1414
X2.6469Y-4.0998
X2.6719Y-4.3728
X2.6891Y-4.3575
X2.7058Y-4.3773
X2.7097Y-4.1025
X2.7244Y-4.3575
X2.7392Y-4.1078
X2.7409Y-4.3894
X2.7574Y-4.3626
X2.8027Y-4.1008
X2.8327Y-4.1011
X2.8835Y-4.9921
X2.8973Y-4.1011
X2.9037Y-4.8151
X2.9047Y-4.7705
X2.9111Y-4.9129
X2.9133Y-4.4705
X2.9134Y-4.439
X2.9134Y-4.8484
X2.928Y-4.9859
X2.9308Y-4.0999
X2.937Y-4.9213
X2.9445Y-4.6279
X2.9448Y-4.6913
X2.9449Y-4.5646
X2.9449Y-4.5961
X2.9449Y-4.6594
X2.9454Y-4.7234
X2.9455Y-4.5031
X2.9457Y-4.7552
X2.9457Y-4.5347
X2.9754Y-4.5014
X2.9931Y-4.0999
X2.9978Y-4.9176
X3.0059Y-4.7559
X3.0062Y-4.4727
X3.0079Y-4.7228
X3.0079Y-4.8169
X3.0079Y-4.8799
X3.008Y-4.8483
X3.022Y-4.1022
X3.0295Y-5.0157
X3.0354Y-5.0492
X3.0386Y-4.6582
X3.039Y-4.6909
X3.039Y-4.6909
X3.0392Y-4.5963
X3.0394Y-4.6283
X3.0394Y-4.7858
X3.0394Y-4.8484
X3.0394Y-4.8799
X3.0395Y-4.5021
X3.063Y-5.0197
X3.0705Y-4.7539
X3.0707Y-4.7226
X3.0709Y-4.4701
X3.0709Y-4.8481
X3.0886Y-5.0197
X3.0889Y-4.1011
X3.1003Y-4.7239
X3.1011Y-4.6586
X3.102Y-4.5649
X3.1024Y-4.4701
X3.1024Y-4.8799
X3.1032Y-4.6292
X3.1043Y-4.7874
X3.1142Y-5.0197
X3.1189Y-4.1011
X3.1326Y-4.5973
X3.1327Y-4.4715
X3.1335Y-4.5019
X3.1339Y-4.7224
X3.1339Y-4.8484
X3.1339Y-4.8799
X3.1341Y-4.5648
X3.1398Y-5.0197
X3.165Y-4.7539
X3.1654Y-4.628
X3.1657Y-4.5649
X3.1662Y-4.8787
X3.1665Y-4.6916
X3.18Y-4.1011
X3.185Y-4.9941
X3.1944Y-4.8467
X3.1959Y-4.5635
X3.1961Y-4.4717
X3.1969Y-4.6909
X3.1969Y-4.7536
X3.1969Y-4.6276
X3.2106Y-4.9941
X3.2123Y-4.0976
X3.227Y-4.8188
X3.2274Y-4.8499
X3.2283Y-4.628
X3.2284Y-4.4701
X3.2284Y-4.6591
X3.2296Y-4.8807
X3.235Y-4.9157
X3.2362Y-4.9941
X3.2587Y-4.5666
X3.259Y-4.8787
X3.2596Y-4.5018
X3.2598Y-4.7536
X3.2598Y-4.8169
X3.2598Y-4.8484
X3.2599Y-4.6598
X3.2602Y-4.4704
X3.2607Y-4.7212
X3.2778Y-4.9868
X3.2906Y-4.8497
X3.2913Y-4.4705
X3.2913Y-4.565
X3.2914Y-4.8166
X3.2914Y-4.9684
X3.3081Y-4.0999
X3.3216Y-4.8476
X3.322Y-4.7842
X3.3224Y-4.502
X3.3225Y-4.5334
X3.3227Y-4.4706
X3.337Y-4.1034
X3.3504Y-5.0039
X3.3529Y-4.5659
X3.3532Y-4.6611
X3.3544Y-4.5961
X3.3545Y-4.8172
X3.3547Y-4.4704
X3.3547Y-4.7224
X3.3547Y-4.5019
X3.3852Y-4.8811
X3.3859Y-4.4385
X3.3884Y-4.852
X3.3906Y-5.0041
X3.3956Y-4.6122
X3.4019Y-4.1034
X3.4055Y-4.7283
X3.4319Y-4.1034
X3.4508Y-4.5926
X3.4954Y-4.1006
X3.5039Y-4.9035
X3.5138Y-4.815
X3.5157Y-4.6988
X3.5271Y-4.0956
X3.5378Y-4.7248
X3.5497Y-4.4335
X3.6152Y-4.337
X3.6221Y-4.0952
X3.6531Y-4.0966
X3.6531Y-4.337
X3.6673Y-4.5177
X3.6673Y-4.5591
X3.6725Y-4.9547
X3.7172Y-4.0957
X3.7186Y-4.3373
X3.7482Y-4.095
X3.7489Y-4.3294
X3.7799Y-4.0964
X3.7806Y-4.2977
X3.8051Y-4.4744
X3.8116Y-4.0984
X3.8123Y-4.2673
T2
X2.3888Y-4.5049
X2.3888Y-4.5561
X2.3888Y-4.6073
X2.3888Y-4.6604
X2.3973Y-5.0512
X2.4852Y-4.4163
X2.4856Y-5.1083
X2.5159Y-5.0204
X2.5442Y-5.1208
X2.5758Y-4.3967
X2.5758Y-4.4537
X2.5758Y-4.5049
X2.5758Y-4.5561
X2.5758Y-4.6073
X2.5758Y-4.6585
X2.5869Y-5.0627
X2.6764Y-4.1037
X2.6775Y-4.1673
X2.6963Y-5.1081
X2.7047Y-5.4783
X2.7638Y-5.3248
X2.7677Y-5.4075
X2.7703Y-4.1037
X2.7718Y-4.1673
X2.7858Y-5.1338
X2.811Y-5.4862
X2.815Y-5.2933
X2.8652Y-4.1005
X2.8661Y-5.3957
X2.8662Y-4.1662
X2.9547Y-5.0157
X2.959Y-4.1021
X2.959Y-4.1652
X2.9626Y-4.2657
X2.9665Y-4.3917
X2.9738Y-5.125
X2.9862Y-5.0118
X3.0217Y-5.1831
X3.054Y-4.1657
X3.055Y-4.1005
X3.0591Y-5.2677
X3.063Y-5.1969
X3.1494Y-4.0984
X3.1494Y-4.1678
X3.1594Y-5.1929
X3.2067Y-5.2067
X3.2264Y-4.3996
X3.2283Y-4.2677
X3.2402Y-5.2677
X3.2441Y-4.1063
X3.2569Y-5.1919
X3.2638Y-4.1555
X3.3061Y-5.1919
X3.3563Y-5.1929
X3.3694Y-4.1037
X3.3699Y-4.1668
X3.4085Y-5.1919
X3.4398Y-5.5037
X3.4638Y-4.101
X3.4646Y-4.1674
X3.4705Y-5.3484
X3.4729Y-5.3812
X3.4862Y-4.7205
X3.5299Y-5.4462
X3.5498Y-5.4023
X3.5592Y-4.1652
X3.5846Y-5.0256
X3.5846Y-5.1516
X3.5924Y-5.5499
X3.6026Y-4.1575
X3.603Y-5.3614
X3.6086Y-5.3924
X3.626Y-4.8071
X3.6588Y-5.4896
X3.6667Y-5.1767
X3.6723Y-5.5459
X3.6849Y-4.1684
X3.6854Y-4.101
X3.6975Y-5.0528
X3.7007Y-5.0173
X3.7067Y-4.4764
X3.75Y-4.8484
X3.752Y-4.748
X3.7582Y-5.1253
X3.7697Y-4.9193
X3.7766Y-5.0721
X3.8091Y-4.7835
X3.8169Y-4.9193
X3.8303Y-5.0307
X3.8366Y-4.8445
X3.8417Y-5.0636
X3.8429Y-4.1673
X3.8434Y-4.1005
X3.882Y-5.1656
X3.884Y-5.2192
X3.8917Y-4.6929
T3
X3.063Y-5.3701
X3.2362Y-5.3701
T4
X3.7787Y-5.3508
X3.7787Y-5.4508
X3.7787Y-5.5508
X3.8787Y-5.3508
X3.8787Y-5.4508
X3.8787Y-5.5508
T5
X2.5236Y-5.2996
X2.5236Y-5.4996
T0
M30
