%FSLAX46Y46*%
G04 Gerber Fmt 4.6, Leading zero omitted, Abs format (unit mm)*
G04 Created by KiCad (PCBNEW (2014-10-25 BZR 5223)-product) date 02/11/2014 18:34:45*
%MOMM*%
G01*
G04 APERTURE LIST*
%ADD10C,0.100000*%
%ADD11C,0.406400*%
%ADD12R,1.290000X1.240000*%
%ADD13R,0.600000X0.400000*%
%ADD14R,0.600000X0.347980*%
%ADD15R,0.347980X0.600000*%
%ADD16R,1.750000X1.750000*%
%ADD17R,0.400000X0.600000*%
%ADD18R,0.500000X0.600000*%
%ADD19R,0.508000X1.371600*%
%ADD20R,0.800000X0.750000*%
%ADD21R,0.750000X0.800000*%
%ADD22R,0.600000X0.500000*%
%ADD23R,0.797560X0.797560*%
%ADD24R,2.300000X6.600000*%
%ADD25R,0.610000X0.300000*%
%ADD26R,0.300000X0.700000*%
%ADD27R,0.500380X0.800100*%
%ADD28R,0.355600X0.228600*%
%ADD29R,0.355600X0.609600*%
%ADD30R,0.800100X0.500380*%
%ADD31R,0.500000X0.850000*%
%ADD32R,1.998980X2.499360*%
%ADD33R,0.500380X2.301240*%
G04 APERTURE END LIST*
D10*
D11*
X74399300Y-113149300D03*
X75199400Y-113149300D03*
X75999500Y-113149300D03*
X76799600Y-113149300D03*
X77599700Y-113149300D03*
X78399800Y-113149300D03*
X79199900Y-113149300D03*
X80000000Y-113149300D03*
X80800100Y-113149300D03*
X81600200Y-113149300D03*
X82400300Y-113149300D03*
X83200400Y-113149300D03*
X84000500Y-113149300D03*
X84800600Y-113149300D03*
X85600700Y-113149300D03*
X74399300Y-113949400D03*
X75199400Y-113949400D03*
X75999500Y-113949400D03*
X76799600Y-113949400D03*
X77599700Y-113949400D03*
X78399800Y-113949400D03*
X79199900Y-113949400D03*
X80000000Y-113949400D03*
X80800100Y-113949400D03*
X81600200Y-113949400D03*
X82400300Y-113949400D03*
X83200400Y-113949400D03*
X84000500Y-113949400D03*
X84800600Y-113949400D03*
X85600700Y-113949400D03*
X74399300Y-114749500D03*
X75199400Y-114749500D03*
X75999500Y-114749500D03*
X76799600Y-114749500D03*
X77599700Y-114749500D03*
X78399800Y-114749500D03*
X79199900Y-114749500D03*
X80000000Y-114749500D03*
X80800100Y-114749500D03*
X81600200Y-114749500D03*
X82400300Y-114749500D03*
X83200400Y-114749500D03*
X84000500Y-114749500D03*
X84800600Y-114749500D03*
X85600700Y-114749500D03*
X74399300Y-115549600D03*
X75199400Y-115549600D03*
X75999500Y-115549600D03*
X76799600Y-115549600D03*
X77599700Y-115549600D03*
X78399800Y-115549600D03*
X79199900Y-115549600D03*
X80000000Y-115549600D03*
X80800100Y-115549600D03*
X81600200Y-115549600D03*
X82400300Y-115549600D03*
X83200400Y-115549600D03*
X84000500Y-115549600D03*
X84800600Y-115549600D03*
X85600700Y-115549600D03*
X74399300Y-116349700D03*
X75199400Y-116349700D03*
X75999500Y-116349700D03*
X76799600Y-116349700D03*
X77599700Y-116349700D03*
X78399800Y-116349700D03*
X79199900Y-116349700D03*
X80000000Y-116349700D03*
X80800100Y-116349700D03*
X81600200Y-116349700D03*
X82400300Y-116349700D03*
X83200400Y-116349700D03*
X84000500Y-116349700D03*
X84800600Y-116349700D03*
X85600700Y-116349700D03*
X74399300Y-117149800D03*
X75199400Y-117149800D03*
X75999500Y-117149800D03*
X76799600Y-117149800D03*
X77599700Y-117149800D03*
X78399800Y-117149800D03*
X79199900Y-117149800D03*
X80000000Y-117149800D03*
X80800100Y-117149800D03*
X81600200Y-117149800D03*
X82400300Y-117149800D03*
X83200400Y-117149800D03*
X84000500Y-117149800D03*
X84800600Y-117149800D03*
X85600700Y-117149800D03*
X74399300Y-117949900D03*
X75199400Y-117949900D03*
X75999500Y-117949900D03*
X76799600Y-117949900D03*
X77599700Y-117949900D03*
X78399800Y-117949900D03*
X79199900Y-117949900D03*
X80000000Y-117949900D03*
X80800100Y-117949900D03*
X81600200Y-117949900D03*
X82400300Y-117949900D03*
X83200400Y-117949900D03*
X84000500Y-117949900D03*
X84800600Y-117949900D03*
X85600700Y-117949900D03*
X74399300Y-118750000D03*
X75199400Y-118750000D03*
X75999500Y-118750000D03*
X76799600Y-118750000D03*
X77599700Y-118750000D03*
X78399800Y-118750000D03*
X79199900Y-118750000D03*
X80000000Y-118750000D03*
X80800100Y-118750000D03*
X81600200Y-118750000D03*
X82400300Y-118750000D03*
X83200400Y-118750000D03*
X84000500Y-118750000D03*
X84800600Y-118750000D03*
X85600700Y-118750000D03*
X74399300Y-119550100D03*
X75199400Y-119550100D03*
X75999500Y-119550100D03*
X76799600Y-119550100D03*
X77599700Y-119550100D03*
X78399800Y-119550100D03*
X79199900Y-119550100D03*
X80000000Y-119550100D03*
X80800100Y-119550100D03*
X81600200Y-119550100D03*
X82400300Y-119550100D03*
X83200400Y-119550100D03*
X84000500Y-119550100D03*
X84800600Y-119550100D03*
X85600700Y-119550100D03*
X74399300Y-120350200D03*
X75199400Y-120350200D03*
X75999500Y-120350200D03*
X76799600Y-120350200D03*
X77599700Y-120350200D03*
X78399800Y-120350200D03*
X79199900Y-120350200D03*
X80000000Y-120350200D03*
X80800100Y-120350200D03*
X81600200Y-120350200D03*
X82400300Y-120350200D03*
X83200400Y-120350200D03*
X84000500Y-120350200D03*
X84800600Y-120350200D03*
X85600700Y-120350200D03*
X74399300Y-121150300D03*
X75199400Y-121150300D03*
X75999500Y-121150300D03*
X76799600Y-121150300D03*
X77599700Y-121150300D03*
X78399800Y-121150300D03*
X79199900Y-121150300D03*
X80000000Y-121150300D03*
X80800100Y-121150300D03*
X81600200Y-121150300D03*
X82400300Y-121150300D03*
X83200400Y-121150300D03*
X84000500Y-121150300D03*
X84800600Y-121150300D03*
X85600700Y-121150300D03*
X74399300Y-121950400D03*
X75199400Y-121950400D03*
X75999500Y-121950400D03*
X76799600Y-121950400D03*
X77599700Y-121950400D03*
X78399800Y-121950400D03*
X79199900Y-121950400D03*
X80000000Y-121950400D03*
X80800100Y-121950400D03*
X81600200Y-121950400D03*
X82400300Y-121950400D03*
X83200400Y-121950400D03*
X84000500Y-121950400D03*
X84800600Y-121950400D03*
X85600700Y-121950400D03*
X74399300Y-122750500D03*
X75199400Y-122750500D03*
X75999500Y-122750500D03*
X76799600Y-122750500D03*
X77599700Y-122750500D03*
X78399800Y-122750500D03*
X79199900Y-122750500D03*
X80000000Y-122750500D03*
X80800100Y-122750500D03*
X81600200Y-122750500D03*
X82400300Y-122750500D03*
X83200400Y-122750500D03*
X84000500Y-122750500D03*
X84800600Y-122750500D03*
X85600700Y-122750500D03*
X74399300Y-123550600D03*
X75199400Y-123550600D03*
X75999500Y-123550600D03*
X76799600Y-123550600D03*
X77599700Y-123550600D03*
X78399800Y-123550600D03*
X79199900Y-123550600D03*
X80000000Y-123550600D03*
X80800100Y-123550600D03*
X81600200Y-123550600D03*
X82400300Y-123550600D03*
X83200400Y-123550600D03*
X84000500Y-123550600D03*
X84800600Y-123550600D03*
X85600700Y-123550600D03*
X74399300Y-124350700D03*
X75199400Y-124350700D03*
X75999500Y-124350700D03*
X76799600Y-124350700D03*
X77599700Y-124350700D03*
X78399800Y-124350700D03*
X79199900Y-124350700D03*
X80000000Y-124350700D03*
X80800100Y-124350700D03*
X81600200Y-124350700D03*
X82400300Y-124350700D03*
X83200400Y-124350700D03*
X84000500Y-124350700D03*
X84800600Y-124350700D03*
X85600700Y-124350700D03*
D12*
X89875000Y-121030000D03*
X89875000Y-123570000D03*
X92125000Y-123570000D03*
X92125000Y-121030000D03*
D13*
X83965000Y-127735000D03*
X83965000Y-128635000D03*
D14*
X80369600Y-130731620D03*
X80369600Y-130081380D03*
X80369600Y-129436220D03*
X80369600Y-128785980D03*
D15*
X79742420Y-128158800D03*
X79092180Y-128158800D03*
X78447020Y-128158800D03*
X77796780Y-128158800D03*
D14*
X77169600Y-128785980D03*
X77169600Y-129436220D03*
X77169600Y-130081380D03*
X77169600Y-130731620D03*
D15*
X77796780Y-131358800D03*
X78447020Y-131358800D03*
X79092180Y-131358800D03*
X79742420Y-131358800D03*
D16*
X78769600Y-129758800D03*
D17*
X67487140Y-131234720D03*
X66587140Y-131234720D03*
D18*
X68479860Y-127933900D03*
X68479860Y-129033900D03*
D19*
X62397800Y-106981200D03*
X62397800Y-103018800D03*
X63197900Y-106981200D03*
X63197900Y-103018800D03*
X63998000Y-106981200D03*
X63998000Y-103018800D03*
X64798100Y-106981200D03*
X64798100Y-103018800D03*
X65598200Y-106981200D03*
X65598200Y-103018800D03*
X66398300Y-106981200D03*
X66398300Y-103018800D03*
X67198400Y-106981200D03*
X67198400Y-103018800D03*
X67998500Y-106981200D03*
X67998500Y-103018800D03*
X68798600Y-106981200D03*
X68798600Y-103018800D03*
X69598700Y-106981200D03*
X69598700Y-103018800D03*
X70398800Y-106981200D03*
X70398800Y-103018800D03*
X71198900Y-106981200D03*
X71198900Y-103018800D03*
X71999000Y-106981200D03*
X71999000Y-103018800D03*
X72799100Y-106981200D03*
X72799100Y-103018800D03*
X73599200Y-106981200D03*
X73599200Y-103018800D03*
X74399300Y-106981200D03*
X74399300Y-103018800D03*
X75199400Y-106981200D03*
X75199400Y-103018800D03*
X75999500Y-106981200D03*
X75999500Y-103018800D03*
X76799600Y-106981200D03*
X76799600Y-103018800D03*
X77599700Y-106981200D03*
X77599700Y-103018800D03*
X78399800Y-106981200D03*
X78399800Y-103018800D03*
X79199900Y-106981200D03*
X79199900Y-103018800D03*
X80000000Y-106981200D03*
X80000000Y-103018800D03*
X80800100Y-106981200D03*
X80800100Y-103018800D03*
X81600200Y-106981200D03*
X81600200Y-103018800D03*
X82400300Y-106981200D03*
X82400300Y-103018800D03*
X83200400Y-106981200D03*
X83200400Y-103018800D03*
X84000500Y-106981200D03*
X84000500Y-103018800D03*
X84800600Y-106981200D03*
X84800600Y-103018800D03*
X85600700Y-106981200D03*
X85600700Y-103018800D03*
X86400800Y-106981200D03*
X86400800Y-103018800D03*
X87200900Y-106981200D03*
X87200900Y-103018800D03*
X88001000Y-106981200D03*
X88001000Y-103018800D03*
X88801100Y-106981200D03*
X88801100Y-103018800D03*
X89601200Y-106981200D03*
X89601200Y-103018800D03*
X90401300Y-106981200D03*
X90401300Y-103018800D03*
X91201400Y-106981200D03*
X91201400Y-103018800D03*
X92001500Y-106981200D03*
X92001500Y-103018800D03*
X92801600Y-106981200D03*
X92801600Y-103018800D03*
X93601700Y-106981200D03*
X93601700Y-103018800D03*
X94401800Y-106981200D03*
X94401800Y-103018800D03*
X95201900Y-106981200D03*
X95201900Y-103018800D03*
X96002000Y-106981200D03*
X96002000Y-103018800D03*
X96802100Y-106981200D03*
X96802100Y-103018800D03*
X97602200Y-106981200D03*
X97602200Y-103018800D03*
D20*
X69246240Y-131293140D03*
X70746240Y-131293140D03*
D21*
X87624720Y-138947080D03*
X87624720Y-137447080D03*
D22*
X92114080Y-140117320D03*
X93214080Y-140117320D03*
D20*
X89148020Y-135865360D03*
X90648020Y-135865360D03*
D21*
X60913200Y-130757900D03*
X60913200Y-129257900D03*
D18*
X62411800Y-130885560D03*
X62411800Y-129785560D03*
X63905320Y-129394580D03*
X63905320Y-128294580D03*
X92095120Y-138724220D03*
X92095120Y-137624220D03*
D21*
X93391620Y-130679960D03*
X93391620Y-129179960D03*
D22*
X97855580Y-131885760D03*
X98955580Y-131885760D03*
D20*
X94935240Y-127565220D03*
X96435240Y-127565220D03*
D18*
X97872180Y-130444400D03*
X97872180Y-129344400D03*
D22*
X69550000Y-139650000D03*
X70650000Y-139650000D03*
X69550000Y-134450000D03*
X70650000Y-134450000D03*
D21*
X72800000Y-134700000D03*
X72800000Y-136200000D03*
D22*
X76500000Y-126700000D03*
X75400000Y-126700000D03*
D18*
X98150000Y-123700000D03*
X98150000Y-122600000D03*
X88550000Y-122900000D03*
X88550000Y-124000000D03*
D22*
X97400000Y-119900000D03*
X98500000Y-119900000D03*
D23*
X62974300Y-113125000D03*
X61475700Y-113125000D03*
X82695000Y-129575700D03*
X82695000Y-131074300D03*
X83965000Y-129575700D03*
X83965000Y-131074300D03*
X85250000Y-129600700D03*
X85250000Y-131099300D03*
X86575000Y-129575700D03*
X86575000Y-131074300D03*
X62974300Y-118355000D03*
X61475700Y-118355000D03*
X62974300Y-117025000D03*
X61475700Y-117025000D03*
X62974300Y-115725000D03*
X61475700Y-115725000D03*
X62974300Y-114425000D03*
X61475700Y-114425000D03*
D22*
X63792200Y-130998500D03*
X64892200Y-130998500D03*
X96900000Y-125650000D03*
X95800000Y-125650000D03*
D18*
X88550000Y-121700000D03*
X88550000Y-120600000D03*
D22*
X94800000Y-119900000D03*
X95900000Y-119900000D03*
D24*
X67050000Y-123800000D03*
X61650000Y-123800000D03*
D25*
X88963260Y-137496400D03*
X88963260Y-138146400D03*
X88963260Y-138796400D03*
X88963260Y-139446400D03*
X90863260Y-139446400D03*
X90863260Y-138796400D03*
X90863260Y-138146400D03*
X90863260Y-137496400D03*
D26*
X65209100Y-127852200D03*
X65709100Y-127852200D03*
X66709100Y-127852200D03*
X66209100Y-127852200D03*
X67209100Y-127852200D03*
X67209100Y-129852200D03*
X66209100Y-129852200D03*
X66709100Y-129852200D03*
X65709100Y-129852200D03*
X65209100Y-129852200D03*
D25*
X94755560Y-129198800D03*
X94755560Y-129848800D03*
X94755560Y-130498800D03*
X94755560Y-131148800D03*
X96655560Y-131148800D03*
X96655560Y-130498800D03*
X96655560Y-129848800D03*
X96655560Y-129198800D03*
D27*
X69350040Y-138248880D03*
X70300000Y-138248880D03*
X71249960Y-138248880D03*
X69350040Y-135851120D03*
X71249960Y-135851120D03*
D28*
X62605200Y-111965500D03*
X62605200Y-111584500D03*
D29*
X61944800Y-111775000D03*
D17*
X92908340Y-141476220D03*
X92008340Y-141476220D03*
X87398240Y-140947900D03*
X88298240Y-140947900D03*
X89676620Y-140947900D03*
X90576620Y-140947900D03*
X75300000Y-129500000D03*
X76200000Y-129500000D03*
X98642220Y-133290380D03*
X97742220Y-133290380D03*
D13*
X81450000Y-131650000D03*
X81450000Y-130750000D03*
D17*
X76200000Y-128100000D03*
X75300000Y-128100000D03*
X93162600Y-132713800D03*
X94062600Y-132713800D03*
X95397800Y-132739200D03*
X96297800Y-132739200D03*
D13*
X72700000Y-138300000D03*
X72700000Y-139200000D03*
D17*
X64825000Y-113125000D03*
X63925000Y-113125000D03*
D13*
X82695000Y-127735000D03*
X82695000Y-128635000D03*
X85250000Y-127750000D03*
X85250000Y-128650000D03*
X86575000Y-127725000D03*
X86575000Y-128625000D03*
D17*
X64815000Y-118355000D03*
X63915000Y-118355000D03*
X64825000Y-117025000D03*
X63925000Y-117025000D03*
X64825000Y-115725000D03*
X63925000Y-115725000D03*
X64825000Y-114425000D03*
X63925000Y-114425000D03*
X64825000Y-111675000D03*
X63925000Y-111675000D03*
D13*
X76050000Y-130750000D03*
X76050000Y-131650000D03*
X92150000Y-114050000D03*
X92150000Y-113150000D03*
X92150000Y-116250000D03*
X92150000Y-115350000D03*
X92150000Y-118550000D03*
X92150000Y-117650000D03*
D30*
X94351120Y-122200040D03*
X94351120Y-123150000D03*
X94351120Y-124099960D03*
X96748880Y-122200040D03*
X96748880Y-124099960D03*
D31*
X94150000Y-118550000D03*
X95415000Y-118550000D03*
X96685000Y-118550000D03*
X97950000Y-118550000D03*
X97950000Y-112850000D03*
X96685000Y-112850000D03*
X95415000Y-112850000D03*
X94150000Y-112850000D03*
D32*
X75549920Y-139399560D03*
X75549920Y-133900460D03*
X84450080Y-133900460D03*
X84450080Y-139399560D03*
D33*
X81600200Y-133798860D03*
X80800100Y-133798860D03*
X80000000Y-133798860D03*
X79199900Y-133798860D03*
X78399800Y-133798860D03*
M02*
