%FSLAX46Y46*%
G04 Gerber Fmt 4.6, Leading zero omitted, Abs format (unit mm)*
G04 Created by KiCad (PCBNEW (2014-10-25 BZR 5223)-product) date 02/11/2014 18:34:45*
%MOMM*%
G01*
G04 APERTURE LIST*
%ADD10C,0.100000*%
%ADD11R,2.540000X2.540000*%
%ADD12C,2.540000*%
%ADD13R,1.727200X1.727200*%
%ADD14O,1.727200X1.727200*%
%ADD15C,0.909320*%
%ADD16C,0.609600*%
%ADD17C,0.457199*%
%ADD18C,0.457200*%
%ADD19C,0.127000*%
G04 APERTURE END LIST*
D10*
D11*
X64100000Y-134610000D03*
D12*
X64100000Y-139690000D03*
D13*
X95980000Y-135910000D03*
D14*
X98520000Y-135910000D03*
X95980000Y-138450000D03*
X98520000Y-138450000D03*
X95980000Y-140990000D03*
X98520000Y-140990000D03*
D15*
X77800360Y-136399820D03*
X82199640Y-136399820D03*
D16*
X63134809Y-129750000D03*
D17*
X74000000Y-112750000D03*
X78820484Y-117582091D03*
X89000000Y-124550000D03*
D16*
X91050000Y-130850000D03*
X82000000Y-108400000D03*
X75250000Y-108350000D03*
D17*
X77194788Y-116744776D03*
X84367862Y-123129526D03*
X84379630Y-121517782D03*
D16*
X96750000Y-121500000D03*
X75050000Y-127400000D03*
X75850000Y-127300000D03*
X77800000Y-132000000D03*
D18*
X86001860Y-112737900D03*
X84388456Y-114351581D03*
X82000249Y-113539453D03*
X82770566Y-115992626D03*
X85202810Y-116742056D03*
X78799849Y-113539453D03*
X75575725Y-114336416D03*
X74799350Y-116739853D03*
X81200150Y-117539953D03*
X80428792Y-119167600D03*
X74812273Y-119973752D03*
X78747494Y-119987557D03*
X82798386Y-120742357D03*
X85210547Y-119950151D03*
X81976308Y-123186609D03*
X85984080Y-123979940D03*
X73941940Y-124787660D03*
X77999750Y-123140653D03*
D16*
X88000840Y-105851960D03*
X97609660Y-105849420D03*
X97622360Y-104152700D03*
X93596460Y-105877360D03*
X93609160Y-104165400D03*
X87980520Y-104165400D03*
X90403680Y-105796080D03*
X85595460Y-105836720D03*
X85582760Y-104233980D03*
X79994760Y-105862120D03*
X79994760Y-104099360D03*
X77597000Y-104152700D03*
X77571600Y-105808780D03*
X75158600Y-105796080D03*
X75158600Y-104193340D03*
X72801480Y-105821480D03*
X72776080Y-104152700D03*
X70365620Y-104233980D03*
X70403720Y-105849420D03*
X67980560Y-104233980D03*
X68008500Y-105849420D03*
X68484940Y-129746280D03*
X64621600Y-130068860D03*
X65706180Y-128593120D03*
X63902780Y-127518700D03*
X60890340Y-128301020D03*
X70758240Y-130399060D03*
X91658240Y-136967720D03*
X89659260Y-138334240D03*
X90166009Y-137217873D03*
X88211460Y-136683240D03*
X91516000Y-136180320D03*
X92933320Y-139436600D03*
X91246760Y-140968220D03*
X93917400Y-128339920D03*
X97580080Y-128614240D03*
X95926540Y-128830140D03*
X97290520Y-127778580D03*
X95458746Y-130181764D03*
X98603700Y-131205040D03*
X71500000Y-134450000D03*
X70300000Y-137350000D03*
X71400000Y-139350000D03*
X72800000Y-137050000D03*
X94150000Y-113700000D03*
X98850000Y-119200000D03*
X97450000Y-123050000D03*
X95250000Y-123150000D03*
X63125000Y-112175000D03*
X60675000Y-114425000D03*
X60675000Y-115725000D03*
X60675000Y-117025000D03*
X60675000Y-118375000D03*
X86575000Y-131875000D03*
X83975000Y-131875000D03*
X82725000Y-131875000D03*
X92100000Y-122100000D03*
D17*
X82800350Y-118359848D03*
X80390151Y-120750251D03*
X80409949Y-115949650D03*
X77199650Y-117559748D03*
X76404412Y-123145575D03*
D16*
X85250000Y-131900000D03*
X82300000Y-133800000D03*
X81450000Y-132250000D03*
X82399661Y-104300094D03*
X98654690Y-132567562D03*
X93276220Y-140866620D03*
X87370720Y-139794740D03*
X93135080Y-131486980D03*
X65425000Y-113125000D03*
X65425000Y-115725000D03*
D17*
X81200000Y-120742349D03*
X77994888Y-119955125D03*
X79567776Y-116770325D03*
X85171008Y-118392757D03*
D16*
X81950000Y-111750000D03*
X75350000Y-111550000D03*
D17*
X77189752Y-119150049D03*
X78789951Y-115949649D03*
X73780000Y-121170000D03*
X77199651Y-121560248D03*
X74800000Y-118350000D03*
X74820367Y-115182230D03*
X81176064Y-115913422D03*
X85204953Y-122355984D03*
X83580044Y-123182530D03*
X82800000Y-122350000D03*
D16*
X95300000Y-120600000D03*
X88150000Y-135850000D03*
X95750000Y-124950000D03*
X65425000Y-114425000D03*
X88550000Y-119900000D03*
D17*
X82000000Y-117550000D03*
X77989851Y-120750250D03*
X78850000Y-121600000D03*
X79605094Y-115944958D03*
X77179349Y-118318089D03*
X77189752Y-119150049D03*
X77200000Y-123150000D03*
X79600000Y-123950000D03*
X82820756Y-119918170D03*
X73997828Y-113550000D03*
X77204455Y-114354482D03*
X79590051Y-114349451D03*
X82794924Y-114345039D03*
X83600000Y-115950000D03*
X84390652Y-115149550D03*
D16*
X91506030Y-105600000D03*
X91050000Y-127650000D03*
X93998680Y-127438220D03*
X65425000Y-111675000D03*
D17*
X81200000Y-119150000D03*
X80400000Y-117550000D03*
X79600000Y-119950000D03*
X82000249Y-118340052D03*
X78767892Y-118329564D03*
D16*
X75535766Y-130175091D03*
X68700000Y-139150000D03*
X65425000Y-118325000D03*
X80250000Y-131900000D03*
X77700000Y-133800000D03*
X76750000Y-131650000D03*
X70200000Y-135250000D03*
X65425000Y-117025000D03*
X96950000Y-124950000D03*
D17*
X93150000Y-115800000D03*
X93150000Y-114750000D03*
D16*
X82900000Y-105550000D03*
D18*
X62440820Y-104173020D03*
X67867281Y-111069548D03*
X68303140Y-110680550D03*
X63197740Y-104150160D03*
X64018160Y-104233980D03*
X68727320Y-111183420D03*
X69199749Y-110680550D03*
X64808100Y-104233980D03*
X65575180Y-104231440D03*
X69618850Y-111490760D03*
X70037960Y-110810040D03*
X66408300Y-104185720D03*
X92001340Y-104018080D03*
X91826080Y-110159840D03*
X92788740Y-104053640D03*
X92788740Y-110159840D03*
X94452440Y-110167420D03*
X94416880Y-104030780D03*
X95204280Y-104013000D03*
X95222060Y-109966760D03*
X96009460Y-104048560D03*
X96027240Y-109161580D03*
X96814640Y-104099360D03*
X96832420Y-108389420D03*
D17*
X83600450Y-122340551D03*
X73240000Y-126800000D03*
X84395689Y-113554324D03*
X74370000Y-126642948D03*
X74600000Y-125000000D03*
X86065141Y-123239870D03*
D18*
X66364123Y-128650057D03*
X66607880Y-130592100D03*
D17*
X76399551Y-119960049D03*
X89860000Y-120010000D03*
X77200000Y-123950000D03*
X78450000Y-127500000D03*
X80420853Y-123918215D03*
X79750000Y-127500000D03*
X78800000Y-123950000D03*
X79100000Y-127500000D03*
X76350000Y-120800000D03*
X76950000Y-127400000D03*
X76400000Y-122350000D03*
X77100000Y-128250000D03*
X86120143Y-127104434D03*
D18*
X82800000Y-123150000D03*
X80900000Y-126850000D03*
X79600000Y-123150000D03*
D17*
X81138104Y-123105616D03*
D18*
X81550000Y-126850000D03*
D17*
X93280891Y-125850000D03*
X83602764Y-126196262D03*
D18*
X96650000Y-113650000D03*
X82779364Y-123918008D03*
D17*
X81966743Y-122397957D03*
D18*
X82200000Y-126850000D03*
X85100000Y-127100000D03*
X82169108Y-124859433D03*
D17*
X89250000Y-122300000D03*
X76143510Y-124906490D03*
X77800000Y-127500000D03*
X76400000Y-123950000D03*
X83255405Y-126665975D03*
D18*
X82031835Y-123970711D03*
D17*
X74000000Y-123150000D03*
D18*
X67231260Y-104134920D03*
D17*
X73755088Y-122303359D03*
D18*
X68826380Y-104203500D03*
D17*
X74820003Y-120782513D03*
D18*
X69575680Y-104338120D03*
X71188580Y-104160320D03*
X74798903Y-119159488D03*
X71950580Y-104167940D03*
X74789453Y-117549850D03*
X73591420Y-104167940D03*
X74799350Y-115939754D03*
X74442320Y-104137460D03*
X74816478Y-114377718D03*
X76024740Y-104137460D03*
X76358584Y-113606231D03*
X76758800Y-104195880D03*
X77999750Y-113539453D03*
X78458060Y-104167940D03*
X79570580Y-113576100D03*
X79220060Y-104167940D03*
X81180454Y-113580520D03*
X80772000Y-104167940D03*
X82810247Y-113549350D03*
D17*
X83600000Y-113550000D03*
D18*
X81592420Y-104079040D03*
X84025740Y-104137460D03*
X85210547Y-113549351D03*
X84759800Y-104226360D03*
X85210548Y-114349449D03*
X86408260Y-104226360D03*
X85163873Y-115974209D03*
D17*
X86249383Y-117149383D03*
D18*
X87170260Y-104226360D03*
D17*
X87650000Y-116652059D03*
D18*
X88783160Y-104155240D03*
D17*
X90162085Y-112612085D03*
X89300000Y-119350000D03*
X86500000Y-120100000D03*
D18*
X89588340Y-104028240D03*
D19*
G36*
X99936500Y-142436500D02*
X99574100Y-142436500D01*
X99574100Y-138470651D01*
X99574100Y-138429349D01*
X99574100Y-135930651D01*
X99574100Y-135889349D01*
X99493861Y-135485962D01*
X99477546Y-135461544D01*
X99477546Y-132536971D01*
X99402300Y-132354861D01*
X99263092Y-132215410D01*
X99081114Y-132139846D01*
X98884071Y-132139674D01*
X98701961Y-132214920D01*
X98562510Y-132354128D01*
X98486946Y-132536106D01*
X98486774Y-132733149D01*
X98562020Y-132915259D01*
X98701228Y-133054710D01*
X98883206Y-133130274D01*
X99080249Y-133130446D01*
X99262359Y-133055200D01*
X99401810Y-132915992D01*
X99477374Y-132734014D01*
X99477546Y-132536971D01*
X99477546Y-135461544D01*
X99265361Y-135143988D01*
X98923387Y-134915488D01*
X98520000Y-134835249D01*
X98116613Y-134915488D01*
X97774639Y-135143988D01*
X97546139Y-135485962D01*
X97465900Y-135889349D01*
X97465900Y-135930651D01*
X97546139Y-136334038D01*
X97774639Y-136676012D01*
X98116613Y-136904512D01*
X98520000Y-136984751D01*
X98923387Y-136904512D01*
X99265361Y-136676012D01*
X99493861Y-136334038D01*
X99574100Y-135930651D01*
X99574100Y-138429349D01*
X99493861Y-138025962D01*
X99265361Y-137683988D01*
X98923387Y-137455488D01*
X98520000Y-137375249D01*
X98116613Y-137455488D01*
X97774639Y-137683988D01*
X97546139Y-138025962D01*
X97465900Y-138429349D01*
X97465900Y-138470651D01*
X97546139Y-138874038D01*
X97774639Y-139216012D01*
X98116613Y-139444512D01*
X98520000Y-139524751D01*
X98923387Y-139444512D01*
X99265361Y-139216012D01*
X99493861Y-138874038D01*
X99574100Y-138470651D01*
X99574100Y-142436500D01*
X97445386Y-142436500D01*
X97445386Y-124851911D01*
X97370140Y-124669801D01*
X97251593Y-124551047D01*
X97251593Y-108306422D01*
X97233813Y-108263391D01*
X97233813Y-104016362D01*
X97170143Y-103862269D01*
X97052351Y-103744271D01*
X96898370Y-103680333D01*
X96731642Y-103680187D01*
X96577549Y-103743857D01*
X96459551Y-103861649D01*
X96422533Y-103950798D01*
X96364963Y-103811469D01*
X96247171Y-103693471D01*
X96093190Y-103629533D01*
X95926462Y-103629387D01*
X95772369Y-103693057D01*
X95654371Y-103810849D01*
X95614196Y-103907600D01*
X95559783Y-103775909D01*
X95441991Y-103657911D01*
X95288010Y-103593973D01*
X95121282Y-103593827D01*
X94967189Y-103657497D01*
X94849191Y-103775289D01*
X94806881Y-103877182D01*
X94772383Y-103793689D01*
X94654591Y-103675691D01*
X94500610Y-103611753D01*
X94333882Y-103611607D01*
X94179789Y-103675277D01*
X94061791Y-103793069D01*
X93997853Y-103947050D01*
X93997707Y-104113778D01*
X94061377Y-104267871D01*
X94179169Y-104385869D01*
X94333150Y-104449807D01*
X94499878Y-104449953D01*
X94653971Y-104386283D01*
X94771969Y-104268491D01*
X94814278Y-104166597D01*
X94848777Y-104250091D01*
X94966569Y-104368089D01*
X95120550Y-104432027D01*
X95287278Y-104432173D01*
X95441371Y-104368503D01*
X95559369Y-104250711D01*
X95599543Y-104153959D01*
X95653957Y-104285651D01*
X95771749Y-104403649D01*
X95925730Y-104467587D01*
X96092458Y-104467733D01*
X96246551Y-104404063D01*
X96364549Y-104286271D01*
X96401566Y-104197121D01*
X96459137Y-104336451D01*
X96576929Y-104454449D01*
X96730910Y-104518387D01*
X96897638Y-104518533D01*
X97051731Y-104454863D01*
X97169729Y-104337071D01*
X97233667Y-104183090D01*
X97233813Y-104016362D01*
X97233813Y-108263391D01*
X97187923Y-108152329D01*
X97070131Y-108034331D01*
X96916150Y-107970393D01*
X96749422Y-107970247D01*
X96595329Y-108033917D01*
X96477331Y-108151709D01*
X96413393Y-108305690D01*
X96413247Y-108472418D01*
X96476917Y-108626511D01*
X96594709Y-108744509D01*
X96748690Y-108808447D01*
X96915418Y-108808593D01*
X97069511Y-108744923D01*
X97187509Y-108627131D01*
X97251447Y-108473150D01*
X97251593Y-108306422D01*
X97251593Y-124551047D01*
X97230932Y-124530350D01*
X97069173Y-124463181D01*
X97069173Y-113567002D01*
X97005503Y-113412909D01*
X96887711Y-113294911D01*
X96733730Y-113230973D01*
X96567002Y-113230827D01*
X96446413Y-113280653D01*
X96446413Y-109078582D01*
X96382743Y-108924489D01*
X96264951Y-108806491D01*
X96110970Y-108742553D01*
X95944242Y-108742407D01*
X95790149Y-108806077D01*
X95672151Y-108923869D01*
X95608213Y-109077850D01*
X95608067Y-109244578D01*
X95671737Y-109398671D01*
X95789529Y-109516669D01*
X95943510Y-109580607D01*
X96110238Y-109580753D01*
X96264331Y-109517083D01*
X96382329Y-109399291D01*
X96446267Y-109245310D01*
X96446413Y-109078582D01*
X96446413Y-113280653D01*
X96412909Y-113294497D01*
X96294911Y-113412289D01*
X96230973Y-113566270D01*
X96230827Y-113732998D01*
X96294497Y-113887091D01*
X96412289Y-114005089D01*
X96566270Y-114069027D01*
X96732998Y-114069173D01*
X96887091Y-114005503D01*
X97005089Y-113887711D01*
X97069027Y-113733730D01*
X97069173Y-113567002D01*
X97069173Y-124463181D01*
X97048954Y-124454786D01*
X96851911Y-124454614D01*
X96669801Y-124529860D01*
X96530350Y-124669068D01*
X96454786Y-124851046D01*
X96454614Y-125048089D01*
X96529860Y-125230199D01*
X96669068Y-125369650D01*
X96851046Y-125445214D01*
X97048089Y-125445386D01*
X97230199Y-125370140D01*
X97369650Y-125230932D01*
X97445214Y-125048954D01*
X97445386Y-124851911D01*
X97445386Y-142436500D01*
X97034100Y-142436500D01*
X97034100Y-141010651D01*
X97034100Y-140969349D01*
X97034100Y-138470651D01*
X97034100Y-138429349D01*
X97034100Y-136811493D01*
X97034100Y-136735707D01*
X97034100Y-135008507D01*
X97005098Y-134938490D01*
X96951509Y-134884902D01*
X96881493Y-134855900D01*
X96805707Y-134855900D01*
X96245386Y-134855900D01*
X96245386Y-124851911D01*
X96170140Y-124669801D01*
X96030932Y-124530350D01*
X95848954Y-124454786D01*
X95795386Y-124454739D01*
X95795386Y-120501911D01*
X95720140Y-120319801D01*
X95641233Y-120240756D01*
X95641233Y-109883762D01*
X95577563Y-109729669D01*
X95459771Y-109611671D01*
X95305790Y-109547733D01*
X95139062Y-109547587D01*
X94984969Y-109611257D01*
X94866971Y-109729049D01*
X94803033Y-109883030D01*
X94802995Y-109925373D01*
X94690151Y-109812331D01*
X94536170Y-109748393D01*
X94369442Y-109748247D01*
X94215349Y-109811917D01*
X94097351Y-109929709D01*
X94033413Y-110083690D01*
X94033267Y-110250418D01*
X94096937Y-110404511D01*
X94214729Y-110522509D01*
X94368710Y-110586447D01*
X94535438Y-110586593D01*
X94689531Y-110522923D01*
X94807529Y-110405131D01*
X94871467Y-110251150D01*
X94871504Y-110208806D01*
X94984349Y-110321849D01*
X95138330Y-110385787D01*
X95305058Y-110385933D01*
X95459151Y-110322263D01*
X95577149Y-110204471D01*
X95641087Y-110050490D01*
X95641233Y-109883762D01*
X95641233Y-120240756D01*
X95580932Y-120180350D01*
X95398954Y-120104786D01*
X95201911Y-120104614D01*
X95019801Y-120179860D01*
X94880350Y-120319068D01*
X94804786Y-120501046D01*
X94804614Y-120698089D01*
X94879860Y-120880199D01*
X95019068Y-121019650D01*
X95201046Y-121095214D01*
X95398089Y-121095386D01*
X95580199Y-121020140D01*
X95719650Y-120880932D01*
X95795214Y-120698954D01*
X95795386Y-120501911D01*
X95795386Y-124454739D01*
X95651911Y-124454614D01*
X95469801Y-124529860D01*
X95330350Y-124669068D01*
X95254786Y-124851046D01*
X95254614Y-125048089D01*
X95329860Y-125230199D01*
X95469068Y-125369650D01*
X95651046Y-125445214D01*
X95848089Y-125445386D01*
X96030199Y-125370140D01*
X96169650Y-125230932D01*
X96245214Y-125048954D01*
X96245386Y-124851911D01*
X96245386Y-134855900D01*
X95078507Y-134855900D01*
X95008490Y-134884902D01*
X94954902Y-134938491D01*
X94925900Y-135008507D01*
X94925900Y-135084293D01*
X94925900Y-136811493D01*
X94954902Y-136881510D01*
X95008491Y-136935098D01*
X95078507Y-136964100D01*
X95154293Y-136964100D01*
X96881493Y-136964100D01*
X96951510Y-136935098D01*
X97005098Y-136881509D01*
X97034100Y-136811493D01*
X97034100Y-138429349D01*
X96953861Y-138025962D01*
X96725361Y-137683988D01*
X96383387Y-137455488D01*
X95980000Y-137375249D01*
X95576613Y-137455488D01*
X95234639Y-137683988D01*
X95006139Y-138025962D01*
X94925900Y-138429349D01*
X94925900Y-138470651D01*
X95006139Y-138874038D01*
X95234639Y-139216012D01*
X95576613Y-139444512D01*
X95980000Y-139524751D01*
X96383387Y-139444512D01*
X96725361Y-139216012D01*
X96953861Y-138874038D01*
X97034100Y-138470651D01*
X97034100Y-140969349D01*
X96953861Y-140565962D01*
X96725361Y-140223988D01*
X96383387Y-139995488D01*
X95980000Y-139915249D01*
X95576613Y-139995488D01*
X95234639Y-140223988D01*
X95006139Y-140565962D01*
X94925900Y-140969349D01*
X94925900Y-141010651D01*
X95006139Y-141414038D01*
X95234639Y-141756012D01*
X95576613Y-141984512D01*
X95980000Y-142064751D01*
X96383387Y-141984512D01*
X96725361Y-141756012D01*
X96953861Y-141414038D01*
X97034100Y-141010651D01*
X97034100Y-142436500D01*
X94494066Y-142436500D01*
X94494066Y-127340131D01*
X94418820Y-127158021D01*
X94279612Y-127018570D01*
X94097634Y-126943006D01*
X93900591Y-126942834D01*
X93718481Y-127018080D01*
X93700063Y-127036465D01*
X93700063Y-125767002D01*
X93636393Y-125612909D01*
X93569172Y-125545570D01*
X93569172Y-115717002D01*
X93569172Y-114667002D01*
X93505502Y-114512909D01*
X93387711Y-114394912D01*
X93233730Y-114330974D01*
X93207913Y-114330951D01*
X93207913Y-110076842D01*
X93207913Y-103970642D01*
X93144243Y-103816549D01*
X93026451Y-103698551D01*
X92872470Y-103634613D01*
X92705742Y-103634467D01*
X92551649Y-103698137D01*
X92433651Y-103815929D01*
X92402388Y-103891217D01*
X92356843Y-103780989D01*
X92239051Y-103662991D01*
X92085070Y-103599053D01*
X91918342Y-103598907D01*
X91764249Y-103662577D01*
X91646251Y-103780369D01*
X91582313Y-103934350D01*
X91582167Y-104101078D01*
X91645837Y-104255171D01*
X91763629Y-104373169D01*
X91917610Y-104437107D01*
X92084338Y-104437253D01*
X92238431Y-104373583D01*
X92356429Y-104255791D01*
X92387691Y-104180502D01*
X92433237Y-104290731D01*
X92551029Y-104408729D01*
X92705010Y-104472667D01*
X92871738Y-104472813D01*
X93025831Y-104409143D01*
X93143829Y-104291351D01*
X93207767Y-104137370D01*
X93207913Y-103970642D01*
X93207913Y-110076842D01*
X93144243Y-109922749D01*
X93026451Y-109804751D01*
X92872470Y-109740813D01*
X92705742Y-109740667D01*
X92551649Y-109804337D01*
X92433651Y-109922129D01*
X92369713Y-110076110D01*
X92369567Y-110242838D01*
X92433237Y-110396931D01*
X92551029Y-110514929D01*
X92705010Y-110578867D01*
X92871738Y-110579013D01*
X93025831Y-110515343D01*
X93143829Y-110397551D01*
X93207767Y-110243570D01*
X93207913Y-110076842D01*
X93207913Y-114330951D01*
X93067002Y-114330828D01*
X92912909Y-114394498D01*
X92794912Y-114512289D01*
X92730974Y-114666270D01*
X92730828Y-114832998D01*
X92794498Y-114987091D01*
X92912289Y-115105088D01*
X93066270Y-115169026D01*
X93232998Y-115169172D01*
X93387091Y-115105502D01*
X93505088Y-114987711D01*
X93569026Y-114833730D01*
X93569172Y-114667002D01*
X93569172Y-115717002D01*
X93505502Y-115562909D01*
X93387711Y-115444912D01*
X93233730Y-115380974D01*
X93067002Y-115380828D01*
X92912909Y-115444498D01*
X92794912Y-115562289D01*
X92730974Y-115716270D01*
X92730828Y-115882998D01*
X92794498Y-116037091D01*
X92912289Y-116155088D01*
X93066270Y-116219026D01*
X93232998Y-116219172D01*
X93387091Y-116155502D01*
X93505088Y-116037711D01*
X93569026Y-115883730D01*
X93569172Y-115717002D01*
X93569172Y-125545570D01*
X93518602Y-125494912D01*
X93364621Y-125430974D01*
X93197893Y-125430828D01*
X93043800Y-125494498D01*
X92925803Y-125612289D01*
X92861865Y-125766270D01*
X92861719Y-125932998D01*
X92925389Y-126087091D01*
X93043180Y-126205088D01*
X93197161Y-126269026D01*
X93363889Y-126269172D01*
X93517982Y-126205502D01*
X93635979Y-126087711D01*
X93699917Y-125933730D01*
X93700063Y-125767002D01*
X93700063Y-127036465D01*
X93579030Y-127157288D01*
X93503466Y-127339266D01*
X93503294Y-127536309D01*
X93578540Y-127718419D01*
X93717748Y-127857870D01*
X93899726Y-127933434D01*
X94096769Y-127933606D01*
X94278879Y-127858360D01*
X94418330Y-127719152D01*
X94493894Y-127537174D01*
X94494066Y-127340131D01*
X94494066Y-142436500D01*
X93771606Y-142436500D01*
X93771606Y-140768531D01*
X93696360Y-140586421D01*
X93630466Y-140520411D01*
X93630466Y-131388891D01*
X93555220Y-131206781D01*
X93416012Y-131067330D01*
X93234034Y-130991766D01*
X93036991Y-130991594D01*
X92854881Y-131066840D01*
X92715430Y-131206048D01*
X92639866Y-131388026D01*
X92639694Y-131585069D01*
X92714940Y-131767179D01*
X92854148Y-131906630D01*
X93036126Y-131982194D01*
X93233169Y-131982366D01*
X93415279Y-131907120D01*
X93554730Y-131767912D01*
X93630294Y-131585934D01*
X93630466Y-131388891D01*
X93630466Y-140520411D01*
X93557152Y-140446970D01*
X93375174Y-140371406D01*
X93178131Y-140371234D01*
X92996021Y-140446480D01*
X92856570Y-140585688D01*
X92781006Y-140767666D01*
X92780834Y-140964709D01*
X92856080Y-141146819D01*
X92995288Y-141286270D01*
X93177266Y-141361834D01*
X93374309Y-141362006D01*
X93556419Y-141286760D01*
X93695870Y-141147552D01*
X93771434Y-140965574D01*
X93771606Y-140768531D01*
X93771606Y-142436500D01*
X92245253Y-142436500D01*
X92245253Y-110076842D01*
X92181583Y-109922749D01*
X92063791Y-109804751D01*
X91909810Y-109740813D01*
X91743082Y-109740667D01*
X91588989Y-109804337D01*
X91470991Y-109922129D01*
X91407053Y-110076110D01*
X91406907Y-110242838D01*
X91470577Y-110396931D01*
X91588369Y-110514929D01*
X91742350Y-110578867D01*
X91909078Y-110579013D01*
X92063171Y-110515343D01*
X92181169Y-110397551D01*
X92245107Y-110243570D01*
X92245253Y-110076842D01*
X92245253Y-142436500D01*
X91545386Y-142436500D01*
X91545386Y-127551911D01*
X91470140Y-127369801D01*
X91330932Y-127230350D01*
X91148954Y-127154786D01*
X90951911Y-127154614D01*
X90769801Y-127229860D01*
X90630350Y-127369068D01*
X90581257Y-127487296D01*
X90581257Y-112529087D01*
X90517587Y-112374994D01*
X90399796Y-112256997D01*
X90245815Y-112193059D01*
X90079087Y-112192913D01*
X90007513Y-112222486D01*
X90007513Y-103945242D01*
X89943843Y-103791149D01*
X89826051Y-103673151D01*
X89672070Y-103609213D01*
X89505342Y-103609067D01*
X89351249Y-103672737D01*
X89233251Y-103790529D01*
X89169313Y-103944510D01*
X89169271Y-103992226D01*
X89138663Y-103918149D01*
X89020871Y-103800151D01*
X88866890Y-103736213D01*
X88700162Y-103736067D01*
X88546069Y-103799737D01*
X88428071Y-103917529D01*
X88364133Y-104071510D01*
X88363987Y-104238238D01*
X88427657Y-104392331D01*
X88545449Y-104510329D01*
X88699430Y-104574267D01*
X88866158Y-104574413D01*
X89020251Y-104510743D01*
X89138249Y-104392951D01*
X89202187Y-104238970D01*
X89202228Y-104191253D01*
X89232837Y-104265331D01*
X89350629Y-104383329D01*
X89504610Y-104447267D01*
X89671338Y-104447413D01*
X89825431Y-104383743D01*
X89943429Y-104265951D01*
X90007367Y-104111970D01*
X90007513Y-103945242D01*
X90007513Y-112222486D01*
X89924994Y-112256583D01*
X89806997Y-112374374D01*
X89743059Y-112528355D01*
X89742913Y-112695083D01*
X89806583Y-112849176D01*
X89924374Y-112967173D01*
X90078355Y-113031111D01*
X90245083Y-113031257D01*
X90399176Y-112967587D01*
X90517173Y-112849796D01*
X90581111Y-112695815D01*
X90581257Y-112529087D01*
X90581257Y-127487296D01*
X90554786Y-127551046D01*
X90554614Y-127748089D01*
X90629860Y-127930199D01*
X90769068Y-128069650D01*
X90951046Y-128145214D01*
X91148089Y-128145386D01*
X91330199Y-128070140D01*
X91469650Y-127930932D01*
X91545214Y-127748954D01*
X91545386Y-127551911D01*
X91545386Y-142436500D01*
X90279172Y-142436500D01*
X90279172Y-119927002D01*
X90215502Y-119772909D01*
X90097711Y-119654912D01*
X89943730Y-119590974D01*
X89777002Y-119590828D01*
X89719172Y-119614722D01*
X89719172Y-119267002D01*
X89655502Y-119112909D01*
X89537711Y-118994912D01*
X89383730Y-118930974D01*
X89217002Y-118930828D01*
X89062909Y-118994498D01*
X88944912Y-119112289D01*
X88880974Y-119266270D01*
X88880828Y-119432998D01*
X88944498Y-119587091D01*
X89062289Y-119705088D01*
X89216270Y-119769026D01*
X89382998Y-119769172D01*
X89537091Y-119705502D01*
X89655088Y-119587711D01*
X89719026Y-119433730D01*
X89719172Y-119267002D01*
X89719172Y-119614722D01*
X89622909Y-119654498D01*
X89504912Y-119772289D01*
X89440974Y-119926270D01*
X89440828Y-120092998D01*
X89504498Y-120247091D01*
X89622289Y-120365088D01*
X89776270Y-120429026D01*
X89942998Y-120429172D01*
X90097091Y-120365502D01*
X90215088Y-120247711D01*
X90279026Y-120093730D01*
X90279172Y-119927002D01*
X90279172Y-142436500D01*
X89669172Y-142436500D01*
X89669172Y-122217002D01*
X89605502Y-122062909D01*
X89487711Y-121944912D01*
X89333730Y-121880974D01*
X89167002Y-121880828D01*
X89045386Y-121931078D01*
X89045386Y-119801911D01*
X88970140Y-119619801D01*
X88830932Y-119480350D01*
X88648954Y-119404786D01*
X88451911Y-119404614D01*
X88269801Y-119479860D01*
X88130350Y-119619068D01*
X88069172Y-119766400D01*
X88069172Y-116569061D01*
X88005502Y-116414968D01*
X87887711Y-116296971D01*
X87733730Y-116233033D01*
X87589433Y-116232906D01*
X87589433Y-104143362D01*
X87525763Y-103989269D01*
X87407971Y-103871271D01*
X87253990Y-103807333D01*
X87087262Y-103807187D01*
X86933169Y-103870857D01*
X86815171Y-103988649D01*
X86789275Y-104051013D01*
X86763763Y-103989269D01*
X86645971Y-103871271D01*
X86491990Y-103807333D01*
X86325262Y-103807187D01*
X86171169Y-103870857D01*
X86053171Y-103988649D01*
X85989233Y-104142630D01*
X85989087Y-104309358D01*
X86052757Y-104463451D01*
X86170549Y-104581449D01*
X86324530Y-104645387D01*
X86491258Y-104645533D01*
X86645351Y-104581863D01*
X86763349Y-104464071D01*
X86789244Y-104401706D01*
X86814757Y-104463451D01*
X86932549Y-104581449D01*
X87086530Y-104645387D01*
X87253258Y-104645533D01*
X87407351Y-104581863D01*
X87525349Y-104464071D01*
X87589287Y-104310090D01*
X87589433Y-104143362D01*
X87589433Y-116232906D01*
X87567002Y-116232887D01*
X87412909Y-116296557D01*
X87294912Y-116414348D01*
X87230974Y-116568329D01*
X87230828Y-116735057D01*
X87294498Y-116889150D01*
X87412289Y-117007147D01*
X87566270Y-117071085D01*
X87732998Y-117071231D01*
X87887091Y-117007561D01*
X88005088Y-116889770D01*
X88069026Y-116735789D01*
X88069172Y-116569061D01*
X88069172Y-119766400D01*
X88054786Y-119801046D01*
X88054614Y-119998089D01*
X88129860Y-120180199D01*
X88269068Y-120319650D01*
X88451046Y-120395214D01*
X88648089Y-120395386D01*
X88830199Y-120320140D01*
X88969650Y-120180932D01*
X89045214Y-119998954D01*
X89045386Y-119801911D01*
X89045386Y-121931078D01*
X89012909Y-121944498D01*
X88894912Y-122062289D01*
X88830974Y-122216270D01*
X88830828Y-122382998D01*
X88894498Y-122537091D01*
X89012289Y-122655088D01*
X89166270Y-122719026D01*
X89332998Y-122719172D01*
X89487091Y-122655502D01*
X89605088Y-122537711D01*
X89669026Y-122383730D01*
X89669172Y-122217002D01*
X89669172Y-142436500D01*
X88645386Y-142436500D01*
X88645386Y-135751911D01*
X88570140Y-135569801D01*
X88430932Y-135430350D01*
X88248954Y-135354786D01*
X88051911Y-135354614D01*
X87869801Y-135429860D01*
X87730350Y-135569068D01*
X87654786Y-135751046D01*
X87654614Y-135948089D01*
X87729860Y-136130199D01*
X87869068Y-136269650D01*
X88051046Y-136345214D01*
X88248089Y-136345386D01*
X88430199Y-136270140D01*
X88569650Y-136130932D01*
X88645214Y-135948954D01*
X88645386Y-135751911D01*
X88645386Y-142436500D01*
X87866106Y-142436500D01*
X87866106Y-139696651D01*
X87790860Y-139514541D01*
X87651652Y-139375090D01*
X87469674Y-139299526D01*
X87272631Y-139299354D01*
X87090521Y-139374600D01*
X86951070Y-139513808D01*
X86919172Y-139590626D01*
X86919172Y-120017002D01*
X86855502Y-119862909D01*
X86737711Y-119744912D01*
X86668555Y-119716196D01*
X86668555Y-117066385D01*
X86604885Y-116912292D01*
X86487094Y-116794295D01*
X86333113Y-116730357D01*
X86166385Y-116730211D01*
X86012292Y-116793881D01*
X85894295Y-116911672D01*
X85830357Y-117065653D01*
X85830211Y-117232381D01*
X85893881Y-117386474D01*
X86011672Y-117504471D01*
X86165653Y-117568409D01*
X86332381Y-117568555D01*
X86486474Y-117504885D01*
X86604471Y-117387094D01*
X86668409Y-117233113D01*
X86668555Y-117066385D01*
X86668555Y-119716196D01*
X86583730Y-119680974D01*
X86417002Y-119680828D01*
X86262909Y-119744498D01*
X86144912Y-119862289D01*
X86080974Y-120016270D01*
X86080828Y-120182998D01*
X86144498Y-120337091D01*
X86262289Y-120455088D01*
X86416270Y-120519026D01*
X86582998Y-120519172D01*
X86737091Y-120455502D01*
X86855088Y-120337711D01*
X86919026Y-120183730D01*
X86919172Y-120017002D01*
X86919172Y-139590626D01*
X86875506Y-139695786D01*
X86875334Y-139892829D01*
X86950580Y-140074939D01*
X87089788Y-140214390D01*
X87271766Y-140289954D01*
X87468809Y-140290126D01*
X87650919Y-140214880D01*
X87790370Y-140075672D01*
X87865934Y-139893694D01*
X87866106Y-139696651D01*
X87866106Y-142436500D01*
X86539315Y-142436500D01*
X86539315Y-127021436D01*
X86484313Y-126888321D01*
X86484313Y-123156872D01*
X86420643Y-123002779D01*
X86302852Y-122884782D01*
X86148871Y-122820844D01*
X85982143Y-122820698D01*
X85828050Y-122884368D01*
X85710053Y-123002159D01*
X85646115Y-123156140D01*
X85645969Y-123322868D01*
X85709639Y-123476961D01*
X85827430Y-123594958D01*
X85981411Y-123658896D01*
X86148139Y-123659042D01*
X86302232Y-123595372D01*
X86420229Y-123477581D01*
X86484167Y-123323600D01*
X86484313Y-123156872D01*
X86484313Y-126888321D01*
X86475645Y-126867343D01*
X86357854Y-126749346D01*
X86203873Y-126685408D01*
X86037145Y-126685262D01*
X85883052Y-126748932D01*
X85765055Y-126866723D01*
X85701117Y-127020704D01*
X85700971Y-127187432D01*
X85764641Y-127341525D01*
X85882432Y-127459522D01*
X86036413Y-127523460D01*
X86203141Y-127523606D01*
X86357234Y-127459936D01*
X86475231Y-127342145D01*
X86539169Y-127188164D01*
X86539315Y-127021436D01*
X86539315Y-142436500D01*
X85629721Y-142436500D01*
X85629721Y-114266451D01*
X85566051Y-114112358D01*
X85448259Y-113994360D01*
X85339905Y-113949368D01*
X85447638Y-113904854D01*
X85565636Y-113787062D01*
X85629574Y-113633081D01*
X85629720Y-113466353D01*
X85566050Y-113312260D01*
X85448258Y-113194262D01*
X85294277Y-113130324D01*
X85178973Y-113130223D01*
X85178973Y-104143362D01*
X85115303Y-103989269D01*
X84997511Y-103871271D01*
X84843530Y-103807333D01*
X84676802Y-103807187D01*
X84522709Y-103870857D01*
X84413920Y-103979455D01*
X84381243Y-103900369D01*
X84263451Y-103782371D01*
X84109470Y-103718433D01*
X83942742Y-103718287D01*
X83788649Y-103781957D01*
X83670651Y-103899749D01*
X83606713Y-104053730D01*
X83606567Y-104220458D01*
X83670237Y-104374551D01*
X83788029Y-104492549D01*
X83942010Y-104556487D01*
X84108738Y-104556633D01*
X84262831Y-104492963D01*
X84371619Y-104384364D01*
X84404297Y-104463451D01*
X84522089Y-104581449D01*
X84676070Y-104645387D01*
X84842798Y-104645533D01*
X84996891Y-104581863D01*
X85114889Y-104464071D01*
X85178827Y-104310090D01*
X85178973Y-104143362D01*
X85178973Y-113130223D01*
X85127549Y-113130178D01*
X84973456Y-113193848D01*
X84855458Y-113311640D01*
X84802037Y-113440291D01*
X84751191Y-113317233D01*
X84633400Y-113199236D01*
X84479419Y-113135298D01*
X84312691Y-113135152D01*
X84158598Y-113198822D01*
X84040601Y-113316613D01*
X83998713Y-113417489D01*
X83955502Y-113312909D01*
X83837711Y-113194912D01*
X83683730Y-113130974D01*
X83517002Y-113130828D01*
X83395386Y-113181078D01*
X83395386Y-105451911D01*
X83320140Y-105269801D01*
X83180932Y-105130350D01*
X82998954Y-105054786D01*
X82801911Y-105054614D01*
X82619801Y-105129860D01*
X82480350Y-105269068D01*
X82404786Y-105451046D01*
X82404614Y-105648089D01*
X82479860Y-105830199D01*
X82619068Y-105969650D01*
X82801046Y-106045214D01*
X82998089Y-106045386D01*
X83180199Y-105970140D01*
X83319650Y-105830932D01*
X83395214Y-105648954D01*
X83395386Y-105451911D01*
X83395386Y-113181078D01*
X83362909Y-113194498D01*
X83244912Y-113312289D01*
X83205239Y-113407831D01*
X83165750Y-113312259D01*
X83047958Y-113194261D01*
X82893977Y-113130323D01*
X82727249Y-113130177D01*
X82573156Y-113193847D01*
X82455158Y-113311639D01*
X82445386Y-113335172D01*
X82445386Y-111651911D01*
X82370140Y-111469801D01*
X82230932Y-111330350D01*
X82048954Y-111254786D01*
X82011593Y-111254753D01*
X82011593Y-103996042D01*
X81947923Y-103841949D01*
X81830131Y-103723951D01*
X81676150Y-103660013D01*
X81509422Y-103659867D01*
X81355329Y-103723537D01*
X81237331Y-103841329D01*
X81173393Y-103995310D01*
X81173352Y-104041812D01*
X81127503Y-103930849D01*
X81009711Y-103812851D01*
X80855730Y-103748913D01*
X80689002Y-103748767D01*
X80534909Y-103812437D01*
X80416911Y-103930229D01*
X80352973Y-104084210D01*
X80352827Y-104250938D01*
X80416497Y-104405031D01*
X80534289Y-104523029D01*
X80688270Y-104586967D01*
X80854998Y-104587113D01*
X81009091Y-104523443D01*
X81127089Y-104405651D01*
X81191027Y-104251670D01*
X81191067Y-104205167D01*
X81236917Y-104316131D01*
X81354709Y-104434129D01*
X81508690Y-104498067D01*
X81675418Y-104498213D01*
X81829511Y-104434543D01*
X81947509Y-104316751D01*
X82011447Y-104162770D01*
X82011593Y-103996042D01*
X82011593Y-111254753D01*
X81851911Y-111254614D01*
X81669801Y-111329860D01*
X81530350Y-111469068D01*
X81454786Y-111651046D01*
X81454614Y-111848089D01*
X81529860Y-112030199D01*
X81669068Y-112169650D01*
X81851046Y-112245214D01*
X82048089Y-112245386D01*
X82230199Y-112170140D01*
X82369650Y-112030932D01*
X82445214Y-111848954D01*
X82445386Y-111651911D01*
X82445386Y-113335172D01*
X82391220Y-113465620D01*
X82391074Y-113632348D01*
X82454744Y-113786441D01*
X82572536Y-113904439D01*
X82667925Y-113944047D01*
X82557833Y-113989537D01*
X82439836Y-114107328D01*
X82375898Y-114261309D01*
X82375752Y-114428037D01*
X82439422Y-114582130D01*
X82557213Y-114700127D01*
X82711194Y-114764065D01*
X82877922Y-114764211D01*
X83032015Y-114700541D01*
X83150012Y-114582750D01*
X83213950Y-114428769D01*
X83214096Y-114262041D01*
X83150426Y-114107948D01*
X83032635Y-113989951D01*
X82937245Y-113950342D01*
X83047338Y-113904853D01*
X83165336Y-113787061D01*
X83205008Y-113691518D01*
X83244498Y-113787091D01*
X83362289Y-113905088D01*
X83516270Y-113969026D01*
X83682998Y-113969172D01*
X83837091Y-113905502D01*
X83955088Y-113787711D01*
X83996975Y-113686834D01*
X84040187Y-113791415D01*
X84157978Y-113909412D01*
X84311959Y-113973350D01*
X84478687Y-113973496D01*
X84632780Y-113909826D01*
X84750777Y-113792035D01*
X84804197Y-113663383D01*
X84855044Y-113786442D01*
X84972836Y-113904440D01*
X85081189Y-113949431D01*
X84973457Y-113993946D01*
X84855459Y-114111738D01*
X84791521Y-114265719D01*
X84791375Y-114432447D01*
X84855045Y-114586540D01*
X84972837Y-114704538D01*
X85126818Y-114768476D01*
X85293546Y-114768622D01*
X85447639Y-114704952D01*
X85565637Y-114587160D01*
X85629575Y-114433179D01*
X85629721Y-114266451D01*
X85629721Y-142436500D01*
X85624125Y-142436500D01*
X85624125Y-122272986D01*
X85590180Y-122190832D01*
X85590180Y-118309759D01*
X85583046Y-118292493D01*
X85583046Y-115891211D01*
X85519376Y-115737118D01*
X85401584Y-115619120D01*
X85247603Y-115555182D01*
X85080875Y-115555036D01*
X84926782Y-115618706D01*
X84809824Y-115735459D01*
X84809824Y-115066552D01*
X84746154Y-114912459D01*
X84628363Y-114794462D01*
X84474382Y-114730524D01*
X84307654Y-114730378D01*
X84153561Y-114794048D01*
X84035564Y-114911839D01*
X83971626Y-115065820D01*
X83971480Y-115232548D01*
X84035150Y-115386641D01*
X84152941Y-115504638D01*
X84306922Y-115568576D01*
X84473650Y-115568722D01*
X84627743Y-115505052D01*
X84745740Y-115387261D01*
X84809678Y-115233280D01*
X84809824Y-115066552D01*
X84809824Y-115735459D01*
X84808784Y-115736498D01*
X84744846Y-115890479D01*
X84744700Y-116057207D01*
X84808370Y-116211300D01*
X84926162Y-116329298D01*
X85080143Y-116393236D01*
X85246871Y-116393382D01*
X85400964Y-116329712D01*
X85518962Y-116211920D01*
X85582900Y-116057939D01*
X85583046Y-115891211D01*
X85583046Y-118292493D01*
X85526510Y-118155666D01*
X85408719Y-118037669D01*
X85254738Y-117973731D01*
X85088010Y-117973585D01*
X84933917Y-118037255D01*
X84815920Y-118155046D01*
X84751982Y-118309027D01*
X84751836Y-118475755D01*
X84815506Y-118629848D01*
X84933297Y-118747845D01*
X85087278Y-118811783D01*
X85254006Y-118811929D01*
X85408099Y-118748259D01*
X85526096Y-118630468D01*
X85590034Y-118476487D01*
X85590180Y-118309759D01*
X85590180Y-122190832D01*
X85560455Y-122118893D01*
X85442664Y-122000896D01*
X85288683Y-121936958D01*
X85121955Y-121936812D01*
X84967862Y-122000482D01*
X84849865Y-122118273D01*
X84785927Y-122272254D01*
X84785781Y-122438982D01*
X84849451Y-122593075D01*
X84967242Y-122711072D01*
X85121223Y-122775010D01*
X85287951Y-122775156D01*
X85442044Y-122711486D01*
X85560041Y-122593695D01*
X85623979Y-122439714D01*
X85624125Y-122272986D01*
X85624125Y-142436500D01*
X85519173Y-142436500D01*
X85519173Y-127017002D01*
X85455503Y-126862909D01*
X85337711Y-126744911D01*
X85183730Y-126680973D01*
X85017002Y-126680827D01*
X84862909Y-126744497D01*
X84744911Y-126862289D01*
X84680973Y-127016270D01*
X84680827Y-127182998D01*
X84744497Y-127337091D01*
X84862289Y-127455089D01*
X85016270Y-127519027D01*
X85182998Y-127519173D01*
X85337091Y-127455503D01*
X85455089Y-127337711D01*
X85519027Y-127183730D01*
X85519173Y-127017002D01*
X85519173Y-142436500D01*
X84021936Y-142436500D01*
X84021936Y-126113264D01*
X84019622Y-126107663D01*
X84019622Y-122257553D01*
X84019172Y-122256463D01*
X84019172Y-115867002D01*
X83955502Y-115712909D01*
X83837711Y-115594912D01*
X83683730Y-115530974D01*
X83517002Y-115530828D01*
X83362909Y-115594498D01*
X83244912Y-115712289D01*
X83180974Y-115866270D01*
X83180828Y-116032998D01*
X83244498Y-116187091D01*
X83362289Y-116305088D01*
X83516270Y-116369026D01*
X83682998Y-116369172D01*
X83837091Y-116305502D01*
X83955088Y-116187711D01*
X84019026Y-116033730D01*
X84019172Y-115867002D01*
X84019172Y-122256463D01*
X83955952Y-122103460D01*
X83838161Y-121985463D01*
X83684180Y-121921525D01*
X83517452Y-121921379D01*
X83363359Y-121985049D01*
X83245362Y-122102840D01*
X83239928Y-122115926D01*
X83239928Y-119835172D01*
X83176258Y-119681079D01*
X83058467Y-119563082D01*
X82904486Y-119499144D01*
X82737758Y-119498998D01*
X82583665Y-119562668D01*
X82465668Y-119680459D01*
X82419421Y-119791835D01*
X82419421Y-118257054D01*
X82355751Y-118102961D01*
X82237960Y-117984964D01*
X82141607Y-117944955D01*
X82237091Y-117905502D01*
X82355088Y-117787711D01*
X82419026Y-117633730D01*
X82419172Y-117467002D01*
X82355502Y-117312909D01*
X82237711Y-117194912D01*
X82083730Y-117130974D01*
X81917002Y-117130828D01*
X81762909Y-117194498D01*
X81644912Y-117312289D01*
X81599627Y-117421348D01*
X81599627Y-113497522D01*
X81535957Y-113343429D01*
X81418165Y-113225431D01*
X81264184Y-113161493D01*
X81097456Y-113161347D01*
X80943363Y-113225017D01*
X80825365Y-113342809D01*
X80761427Y-113496790D01*
X80761281Y-113663518D01*
X80824951Y-113817611D01*
X80942743Y-113935609D01*
X81096724Y-113999547D01*
X81263452Y-113999693D01*
X81417545Y-113936023D01*
X81535543Y-113818231D01*
X81599481Y-113664250D01*
X81599627Y-113497522D01*
X81599627Y-117421348D01*
X81595236Y-117431923D01*
X81595236Y-115830424D01*
X81531566Y-115676331D01*
X81413775Y-115558334D01*
X81259794Y-115494396D01*
X81093066Y-115494250D01*
X80938973Y-115557920D01*
X80820976Y-115675711D01*
X80757038Y-115829692D01*
X80756892Y-115996420D01*
X80820562Y-116150513D01*
X80938353Y-116268510D01*
X81092334Y-116332448D01*
X81259062Y-116332594D01*
X81413155Y-116268924D01*
X81531152Y-116151133D01*
X81595090Y-115997152D01*
X81595236Y-115830424D01*
X81595236Y-117431923D01*
X81580974Y-117466270D01*
X81580828Y-117632998D01*
X81644498Y-117787091D01*
X81762289Y-117905088D01*
X81858641Y-117945096D01*
X81763158Y-117984550D01*
X81645161Y-118102341D01*
X81581223Y-118256322D01*
X81581077Y-118423050D01*
X81644747Y-118577143D01*
X81762538Y-118695140D01*
X81916519Y-118759078D01*
X82083247Y-118759224D01*
X82237340Y-118695554D01*
X82355337Y-118577763D01*
X82419275Y-118423782D01*
X82419421Y-118257054D01*
X82419421Y-119791835D01*
X82401730Y-119834440D01*
X82401584Y-120001168D01*
X82465254Y-120155261D01*
X82583045Y-120273258D01*
X82737026Y-120337196D01*
X82903754Y-120337342D01*
X83057847Y-120273672D01*
X83175844Y-120155881D01*
X83239782Y-120001900D01*
X83239928Y-119835172D01*
X83239928Y-122115926D01*
X83198235Y-122216332D01*
X83155502Y-122112909D01*
X83037711Y-121994912D01*
X82883730Y-121930974D01*
X82717002Y-121930828D01*
X82562909Y-121994498D01*
X82444912Y-122112289D01*
X82380974Y-122266270D01*
X82380941Y-122302923D01*
X82322245Y-122160866D01*
X82204454Y-122042869D01*
X82050473Y-121978931D01*
X81883745Y-121978785D01*
X81729652Y-122042455D01*
X81619172Y-122152742D01*
X81619172Y-120659351D01*
X81619172Y-119067002D01*
X81555502Y-118912909D01*
X81437711Y-118794912D01*
X81283730Y-118730974D01*
X81117002Y-118730828D01*
X80962909Y-118794498D01*
X80844912Y-118912289D01*
X80819172Y-118974278D01*
X80819172Y-117467002D01*
X80755502Y-117312909D01*
X80637711Y-117194912D01*
X80483730Y-117130974D01*
X80317002Y-117130828D01*
X80162909Y-117194498D01*
X80145386Y-117211990D01*
X80145386Y-101501911D01*
X80070140Y-101319801D01*
X79930932Y-101180350D01*
X79748954Y-101104786D01*
X79551911Y-101104614D01*
X79369801Y-101179860D01*
X79230350Y-101319068D01*
X79154786Y-101501046D01*
X79154614Y-101698089D01*
X79229860Y-101880199D01*
X79369068Y-102019650D01*
X79551046Y-102095214D01*
X79748089Y-102095386D01*
X79930199Y-102020140D01*
X80069650Y-101880932D01*
X80145214Y-101698954D01*
X80145386Y-101501911D01*
X80145386Y-117211990D01*
X80044912Y-117312289D01*
X80024266Y-117362010D01*
X80024266Y-115861960D01*
X80009223Y-115825553D01*
X80009223Y-114266453D01*
X79945553Y-114112360D01*
X79827762Y-113994363D01*
X79741983Y-113958744D01*
X79807671Y-113931603D01*
X79925669Y-113813811D01*
X79989607Y-113659830D01*
X79989753Y-113493102D01*
X79926083Y-113339009D01*
X79808291Y-113221011D01*
X79654310Y-113157073D01*
X79639233Y-113157059D01*
X79639233Y-104084942D01*
X79575563Y-103930849D01*
X79457771Y-103812851D01*
X79303790Y-103748913D01*
X79137062Y-103748767D01*
X78982969Y-103812437D01*
X78864971Y-103930229D01*
X78839075Y-103992593D01*
X78813563Y-103930849D01*
X78695771Y-103812851D01*
X78541790Y-103748913D01*
X78375062Y-103748767D01*
X78220969Y-103812437D01*
X78102971Y-103930229D01*
X78039033Y-104084210D01*
X78038887Y-104250938D01*
X78102557Y-104405031D01*
X78220349Y-104523029D01*
X78374330Y-104586967D01*
X78541058Y-104587113D01*
X78695151Y-104523443D01*
X78813149Y-104405651D01*
X78839044Y-104343286D01*
X78864557Y-104405031D01*
X78982349Y-104523029D01*
X79136330Y-104586967D01*
X79303058Y-104587113D01*
X79457151Y-104523443D01*
X79575149Y-104405651D01*
X79639087Y-104251670D01*
X79639233Y-104084942D01*
X79639233Y-113157059D01*
X79487582Y-113156927D01*
X79333489Y-113220597D01*
X79215491Y-113338389D01*
X79151553Y-113492370D01*
X79151407Y-113659098D01*
X79215077Y-113813191D01*
X79332869Y-113931189D01*
X79418647Y-113966807D01*
X79352960Y-113993949D01*
X79234963Y-114111740D01*
X79171025Y-114265721D01*
X79170879Y-114432449D01*
X79234549Y-114586542D01*
X79352340Y-114704539D01*
X79506321Y-114768477D01*
X79673049Y-114768623D01*
X79827142Y-114704953D01*
X79945139Y-114587162D01*
X80009077Y-114433181D01*
X80009223Y-114266453D01*
X80009223Y-115825553D01*
X79960596Y-115707867D01*
X79842805Y-115589870D01*
X79688824Y-115525932D01*
X79522096Y-115525786D01*
X79368003Y-115589456D01*
X79250006Y-115707247D01*
X79196500Y-115836102D01*
X79145453Y-115712558D01*
X79027662Y-115594561D01*
X78873681Y-115530623D01*
X78706953Y-115530477D01*
X78552860Y-115594147D01*
X78434863Y-115711938D01*
X78418923Y-115750326D01*
X78418923Y-113456455D01*
X78355253Y-113302362D01*
X78237461Y-113184364D01*
X78083480Y-113120426D01*
X77916752Y-113120280D01*
X77762659Y-113183950D01*
X77644661Y-113301742D01*
X77580723Y-113455723D01*
X77580577Y-113622451D01*
X77644247Y-113776544D01*
X77762039Y-113894542D01*
X77916020Y-113958480D01*
X78082748Y-113958626D01*
X78236841Y-113894956D01*
X78354839Y-113777164D01*
X78418777Y-113623183D01*
X78418923Y-113456455D01*
X78418923Y-115750326D01*
X78370925Y-115865919D01*
X78370779Y-116032647D01*
X78434449Y-116186740D01*
X78552240Y-116304737D01*
X78706221Y-116368675D01*
X78872949Y-116368821D01*
X79027042Y-116305151D01*
X79145039Y-116187360D01*
X79198544Y-116058504D01*
X79249592Y-116182049D01*
X79367383Y-116300046D01*
X79490475Y-116351157D01*
X79484778Y-116351153D01*
X79330685Y-116414823D01*
X79212688Y-116532614D01*
X79148750Y-116686595D01*
X79148604Y-116853323D01*
X79212274Y-117007416D01*
X79330065Y-117125413D01*
X79484046Y-117189351D01*
X79650774Y-117189497D01*
X79804867Y-117125827D01*
X79922864Y-117008036D01*
X79986802Y-116854055D01*
X79986948Y-116687327D01*
X79923278Y-116533234D01*
X79805487Y-116415237D01*
X79682394Y-116364125D01*
X79688092Y-116364130D01*
X79842185Y-116300460D01*
X79960182Y-116182669D01*
X80024120Y-116028688D01*
X80024266Y-115861960D01*
X80024266Y-117362010D01*
X79980974Y-117466270D01*
X79980828Y-117632998D01*
X80044498Y-117787091D01*
X80162289Y-117905088D01*
X80316270Y-117969026D01*
X80482998Y-117969172D01*
X80637091Y-117905502D01*
X80755088Y-117787711D01*
X80819026Y-117633730D01*
X80819172Y-117467002D01*
X80819172Y-118974278D01*
X80780974Y-119066270D01*
X80780828Y-119232998D01*
X80844498Y-119387091D01*
X80962289Y-119505088D01*
X81116270Y-119569026D01*
X81282998Y-119569172D01*
X81437091Y-119505502D01*
X81555088Y-119387711D01*
X81619026Y-119233730D01*
X81619172Y-119067002D01*
X81619172Y-120659351D01*
X81555502Y-120505258D01*
X81437711Y-120387261D01*
X81283730Y-120323323D01*
X81117002Y-120323177D01*
X80962909Y-120386847D01*
X80844912Y-120504638D01*
X80780974Y-120658619D01*
X80780828Y-120825347D01*
X80844498Y-120979440D01*
X80962289Y-121097437D01*
X81116270Y-121161375D01*
X81282998Y-121161521D01*
X81437091Y-121097851D01*
X81555088Y-120980060D01*
X81619026Y-120826079D01*
X81619172Y-120659351D01*
X81619172Y-122152742D01*
X81611655Y-122160246D01*
X81547717Y-122314227D01*
X81547571Y-122480955D01*
X81611241Y-122635048D01*
X81729032Y-122753045D01*
X81883013Y-122816983D01*
X82049741Y-122817129D01*
X82203834Y-122753459D01*
X82321831Y-122635668D01*
X82385769Y-122481687D01*
X82385801Y-122445033D01*
X82444498Y-122587091D01*
X82562289Y-122705088D01*
X82670524Y-122750031D01*
X82562909Y-122794497D01*
X82444911Y-122912289D01*
X82380973Y-123066270D01*
X82380827Y-123232998D01*
X82444497Y-123387091D01*
X82562289Y-123505089D01*
X82621613Y-123529722D01*
X82542273Y-123562505D01*
X82424275Y-123680297D01*
X82394717Y-123751479D01*
X82387338Y-123733620D01*
X82269546Y-123615622D01*
X82115565Y-123551684D01*
X81948837Y-123551538D01*
X81794744Y-123615208D01*
X81676746Y-123733000D01*
X81612808Y-123886981D01*
X81612662Y-124053709D01*
X81676332Y-124207802D01*
X81794124Y-124325800D01*
X81948105Y-124389738D01*
X82114833Y-124389884D01*
X82268926Y-124326214D01*
X82386924Y-124208422D01*
X82416481Y-124137239D01*
X82423861Y-124155099D01*
X82541653Y-124273097D01*
X82695634Y-124337035D01*
X82862362Y-124337181D01*
X83016455Y-124273511D01*
X83134453Y-124155719D01*
X83198391Y-124001738D01*
X83198537Y-123835010D01*
X83134867Y-123680917D01*
X83017075Y-123562919D01*
X82957750Y-123538285D01*
X83037091Y-123505503D01*
X83155089Y-123387711D01*
X83183292Y-123319789D01*
X83224542Y-123419621D01*
X83342333Y-123537618D01*
X83496314Y-123601556D01*
X83663042Y-123601702D01*
X83817135Y-123538032D01*
X83935132Y-123420241D01*
X83999070Y-123266260D01*
X83999216Y-123099532D01*
X83935546Y-122945439D01*
X83817755Y-122827442D01*
X83663774Y-122763504D01*
X83497046Y-122763358D01*
X83342953Y-122827028D01*
X83224956Y-122944819D01*
X83196752Y-123012740D01*
X83155503Y-122912909D01*
X83037711Y-122794911D01*
X82929475Y-122749967D01*
X83037091Y-122705502D01*
X83155088Y-122587711D01*
X83202214Y-122474218D01*
X83244948Y-122577642D01*
X83362739Y-122695639D01*
X83516720Y-122759577D01*
X83683448Y-122759723D01*
X83837541Y-122696053D01*
X83955538Y-122578262D01*
X84019476Y-122424281D01*
X84019622Y-122257553D01*
X84019622Y-126107663D01*
X83958266Y-125959171D01*
X83840475Y-125841174D01*
X83686494Y-125777236D01*
X83519766Y-125777090D01*
X83365673Y-125840760D01*
X83247676Y-125958551D01*
X83183738Y-126112532D01*
X83183620Y-126246812D01*
X83172407Y-126246803D01*
X83018314Y-126310473D01*
X82900317Y-126428264D01*
X82836379Y-126582245D01*
X82836233Y-126748973D01*
X82899903Y-126903066D01*
X83017694Y-127021063D01*
X83171675Y-127085001D01*
X83338403Y-127085147D01*
X83492496Y-127021477D01*
X83610493Y-126903686D01*
X83674431Y-126749705D01*
X83674548Y-126615424D01*
X83685762Y-126615434D01*
X83839855Y-126551764D01*
X83957852Y-126433973D01*
X84021790Y-126279992D01*
X84021936Y-126113264D01*
X84021936Y-142436500D01*
X82867775Y-142436500D01*
X82867775Y-136267526D01*
X82766290Y-136021912D01*
X82619173Y-135874537D01*
X82619173Y-126767002D01*
X82588281Y-126692237D01*
X82588281Y-124776435D01*
X82524611Y-124622342D01*
X82406819Y-124504344D01*
X82252838Y-124440406D01*
X82086110Y-124440260D01*
X81932017Y-124503930D01*
X81814019Y-124621722D01*
X81750081Y-124775703D01*
X81749935Y-124942431D01*
X81813605Y-125096524D01*
X81931397Y-125214522D01*
X82085378Y-125278460D01*
X82252106Y-125278606D01*
X82406199Y-125214936D01*
X82524197Y-125097144D01*
X82588135Y-124943163D01*
X82588281Y-124776435D01*
X82588281Y-126692237D01*
X82555503Y-126612909D01*
X82437711Y-126494911D01*
X82283730Y-126430973D01*
X82117002Y-126430827D01*
X81962909Y-126494497D01*
X81874949Y-126582302D01*
X81787711Y-126494911D01*
X81633730Y-126430973D01*
X81557276Y-126430906D01*
X81557276Y-123022618D01*
X81493606Y-122868525D01*
X81375815Y-122750528D01*
X81221834Y-122686590D01*
X81055106Y-122686444D01*
X80901013Y-122750114D01*
X80783016Y-122867905D01*
X80719078Y-123021886D01*
X80718932Y-123188614D01*
X80782602Y-123342707D01*
X80900393Y-123460704D01*
X81054374Y-123524642D01*
X81221102Y-123524788D01*
X81375195Y-123461118D01*
X81493192Y-123343327D01*
X81557130Y-123189346D01*
X81557276Y-123022618D01*
X81557276Y-126430906D01*
X81467002Y-126430827D01*
X81312909Y-126494497D01*
X81224949Y-126582302D01*
X81137711Y-126494911D01*
X80983730Y-126430973D01*
X80840025Y-126430847D01*
X80840025Y-123835217D01*
X80776355Y-123681124D01*
X80658564Y-123563127D01*
X80504583Y-123499189D01*
X80337855Y-123499043D01*
X80183762Y-123562713D01*
X80065765Y-123680504D01*
X80003786Y-123829766D01*
X79955502Y-123712909D01*
X79837711Y-123594912D01*
X79729475Y-123549968D01*
X79837091Y-123505503D01*
X79955089Y-123387711D01*
X80019027Y-123233730D01*
X80019173Y-123067002D01*
X80019172Y-123066999D01*
X80019172Y-119867002D01*
X79955502Y-119712909D01*
X79837711Y-119594912D01*
X79683730Y-119530974D01*
X79517002Y-119530828D01*
X79362909Y-119594498D01*
X79244912Y-119712289D01*
X79187064Y-119851603D01*
X79187064Y-118246566D01*
X79123394Y-118092473D01*
X79005603Y-117974476D01*
X78851622Y-117910538D01*
X78684894Y-117910392D01*
X78530801Y-117974062D01*
X78412804Y-118091853D01*
X78348866Y-118245834D01*
X78348720Y-118412562D01*
X78412390Y-118566655D01*
X78530181Y-118684652D01*
X78684162Y-118748590D01*
X78850890Y-118748736D01*
X79004983Y-118685066D01*
X79122980Y-118567275D01*
X79186918Y-118413294D01*
X79187064Y-118246566D01*
X79187064Y-119851603D01*
X79180974Y-119866270D01*
X79180828Y-120032998D01*
X79244498Y-120187091D01*
X79362289Y-120305088D01*
X79516270Y-120369026D01*
X79682998Y-120369172D01*
X79837091Y-120305502D01*
X79955088Y-120187711D01*
X80019026Y-120033730D01*
X80019172Y-119867002D01*
X80019172Y-123066999D01*
X79955503Y-122912909D01*
X79837711Y-122794911D01*
X79683730Y-122730973D01*
X79517002Y-122730827D01*
X79362909Y-122794497D01*
X79269172Y-122888070D01*
X79269172Y-121517002D01*
X79205502Y-121362909D01*
X79087711Y-121244912D01*
X78933730Y-121180974D01*
X78767002Y-121180828D01*
X78612909Y-121244498D01*
X78494912Y-121362289D01*
X78430974Y-121516270D01*
X78430828Y-121682998D01*
X78494498Y-121837091D01*
X78612289Y-121955088D01*
X78766270Y-122019026D01*
X78932998Y-122019172D01*
X79087091Y-121955502D01*
X79205088Y-121837711D01*
X79269026Y-121683730D01*
X79269172Y-121517002D01*
X79269172Y-122888070D01*
X79244911Y-122912289D01*
X79180973Y-123066270D01*
X79180827Y-123232998D01*
X79244497Y-123387091D01*
X79362289Y-123505089D01*
X79470524Y-123550032D01*
X79362909Y-123594498D01*
X79244912Y-123712289D01*
X79199968Y-123820525D01*
X79155502Y-123712909D01*
X79037711Y-123594912D01*
X78883730Y-123530974D01*
X78717002Y-123530828D01*
X78562909Y-123594498D01*
X78444912Y-123712289D01*
X78414060Y-123786589D01*
X78414060Y-119872127D01*
X78350390Y-119718034D01*
X78232599Y-119600037D01*
X78078618Y-119536099D01*
X77911890Y-119535953D01*
X77757797Y-119599623D01*
X77639800Y-119717414D01*
X77623627Y-119756363D01*
X77623627Y-114271484D01*
X77559957Y-114117391D01*
X77442166Y-113999394D01*
X77288185Y-113935456D01*
X77177973Y-113935359D01*
X77177973Y-104112882D01*
X77114303Y-103958789D01*
X76996511Y-103840791D01*
X76842530Y-103776853D01*
X76675802Y-103776707D01*
X76521709Y-103840377D01*
X76404004Y-103957876D01*
X76380243Y-103900369D01*
X76262451Y-103782371D01*
X76108470Y-103718433D01*
X75941742Y-103718287D01*
X75787649Y-103781957D01*
X75669651Y-103899749D01*
X75605713Y-104053730D01*
X75605567Y-104220458D01*
X75669237Y-104374551D01*
X75787029Y-104492549D01*
X75941010Y-104556487D01*
X76107738Y-104556633D01*
X76261831Y-104492963D01*
X76379535Y-104375463D01*
X76403297Y-104432971D01*
X76521089Y-104550969D01*
X76675070Y-104614907D01*
X76841798Y-104615053D01*
X76995891Y-104551383D01*
X77113889Y-104433591D01*
X77177827Y-104279610D01*
X77177973Y-104112882D01*
X77177973Y-113935359D01*
X77121457Y-113935310D01*
X76967364Y-113998980D01*
X76849367Y-114116771D01*
X76785429Y-114270752D01*
X76785283Y-114437480D01*
X76848953Y-114591573D01*
X76966744Y-114709570D01*
X77120725Y-114773508D01*
X77287453Y-114773654D01*
X77441546Y-114709984D01*
X77559543Y-114592193D01*
X77623481Y-114438212D01*
X77623627Y-114271484D01*
X77623627Y-119756363D01*
X77608924Y-119791772D01*
X77608924Y-119067051D01*
X77545254Y-118912958D01*
X77427463Y-118794961D01*
X77275458Y-118731843D01*
X77416440Y-118673591D01*
X77534437Y-118555800D01*
X77598375Y-118401819D01*
X77598521Y-118235091D01*
X77534851Y-118080998D01*
X77417060Y-117963001D01*
X77263079Y-117899063D01*
X77096351Y-117898917D01*
X76942258Y-117962587D01*
X76824261Y-118080378D01*
X76777757Y-118192372D01*
X76777757Y-113523233D01*
X76714087Y-113369140D01*
X76596295Y-113251142D01*
X76442314Y-113187204D01*
X76275586Y-113187058D01*
X76121493Y-113250728D01*
X76003495Y-113368520D01*
X75939557Y-113522501D01*
X75939411Y-113689229D01*
X76003081Y-113843322D01*
X76120873Y-113961320D01*
X76274854Y-114025258D01*
X76441582Y-114025404D01*
X76595675Y-113961734D01*
X76713673Y-113843942D01*
X76777611Y-113689961D01*
X76777757Y-113523233D01*
X76777757Y-118192372D01*
X76760323Y-118234359D01*
X76760177Y-118401087D01*
X76823847Y-118555180D01*
X76941638Y-118673177D01*
X77093642Y-118736294D01*
X76952661Y-118794547D01*
X76834664Y-118912338D01*
X76770726Y-119066319D01*
X76770580Y-119233047D01*
X76834250Y-119387140D01*
X76952041Y-119505137D01*
X77106022Y-119569075D01*
X77272750Y-119569221D01*
X77426843Y-119505551D01*
X77544840Y-119387760D01*
X77608778Y-119233779D01*
X77608924Y-119067051D01*
X77608924Y-119791772D01*
X77575862Y-119871395D01*
X77575716Y-120038123D01*
X77639386Y-120192216D01*
X77757177Y-120310213D01*
X77857016Y-120351669D01*
X77752760Y-120394748D01*
X77634763Y-120512539D01*
X77570825Y-120666520D01*
X77570679Y-120833248D01*
X77634349Y-120987341D01*
X77752140Y-121105338D01*
X77906121Y-121169276D01*
X78072849Y-121169422D01*
X78226942Y-121105752D01*
X78344939Y-120987961D01*
X78408877Y-120833980D01*
X78409023Y-120667252D01*
X78345353Y-120513159D01*
X78227562Y-120395162D01*
X78127722Y-120353705D01*
X78231979Y-120310627D01*
X78349976Y-120192836D01*
X78413914Y-120038855D01*
X78414060Y-119872127D01*
X78414060Y-123786589D01*
X78380974Y-123866270D01*
X78380828Y-124032998D01*
X78444498Y-124187091D01*
X78562289Y-124305088D01*
X78716270Y-124369026D01*
X78882998Y-124369172D01*
X79037091Y-124305502D01*
X79155088Y-124187711D01*
X79200031Y-124079474D01*
X79244498Y-124187091D01*
X79362289Y-124305088D01*
X79516270Y-124369026D01*
X79682998Y-124369172D01*
X79837091Y-124305502D01*
X79955088Y-124187711D01*
X80017066Y-124038448D01*
X80065351Y-124155306D01*
X80183142Y-124273303D01*
X80337123Y-124337241D01*
X80503851Y-124337387D01*
X80657944Y-124273717D01*
X80775941Y-124155926D01*
X80839879Y-124001945D01*
X80840025Y-123835217D01*
X80840025Y-126430847D01*
X80817002Y-126430827D01*
X80662909Y-126494497D01*
X80544911Y-126612289D01*
X80480973Y-126766270D01*
X80480827Y-126932998D01*
X80544497Y-127087091D01*
X80662289Y-127205089D01*
X80816270Y-127269027D01*
X80982998Y-127269173D01*
X81137091Y-127205503D01*
X81225050Y-127117697D01*
X81312289Y-127205089D01*
X81466270Y-127269027D01*
X81632998Y-127269173D01*
X81787091Y-127205503D01*
X81875050Y-127117697D01*
X81962289Y-127205089D01*
X82116270Y-127269027D01*
X82282998Y-127269173D01*
X82437091Y-127205503D01*
X82555089Y-127087711D01*
X82619027Y-126933730D01*
X82619173Y-126767002D01*
X82619173Y-135874537D01*
X82578537Y-135833831D01*
X82333100Y-135731916D01*
X82067346Y-135731685D01*
X81821732Y-135833170D01*
X81633651Y-136020923D01*
X81531736Y-136266360D01*
X81531505Y-136532114D01*
X81632990Y-136777728D01*
X81820743Y-136965809D01*
X82066180Y-137067724D01*
X82331934Y-137067955D01*
X82577548Y-136966470D01*
X82765629Y-136778717D01*
X82867544Y-136533280D01*
X82867775Y-136267526D01*
X82867775Y-142436500D01*
X80745386Y-142436500D01*
X80745386Y-131801911D01*
X80670140Y-131619801D01*
X80530932Y-131480350D01*
X80348954Y-131404786D01*
X80169172Y-131404629D01*
X80169172Y-127417002D01*
X80105502Y-127262909D01*
X79987711Y-127144912D01*
X79833730Y-127080974D01*
X79667002Y-127080828D01*
X79512909Y-127144498D01*
X79424949Y-127232303D01*
X79337711Y-127144912D01*
X79183730Y-127080974D01*
X79017002Y-127080828D01*
X78862909Y-127144498D01*
X78774949Y-127232303D01*
X78687711Y-127144912D01*
X78533730Y-127080974D01*
X78367002Y-127080828D01*
X78212909Y-127144498D01*
X78124949Y-127232303D01*
X78037711Y-127144912D01*
X77883730Y-127080974D01*
X77717002Y-127080828D01*
X77619172Y-127121250D01*
X77619172Y-123867002D01*
X77555502Y-123712909D01*
X77437711Y-123594912D01*
X77329474Y-123549968D01*
X77437091Y-123505502D01*
X77555088Y-123387711D01*
X77619026Y-123233730D01*
X77619172Y-123067002D01*
X77618823Y-123066157D01*
X77618823Y-121477250D01*
X77555153Y-121323157D01*
X77437362Y-121205160D01*
X77283381Y-121141222D01*
X77116653Y-121141076D01*
X76962560Y-121204746D01*
X76844563Y-121322537D01*
X76818723Y-121384767D01*
X76818723Y-119877051D01*
X76755053Y-119722958D01*
X76637262Y-119604961D01*
X76483281Y-119541023D01*
X76316553Y-119540877D01*
X76162460Y-119604547D01*
X76044463Y-119722338D01*
X75980525Y-119876319D01*
X75980379Y-120043047D01*
X76044049Y-120197140D01*
X76161840Y-120315137D01*
X76315821Y-120379075D01*
X76482549Y-120379221D01*
X76636642Y-120315551D01*
X76754639Y-120197760D01*
X76818577Y-120043779D01*
X76818723Y-119877051D01*
X76818723Y-121384767D01*
X76780625Y-121476518D01*
X76780479Y-121643246D01*
X76844149Y-121797339D01*
X76961940Y-121915336D01*
X77115921Y-121979274D01*
X77282649Y-121979420D01*
X77436742Y-121915750D01*
X77554739Y-121797959D01*
X77618677Y-121643978D01*
X77618823Y-121477250D01*
X77618823Y-123066157D01*
X77555502Y-122912909D01*
X77437711Y-122794912D01*
X77283730Y-122730974D01*
X77117002Y-122730828D01*
X76962909Y-122794498D01*
X76844912Y-122912289D01*
X76819172Y-122974278D01*
X76819172Y-122267002D01*
X76769172Y-122145992D01*
X76769172Y-120717002D01*
X76705502Y-120562909D01*
X76587711Y-120444912D01*
X76433730Y-120380974D01*
X76267002Y-120380828D01*
X76112909Y-120444498D01*
X75994912Y-120562289D01*
X75930974Y-120716270D01*
X75930828Y-120882998D01*
X75994498Y-121037091D01*
X76112289Y-121155088D01*
X76266270Y-121219026D01*
X76432998Y-121219172D01*
X76587091Y-121155502D01*
X76705088Y-121037711D01*
X76769026Y-120883730D01*
X76769172Y-120717002D01*
X76769172Y-122145992D01*
X76755502Y-122112909D01*
X76637711Y-121994912D01*
X76483730Y-121930974D01*
X76317002Y-121930828D01*
X76162909Y-121994498D01*
X76044912Y-122112289D01*
X75980974Y-122266270D01*
X75980828Y-122432998D01*
X76044498Y-122587091D01*
X76162289Y-122705088D01*
X76316270Y-122769026D01*
X76482998Y-122769172D01*
X76637091Y-122705502D01*
X76755088Y-122587711D01*
X76819026Y-122433730D01*
X76819172Y-122267002D01*
X76819172Y-122974278D01*
X76780974Y-123066270D01*
X76780828Y-123232998D01*
X76844498Y-123387091D01*
X76962289Y-123505088D01*
X77070525Y-123550031D01*
X76962909Y-123594498D01*
X76844912Y-123712289D01*
X76799968Y-123820525D01*
X76755502Y-123712909D01*
X76637711Y-123594912D01*
X76483730Y-123530974D01*
X76317002Y-123530828D01*
X76162909Y-123594498D01*
X76044912Y-123712289D01*
X75980974Y-123866270D01*
X75980828Y-124032998D01*
X76044498Y-124187091D01*
X76162289Y-124305088D01*
X76316270Y-124369026D01*
X76482998Y-124369172D01*
X76637091Y-124305502D01*
X76755088Y-124187711D01*
X76800031Y-124079474D01*
X76844498Y-124187091D01*
X76962289Y-124305088D01*
X77116270Y-124369026D01*
X77282998Y-124369172D01*
X77437091Y-124305502D01*
X77555088Y-124187711D01*
X77619026Y-124033730D01*
X77619172Y-123867002D01*
X77619172Y-127121250D01*
X77562909Y-127144498D01*
X77444912Y-127262289D01*
X77380974Y-127416270D01*
X77380828Y-127582998D01*
X77444498Y-127737091D01*
X77562289Y-127855088D01*
X77716270Y-127919026D01*
X77882998Y-127919172D01*
X78037091Y-127855502D01*
X78125050Y-127767696D01*
X78212289Y-127855088D01*
X78366270Y-127919026D01*
X78532998Y-127919172D01*
X78687091Y-127855502D01*
X78775050Y-127767696D01*
X78862289Y-127855088D01*
X79016270Y-127919026D01*
X79182998Y-127919172D01*
X79337091Y-127855502D01*
X79425050Y-127767696D01*
X79512289Y-127855088D01*
X79666270Y-127919026D01*
X79832998Y-127919172D01*
X79987091Y-127855502D01*
X80105088Y-127737711D01*
X80169026Y-127583730D01*
X80169172Y-127417002D01*
X80169172Y-131404629D01*
X80151911Y-131404614D01*
X79969801Y-131479860D01*
X79830350Y-131619068D01*
X79754786Y-131801046D01*
X79754614Y-131998089D01*
X79829860Y-132180199D01*
X79969068Y-132319650D01*
X80151046Y-132395214D01*
X80348089Y-132395386D01*
X80530199Y-132320140D01*
X80669650Y-132180932D01*
X80745214Y-131998954D01*
X80745386Y-131801911D01*
X80745386Y-142436500D01*
X78468495Y-142436500D01*
X78468495Y-136267526D01*
X78367010Y-136021912D01*
X78195386Y-135849988D01*
X78195386Y-133701911D01*
X78120140Y-133519801D01*
X77980932Y-133380350D01*
X77798954Y-133304786D01*
X77601911Y-133304614D01*
X77519172Y-133338800D01*
X77519172Y-128167002D01*
X77455502Y-128012909D01*
X77369172Y-127926428D01*
X77369172Y-127317002D01*
X77305502Y-127162909D01*
X77187711Y-127044912D01*
X77033730Y-126980974D01*
X76867002Y-126980828D01*
X76712909Y-127044498D01*
X76594912Y-127162289D01*
X76562682Y-127239908D01*
X76562682Y-124823492D01*
X76499012Y-124669399D01*
X76381221Y-124551402D01*
X76227240Y-124487464D01*
X76060512Y-124487318D01*
X75906419Y-124550988D01*
X75845386Y-124611914D01*
X75845386Y-111451911D01*
X75770140Y-111269801D01*
X75630932Y-111130350D01*
X75448954Y-111054786D01*
X75251911Y-111054614D01*
X75069801Y-111129860D01*
X74930350Y-111269068D01*
X74861493Y-111434893D01*
X74861493Y-104054462D01*
X74797823Y-103900369D01*
X74680031Y-103782371D01*
X74526050Y-103718433D01*
X74359322Y-103718287D01*
X74205229Y-103781957D01*
X74087231Y-103899749D01*
X74023293Y-104053730D01*
X74023147Y-104220458D01*
X74086817Y-104374551D01*
X74204609Y-104492549D01*
X74358590Y-104556487D01*
X74525318Y-104556633D01*
X74679411Y-104492963D01*
X74797409Y-104375171D01*
X74861347Y-104221190D01*
X74861493Y-104054462D01*
X74861493Y-111434893D01*
X74854786Y-111451046D01*
X74854614Y-111648089D01*
X74929860Y-111830199D01*
X75069068Y-111969650D01*
X75251046Y-112045214D01*
X75448089Y-112045386D01*
X75630199Y-111970140D01*
X75769650Y-111830932D01*
X75845214Y-111648954D01*
X75845386Y-111451911D01*
X75845386Y-124611914D01*
X75788422Y-124668779D01*
X75724484Y-124822760D01*
X75724338Y-124989488D01*
X75788008Y-125143581D01*
X75905799Y-125261578D01*
X76059780Y-125325516D01*
X76226508Y-125325662D01*
X76380601Y-125261992D01*
X76498598Y-125144201D01*
X76562536Y-124990220D01*
X76562682Y-124823492D01*
X76562682Y-127239908D01*
X76530974Y-127316270D01*
X76530828Y-127482998D01*
X76594498Y-127637091D01*
X76712289Y-127755088D01*
X76866270Y-127819026D01*
X77032998Y-127819172D01*
X77187091Y-127755502D01*
X77305088Y-127637711D01*
X77369026Y-127483730D01*
X77369172Y-127317002D01*
X77369172Y-127926428D01*
X77337711Y-127894912D01*
X77183730Y-127830974D01*
X77017002Y-127830828D01*
X76862909Y-127894498D01*
X76744912Y-128012289D01*
X76680974Y-128166270D01*
X76680828Y-128332998D01*
X76744498Y-128487091D01*
X76862289Y-128605088D01*
X77016270Y-128669026D01*
X77182998Y-128669172D01*
X77337091Y-128605502D01*
X77455088Y-128487711D01*
X77519026Y-128333730D01*
X77519172Y-128167002D01*
X77519172Y-133338800D01*
X77419801Y-133379860D01*
X77280350Y-133519068D01*
X77245386Y-133603270D01*
X77245386Y-131551911D01*
X77170140Y-131369801D01*
X77030932Y-131230350D01*
X76848954Y-131154786D01*
X76651911Y-131154614D01*
X76469801Y-131229860D01*
X76330350Y-131369068D01*
X76254786Y-131551046D01*
X76254614Y-131748089D01*
X76329860Y-131930199D01*
X76469068Y-132069650D01*
X76651046Y-132145214D01*
X76848089Y-132145386D01*
X77030199Y-132070140D01*
X77169650Y-131930932D01*
X77245214Y-131748954D01*
X77245386Y-131551911D01*
X77245386Y-133603270D01*
X77204786Y-133701046D01*
X77204614Y-133898089D01*
X77279860Y-134080199D01*
X77419068Y-134219650D01*
X77601046Y-134295214D01*
X77798089Y-134295386D01*
X77980199Y-134220140D01*
X78119650Y-134080932D01*
X78195214Y-133898954D01*
X78195386Y-133701911D01*
X78195386Y-135849988D01*
X78179257Y-135833831D01*
X77933820Y-135731916D01*
X77668066Y-135731685D01*
X77422452Y-135833170D01*
X77234371Y-136020923D01*
X77132456Y-136266360D01*
X77132225Y-136532114D01*
X77233710Y-136777728D01*
X77421463Y-136965809D01*
X77666900Y-137067724D01*
X77932654Y-137067955D01*
X78178268Y-136966470D01*
X78366349Y-136778717D01*
X78468264Y-136533280D01*
X78468495Y-136267526D01*
X78468495Y-142436500D01*
X76031152Y-142436500D01*
X76031152Y-130077002D01*
X75955906Y-129894892D01*
X75816698Y-129755441D01*
X75634720Y-129679877D01*
X75437677Y-129679705D01*
X75255567Y-129754951D01*
X75239539Y-129770951D01*
X75239539Y-115099232D01*
X75175869Y-114945139D01*
X75058078Y-114827142D01*
X74942456Y-114779131D01*
X75053569Y-114733221D01*
X75171567Y-114615429D01*
X75235505Y-114461448D01*
X75235651Y-114294720D01*
X75171981Y-114140627D01*
X75054189Y-114022629D01*
X74900208Y-113958691D01*
X74733480Y-113958545D01*
X74579387Y-114022215D01*
X74461389Y-114140007D01*
X74417000Y-114246908D01*
X74417000Y-113467002D01*
X74353330Y-113312909D01*
X74235539Y-113194912D01*
X74081558Y-113130974D01*
X74010593Y-113130911D01*
X74010593Y-104084942D01*
X73946923Y-103930849D01*
X73829131Y-103812851D01*
X73675150Y-103748913D01*
X73508422Y-103748767D01*
X73354329Y-103812437D01*
X73236331Y-103930229D01*
X73172393Y-104084210D01*
X73172247Y-104250938D01*
X73235917Y-104405031D01*
X73353709Y-104523029D01*
X73507690Y-104586967D01*
X73674418Y-104587113D01*
X73828511Y-104523443D01*
X73946509Y-104405651D01*
X74010447Y-104251670D01*
X74010593Y-104084942D01*
X74010593Y-113130911D01*
X73914830Y-113130828D01*
X73760737Y-113194498D01*
X73642740Y-113312289D01*
X73578802Y-113466270D01*
X73578656Y-113632998D01*
X73642326Y-113787091D01*
X73760117Y-113905088D01*
X73914098Y-113969026D01*
X74080826Y-113969172D01*
X74234919Y-113905502D01*
X74352916Y-113787711D01*
X74416854Y-113633730D01*
X74417000Y-113467002D01*
X74417000Y-114246908D01*
X74397451Y-114293988D01*
X74397305Y-114460716D01*
X74460975Y-114614809D01*
X74578767Y-114732807D01*
X74694388Y-114780817D01*
X74583276Y-114826728D01*
X74465279Y-114944519D01*
X74401341Y-115098500D01*
X74401195Y-115265228D01*
X74464865Y-115419321D01*
X74582656Y-115537318D01*
X74629135Y-115556617D01*
X74562259Y-115584251D01*
X74444261Y-115702043D01*
X74380323Y-115856024D01*
X74380177Y-116022752D01*
X74443847Y-116176845D01*
X74561639Y-116294843D01*
X74715620Y-116358781D01*
X74882348Y-116358927D01*
X75036441Y-116295257D01*
X75154439Y-116177465D01*
X75218377Y-116023484D01*
X75218523Y-115856756D01*
X75154853Y-115702663D01*
X75037061Y-115584665D01*
X74990581Y-115565365D01*
X75057458Y-115537732D01*
X75175455Y-115419941D01*
X75239393Y-115265960D01*
X75239539Y-115099232D01*
X75239539Y-129770951D01*
X75239175Y-129771314D01*
X75239175Y-120699515D01*
X75219172Y-120651104D01*
X75219172Y-118267002D01*
X75155502Y-118112909D01*
X75037711Y-117994912D01*
X74924033Y-117947709D01*
X75026544Y-117905353D01*
X75144542Y-117787561D01*
X75208480Y-117633580D01*
X75208626Y-117466852D01*
X75144956Y-117312759D01*
X75027164Y-117194761D01*
X74873183Y-117130823D01*
X74706455Y-117130677D01*
X74552362Y-117194347D01*
X74434364Y-117312139D01*
X74370426Y-117466120D01*
X74370280Y-117632848D01*
X74433950Y-117786941D01*
X74551742Y-117904939D01*
X74665419Y-117952141D01*
X74562909Y-117994498D01*
X74444912Y-118112289D01*
X74380974Y-118266270D01*
X74380828Y-118432998D01*
X74444498Y-118587091D01*
X74562289Y-118705088D01*
X74681430Y-118754559D01*
X74561812Y-118803985D01*
X74443814Y-118921777D01*
X74379876Y-119075758D01*
X74379730Y-119242486D01*
X74443400Y-119396579D01*
X74561192Y-119514577D01*
X74715173Y-119578515D01*
X74881901Y-119578661D01*
X75035994Y-119514991D01*
X75153992Y-119397199D01*
X75217930Y-119243218D01*
X75218076Y-119076490D01*
X75154406Y-118922397D01*
X75036614Y-118804399D01*
X74917472Y-118754927D01*
X75037091Y-118705502D01*
X75155088Y-118587711D01*
X75219026Y-118433730D01*
X75219172Y-118267002D01*
X75219172Y-120651104D01*
X75175505Y-120545422D01*
X75057714Y-120427425D01*
X74903733Y-120363487D01*
X74737005Y-120363341D01*
X74582912Y-120427011D01*
X74464915Y-120544802D01*
X74400977Y-120698783D01*
X74400831Y-120865511D01*
X74464501Y-121019604D01*
X74582292Y-121137601D01*
X74736273Y-121201539D01*
X74903001Y-121201685D01*
X75057094Y-121138015D01*
X75175091Y-121020224D01*
X75239029Y-120866243D01*
X75239175Y-120699515D01*
X75239175Y-129771314D01*
X75116116Y-129894159D01*
X75040552Y-130076137D01*
X75040380Y-130273180D01*
X75115626Y-130455290D01*
X75254834Y-130594741D01*
X75436812Y-130670305D01*
X75633855Y-130670477D01*
X75815965Y-130595231D01*
X75955416Y-130456023D01*
X76030980Y-130274045D01*
X76031152Y-130077002D01*
X76031152Y-142436500D01*
X75019172Y-142436500D01*
X75019172Y-124917002D01*
X74955502Y-124762909D01*
X74837711Y-124644912D01*
X74683730Y-124580974D01*
X74517002Y-124580828D01*
X74419172Y-124621250D01*
X74419172Y-123067002D01*
X74355502Y-122912909D01*
X74237711Y-122794912D01*
X74199172Y-122778909D01*
X74199172Y-121087002D01*
X74135502Y-120932909D01*
X74017711Y-120814912D01*
X73863730Y-120750974D01*
X73697002Y-120750828D01*
X73542909Y-120814498D01*
X73424912Y-120932289D01*
X73360974Y-121086270D01*
X73360828Y-121252998D01*
X73424498Y-121407091D01*
X73542289Y-121525088D01*
X73696270Y-121589026D01*
X73862998Y-121589172D01*
X74017091Y-121525502D01*
X74135088Y-121407711D01*
X74199026Y-121253730D01*
X74199172Y-121087002D01*
X74199172Y-122778909D01*
X74174260Y-122768565D01*
X74174260Y-122220361D01*
X74110590Y-122066268D01*
X73992799Y-121948271D01*
X73838818Y-121884333D01*
X73672090Y-121884187D01*
X73517997Y-121947857D01*
X73400000Y-122065648D01*
X73336062Y-122219629D01*
X73335916Y-122386357D01*
X73399586Y-122540450D01*
X73517377Y-122658447D01*
X73671358Y-122722385D01*
X73838086Y-122722531D01*
X73992179Y-122658861D01*
X74110176Y-122541070D01*
X74174114Y-122387089D01*
X74174260Y-122220361D01*
X74174260Y-122768565D01*
X74083730Y-122730974D01*
X73917002Y-122730828D01*
X73762909Y-122794498D01*
X73644912Y-122912289D01*
X73580974Y-123066270D01*
X73580828Y-123232998D01*
X73644498Y-123387091D01*
X73762289Y-123505088D01*
X73916270Y-123569026D01*
X74082998Y-123569172D01*
X74237091Y-123505502D01*
X74355088Y-123387711D01*
X74419026Y-123233730D01*
X74419172Y-123067002D01*
X74419172Y-124621250D01*
X74362909Y-124644498D01*
X74244912Y-124762289D01*
X74180974Y-124916270D01*
X74180828Y-125082998D01*
X74244498Y-125237091D01*
X74362289Y-125355088D01*
X74516270Y-125419026D01*
X74682998Y-125419172D01*
X74837091Y-125355502D01*
X74955088Y-125237711D01*
X75019026Y-125083730D01*
X75019172Y-124917002D01*
X75019172Y-142436500D01*
X74789172Y-142436500D01*
X74789172Y-126559950D01*
X74725502Y-126405857D01*
X74607711Y-126287860D01*
X74453730Y-126223922D01*
X74287002Y-126223776D01*
X74132909Y-126287446D01*
X74014912Y-126405237D01*
X73950974Y-126559218D01*
X73950828Y-126725946D01*
X74014498Y-126880039D01*
X74132289Y-126998036D01*
X74286270Y-127061974D01*
X74452998Y-127062120D01*
X74607091Y-126998450D01*
X74725088Y-126880659D01*
X74789026Y-126726678D01*
X74789172Y-126559950D01*
X74789172Y-142436500D01*
X73659172Y-142436500D01*
X73659172Y-126717002D01*
X73595502Y-126562909D01*
X73477711Y-126444912D01*
X73323730Y-126380974D01*
X73157002Y-126380828D01*
X73002909Y-126444498D01*
X72884912Y-126562289D01*
X72820974Y-126716270D01*
X72820828Y-126882998D01*
X72884498Y-127037091D01*
X73002289Y-127155088D01*
X73156270Y-127219026D01*
X73322998Y-127219172D01*
X73477091Y-127155502D01*
X73595088Y-127037711D01*
X73659026Y-126883730D01*
X73659172Y-126717002D01*
X73659172Y-142436500D01*
X72369753Y-142436500D01*
X72369753Y-104084942D01*
X72306083Y-103930849D01*
X72188291Y-103812851D01*
X72034310Y-103748913D01*
X71867582Y-103748767D01*
X71713489Y-103812437D01*
X71595491Y-103930229D01*
X71571173Y-103988792D01*
X71544083Y-103923229D01*
X71426291Y-103805231D01*
X71272310Y-103741293D01*
X71105582Y-103741147D01*
X70951489Y-103804817D01*
X70833491Y-103922609D01*
X70769553Y-104076590D01*
X70769407Y-104243318D01*
X70833077Y-104397411D01*
X70950869Y-104515409D01*
X71104850Y-104579347D01*
X71271578Y-104579493D01*
X71425671Y-104515823D01*
X71543669Y-104398031D01*
X71567986Y-104339467D01*
X71595077Y-104405031D01*
X71712869Y-104523029D01*
X71866850Y-104586967D01*
X72033578Y-104587113D01*
X72187671Y-104523443D01*
X72305669Y-104405651D01*
X72369607Y-104251670D01*
X72369753Y-104084942D01*
X72369753Y-142436500D01*
X70695386Y-142436500D01*
X70695386Y-135151911D01*
X70620140Y-134969801D01*
X70480932Y-134830350D01*
X70457133Y-134820467D01*
X70457133Y-110727042D01*
X70393463Y-110572949D01*
X70275671Y-110454951D01*
X70121690Y-110391013D01*
X69994853Y-110390901D01*
X69994853Y-104255122D01*
X69931183Y-104101029D01*
X69813391Y-103983031D01*
X69659410Y-103919093D01*
X69492682Y-103918947D01*
X69338589Y-103982617D01*
X69232385Y-104088634D01*
X69181883Y-103966409D01*
X69064091Y-103848411D01*
X68910110Y-103784473D01*
X68743382Y-103784327D01*
X68589289Y-103847997D01*
X68471291Y-103965789D01*
X68407353Y-104119770D01*
X68407207Y-104286498D01*
X68470877Y-104440591D01*
X68588669Y-104558589D01*
X68742650Y-104622527D01*
X68909378Y-104622673D01*
X69063471Y-104559003D01*
X69169674Y-104452985D01*
X69220177Y-104575211D01*
X69337969Y-104693209D01*
X69491950Y-104757147D01*
X69658678Y-104757293D01*
X69812771Y-104693623D01*
X69930769Y-104575831D01*
X69994707Y-104421850D01*
X69994853Y-104255122D01*
X69994853Y-110390901D01*
X69954962Y-110390867D01*
X69800869Y-110454537D01*
X69682871Y-110572329D01*
X69618933Y-110726310D01*
X69618922Y-110738871D01*
X69618922Y-110597552D01*
X69555252Y-110443459D01*
X69437460Y-110325461D01*
X69283479Y-110261523D01*
X69116751Y-110261377D01*
X68962658Y-110325047D01*
X68844660Y-110442839D01*
X68780722Y-110596820D01*
X68780576Y-110763548D01*
X68780914Y-110764366D01*
X68722152Y-110764315D01*
X68722167Y-110764280D01*
X68722313Y-110597552D01*
X68658643Y-110443459D01*
X68540851Y-110325461D01*
X68386870Y-110261523D01*
X68220142Y-110261377D01*
X68066049Y-110325047D01*
X67948051Y-110442839D01*
X67884113Y-110596820D01*
X67884066Y-110650462D01*
X67784283Y-110650375D01*
X67650433Y-110705680D01*
X67650433Y-104051922D01*
X67586763Y-103897829D01*
X67468971Y-103779831D01*
X67314990Y-103715893D01*
X67148262Y-103715747D01*
X66994169Y-103779417D01*
X66876171Y-103897209D01*
X66812233Y-104051190D01*
X66812220Y-104065807D01*
X66763803Y-103948629D01*
X66646011Y-103830631D01*
X66492030Y-103766693D01*
X66325302Y-103766547D01*
X66171209Y-103830217D01*
X66053211Y-103948009D01*
X65989273Y-104101990D01*
X65989243Y-104136075D01*
X65930683Y-103994349D01*
X65812891Y-103876351D01*
X65658910Y-103812413D01*
X65492182Y-103812267D01*
X65338089Y-103875937D01*
X65220091Y-103993729D01*
X65191122Y-104063492D01*
X65163603Y-103996889D01*
X65045811Y-103878891D01*
X64891830Y-103814953D01*
X64725102Y-103814807D01*
X64571009Y-103878477D01*
X64453011Y-103996269D01*
X64413110Y-104092359D01*
X64373663Y-103996889D01*
X64255871Y-103878891D01*
X64101890Y-103814953D01*
X63935162Y-103814807D01*
X63781069Y-103878477D01*
X63663071Y-103996269D01*
X63616877Y-104107515D01*
X63616913Y-104067162D01*
X63553243Y-103913069D01*
X63435451Y-103795071D01*
X63281470Y-103731133D01*
X63114742Y-103730987D01*
X62960649Y-103794657D01*
X62842651Y-103912449D01*
X62814567Y-103980083D01*
X62796323Y-103935929D01*
X62678531Y-103817931D01*
X62524550Y-103753993D01*
X62357822Y-103753847D01*
X62203729Y-103817517D01*
X62085731Y-103935309D01*
X62021793Y-104089290D01*
X62021647Y-104256018D01*
X62085317Y-104410111D01*
X62203109Y-104528109D01*
X62357090Y-104592047D01*
X62523818Y-104592193D01*
X62677911Y-104528523D01*
X62795909Y-104410731D01*
X62823992Y-104343096D01*
X62842237Y-104387251D01*
X62960029Y-104505249D01*
X63114010Y-104569187D01*
X63280738Y-104569333D01*
X63434831Y-104505663D01*
X63552829Y-104387871D01*
X63599022Y-104276624D01*
X63598987Y-104316978D01*
X63662657Y-104471071D01*
X63780449Y-104589069D01*
X63934430Y-104653007D01*
X64101158Y-104653153D01*
X64255251Y-104589483D01*
X64373249Y-104471691D01*
X64413149Y-104375600D01*
X64452597Y-104471071D01*
X64570389Y-104589069D01*
X64724370Y-104653007D01*
X64891098Y-104653153D01*
X65045191Y-104589483D01*
X65163189Y-104471691D01*
X65192157Y-104401927D01*
X65219677Y-104468531D01*
X65337469Y-104586529D01*
X65491450Y-104650467D01*
X65658178Y-104650613D01*
X65812271Y-104586943D01*
X65930269Y-104469151D01*
X65994207Y-104315170D01*
X65994236Y-104281084D01*
X66052797Y-104422811D01*
X66170589Y-104540809D01*
X66324570Y-104604747D01*
X66491298Y-104604893D01*
X66645391Y-104541223D01*
X66763389Y-104423431D01*
X66827327Y-104269450D01*
X66827339Y-104254832D01*
X66875757Y-104372011D01*
X66993549Y-104490009D01*
X67147530Y-104553947D01*
X67314258Y-104554093D01*
X67468351Y-104490423D01*
X67586349Y-104372631D01*
X67650287Y-104218650D01*
X67650433Y-104051922D01*
X67650433Y-110705680D01*
X67630190Y-110714045D01*
X67512192Y-110831837D01*
X67448254Y-110985818D01*
X67448108Y-111152546D01*
X67511778Y-111306639D01*
X67629570Y-111424637D01*
X67783551Y-111488575D01*
X67950279Y-111488721D01*
X68104372Y-111425051D01*
X68222370Y-111307259D01*
X68286308Y-111153278D01*
X68286354Y-111099635D01*
X68308307Y-111099654D01*
X68308293Y-111099690D01*
X68308147Y-111266418D01*
X68371817Y-111420511D01*
X68489609Y-111538509D01*
X68643590Y-111602447D01*
X68810318Y-111602593D01*
X68964411Y-111538923D01*
X69082409Y-111421131D01*
X69146347Y-111267150D01*
X69146493Y-111100422D01*
X69146154Y-111099603D01*
X69282747Y-111099723D01*
X69436840Y-111036053D01*
X69554838Y-110918261D01*
X69618776Y-110764280D01*
X69618922Y-110597552D01*
X69618922Y-110738871D01*
X69618787Y-110893038D01*
X69682457Y-111047131D01*
X69710156Y-111074879D01*
X69702580Y-111071733D01*
X69535852Y-111071587D01*
X69381759Y-111135257D01*
X69263761Y-111253049D01*
X69199823Y-111407030D01*
X69199677Y-111573758D01*
X69263347Y-111727851D01*
X69381139Y-111845849D01*
X69535120Y-111909787D01*
X69701848Y-111909933D01*
X69855941Y-111846263D01*
X69973939Y-111728471D01*
X70037877Y-111574490D01*
X70038023Y-111407762D01*
X69974353Y-111253669D01*
X69946653Y-111225920D01*
X69954230Y-111229067D01*
X70120958Y-111229213D01*
X70275051Y-111165543D01*
X70393049Y-111047751D01*
X70456987Y-110893770D01*
X70457133Y-110727042D01*
X70457133Y-134820467D01*
X70298954Y-134754786D01*
X70101911Y-134754614D01*
X69919801Y-134829860D01*
X69780350Y-134969068D01*
X69704786Y-135151046D01*
X69704614Y-135348089D01*
X69779860Y-135530199D01*
X69919068Y-135669650D01*
X70101046Y-135745214D01*
X70298089Y-135745386D01*
X70480199Y-135670140D01*
X70619650Y-135530932D01*
X70695214Y-135348954D01*
X70695386Y-135151911D01*
X70695386Y-142436500D01*
X69195386Y-142436500D01*
X69195386Y-139051911D01*
X69120140Y-138869801D01*
X68980932Y-138730350D01*
X68798954Y-138654786D01*
X68601911Y-138654614D01*
X68419801Y-138729860D01*
X68280350Y-138869068D01*
X68204786Y-139051046D01*
X68204614Y-139248089D01*
X68279860Y-139430199D01*
X68419068Y-139569650D01*
X68601046Y-139645214D01*
X68798089Y-139645386D01*
X68980199Y-139570140D01*
X69119650Y-139430932D01*
X69195214Y-139248954D01*
X69195386Y-139051911D01*
X69195386Y-142436500D01*
X67027053Y-142436500D01*
X67027053Y-130509102D01*
X66963383Y-130355009D01*
X66845591Y-130237011D01*
X66783296Y-130211144D01*
X66783296Y-128567059D01*
X66719626Y-128412966D01*
X66601834Y-128294968D01*
X66447853Y-128231030D01*
X66281125Y-128230884D01*
X66127032Y-128294554D01*
X66009034Y-128412346D01*
X65945096Y-128566327D01*
X65944950Y-128733055D01*
X66008620Y-128887148D01*
X66126412Y-129005146D01*
X66280393Y-129069084D01*
X66447121Y-129069230D01*
X66601214Y-129005560D01*
X66719212Y-128887768D01*
X66783150Y-128733787D01*
X66783296Y-128567059D01*
X66783296Y-130211144D01*
X66691610Y-130173073D01*
X66524882Y-130172927D01*
X66370789Y-130236597D01*
X66252791Y-130354389D01*
X66188853Y-130508370D01*
X66188707Y-130675098D01*
X66252377Y-130829191D01*
X66370169Y-130947189D01*
X66524150Y-131011127D01*
X66690878Y-131011273D01*
X66844971Y-130947603D01*
X66962969Y-130829811D01*
X67026907Y-130675830D01*
X67027053Y-130509102D01*
X67027053Y-142436500D01*
X65920386Y-142436500D01*
X65920386Y-118226911D01*
X65920386Y-116926911D01*
X65920386Y-115626911D01*
X65920386Y-114326911D01*
X65920386Y-113026911D01*
X65920386Y-111576911D01*
X65845140Y-111394801D01*
X65705932Y-111255350D01*
X65523954Y-111179786D01*
X65326911Y-111179614D01*
X65144801Y-111254860D01*
X65005350Y-111394068D01*
X64929786Y-111576046D01*
X64929614Y-111773089D01*
X65004860Y-111955199D01*
X65144068Y-112094650D01*
X65326046Y-112170214D01*
X65523089Y-112170386D01*
X65705199Y-112095140D01*
X65844650Y-111955932D01*
X65920214Y-111773954D01*
X65920386Y-111576911D01*
X65920386Y-113026911D01*
X65845140Y-112844801D01*
X65705932Y-112705350D01*
X65523954Y-112629786D01*
X65326911Y-112629614D01*
X65144801Y-112704860D01*
X65005350Y-112844068D01*
X64929786Y-113026046D01*
X64929614Y-113223089D01*
X65004860Y-113405199D01*
X65144068Y-113544650D01*
X65326046Y-113620214D01*
X65523089Y-113620386D01*
X65705199Y-113545140D01*
X65844650Y-113405932D01*
X65920214Y-113223954D01*
X65920386Y-113026911D01*
X65920386Y-114326911D01*
X65845140Y-114144801D01*
X65705932Y-114005350D01*
X65523954Y-113929786D01*
X65326911Y-113929614D01*
X65144801Y-114004860D01*
X65005350Y-114144068D01*
X64929786Y-114326046D01*
X64929614Y-114523089D01*
X65004860Y-114705199D01*
X65144068Y-114844650D01*
X65326046Y-114920214D01*
X65523089Y-114920386D01*
X65705199Y-114845140D01*
X65844650Y-114705932D01*
X65920214Y-114523954D01*
X65920386Y-114326911D01*
X65920386Y-115626911D01*
X65845140Y-115444801D01*
X65705932Y-115305350D01*
X65523954Y-115229786D01*
X65326911Y-115229614D01*
X65144801Y-115304860D01*
X65005350Y-115444068D01*
X64929786Y-115626046D01*
X64929614Y-115823089D01*
X65004860Y-116005199D01*
X65144068Y-116144650D01*
X65326046Y-116220214D01*
X65523089Y-116220386D01*
X65705199Y-116145140D01*
X65844650Y-116005932D01*
X65920214Y-115823954D01*
X65920386Y-115626911D01*
X65920386Y-116926911D01*
X65845140Y-116744801D01*
X65705932Y-116605350D01*
X65523954Y-116529786D01*
X65326911Y-116529614D01*
X65144801Y-116604860D01*
X65005350Y-116744068D01*
X64929786Y-116926046D01*
X64929614Y-117123089D01*
X65004860Y-117305199D01*
X65144068Y-117444650D01*
X65326046Y-117520214D01*
X65523089Y-117520386D01*
X65705199Y-117445140D01*
X65844650Y-117305932D01*
X65920214Y-117123954D01*
X65920386Y-116926911D01*
X65920386Y-118226911D01*
X65845140Y-118044801D01*
X65705932Y-117905350D01*
X65523954Y-117829786D01*
X65326911Y-117829614D01*
X65144801Y-117904860D01*
X65005350Y-118044068D01*
X64929786Y-118226046D01*
X64929614Y-118423089D01*
X65004860Y-118605199D01*
X65144068Y-118744650D01*
X65326046Y-118820214D01*
X65523089Y-118820386D01*
X65705199Y-118745140D01*
X65844650Y-118605932D01*
X65920214Y-118423954D01*
X65920386Y-118226911D01*
X65920386Y-142436500D01*
X65560753Y-142436500D01*
X65560753Y-139400763D01*
X65338874Y-138863774D01*
X64928387Y-138452570D01*
X64391786Y-138229754D01*
X63810763Y-138229247D01*
X63273774Y-138451126D01*
X62862570Y-138861613D01*
X62639754Y-139398214D01*
X62639247Y-139979237D01*
X62861126Y-140516226D01*
X63271613Y-140927430D01*
X63808214Y-141150246D01*
X64389237Y-141150753D01*
X64926226Y-140928874D01*
X65337430Y-140518387D01*
X65560246Y-139981786D01*
X65560753Y-139400763D01*
X65560753Y-142436500D01*
X60063500Y-142436500D01*
X60063500Y-100063500D01*
X99936500Y-100063500D01*
X99936500Y-142436500D01*
X99936500Y-142436500D01*
G37*
X99936500Y-142436500D02*
X99574100Y-142436500D01*
X99574100Y-138470651D01*
X99574100Y-138429349D01*
X99574100Y-135930651D01*
X99574100Y-135889349D01*
X99493861Y-135485962D01*
X99477546Y-135461544D01*
X99477546Y-132536971D01*
X99402300Y-132354861D01*
X99263092Y-132215410D01*
X99081114Y-132139846D01*
X98884071Y-132139674D01*
X98701961Y-132214920D01*
X98562510Y-132354128D01*
X98486946Y-132536106D01*
X98486774Y-132733149D01*
X98562020Y-132915259D01*
X98701228Y-133054710D01*
X98883206Y-133130274D01*
X99080249Y-133130446D01*
X99262359Y-133055200D01*
X99401810Y-132915992D01*
X99477374Y-132734014D01*
X99477546Y-132536971D01*
X99477546Y-135461544D01*
X99265361Y-135143988D01*
X98923387Y-134915488D01*
X98520000Y-134835249D01*
X98116613Y-134915488D01*
X97774639Y-135143988D01*
X97546139Y-135485962D01*
X97465900Y-135889349D01*
X97465900Y-135930651D01*
X97546139Y-136334038D01*
X97774639Y-136676012D01*
X98116613Y-136904512D01*
X98520000Y-136984751D01*
X98923387Y-136904512D01*
X99265361Y-136676012D01*
X99493861Y-136334038D01*
X99574100Y-135930651D01*
X99574100Y-138429349D01*
X99493861Y-138025962D01*
X99265361Y-137683988D01*
X98923387Y-137455488D01*
X98520000Y-137375249D01*
X98116613Y-137455488D01*
X97774639Y-137683988D01*
X97546139Y-138025962D01*
X97465900Y-138429349D01*
X97465900Y-138470651D01*
X97546139Y-138874038D01*
X97774639Y-139216012D01*
X98116613Y-139444512D01*
X98520000Y-139524751D01*
X98923387Y-139444512D01*
X99265361Y-139216012D01*
X99493861Y-138874038D01*
X99574100Y-138470651D01*
X99574100Y-142436500D01*
X97445386Y-142436500D01*
X97445386Y-124851911D01*
X97370140Y-124669801D01*
X97251593Y-124551047D01*
X97251593Y-108306422D01*
X97233813Y-108263391D01*
X97233813Y-104016362D01*
X97170143Y-103862269D01*
X97052351Y-103744271D01*
X96898370Y-103680333D01*
X96731642Y-103680187D01*
X96577549Y-103743857D01*
X96459551Y-103861649D01*
X96422533Y-103950798D01*
X96364963Y-103811469D01*
X96247171Y-103693471D01*
X96093190Y-103629533D01*
X95926462Y-103629387D01*
X95772369Y-103693057D01*
X95654371Y-103810849D01*
X95614196Y-103907600D01*
X95559783Y-103775909D01*
X95441991Y-103657911D01*
X95288010Y-103593973D01*
X95121282Y-103593827D01*
X94967189Y-103657497D01*
X94849191Y-103775289D01*
X94806881Y-103877182D01*
X94772383Y-103793689D01*
X94654591Y-103675691D01*
X94500610Y-103611753D01*
X94333882Y-103611607D01*
X94179789Y-103675277D01*
X94061791Y-103793069D01*
X93997853Y-103947050D01*
X93997707Y-104113778D01*
X94061377Y-104267871D01*
X94179169Y-104385869D01*
X94333150Y-104449807D01*
X94499878Y-104449953D01*
X94653971Y-104386283D01*
X94771969Y-104268491D01*
X94814278Y-104166597D01*
X94848777Y-104250091D01*
X94966569Y-104368089D01*
X95120550Y-104432027D01*
X95287278Y-104432173D01*
X95441371Y-104368503D01*
X95559369Y-104250711D01*
X95599543Y-104153959D01*
X95653957Y-104285651D01*
X95771749Y-104403649D01*
X95925730Y-104467587D01*
X96092458Y-104467733D01*
X96246551Y-104404063D01*
X96364549Y-104286271D01*
X96401566Y-104197121D01*
X96459137Y-104336451D01*
X96576929Y-104454449D01*
X96730910Y-104518387D01*
X96897638Y-104518533D01*
X97051731Y-104454863D01*
X97169729Y-104337071D01*
X97233667Y-104183090D01*
X97233813Y-104016362D01*
X97233813Y-108263391D01*
X97187923Y-108152329D01*
X97070131Y-108034331D01*
X96916150Y-107970393D01*
X96749422Y-107970247D01*
X96595329Y-108033917D01*
X96477331Y-108151709D01*
X96413393Y-108305690D01*
X96413247Y-108472418D01*
X96476917Y-108626511D01*
X96594709Y-108744509D01*
X96748690Y-108808447D01*
X96915418Y-108808593D01*
X97069511Y-108744923D01*
X97187509Y-108627131D01*
X97251447Y-108473150D01*
X97251593Y-108306422D01*
X97251593Y-124551047D01*
X97230932Y-124530350D01*
X97069173Y-124463181D01*
X97069173Y-113567002D01*
X97005503Y-113412909D01*
X96887711Y-113294911D01*
X96733730Y-113230973D01*
X96567002Y-113230827D01*
X96446413Y-113280653D01*
X96446413Y-109078582D01*
X96382743Y-108924489D01*
X96264951Y-108806491D01*
X96110970Y-108742553D01*
X95944242Y-108742407D01*
X95790149Y-108806077D01*
X95672151Y-108923869D01*
X95608213Y-109077850D01*
X95608067Y-109244578D01*
X95671737Y-109398671D01*
X95789529Y-109516669D01*
X95943510Y-109580607D01*
X96110238Y-109580753D01*
X96264331Y-109517083D01*
X96382329Y-109399291D01*
X96446267Y-109245310D01*
X96446413Y-109078582D01*
X96446413Y-113280653D01*
X96412909Y-113294497D01*
X96294911Y-113412289D01*
X96230973Y-113566270D01*
X96230827Y-113732998D01*
X96294497Y-113887091D01*
X96412289Y-114005089D01*
X96566270Y-114069027D01*
X96732998Y-114069173D01*
X96887091Y-114005503D01*
X97005089Y-113887711D01*
X97069027Y-113733730D01*
X97069173Y-113567002D01*
X97069173Y-124463181D01*
X97048954Y-124454786D01*
X96851911Y-124454614D01*
X96669801Y-124529860D01*
X96530350Y-124669068D01*
X96454786Y-124851046D01*
X96454614Y-125048089D01*
X96529860Y-125230199D01*
X96669068Y-125369650D01*
X96851046Y-125445214D01*
X97048089Y-125445386D01*
X97230199Y-125370140D01*
X97369650Y-125230932D01*
X97445214Y-125048954D01*
X97445386Y-124851911D01*
X97445386Y-142436500D01*
X97034100Y-142436500D01*
X97034100Y-141010651D01*
X97034100Y-140969349D01*
X97034100Y-138470651D01*
X97034100Y-138429349D01*
X97034100Y-136811493D01*
X97034100Y-136735707D01*
X97034100Y-135008507D01*
X97005098Y-134938490D01*
X96951509Y-134884902D01*
X96881493Y-134855900D01*
X96805707Y-134855900D01*
X96245386Y-134855900D01*
X96245386Y-124851911D01*
X96170140Y-124669801D01*
X96030932Y-124530350D01*
X95848954Y-124454786D01*
X95795386Y-124454739D01*
X95795386Y-120501911D01*
X95720140Y-120319801D01*
X95641233Y-120240756D01*
X95641233Y-109883762D01*
X95577563Y-109729669D01*
X95459771Y-109611671D01*
X95305790Y-109547733D01*
X95139062Y-109547587D01*
X94984969Y-109611257D01*
X94866971Y-109729049D01*
X94803033Y-109883030D01*
X94802995Y-109925373D01*
X94690151Y-109812331D01*
X94536170Y-109748393D01*
X94369442Y-109748247D01*
X94215349Y-109811917D01*
X94097351Y-109929709D01*
X94033413Y-110083690D01*
X94033267Y-110250418D01*
X94096937Y-110404511D01*
X94214729Y-110522509D01*
X94368710Y-110586447D01*
X94535438Y-110586593D01*
X94689531Y-110522923D01*
X94807529Y-110405131D01*
X94871467Y-110251150D01*
X94871504Y-110208806D01*
X94984349Y-110321849D01*
X95138330Y-110385787D01*
X95305058Y-110385933D01*
X95459151Y-110322263D01*
X95577149Y-110204471D01*
X95641087Y-110050490D01*
X95641233Y-109883762D01*
X95641233Y-120240756D01*
X95580932Y-120180350D01*
X95398954Y-120104786D01*
X95201911Y-120104614D01*
X95019801Y-120179860D01*
X94880350Y-120319068D01*
X94804786Y-120501046D01*
X94804614Y-120698089D01*
X94879860Y-120880199D01*
X95019068Y-121019650D01*
X95201046Y-121095214D01*
X95398089Y-121095386D01*
X95580199Y-121020140D01*
X95719650Y-120880932D01*
X95795214Y-120698954D01*
X95795386Y-120501911D01*
X95795386Y-124454739D01*
X95651911Y-124454614D01*
X95469801Y-124529860D01*
X95330350Y-124669068D01*
X95254786Y-124851046D01*
X95254614Y-125048089D01*
X95329860Y-125230199D01*
X95469068Y-125369650D01*
X95651046Y-125445214D01*
X95848089Y-125445386D01*
X96030199Y-125370140D01*
X96169650Y-125230932D01*
X96245214Y-125048954D01*
X96245386Y-124851911D01*
X96245386Y-134855900D01*
X95078507Y-134855900D01*
X95008490Y-134884902D01*
X94954902Y-134938491D01*
X94925900Y-135008507D01*
X94925900Y-135084293D01*
X94925900Y-136811493D01*
X94954902Y-136881510D01*
X95008491Y-136935098D01*
X95078507Y-136964100D01*
X95154293Y-136964100D01*
X96881493Y-136964100D01*
X96951510Y-136935098D01*
X97005098Y-136881509D01*
X97034100Y-136811493D01*
X97034100Y-138429349D01*
X96953861Y-138025962D01*
X96725361Y-137683988D01*
X96383387Y-137455488D01*
X95980000Y-137375249D01*
X95576613Y-137455488D01*
X95234639Y-137683988D01*
X95006139Y-138025962D01*
X94925900Y-138429349D01*
X94925900Y-138470651D01*
X95006139Y-138874038D01*
X95234639Y-139216012D01*
X95576613Y-139444512D01*
X95980000Y-139524751D01*
X96383387Y-139444512D01*
X96725361Y-139216012D01*
X96953861Y-138874038D01*
X97034100Y-138470651D01*
X97034100Y-140969349D01*
X96953861Y-140565962D01*
X96725361Y-140223988D01*
X96383387Y-139995488D01*
X95980000Y-139915249D01*
X95576613Y-139995488D01*
X95234639Y-140223988D01*
X95006139Y-140565962D01*
X94925900Y-140969349D01*
X94925900Y-141010651D01*
X95006139Y-141414038D01*
X95234639Y-141756012D01*
X95576613Y-141984512D01*
X95980000Y-142064751D01*
X96383387Y-141984512D01*
X96725361Y-141756012D01*
X96953861Y-141414038D01*
X97034100Y-141010651D01*
X97034100Y-142436500D01*
X94494066Y-142436500D01*
X94494066Y-127340131D01*
X94418820Y-127158021D01*
X94279612Y-127018570D01*
X94097634Y-126943006D01*
X93900591Y-126942834D01*
X93718481Y-127018080D01*
X93700063Y-127036465D01*
X93700063Y-125767002D01*
X93636393Y-125612909D01*
X93569172Y-125545570D01*
X93569172Y-115717002D01*
X93569172Y-114667002D01*
X93505502Y-114512909D01*
X93387711Y-114394912D01*
X93233730Y-114330974D01*
X93207913Y-114330951D01*
X93207913Y-110076842D01*
X93207913Y-103970642D01*
X93144243Y-103816549D01*
X93026451Y-103698551D01*
X92872470Y-103634613D01*
X92705742Y-103634467D01*
X92551649Y-103698137D01*
X92433651Y-103815929D01*
X92402388Y-103891217D01*
X92356843Y-103780989D01*
X92239051Y-103662991D01*
X92085070Y-103599053D01*
X91918342Y-103598907D01*
X91764249Y-103662577D01*
X91646251Y-103780369D01*
X91582313Y-103934350D01*
X91582167Y-104101078D01*
X91645837Y-104255171D01*
X91763629Y-104373169D01*
X91917610Y-104437107D01*
X92084338Y-104437253D01*
X92238431Y-104373583D01*
X92356429Y-104255791D01*
X92387691Y-104180502D01*
X92433237Y-104290731D01*
X92551029Y-104408729D01*
X92705010Y-104472667D01*
X92871738Y-104472813D01*
X93025831Y-104409143D01*
X93143829Y-104291351D01*
X93207767Y-104137370D01*
X93207913Y-103970642D01*
X93207913Y-110076842D01*
X93144243Y-109922749D01*
X93026451Y-109804751D01*
X92872470Y-109740813D01*
X92705742Y-109740667D01*
X92551649Y-109804337D01*
X92433651Y-109922129D01*
X92369713Y-110076110D01*
X92369567Y-110242838D01*
X92433237Y-110396931D01*
X92551029Y-110514929D01*
X92705010Y-110578867D01*
X92871738Y-110579013D01*
X93025831Y-110515343D01*
X93143829Y-110397551D01*
X93207767Y-110243570D01*
X93207913Y-110076842D01*
X93207913Y-114330951D01*
X93067002Y-114330828D01*
X92912909Y-114394498D01*
X92794912Y-114512289D01*
X92730974Y-114666270D01*
X92730828Y-114832998D01*
X92794498Y-114987091D01*
X92912289Y-115105088D01*
X93066270Y-115169026D01*
X93232998Y-115169172D01*
X93387091Y-115105502D01*
X93505088Y-114987711D01*
X93569026Y-114833730D01*
X93569172Y-114667002D01*
X93569172Y-115717002D01*
X93505502Y-115562909D01*
X93387711Y-115444912D01*
X93233730Y-115380974D01*
X93067002Y-115380828D01*
X92912909Y-115444498D01*
X92794912Y-115562289D01*
X92730974Y-115716270D01*
X92730828Y-115882998D01*
X92794498Y-116037091D01*
X92912289Y-116155088D01*
X93066270Y-116219026D01*
X93232998Y-116219172D01*
X93387091Y-116155502D01*
X93505088Y-116037711D01*
X93569026Y-115883730D01*
X93569172Y-115717002D01*
X93569172Y-125545570D01*
X93518602Y-125494912D01*
X93364621Y-125430974D01*
X93197893Y-125430828D01*
X93043800Y-125494498D01*
X92925803Y-125612289D01*
X92861865Y-125766270D01*
X92861719Y-125932998D01*
X92925389Y-126087091D01*
X93043180Y-126205088D01*
X93197161Y-126269026D01*
X93363889Y-126269172D01*
X93517982Y-126205502D01*
X93635979Y-126087711D01*
X93699917Y-125933730D01*
X93700063Y-125767002D01*
X93700063Y-127036465D01*
X93579030Y-127157288D01*
X93503466Y-127339266D01*
X93503294Y-127536309D01*
X93578540Y-127718419D01*
X93717748Y-127857870D01*
X93899726Y-127933434D01*
X94096769Y-127933606D01*
X94278879Y-127858360D01*
X94418330Y-127719152D01*
X94493894Y-127537174D01*
X94494066Y-127340131D01*
X94494066Y-142436500D01*
X93771606Y-142436500D01*
X93771606Y-140768531D01*
X93696360Y-140586421D01*
X93630466Y-140520411D01*
X93630466Y-131388891D01*
X93555220Y-131206781D01*
X93416012Y-131067330D01*
X93234034Y-130991766D01*
X93036991Y-130991594D01*
X92854881Y-131066840D01*
X92715430Y-131206048D01*
X92639866Y-131388026D01*
X92639694Y-131585069D01*
X92714940Y-131767179D01*
X92854148Y-131906630D01*
X93036126Y-131982194D01*
X93233169Y-131982366D01*
X93415279Y-131907120D01*
X93554730Y-131767912D01*
X93630294Y-131585934D01*
X93630466Y-131388891D01*
X93630466Y-140520411D01*
X93557152Y-140446970D01*
X93375174Y-140371406D01*
X93178131Y-140371234D01*
X92996021Y-140446480D01*
X92856570Y-140585688D01*
X92781006Y-140767666D01*
X92780834Y-140964709D01*
X92856080Y-141146819D01*
X92995288Y-141286270D01*
X93177266Y-141361834D01*
X93374309Y-141362006D01*
X93556419Y-141286760D01*
X93695870Y-141147552D01*
X93771434Y-140965574D01*
X93771606Y-140768531D01*
X93771606Y-142436500D01*
X92245253Y-142436500D01*
X92245253Y-110076842D01*
X92181583Y-109922749D01*
X92063791Y-109804751D01*
X91909810Y-109740813D01*
X91743082Y-109740667D01*
X91588989Y-109804337D01*
X91470991Y-109922129D01*
X91407053Y-110076110D01*
X91406907Y-110242838D01*
X91470577Y-110396931D01*
X91588369Y-110514929D01*
X91742350Y-110578867D01*
X91909078Y-110579013D01*
X92063171Y-110515343D01*
X92181169Y-110397551D01*
X92245107Y-110243570D01*
X92245253Y-110076842D01*
X92245253Y-142436500D01*
X91545386Y-142436500D01*
X91545386Y-127551911D01*
X91470140Y-127369801D01*
X91330932Y-127230350D01*
X91148954Y-127154786D01*
X90951911Y-127154614D01*
X90769801Y-127229860D01*
X90630350Y-127369068D01*
X90581257Y-127487296D01*
X90581257Y-112529087D01*
X90517587Y-112374994D01*
X90399796Y-112256997D01*
X90245815Y-112193059D01*
X90079087Y-112192913D01*
X90007513Y-112222486D01*
X90007513Y-103945242D01*
X89943843Y-103791149D01*
X89826051Y-103673151D01*
X89672070Y-103609213D01*
X89505342Y-103609067D01*
X89351249Y-103672737D01*
X89233251Y-103790529D01*
X89169313Y-103944510D01*
X89169271Y-103992226D01*
X89138663Y-103918149D01*
X89020871Y-103800151D01*
X88866890Y-103736213D01*
X88700162Y-103736067D01*
X88546069Y-103799737D01*
X88428071Y-103917529D01*
X88364133Y-104071510D01*
X88363987Y-104238238D01*
X88427657Y-104392331D01*
X88545449Y-104510329D01*
X88699430Y-104574267D01*
X88866158Y-104574413D01*
X89020251Y-104510743D01*
X89138249Y-104392951D01*
X89202187Y-104238970D01*
X89202228Y-104191253D01*
X89232837Y-104265331D01*
X89350629Y-104383329D01*
X89504610Y-104447267D01*
X89671338Y-104447413D01*
X89825431Y-104383743D01*
X89943429Y-104265951D01*
X90007367Y-104111970D01*
X90007513Y-103945242D01*
X90007513Y-112222486D01*
X89924994Y-112256583D01*
X89806997Y-112374374D01*
X89743059Y-112528355D01*
X89742913Y-112695083D01*
X89806583Y-112849176D01*
X89924374Y-112967173D01*
X90078355Y-113031111D01*
X90245083Y-113031257D01*
X90399176Y-112967587D01*
X90517173Y-112849796D01*
X90581111Y-112695815D01*
X90581257Y-112529087D01*
X90581257Y-127487296D01*
X90554786Y-127551046D01*
X90554614Y-127748089D01*
X90629860Y-127930199D01*
X90769068Y-128069650D01*
X90951046Y-128145214D01*
X91148089Y-128145386D01*
X91330199Y-128070140D01*
X91469650Y-127930932D01*
X91545214Y-127748954D01*
X91545386Y-127551911D01*
X91545386Y-142436500D01*
X90279172Y-142436500D01*
X90279172Y-119927002D01*
X90215502Y-119772909D01*
X90097711Y-119654912D01*
X89943730Y-119590974D01*
X89777002Y-119590828D01*
X89719172Y-119614722D01*
X89719172Y-119267002D01*
X89655502Y-119112909D01*
X89537711Y-118994912D01*
X89383730Y-118930974D01*
X89217002Y-118930828D01*
X89062909Y-118994498D01*
X88944912Y-119112289D01*
X88880974Y-119266270D01*
X88880828Y-119432998D01*
X88944498Y-119587091D01*
X89062289Y-119705088D01*
X89216270Y-119769026D01*
X89382998Y-119769172D01*
X89537091Y-119705502D01*
X89655088Y-119587711D01*
X89719026Y-119433730D01*
X89719172Y-119267002D01*
X89719172Y-119614722D01*
X89622909Y-119654498D01*
X89504912Y-119772289D01*
X89440974Y-119926270D01*
X89440828Y-120092998D01*
X89504498Y-120247091D01*
X89622289Y-120365088D01*
X89776270Y-120429026D01*
X89942998Y-120429172D01*
X90097091Y-120365502D01*
X90215088Y-120247711D01*
X90279026Y-120093730D01*
X90279172Y-119927002D01*
X90279172Y-142436500D01*
X89669172Y-142436500D01*
X89669172Y-122217002D01*
X89605502Y-122062909D01*
X89487711Y-121944912D01*
X89333730Y-121880974D01*
X89167002Y-121880828D01*
X89045386Y-121931078D01*
X89045386Y-119801911D01*
X88970140Y-119619801D01*
X88830932Y-119480350D01*
X88648954Y-119404786D01*
X88451911Y-119404614D01*
X88269801Y-119479860D01*
X88130350Y-119619068D01*
X88069172Y-119766400D01*
X88069172Y-116569061D01*
X88005502Y-116414968D01*
X87887711Y-116296971D01*
X87733730Y-116233033D01*
X87589433Y-116232906D01*
X87589433Y-104143362D01*
X87525763Y-103989269D01*
X87407971Y-103871271D01*
X87253990Y-103807333D01*
X87087262Y-103807187D01*
X86933169Y-103870857D01*
X86815171Y-103988649D01*
X86789275Y-104051013D01*
X86763763Y-103989269D01*
X86645971Y-103871271D01*
X86491990Y-103807333D01*
X86325262Y-103807187D01*
X86171169Y-103870857D01*
X86053171Y-103988649D01*
X85989233Y-104142630D01*
X85989087Y-104309358D01*
X86052757Y-104463451D01*
X86170549Y-104581449D01*
X86324530Y-104645387D01*
X86491258Y-104645533D01*
X86645351Y-104581863D01*
X86763349Y-104464071D01*
X86789244Y-104401706D01*
X86814757Y-104463451D01*
X86932549Y-104581449D01*
X87086530Y-104645387D01*
X87253258Y-104645533D01*
X87407351Y-104581863D01*
X87525349Y-104464071D01*
X87589287Y-104310090D01*
X87589433Y-104143362D01*
X87589433Y-116232906D01*
X87567002Y-116232887D01*
X87412909Y-116296557D01*
X87294912Y-116414348D01*
X87230974Y-116568329D01*
X87230828Y-116735057D01*
X87294498Y-116889150D01*
X87412289Y-117007147D01*
X87566270Y-117071085D01*
X87732998Y-117071231D01*
X87887091Y-117007561D01*
X88005088Y-116889770D01*
X88069026Y-116735789D01*
X88069172Y-116569061D01*
X88069172Y-119766400D01*
X88054786Y-119801046D01*
X88054614Y-119998089D01*
X88129860Y-120180199D01*
X88269068Y-120319650D01*
X88451046Y-120395214D01*
X88648089Y-120395386D01*
X88830199Y-120320140D01*
X88969650Y-120180932D01*
X89045214Y-119998954D01*
X89045386Y-119801911D01*
X89045386Y-121931078D01*
X89012909Y-121944498D01*
X88894912Y-122062289D01*
X88830974Y-122216270D01*
X88830828Y-122382998D01*
X88894498Y-122537091D01*
X89012289Y-122655088D01*
X89166270Y-122719026D01*
X89332998Y-122719172D01*
X89487091Y-122655502D01*
X89605088Y-122537711D01*
X89669026Y-122383730D01*
X89669172Y-122217002D01*
X89669172Y-142436500D01*
X88645386Y-142436500D01*
X88645386Y-135751911D01*
X88570140Y-135569801D01*
X88430932Y-135430350D01*
X88248954Y-135354786D01*
X88051911Y-135354614D01*
X87869801Y-135429860D01*
X87730350Y-135569068D01*
X87654786Y-135751046D01*
X87654614Y-135948089D01*
X87729860Y-136130199D01*
X87869068Y-136269650D01*
X88051046Y-136345214D01*
X88248089Y-136345386D01*
X88430199Y-136270140D01*
X88569650Y-136130932D01*
X88645214Y-135948954D01*
X88645386Y-135751911D01*
X88645386Y-142436500D01*
X87866106Y-142436500D01*
X87866106Y-139696651D01*
X87790860Y-139514541D01*
X87651652Y-139375090D01*
X87469674Y-139299526D01*
X87272631Y-139299354D01*
X87090521Y-139374600D01*
X86951070Y-139513808D01*
X86919172Y-139590626D01*
X86919172Y-120017002D01*
X86855502Y-119862909D01*
X86737711Y-119744912D01*
X86668555Y-119716196D01*
X86668555Y-117066385D01*
X86604885Y-116912292D01*
X86487094Y-116794295D01*
X86333113Y-116730357D01*
X86166385Y-116730211D01*
X86012292Y-116793881D01*
X85894295Y-116911672D01*
X85830357Y-117065653D01*
X85830211Y-117232381D01*
X85893881Y-117386474D01*
X86011672Y-117504471D01*
X86165653Y-117568409D01*
X86332381Y-117568555D01*
X86486474Y-117504885D01*
X86604471Y-117387094D01*
X86668409Y-117233113D01*
X86668555Y-117066385D01*
X86668555Y-119716196D01*
X86583730Y-119680974D01*
X86417002Y-119680828D01*
X86262909Y-119744498D01*
X86144912Y-119862289D01*
X86080974Y-120016270D01*
X86080828Y-120182998D01*
X86144498Y-120337091D01*
X86262289Y-120455088D01*
X86416270Y-120519026D01*
X86582998Y-120519172D01*
X86737091Y-120455502D01*
X86855088Y-120337711D01*
X86919026Y-120183730D01*
X86919172Y-120017002D01*
X86919172Y-139590626D01*
X86875506Y-139695786D01*
X86875334Y-139892829D01*
X86950580Y-140074939D01*
X87089788Y-140214390D01*
X87271766Y-140289954D01*
X87468809Y-140290126D01*
X87650919Y-140214880D01*
X87790370Y-140075672D01*
X87865934Y-139893694D01*
X87866106Y-139696651D01*
X87866106Y-142436500D01*
X86539315Y-142436500D01*
X86539315Y-127021436D01*
X86484313Y-126888321D01*
X86484313Y-123156872D01*
X86420643Y-123002779D01*
X86302852Y-122884782D01*
X86148871Y-122820844D01*
X85982143Y-122820698D01*
X85828050Y-122884368D01*
X85710053Y-123002159D01*
X85646115Y-123156140D01*
X85645969Y-123322868D01*
X85709639Y-123476961D01*
X85827430Y-123594958D01*
X85981411Y-123658896D01*
X86148139Y-123659042D01*
X86302232Y-123595372D01*
X86420229Y-123477581D01*
X86484167Y-123323600D01*
X86484313Y-123156872D01*
X86484313Y-126888321D01*
X86475645Y-126867343D01*
X86357854Y-126749346D01*
X86203873Y-126685408D01*
X86037145Y-126685262D01*
X85883052Y-126748932D01*
X85765055Y-126866723D01*
X85701117Y-127020704D01*
X85700971Y-127187432D01*
X85764641Y-127341525D01*
X85882432Y-127459522D01*
X86036413Y-127523460D01*
X86203141Y-127523606D01*
X86357234Y-127459936D01*
X86475231Y-127342145D01*
X86539169Y-127188164D01*
X86539315Y-127021436D01*
X86539315Y-142436500D01*
X85629721Y-142436500D01*
X85629721Y-114266451D01*
X85566051Y-114112358D01*
X85448259Y-113994360D01*
X85339905Y-113949368D01*
X85447638Y-113904854D01*
X85565636Y-113787062D01*
X85629574Y-113633081D01*
X85629720Y-113466353D01*
X85566050Y-113312260D01*
X85448258Y-113194262D01*
X85294277Y-113130324D01*
X85178973Y-113130223D01*
X85178973Y-104143362D01*
X85115303Y-103989269D01*
X84997511Y-103871271D01*
X84843530Y-103807333D01*
X84676802Y-103807187D01*
X84522709Y-103870857D01*
X84413920Y-103979455D01*
X84381243Y-103900369D01*
X84263451Y-103782371D01*
X84109470Y-103718433D01*
X83942742Y-103718287D01*
X83788649Y-103781957D01*
X83670651Y-103899749D01*
X83606713Y-104053730D01*
X83606567Y-104220458D01*
X83670237Y-104374551D01*
X83788029Y-104492549D01*
X83942010Y-104556487D01*
X84108738Y-104556633D01*
X84262831Y-104492963D01*
X84371619Y-104384364D01*
X84404297Y-104463451D01*
X84522089Y-104581449D01*
X84676070Y-104645387D01*
X84842798Y-104645533D01*
X84996891Y-104581863D01*
X85114889Y-104464071D01*
X85178827Y-104310090D01*
X85178973Y-104143362D01*
X85178973Y-113130223D01*
X85127549Y-113130178D01*
X84973456Y-113193848D01*
X84855458Y-113311640D01*
X84802037Y-113440291D01*
X84751191Y-113317233D01*
X84633400Y-113199236D01*
X84479419Y-113135298D01*
X84312691Y-113135152D01*
X84158598Y-113198822D01*
X84040601Y-113316613D01*
X83998713Y-113417489D01*
X83955502Y-113312909D01*
X83837711Y-113194912D01*
X83683730Y-113130974D01*
X83517002Y-113130828D01*
X83395386Y-113181078D01*
X83395386Y-105451911D01*
X83320140Y-105269801D01*
X83180932Y-105130350D01*
X82998954Y-105054786D01*
X82801911Y-105054614D01*
X82619801Y-105129860D01*
X82480350Y-105269068D01*
X82404786Y-105451046D01*
X82404614Y-105648089D01*
X82479860Y-105830199D01*
X82619068Y-105969650D01*
X82801046Y-106045214D01*
X82998089Y-106045386D01*
X83180199Y-105970140D01*
X83319650Y-105830932D01*
X83395214Y-105648954D01*
X83395386Y-105451911D01*
X83395386Y-113181078D01*
X83362909Y-113194498D01*
X83244912Y-113312289D01*
X83205239Y-113407831D01*
X83165750Y-113312259D01*
X83047958Y-113194261D01*
X82893977Y-113130323D01*
X82727249Y-113130177D01*
X82573156Y-113193847D01*
X82455158Y-113311639D01*
X82445386Y-113335172D01*
X82445386Y-111651911D01*
X82370140Y-111469801D01*
X82230932Y-111330350D01*
X82048954Y-111254786D01*
X82011593Y-111254753D01*
X82011593Y-103996042D01*
X81947923Y-103841949D01*
X81830131Y-103723951D01*
X81676150Y-103660013D01*
X81509422Y-103659867D01*
X81355329Y-103723537D01*
X81237331Y-103841329D01*
X81173393Y-103995310D01*
X81173352Y-104041812D01*
X81127503Y-103930849D01*
X81009711Y-103812851D01*
X80855730Y-103748913D01*
X80689002Y-103748767D01*
X80534909Y-103812437D01*
X80416911Y-103930229D01*
X80352973Y-104084210D01*
X80352827Y-104250938D01*
X80416497Y-104405031D01*
X80534289Y-104523029D01*
X80688270Y-104586967D01*
X80854998Y-104587113D01*
X81009091Y-104523443D01*
X81127089Y-104405651D01*
X81191027Y-104251670D01*
X81191067Y-104205167D01*
X81236917Y-104316131D01*
X81354709Y-104434129D01*
X81508690Y-104498067D01*
X81675418Y-104498213D01*
X81829511Y-104434543D01*
X81947509Y-104316751D01*
X82011447Y-104162770D01*
X82011593Y-103996042D01*
X82011593Y-111254753D01*
X81851911Y-111254614D01*
X81669801Y-111329860D01*
X81530350Y-111469068D01*
X81454786Y-111651046D01*
X81454614Y-111848089D01*
X81529860Y-112030199D01*
X81669068Y-112169650D01*
X81851046Y-112245214D01*
X82048089Y-112245386D01*
X82230199Y-112170140D01*
X82369650Y-112030932D01*
X82445214Y-111848954D01*
X82445386Y-111651911D01*
X82445386Y-113335172D01*
X82391220Y-113465620D01*
X82391074Y-113632348D01*
X82454744Y-113786441D01*
X82572536Y-113904439D01*
X82667925Y-113944047D01*
X82557833Y-113989537D01*
X82439836Y-114107328D01*
X82375898Y-114261309D01*
X82375752Y-114428037D01*
X82439422Y-114582130D01*
X82557213Y-114700127D01*
X82711194Y-114764065D01*
X82877922Y-114764211D01*
X83032015Y-114700541D01*
X83150012Y-114582750D01*
X83213950Y-114428769D01*
X83214096Y-114262041D01*
X83150426Y-114107948D01*
X83032635Y-113989951D01*
X82937245Y-113950342D01*
X83047338Y-113904853D01*
X83165336Y-113787061D01*
X83205008Y-113691518D01*
X83244498Y-113787091D01*
X83362289Y-113905088D01*
X83516270Y-113969026D01*
X83682998Y-113969172D01*
X83837091Y-113905502D01*
X83955088Y-113787711D01*
X83996975Y-113686834D01*
X84040187Y-113791415D01*
X84157978Y-113909412D01*
X84311959Y-113973350D01*
X84478687Y-113973496D01*
X84632780Y-113909826D01*
X84750777Y-113792035D01*
X84804197Y-113663383D01*
X84855044Y-113786442D01*
X84972836Y-113904440D01*
X85081189Y-113949431D01*
X84973457Y-113993946D01*
X84855459Y-114111738D01*
X84791521Y-114265719D01*
X84791375Y-114432447D01*
X84855045Y-114586540D01*
X84972837Y-114704538D01*
X85126818Y-114768476D01*
X85293546Y-114768622D01*
X85447639Y-114704952D01*
X85565637Y-114587160D01*
X85629575Y-114433179D01*
X85629721Y-114266451D01*
X85629721Y-142436500D01*
X85624125Y-142436500D01*
X85624125Y-122272986D01*
X85590180Y-122190832D01*
X85590180Y-118309759D01*
X85583046Y-118292493D01*
X85583046Y-115891211D01*
X85519376Y-115737118D01*
X85401584Y-115619120D01*
X85247603Y-115555182D01*
X85080875Y-115555036D01*
X84926782Y-115618706D01*
X84809824Y-115735459D01*
X84809824Y-115066552D01*
X84746154Y-114912459D01*
X84628363Y-114794462D01*
X84474382Y-114730524D01*
X84307654Y-114730378D01*
X84153561Y-114794048D01*
X84035564Y-114911839D01*
X83971626Y-115065820D01*
X83971480Y-115232548D01*
X84035150Y-115386641D01*
X84152941Y-115504638D01*
X84306922Y-115568576D01*
X84473650Y-115568722D01*
X84627743Y-115505052D01*
X84745740Y-115387261D01*
X84809678Y-115233280D01*
X84809824Y-115066552D01*
X84809824Y-115735459D01*
X84808784Y-115736498D01*
X84744846Y-115890479D01*
X84744700Y-116057207D01*
X84808370Y-116211300D01*
X84926162Y-116329298D01*
X85080143Y-116393236D01*
X85246871Y-116393382D01*
X85400964Y-116329712D01*
X85518962Y-116211920D01*
X85582900Y-116057939D01*
X85583046Y-115891211D01*
X85583046Y-118292493D01*
X85526510Y-118155666D01*
X85408719Y-118037669D01*
X85254738Y-117973731D01*
X85088010Y-117973585D01*
X84933917Y-118037255D01*
X84815920Y-118155046D01*
X84751982Y-118309027D01*
X84751836Y-118475755D01*
X84815506Y-118629848D01*
X84933297Y-118747845D01*
X85087278Y-118811783D01*
X85254006Y-118811929D01*
X85408099Y-118748259D01*
X85526096Y-118630468D01*
X85590034Y-118476487D01*
X85590180Y-118309759D01*
X85590180Y-122190832D01*
X85560455Y-122118893D01*
X85442664Y-122000896D01*
X85288683Y-121936958D01*
X85121955Y-121936812D01*
X84967862Y-122000482D01*
X84849865Y-122118273D01*
X84785927Y-122272254D01*
X84785781Y-122438982D01*
X84849451Y-122593075D01*
X84967242Y-122711072D01*
X85121223Y-122775010D01*
X85287951Y-122775156D01*
X85442044Y-122711486D01*
X85560041Y-122593695D01*
X85623979Y-122439714D01*
X85624125Y-122272986D01*
X85624125Y-142436500D01*
X85519173Y-142436500D01*
X85519173Y-127017002D01*
X85455503Y-126862909D01*
X85337711Y-126744911D01*
X85183730Y-126680973D01*
X85017002Y-126680827D01*
X84862909Y-126744497D01*
X84744911Y-126862289D01*
X84680973Y-127016270D01*
X84680827Y-127182998D01*
X84744497Y-127337091D01*
X84862289Y-127455089D01*
X85016270Y-127519027D01*
X85182998Y-127519173D01*
X85337091Y-127455503D01*
X85455089Y-127337711D01*
X85519027Y-127183730D01*
X85519173Y-127017002D01*
X85519173Y-142436500D01*
X84021936Y-142436500D01*
X84021936Y-126113264D01*
X84019622Y-126107663D01*
X84019622Y-122257553D01*
X84019172Y-122256463D01*
X84019172Y-115867002D01*
X83955502Y-115712909D01*
X83837711Y-115594912D01*
X83683730Y-115530974D01*
X83517002Y-115530828D01*
X83362909Y-115594498D01*
X83244912Y-115712289D01*
X83180974Y-115866270D01*
X83180828Y-116032998D01*
X83244498Y-116187091D01*
X83362289Y-116305088D01*
X83516270Y-116369026D01*
X83682998Y-116369172D01*
X83837091Y-116305502D01*
X83955088Y-116187711D01*
X84019026Y-116033730D01*
X84019172Y-115867002D01*
X84019172Y-122256463D01*
X83955952Y-122103460D01*
X83838161Y-121985463D01*
X83684180Y-121921525D01*
X83517452Y-121921379D01*
X83363359Y-121985049D01*
X83245362Y-122102840D01*
X83239928Y-122115926D01*
X83239928Y-119835172D01*
X83176258Y-119681079D01*
X83058467Y-119563082D01*
X82904486Y-119499144D01*
X82737758Y-119498998D01*
X82583665Y-119562668D01*
X82465668Y-119680459D01*
X82419421Y-119791835D01*
X82419421Y-118257054D01*
X82355751Y-118102961D01*
X82237960Y-117984964D01*
X82141607Y-117944955D01*
X82237091Y-117905502D01*
X82355088Y-117787711D01*
X82419026Y-117633730D01*
X82419172Y-117467002D01*
X82355502Y-117312909D01*
X82237711Y-117194912D01*
X82083730Y-117130974D01*
X81917002Y-117130828D01*
X81762909Y-117194498D01*
X81644912Y-117312289D01*
X81599627Y-117421348D01*
X81599627Y-113497522D01*
X81535957Y-113343429D01*
X81418165Y-113225431D01*
X81264184Y-113161493D01*
X81097456Y-113161347D01*
X80943363Y-113225017D01*
X80825365Y-113342809D01*
X80761427Y-113496790D01*
X80761281Y-113663518D01*
X80824951Y-113817611D01*
X80942743Y-113935609D01*
X81096724Y-113999547D01*
X81263452Y-113999693D01*
X81417545Y-113936023D01*
X81535543Y-113818231D01*
X81599481Y-113664250D01*
X81599627Y-113497522D01*
X81599627Y-117421348D01*
X81595236Y-117431923D01*
X81595236Y-115830424D01*
X81531566Y-115676331D01*
X81413775Y-115558334D01*
X81259794Y-115494396D01*
X81093066Y-115494250D01*
X80938973Y-115557920D01*
X80820976Y-115675711D01*
X80757038Y-115829692D01*
X80756892Y-115996420D01*
X80820562Y-116150513D01*
X80938353Y-116268510D01*
X81092334Y-116332448D01*
X81259062Y-116332594D01*
X81413155Y-116268924D01*
X81531152Y-116151133D01*
X81595090Y-115997152D01*
X81595236Y-115830424D01*
X81595236Y-117431923D01*
X81580974Y-117466270D01*
X81580828Y-117632998D01*
X81644498Y-117787091D01*
X81762289Y-117905088D01*
X81858641Y-117945096D01*
X81763158Y-117984550D01*
X81645161Y-118102341D01*
X81581223Y-118256322D01*
X81581077Y-118423050D01*
X81644747Y-118577143D01*
X81762538Y-118695140D01*
X81916519Y-118759078D01*
X82083247Y-118759224D01*
X82237340Y-118695554D01*
X82355337Y-118577763D01*
X82419275Y-118423782D01*
X82419421Y-118257054D01*
X82419421Y-119791835D01*
X82401730Y-119834440D01*
X82401584Y-120001168D01*
X82465254Y-120155261D01*
X82583045Y-120273258D01*
X82737026Y-120337196D01*
X82903754Y-120337342D01*
X83057847Y-120273672D01*
X83175844Y-120155881D01*
X83239782Y-120001900D01*
X83239928Y-119835172D01*
X83239928Y-122115926D01*
X83198235Y-122216332D01*
X83155502Y-122112909D01*
X83037711Y-121994912D01*
X82883730Y-121930974D01*
X82717002Y-121930828D01*
X82562909Y-121994498D01*
X82444912Y-122112289D01*
X82380974Y-122266270D01*
X82380941Y-122302923D01*
X82322245Y-122160866D01*
X82204454Y-122042869D01*
X82050473Y-121978931D01*
X81883745Y-121978785D01*
X81729652Y-122042455D01*
X81619172Y-122152742D01*
X81619172Y-120659351D01*
X81619172Y-119067002D01*
X81555502Y-118912909D01*
X81437711Y-118794912D01*
X81283730Y-118730974D01*
X81117002Y-118730828D01*
X80962909Y-118794498D01*
X80844912Y-118912289D01*
X80819172Y-118974278D01*
X80819172Y-117467002D01*
X80755502Y-117312909D01*
X80637711Y-117194912D01*
X80483730Y-117130974D01*
X80317002Y-117130828D01*
X80162909Y-117194498D01*
X80145386Y-117211990D01*
X80145386Y-101501911D01*
X80070140Y-101319801D01*
X79930932Y-101180350D01*
X79748954Y-101104786D01*
X79551911Y-101104614D01*
X79369801Y-101179860D01*
X79230350Y-101319068D01*
X79154786Y-101501046D01*
X79154614Y-101698089D01*
X79229860Y-101880199D01*
X79369068Y-102019650D01*
X79551046Y-102095214D01*
X79748089Y-102095386D01*
X79930199Y-102020140D01*
X80069650Y-101880932D01*
X80145214Y-101698954D01*
X80145386Y-101501911D01*
X80145386Y-117211990D01*
X80044912Y-117312289D01*
X80024266Y-117362010D01*
X80024266Y-115861960D01*
X80009223Y-115825553D01*
X80009223Y-114266453D01*
X79945553Y-114112360D01*
X79827762Y-113994363D01*
X79741983Y-113958744D01*
X79807671Y-113931603D01*
X79925669Y-113813811D01*
X79989607Y-113659830D01*
X79989753Y-113493102D01*
X79926083Y-113339009D01*
X79808291Y-113221011D01*
X79654310Y-113157073D01*
X79639233Y-113157059D01*
X79639233Y-104084942D01*
X79575563Y-103930849D01*
X79457771Y-103812851D01*
X79303790Y-103748913D01*
X79137062Y-103748767D01*
X78982969Y-103812437D01*
X78864971Y-103930229D01*
X78839075Y-103992593D01*
X78813563Y-103930849D01*
X78695771Y-103812851D01*
X78541790Y-103748913D01*
X78375062Y-103748767D01*
X78220969Y-103812437D01*
X78102971Y-103930229D01*
X78039033Y-104084210D01*
X78038887Y-104250938D01*
X78102557Y-104405031D01*
X78220349Y-104523029D01*
X78374330Y-104586967D01*
X78541058Y-104587113D01*
X78695151Y-104523443D01*
X78813149Y-104405651D01*
X78839044Y-104343286D01*
X78864557Y-104405031D01*
X78982349Y-104523029D01*
X79136330Y-104586967D01*
X79303058Y-104587113D01*
X79457151Y-104523443D01*
X79575149Y-104405651D01*
X79639087Y-104251670D01*
X79639233Y-104084942D01*
X79639233Y-113157059D01*
X79487582Y-113156927D01*
X79333489Y-113220597D01*
X79215491Y-113338389D01*
X79151553Y-113492370D01*
X79151407Y-113659098D01*
X79215077Y-113813191D01*
X79332869Y-113931189D01*
X79418647Y-113966807D01*
X79352960Y-113993949D01*
X79234963Y-114111740D01*
X79171025Y-114265721D01*
X79170879Y-114432449D01*
X79234549Y-114586542D01*
X79352340Y-114704539D01*
X79506321Y-114768477D01*
X79673049Y-114768623D01*
X79827142Y-114704953D01*
X79945139Y-114587162D01*
X80009077Y-114433181D01*
X80009223Y-114266453D01*
X80009223Y-115825553D01*
X79960596Y-115707867D01*
X79842805Y-115589870D01*
X79688824Y-115525932D01*
X79522096Y-115525786D01*
X79368003Y-115589456D01*
X79250006Y-115707247D01*
X79196500Y-115836102D01*
X79145453Y-115712558D01*
X79027662Y-115594561D01*
X78873681Y-115530623D01*
X78706953Y-115530477D01*
X78552860Y-115594147D01*
X78434863Y-115711938D01*
X78418923Y-115750326D01*
X78418923Y-113456455D01*
X78355253Y-113302362D01*
X78237461Y-113184364D01*
X78083480Y-113120426D01*
X77916752Y-113120280D01*
X77762659Y-113183950D01*
X77644661Y-113301742D01*
X77580723Y-113455723D01*
X77580577Y-113622451D01*
X77644247Y-113776544D01*
X77762039Y-113894542D01*
X77916020Y-113958480D01*
X78082748Y-113958626D01*
X78236841Y-113894956D01*
X78354839Y-113777164D01*
X78418777Y-113623183D01*
X78418923Y-113456455D01*
X78418923Y-115750326D01*
X78370925Y-115865919D01*
X78370779Y-116032647D01*
X78434449Y-116186740D01*
X78552240Y-116304737D01*
X78706221Y-116368675D01*
X78872949Y-116368821D01*
X79027042Y-116305151D01*
X79145039Y-116187360D01*
X79198544Y-116058504D01*
X79249592Y-116182049D01*
X79367383Y-116300046D01*
X79490475Y-116351157D01*
X79484778Y-116351153D01*
X79330685Y-116414823D01*
X79212688Y-116532614D01*
X79148750Y-116686595D01*
X79148604Y-116853323D01*
X79212274Y-117007416D01*
X79330065Y-117125413D01*
X79484046Y-117189351D01*
X79650774Y-117189497D01*
X79804867Y-117125827D01*
X79922864Y-117008036D01*
X79986802Y-116854055D01*
X79986948Y-116687327D01*
X79923278Y-116533234D01*
X79805487Y-116415237D01*
X79682394Y-116364125D01*
X79688092Y-116364130D01*
X79842185Y-116300460D01*
X79960182Y-116182669D01*
X80024120Y-116028688D01*
X80024266Y-115861960D01*
X80024266Y-117362010D01*
X79980974Y-117466270D01*
X79980828Y-117632998D01*
X80044498Y-117787091D01*
X80162289Y-117905088D01*
X80316270Y-117969026D01*
X80482998Y-117969172D01*
X80637091Y-117905502D01*
X80755088Y-117787711D01*
X80819026Y-117633730D01*
X80819172Y-117467002D01*
X80819172Y-118974278D01*
X80780974Y-119066270D01*
X80780828Y-119232998D01*
X80844498Y-119387091D01*
X80962289Y-119505088D01*
X81116270Y-119569026D01*
X81282998Y-119569172D01*
X81437091Y-119505502D01*
X81555088Y-119387711D01*
X81619026Y-119233730D01*
X81619172Y-119067002D01*
X81619172Y-120659351D01*
X81555502Y-120505258D01*
X81437711Y-120387261D01*
X81283730Y-120323323D01*
X81117002Y-120323177D01*
X80962909Y-120386847D01*
X80844912Y-120504638D01*
X80780974Y-120658619D01*
X80780828Y-120825347D01*
X80844498Y-120979440D01*
X80962289Y-121097437D01*
X81116270Y-121161375D01*
X81282998Y-121161521D01*
X81437091Y-121097851D01*
X81555088Y-120980060D01*
X81619026Y-120826079D01*
X81619172Y-120659351D01*
X81619172Y-122152742D01*
X81611655Y-122160246D01*
X81547717Y-122314227D01*
X81547571Y-122480955D01*
X81611241Y-122635048D01*
X81729032Y-122753045D01*
X81883013Y-122816983D01*
X82049741Y-122817129D01*
X82203834Y-122753459D01*
X82321831Y-122635668D01*
X82385769Y-122481687D01*
X82385801Y-122445033D01*
X82444498Y-122587091D01*
X82562289Y-122705088D01*
X82670524Y-122750031D01*
X82562909Y-122794497D01*
X82444911Y-122912289D01*
X82380973Y-123066270D01*
X82380827Y-123232998D01*
X82444497Y-123387091D01*
X82562289Y-123505089D01*
X82621613Y-123529722D01*
X82542273Y-123562505D01*
X82424275Y-123680297D01*
X82394717Y-123751479D01*
X82387338Y-123733620D01*
X82269546Y-123615622D01*
X82115565Y-123551684D01*
X81948837Y-123551538D01*
X81794744Y-123615208D01*
X81676746Y-123733000D01*
X81612808Y-123886981D01*
X81612662Y-124053709D01*
X81676332Y-124207802D01*
X81794124Y-124325800D01*
X81948105Y-124389738D01*
X82114833Y-124389884D01*
X82268926Y-124326214D01*
X82386924Y-124208422D01*
X82416481Y-124137239D01*
X82423861Y-124155099D01*
X82541653Y-124273097D01*
X82695634Y-124337035D01*
X82862362Y-124337181D01*
X83016455Y-124273511D01*
X83134453Y-124155719D01*
X83198391Y-124001738D01*
X83198537Y-123835010D01*
X83134867Y-123680917D01*
X83017075Y-123562919D01*
X82957750Y-123538285D01*
X83037091Y-123505503D01*
X83155089Y-123387711D01*
X83183292Y-123319789D01*
X83224542Y-123419621D01*
X83342333Y-123537618D01*
X83496314Y-123601556D01*
X83663042Y-123601702D01*
X83817135Y-123538032D01*
X83935132Y-123420241D01*
X83999070Y-123266260D01*
X83999216Y-123099532D01*
X83935546Y-122945439D01*
X83817755Y-122827442D01*
X83663774Y-122763504D01*
X83497046Y-122763358D01*
X83342953Y-122827028D01*
X83224956Y-122944819D01*
X83196752Y-123012740D01*
X83155503Y-122912909D01*
X83037711Y-122794911D01*
X82929475Y-122749967D01*
X83037091Y-122705502D01*
X83155088Y-122587711D01*
X83202214Y-122474218D01*
X83244948Y-122577642D01*
X83362739Y-122695639D01*
X83516720Y-122759577D01*
X83683448Y-122759723D01*
X83837541Y-122696053D01*
X83955538Y-122578262D01*
X84019476Y-122424281D01*
X84019622Y-122257553D01*
X84019622Y-126107663D01*
X83958266Y-125959171D01*
X83840475Y-125841174D01*
X83686494Y-125777236D01*
X83519766Y-125777090D01*
X83365673Y-125840760D01*
X83247676Y-125958551D01*
X83183738Y-126112532D01*
X83183620Y-126246812D01*
X83172407Y-126246803D01*
X83018314Y-126310473D01*
X82900317Y-126428264D01*
X82836379Y-126582245D01*
X82836233Y-126748973D01*
X82899903Y-126903066D01*
X83017694Y-127021063D01*
X83171675Y-127085001D01*
X83338403Y-127085147D01*
X83492496Y-127021477D01*
X83610493Y-126903686D01*
X83674431Y-126749705D01*
X83674548Y-126615424D01*
X83685762Y-126615434D01*
X83839855Y-126551764D01*
X83957852Y-126433973D01*
X84021790Y-126279992D01*
X84021936Y-126113264D01*
X84021936Y-142436500D01*
X82867775Y-142436500D01*
X82867775Y-136267526D01*
X82766290Y-136021912D01*
X82619173Y-135874537D01*
X82619173Y-126767002D01*
X82588281Y-126692237D01*
X82588281Y-124776435D01*
X82524611Y-124622342D01*
X82406819Y-124504344D01*
X82252838Y-124440406D01*
X82086110Y-124440260D01*
X81932017Y-124503930D01*
X81814019Y-124621722D01*
X81750081Y-124775703D01*
X81749935Y-124942431D01*
X81813605Y-125096524D01*
X81931397Y-125214522D01*
X82085378Y-125278460D01*
X82252106Y-125278606D01*
X82406199Y-125214936D01*
X82524197Y-125097144D01*
X82588135Y-124943163D01*
X82588281Y-124776435D01*
X82588281Y-126692237D01*
X82555503Y-126612909D01*
X82437711Y-126494911D01*
X82283730Y-126430973D01*
X82117002Y-126430827D01*
X81962909Y-126494497D01*
X81874949Y-126582302D01*
X81787711Y-126494911D01*
X81633730Y-126430973D01*
X81557276Y-126430906D01*
X81557276Y-123022618D01*
X81493606Y-122868525D01*
X81375815Y-122750528D01*
X81221834Y-122686590D01*
X81055106Y-122686444D01*
X80901013Y-122750114D01*
X80783016Y-122867905D01*
X80719078Y-123021886D01*
X80718932Y-123188614D01*
X80782602Y-123342707D01*
X80900393Y-123460704D01*
X81054374Y-123524642D01*
X81221102Y-123524788D01*
X81375195Y-123461118D01*
X81493192Y-123343327D01*
X81557130Y-123189346D01*
X81557276Y-123022618D01*
X81557276Y-126430906D01*
X81467002Y-126430827D01*
X81312909Y-126494497D01*
X81224949Y-126582302D01*
X81137711Y-126494911D01*
X80983730Y-126430973D01*
X80840025Y-126430847D01*
X80840025Y-123835217D01*
X80776355Y-123681124D01*
X80658564Y-123563127D01*
X80504583Y-123499189D01*
X80337855Y-123499043D01*
X80183762Y-123562713D01*
X80065765Y-123680504D01*
X80003786Y-123829766D01*
X79955502Y-123712909D01*
X79837711Y-123594912D01*
X79729475Y-123549968D01*
X79837091Y-123505503D01*
X79955089Y-123387711D01*
X80019027Y-123233730D01*
X80019173Y-123067002D01*
X80019172Y-123066999D01*
X80019172Y-119867002D01*
X79955502Y-119712909D01*
X79837711Y-119594912D01*
X79683730Y-119530974D01*
X79517002Y-119530828D01*
X79362909Y-119594498D01*
X79244912Y-119712289D01*
X79187064Y-119851603D01*
X79187064Y-118246566D01*
X79123394Y-118092473D01*
X79005603Y-117974476D01*
X78851622Y-117910538D01*
X78684894Y-117910392D01*
X78530801Y-117974062D01*
X78412804Y-118091853D01*
X78348866Y-118245834D01*
X78348720Y-118412562D01*
X78412390Y-118566655D01*
X78530181Y-118684652D01*
X78684162Y-118748590D01*
X78850890Y-118748736D01*
X79004983Y-118685066D01*
X79122980Y-118567275D01*
X79186918Y-118413294D01*
X79187064Y-118246566D01*
X79187064Y-119851603D01*
X79180974Y-119866270D01*
X79180828Y-120032998D01*
X79244498Y-120187091D01*
X79362289Y-120305088D01*
X79516270Y-120369026D01*
X79682998Y-120369172D01*
X79837091Y-120305502D01*
X79955088Y-120187711D01*
X80019026Y-120033730D01*
X80019172Y-119867002D01*
X80019172Y-123066999D01*
X79955503Y-122912909D01*
X79837711Y-122794911D01*
X79683730Y-122730973D01*
X79517002Y-122730827D01*
X79362909Y-122794497D01*
X79269172Y-122888070D01*
X79269172Y-121517002D01*
X79205502Y-121362909D01*
X79087711Y-121244912D01*
X78933730Y-121180974D01*
X78767002Y-121180828D01*
X78612909Y-121244498D01*
X78494912Y-121362289D01*
X78430974Y-121516270D01*
X78430828Y-121682998D01*
X78494498Y-121837091D01*
X78612289Y-121955088D01*
X78766270Y-122019026D01*
X78932998Y-122019172D01*
X79087091Y-121955502D01*
X79205088Y-121837711D01*
X79269026Y-121683730D01*
X79269172Y-121517002D01*
X79269172Y-122888070D01*
X79244911Y-122912289D01*
X79180973Y-123066270D01*
X79180827Y-123232998D01*
X79244497Y-123387091D01*
X79362289Y-123505089D01*
X79470524Y-123550032D01*
X79362909Y-123594498D01*
X79244912Y-123712289D01*
X79199968Y-123820525D01*
X79155502Y-123712909D01*
X79037711Y-123594912D01*
X78883730Y-123530974D01*
X78717002Y-123530828D01*
X78562909Y-123594498D01*
X78444912Y-123712289D01*
X78414060Y-123786589D01*
X78414060Y-119872127D01*
X78350390Y-119718034D01*
X78232599Y-119600037D01*
X78078618Y-119536099D01*
X77911890Y-119535953D01*
X77757797Y-119599623D01*
X77639800Y-119717414D01*
X77623627Y-119756363D01*
X77623627Y-114271484D01*
X77559957Y-114117391D01*
X77442166Y-113999394D01*
X77288185Y-113935456D01*
X77177973Y-113935359D01*
X77177973Y-104112882D01*
X77114303Y-103958789D01*
X76996511Y-103840791D01*
X76842530Y-103776853D01*
X76675802Y-103776707D01*
X76521709Y-103840377D01*
X76404004Y-103957876D01*
X76380243Y-103900369D01*
X76262451Y-103782371D01*
X76108470Y-103718433D01*
X75941742Y-103718287D01*
X75787649Y-103781957D01*
X75669651Y-103899749D01*
X75605713Y-104053730D01*
X75605567Y-104220458D01*
X75669237Y-104374551D01*
X75787029Y-104492549D01*
X75941010Y-104556487D01*
X76107738Y-104556633D01*
X76261831Y-104492963D01*
X76379535Y-104375463D01*
X76403297Y-104432971D01*
X76521089Y-104550969D01*
X76675070Y-104614907D01*
X76841798Y-104615053D01*
X76995891Y-104551383D01*
X77113889Y-104433591D01*
X77177827Y-104279610D01*
X77177973Y-104112882D01*
X77177973Y-113935359D01*
X77121457Y-113935310D01*
X76967364Y-113998980D01*
X76849367Y-114116771D01*
X76785429Y-114270752D01*
X76785283Y-114437480D01*
X76848953Y-114591573D01*
X76966744Y-114709570D01*
X77120725Y-114773508D01*
X77287453Y-114773654D01*
X77441546Y-114709984D01*
X77559543Y-114592193D01*
X77623481Y-114438212D01*
X77623627Y-114271484D01*
X77623627Y-119756363D01*
X77608924Y-119791772D01*
X77608924Y-119067051D01*
X77545254Y-118912958D01*
X77427463Y-118794961D01*
X77275458Y-118731843D01*
X77416440Y-118673591D01*
X77534437Y-118555800D01*
X77598375Y-118401819D01*
X77598521Y-118235091D01*
X77534851Y-118080998D01*
X77417060Y-117963001D01*
X77263079Y-117899063D01*
X77096351Y-117898917D01*
X76942258Y-117962587D01*
X76824261Y-118080378D01*
X76777757Y-118192372D01*
X76777757Y-113523233D01*
X76714087Y-113369140D01*
X76596295Y-113251142D01*
X76442314Y-113187204D01*
X76275586Y-113187058D01*
X76121493Y-113250728D01*
X76003495Y-113368520D01*
X75939557Y-113522501D01*
X75939411Y-113689229D01*
X76003081Y-113843322D01*
X76120873Y-113961320D01*
X76274854Y-114025258D01*
X76441582Y-114025404D01*
X76595675Y-113961734D01*
X76713673Y-113843942D01*
X76777611Y-113689961D01*
X76777757Y-113523233D01*
X76777757Y-118192372D01*
X76760323Y-118234359D01*
X76760177Y-118401087D01*
X76823847Y-118555180D01*
X76941638Y-118673177D01*
X77093642Y-118736294D01*
X76952661Y-118794547D01*
X76834664Y-118912338D01*
X76770726Y-119066319D01*
X76770580Y-119233047D01*
X76834250Y-119387140D01*
X76952041Y-119505137D01*
X77106022Y-119569075D01*
X77272750Y-119569221D01*
X77426843Y-119505551D01*
X77544840Y-119387760D01*
X77608778Y-119233779D01*
X77608924Y-119067051D01*
X77608924Y-119791772D01*
X77575862Y-119871395D01*
X77575716Y-120038123D01*
X77639386Y-120192216D01*
X77757177Y-120310213D01*
X77857016Y-120351669D01*
X77752760Y-120394748D01*
X77634763Y-120512539D01*
X77570825Y-120666520D01*
X77570679Y-120833248D01*
X77634349Y-120987341D01*
X77752140Y-121105338D01*
X77906121Y-121169276D01*
X78072849Y-121169422D01*
X78226942Y-121105752D01*
X78344939Y-120987961D01*
X78408877Y-120833980D01*
X78409023Y-120667252D01*
X78345353Y-120513159D01*
X78227562Y-120395162D01*
X78127722Y-120353705D01*
X78231979Y-120310627D01*
X78349976Y-120192836D01*
X78413914Y-120038855D01*
X78414060Y-119872127D01*
X78414060Y-123786589D01*
X78380974Y-123866270D01*
X78380828Y-124032998D01*
X78444498Y-124187091D01*
X78562289Y-124305088D01*
X78716270Y-124369026D01*
X78882998Y-124369172D01*
X79037091Y-124305502D01*
X79155088Y-124187711D01*
X79200031Y-124079474D01*
X79244498Y-124187091D01*
X79362289Y-124305088D01*
X79516270Y-124369026D01*
X79682998Y-124369172D01*
X79837091Y-124305502D01*
X79955088Y-124187711D01*
X80017066Y-124038448D01*
X80065351Y-124155306D01*
X80183142Y-124273303D01*
X80337123Y-124337241D01*
X80503851Y-124337387D01*
X80657944Y-124273717D01*
X80775941Y-124155926D01*
X80839879Y-124001945D01*
X80840025Y-123835217D01*
X80840025Y-126430847D01*
X80817002Y-126430827D01*
X80662909Y-126494497D01*
X80544911Y-126612289D01*
X80480973Y-126766270D01*
X80480827Y-126932998D01*
X80544497Y-127087091D01*
X80662289Y-127205089D01*
X80816270Y-127269027D01*
X80982998Y-127269173D01*
X81137091Y-127205503D01*
X81225050Y-127117697D01*
X81312289Y-127205089D01*
X81466270Y-127269027D01*
X81632998Y-127269173D01*
X81787091Y-127205503D01*
X81875050Y-127117697D01*
X81962289Y-127205089D01*
X82116270Y-127269027D01*
X82282998Y-127269173D01*
X82437091Y-127205503D01*
X82555089Y-127087711D01*
X82619027Y-126933730D01*
X82619173Y-126767002D01*
X82619173Y-135874537D01*
X82578537Y-135833831D01*
X82333100Y-135731916D01*
X82067346Y-135731685D01*
X81821732Y-135833170D01*
X81633651Y-136020923D01*
X81531736Y-136266360D01*
X81531505Y-136532114D01*
X81632990Y-136777728D01*
X81820743Y-136965809D01*
X82066180Y-137067724D01*
X82331934Y-137067955D01*
X82577548Y-136966470D01*
X82765629Y-136778717D01*
X82867544Y-136533280D01*
X82867775Y-136267526D01*
X82867775Y-142436500D01*
X80745386Y-142436500D01*
X80745386Y-131801911D01*
X80670140Y-131619801D01*
X80530932Y-131480350D01*
X80348954Y-131404786D01*
X80169172Y-131404629D01*
X80169172Y-127417002D01*
X80105502Y-127262909D01*
X79987711Y-127144912D01*
X79833730Y-127080974D01*
X79667002Y-127080828D01*
X79512909Y-127144498D01*
X79424949Y-127232303D01*
X79337711Y-127144912D01*
X79183730Y-127080974D01*
X79017002Y-127080828D01*
X78862909Y-127144498D01*
X78774949Y-127232303D01*
X78687711Y-127144912D01*
X78533730Y-127080974D01*
X78367002Y-127080828D01*
X78212909Y-127144498D01*
X78124949Y-127232303D01*
X78037711Y-127144912D01*
X77883730Y-127080974D01*
X77717002Y-127080828D01*
X77619172Y-127121250D01*
X77619172Y-123867002D01*
X77555502Y-123712909D01*
X77437711Y-123594912D01*
X77329474Y-123549968D01*
X77437091Y-123505502D01*
X77555088Y-123387711D01*
X77619026Y-123233730D01*
X77619172Y-123067002D01*
X77618823Y-123066157D01*
X77618823Y-121477250D01*
X77555153Y-121323157D01*
X77437362Y-121205160D01*
X77283381Y-121141222D01*
X77116653Y-121141076D01*
X76962560Y-121204746D01*
X76844563Y-121322537D01*
X76818723Y-121384767D01*
X76818723Y-119877051D01*
X76755053Y-119722958D01*
X76637262Y-119604961D01*
X76483281Y-119541023D01*
X76316553Y-119540877D01*
X76162460Y-119604547D01*
X76044463Y-119722338D01*
X75980525Y-119876319D01*
X75980379Y-120043047D01*
X76044049Y-120197140D01*
X76161840Y-120315137D01*
X76315821Y-120379075D01*
X76482549Y-120379221D01*
X76636642Y-120315551D01*
X76754639Y-120197760D01*
X76818577Y-120043779D01*
X76818723Y-119877051D01*
X76818723Y-121384767D01*
X76780625Y-121476518D01*
X76780479Y-121643246D01*
X76844149Y-121797339D01*
X76961940Y-121915336D01*
X77115921Y-121979274D01*
X77282649Y-121979420D01*
X77436742Y-121915750D01*
X77554739Y-121797959D01*
X77618677Y-121643978D01*
X77618823Y-121477250D01*
X77618823Y-123066157D01*
X77555502Y-122912909D01*
X77437711Y-122794912D01*
X77283730Y-122730974D01*
X77117002Y-122730828D01*
X76962909Y-122794498D01*
X76844912Y-122912289D01*
X76819172Y-122974278D01*
X76819172Y-122267002D01*
X76769172Y-122145992D01*
X76769172Y-120717002D01*
X76705502Y-120562909D01*
X76587711Y-120444912D01*
X76433730Y-120380974D01*
X76267002Y-120380828D01*
X76112909Y-120444498D01*
X75994912Y-120562289D01*
X75930974Y-120716270D01*
X75930828Y-120882998D01*
X75994498Y-121037091D01*
X76112289Y-121155088D01*
X76266270Y-121219026D01*
X76432998Y-121219172D01*
X76587091Y-121155502D01*
X76705088Y-121037711D01*
X76769026Y-120883730D01*
X76769172Y-120717002D01*
X76769172Y-122145992D01*
X76755502Y-122112909D01*
X76637711Y-121994912D01*
X76483730Y-121930974D01*
X76317002Y-121930828D01*
X76162909Y-121994498D01*
X76044912Y-122112289D01*
X75980974Y-122266270D01*
X75980828Y-122432998D01*
X76044498Y-122587091D01*
X76162289Y-122705088D01*
X76316270Y-122769026D01*
X76482998Y-122769172D01*
X76637091Y-122705502D01*
X76755088Y-122587711D01*
X76819026Y-122433730D01*
X76819172Y-122267002D01*
X76819172Y-122974278D01*
X76780974Y-123066270D01*
X76780828Y-123232998D01*
X76844498Y-123387091D01*
X76962289Y-123505088D01*
X77070525Y-123550031D01*
X76962909Y-123594498D01*
X76844912Y-123712289D01*
X76799968Y-123820525D01*
X76755502Y-123712909D01*
X76637711Y-123594912D01*
X76483730Y-123530974D01*
X76317002Y-123530828D01*
X76162909Y-123594498D01*
X76044912Y-123712289D01*
X75980974Y-123866270D01*
X75980828Y-124032998D01*
X76044498Y-124187091D01*
X76162289Y-124305088D01*
X76316270Y-124369026D01*
X76482998Y-124369172D01*
X76637091Y-124305502D01*
X76755088Y-124187711D01*
X76800031Y-124079474D01*
X76844498Y-124187091D01*
X76962289Y-124305088D01*
X77116270Y-124369026D01*
X77282998Y-124369172D01*
X77437091Y-124305502D01*
X77555088Y-124187711D01*
X77619026Y-124033730D01*
X77619172Y-123867002D01*
X77619172Y-127121250D01*
X77562909Y-127144498D01*
X77444912Y-127262289D01*
X77380974Y-127416270D01*
X77380828Y-127582998D01*
X77444498Y-127737091D01*
X77562289Y-127855088D01*
X77716270Y-127919026D01*
X77882998Y-127919172D01*
X78037091Y-127855502D01*
X78125050Y-127767696D01*
X78212289Y-127855088D01*
X78366270Y-127919026D01*
X78532998Y-127919172D01*
X78687091Y-127855502D01*
X78775050Y-127767696D01*
X78862289Y-127855088D01*
X79016270Y-127919026D01*
X79182998Y-127919172D01*
X79337091Y-127855502D01*
X79425050Y-127767696D01*
X79512289Y-127855088D01*
X79666270Y-127919026D01*
X79832998Y-127919172D01*
X79987091Y-127855502D01*
X80105088Y-127737711D01*
X80169026Y-127583730D01*
X80169172Y-127417002D01*
X80169172Y-131404629D01*
X80151911Y-131404614D01*
X79969801Y-131479860D01*
X79830350Y-131619068D01*
X79754786Y-131801046D01*
X79754614Y-131998089D01*
X79829860Y-132180199D01*
X79969068Y-132319650D01*
X80151046Y-132395214D01*
X80348089Y-132395386D01*
X80530199Y-132320140D01*
X80669650Y-132180932D01*
X80745214Y-131998954D01*
X80745386Y-131801911D01*
X80745386Y-142436500D01*
X78468495Y-142436500D01*
X78468495Y-136267526D01*
X78367010Y-136021912D01*
X78195386Y-135849988D01*
X78195386Y-133701911D01*
X78120140Y-133519801D01*
X77980932Y-133380350D01*
X77798954Y-133304786D01*
X77601911Y-133304614D01*
X77519172Y-133338800D01*
X77519172Y-128167002D01*
X77455502Y-128012909D01*
X77369172Y-127926428D01*
X77369172Y-127317002D01*
X77305502Y-127162909D01*
X77187711Y-127044912D01*
X77033730Y-126980974D01*
X76867002Y-126980828D01*
X76712909Y-127044498D01*
X76594912Y-127162289D01*
X76562682Y-127239908D01*
X76562682Y-124823492D01*
X76499012Y-124669399D01*
X76381221Y-124551402D01*
X76227240Y-124487464D01*
X76060512Y-124487318D01*
X75906419Y-124550988D01*
X75845386Y-124611914D01*
X75845386Y-111451911D01*
X75770140Y-111269801D01*
X75630932Y-111130350D01*
X75448954Y-111054786D01*
X75251911Y-111054614D01*
X75069801Y-111129860D01*
X74930350Y-111269068D01*
X74861493Y-111434893D01*
X74861493Y-104054462D01*
X74797823Y-103900369D01*
X74680031Y-103782371D01*
X74526050Y-103718433D01*
X74359322Y-103718287D01*
X74205229Y-103781957D01*
X74087231Y-103899749D01*
X74023293Y-104053730D01*
X74023147Y-104220458D01*
X74086817Y-104374551D01*
X74204609Y-104492549D01*
X74358590Y-104556487D01*
X74525318Y-104556633D01*
X74679411Y-104492963D01*
X74797409Y-104375171D01*
X74861347Y-104221190D01*
X74861493Y-104054462D01*
X74861493Y-111434893D01*
X74854786Y-111451046D01*
X74854614Y-111648089D01*
X74929860Y-111830199D01*
X75069068Y-111969650D01*
X75251046Y-112045214D01*
X75448089Y-112045386D01*
X75630199Y-111970140D01*
X75769650Y-111830932D01*
X75845214Y-111648954D01*
X75845386Y-111451911D01*
X75845386Y-124611914D01*
X75788422Y-124668779D01*
X75724484Y-124822760D01*
X75724338Y-124989488D01*
X75788008Y-125143581D01*
X75905799Y-125261578D01*
X76059780Y-125325516D01*
X76226508Y-125325662D01*
X76380601Y-125261992D01*
X76498598Y-125144201D01*
X76562536Y-124990220D01*
X76562682Y-124823492D01*
X76562682Y-127239908D01*
X76530974Y-127316270D01*
X76530828Y-127482998D01*
X76594498Y-127637091D01*
X76712289Y-127755088D01*
X76866270Y-127819026D01*
X77032998Y-127819172D01*
X77187091Y-127755502D01*
X77305088Y-127637711D01*
X77369026Y-127483730D01*
X77369172Y-127317002D01*
X77369172Y-127926428D01*
X77337711Y-127894912D01*
X77183730Y-127830974D01*
X77017002Y-127830828D01*
X76862909Y-127894498D01*
X76744912Y-128012289D01*
X76680974Y-128166270D01*
X76680828Y-128332998D01*
X76744498Y-128487091D01*
X76862289Y-128605088D01*
X77016270Y-128669026D01*
X77182998Y-128669172D01*
X77337091Y-128605502D01*
X77455088Y-128487711D01*
X77519026Y-128333730D01*
X77519172Y-128167002D01*
X77519172Y-133338800D01*
X77419801Y-133379860D01*
X77280350Y-133519068D01*
X77245386Y-133603270D01*
X77245386Y-131551911D01*
X77170140Y-131369801D01*
X77030932Y-131230350D01*
X76848954Y-131154786D01*
X76651911Y-131154614D01*
X76469801Y-131229860D01*
X76330350Y-131369068D01*
X76254786Y-131551046D01*
X76254614Y-131748089D01*
X76329860Y-131930199D01*
X76469068Y-132069650D01*
X76651046Y-132145214D01*
X76848089Y-132145386D01*
X77030199Y-132070140D01*
X77169650Y-131930932D01*
X77245214Y-131748954D01*
X77245386Y-131551911D01*
X77245386Y-133603270D01*
X77204786Y-133701046D01*
X77204614Y-133898089D01*
X77279860Y-134080199D01*
X77419068Y-134219650D01*
X77601046Y-134295214D01*
X77798089Y-134295386D01*
X77980199Y-134220140D01*
X78119650Y-134080932D01*
X78195214Y-133898954D01*
X78195386Y-133701911D01*
X78195386Y-135849988D01*
X78179257Y-135833831D01*
X77933820Y-135731916D01*
X77668066Y-135731685D01*
X77422452Y-135833170D01*
X77234371Y-136020923D01*
X77132456Y-136266360D01*
X77132225Y-136532114D01*
X77233710Y-136777728D01*
X77421463Y-136965809D01*
X77666900Y-137067724D01*
X77932654Y-137067955D01*
X78178268Y-136966470D01*
X78366349Y-136778717D01*
X78468264Y-136533280D01*
X78468495Y-136267526D01*
X78468495Y-142436500D01*
X76031152Y-142436500D01*
X76031152Y-130077002D01*
X75955906Y-129894892D01*
X75816698Y-129755441D01*
X75634720Y-129679877D01*
X75437677Y-129679705D01*
X75255567Y-129754951D01*
X75239539Y-129770951D01*
X75239539Y-115099232D01*
X75175869Y-114945139D01*
X75058078Y-114827142D01*
X74942456Y-114779131D01*
X75053569Y-114733221D01*
X75171567Y-114615429D01*
X75235505Y-114461448D01*
X75235651Y-114294720D01*
X75171981Y-114140627D01*
X75054189Y-114022629D01*
X74900208Y-113958691D01*
X74733480Y-113958545D01*
X74579387Y-114022215D01*
X74461389Y-114140007D01*
X74417000Y-114246908D01*
X74417000Y-113467002D01*
X74353330Y-113312909D01*
X74235539Y-113194912D01*
X74081558Y-113130974D01*
X74010593Y-113130911D01*
X74010593Y-104084942D01*
X73946923Y-103930849D01*
X73829131Y-103812851D01*
X73675150Y-103748913D01*
X73508422Y-103748767D01*
X73354329Y-103812437D01*
X73236331Y-103930229D01*
X73172393Y-104084210D01*
X73172247Y-104250938D01*
X73235917Y-104405031D01*
X73353709Y-104523029D01*
X73507690Y-104586967D01*
X73674418Y-104587113D01*
X73828511Y-104523443D01*
X73946509Y-104405651D01*
X74010447Y-104251670D01*
X74010593Y-104084942D01*
X74010593Y-113130911D01*
X73914830Y-113130828D01*
X73760737Y-113194498D01*
X73642740Y-113312289D01*
X73578802Y-113466270D01*
X73578656Y-113632998D01*
X73642326Y-113787091D01*
X73760117Y-113905088D01*
X73914098Y-113969026D01*
X74080826Y-113969172D01*
X74234919Y-113905502D01*
X74352916Y-113787711D01*
X74416854Y-113633730D01*
X74417000Y-113467002D01*
X74417000Y-114246908D01*
X74397451Y-114293988D01*
X74397305Y-114460716D01*
X74460975Y-114614809D01*
X74578767Y-114732807D01*
X74694388Y-114780817D01*
X74583276Y-114826728D01*
X74465279Y-114944519D01*
X74401341Y-115098500D01*
X74401195Y-115265228D01*
X74464865Y-115419321D01*
X74582656Y-115537318D01*
X74629135Y-115556617D01*
X74562259Y-115584251D01*
X74444261Y-115702043D01*
X74380323Y-115856024D01*
X74380177Y-116022752D01*
X74443847Y-116176845D01*
X74561639Y-116294843D01*
X74715620Y-116358781D01*
X74882348Y-116358927D01*
X75036441Y-116295257D01*
X75154439Y-116177465D01*
X75218377Y-116023484D01*
X75218523Y-115856756D01*
X75154853Y-115702663D01*
X75037061Y-115584665D01*
X74990581Y-115565365D01*
X75057458Y-115537732D01*
X75175455Y-115419941D01*
X75239393Y-115265960D01*
X75239539Y-115099232D01*
X75239539Y-129770951D01*
X75239175Y-129771314D01*
X75239175Y-120699515D01*
X75219172Y-120651104D01*
X75219172Y-118267002D01*
X75155502Y-118112909D01*
X75037711Y-117994912D01*
X74924033Y-117947709D01*
X75026544Y-117905353D01*
X75144542Y-117787561D01*
X75208480Y-117633580D01*
X75208626Y-117466852D01*
X75144956Y-117312759D01*
X75027164Y-117194761D01*
X74873183Y-117130823D01*
X74706455Y-117130677D01*
X74552362Y-117194347D01*
X74434364Y-117312139D01*
X74370426Y-117466120D01*
X74370280Y-117632848D01*
X74433950Y-117786941D01*
X74551742Y-117904939D01*
X74665419Y-117952141D01*
X74562909Y-117994498D01*
X74444912Y-118112289D01*
X74380974Y-118266270D01*
X74380828Y-118432998D01*
X74444498Y-118587091D01*
X74562289Y-118705088D01*
X74681430Y-118754559D01*
X74561812Y-118803985D01*
X74443814Y-118921777D01*
X74379876Y-119075758D01*
X74379730Y-119242486D01*
X74443400Y-119396579D01*
X74561192Y-119514577D01*
X74715173Y-119578515D01*
X74881901Y-119578661D01*
X75035994Y-119514991D01*
X75153992Y-119397199D01*
X75217930Y-119243218D01*
X75218076Y-119076490D01*
X75154406Y-118922397D01*
X75036614Y-118804399D01*
X74917472Y-118754927D01*
X75037091Y-118705502D01*
X75155088Y-118587711D01*
X75219026Y-118433730D01*
X75219172Y-118267002D01*
X75219172Y-120651104D01*
X75175505Y-120545422D01*
X75057714Y-120427425D01*
X74903733Y-120363487D01*
X74737005Y-120363341D01*
X74582912Y-120427011D01*
X74464915Y-120544802D01*
X74400977Y-120698783D01*
X74400831Y-120865511D01*
X74464501Y-121019604D01*
X74582292Y-121137601D01*
X74736273Y-121201539D01*
X74903001Y-121201685D01*
X75057094Y-121138015D01*
X75175091Y-121020224D01*
X75239029Y-120866243D01*
X75239175Y-120699515D01*
X75239175Y-129771314D01*
X75116116Y-129894159D01*
X75040552Y-130076137D01*
X75040380Y-130273180D01*
X75115626Y-130455290D01*
X75254834Y-130594741D01*
X75436812Y-130670305D01*
X75633855Y-130670477D01*
X75815965Y-130595231D01*
X75955416Y-130456023D01*
X76030980Y-130274045D01*
X76031152Y-130077002D01*
X76031152Y-142436500D01*
X75019172Y-142436500D01*
X75019172Y-124917002D01*
X74955502Y-124762909D01*
X74837711Y-124644912D01*
X74683730Y-124580974D01*
X74517002Y-124580828D01*
X74419172Y-124621250D01*
X74419172Y-123067002D01*
X74355502Y-122912909D01*
X74237711Y-122794912D01*
X74199172Y-122778909D01*
X74199172Y-121087002D01*
X74135502Y-120932909D01*
X74017711Y-120814912D01*
X73863730Y-120750974D01*
X73697002Y-120750828D01*
X73542909Y-120814498D01*
X73424912Y-120932289D01*
X73360974Y-121086270D01*
X73360828Y-121252998D01*
X73424498Y-121407091D01*
X73542289Y-121525088D01*
X73696270Y-121589026D01*
X73862998Y-121589172D01*
X74017091Y-121525502D01*
X74135088Y-121407711D01*
X74199026Y-121253730D01*
X74199172Y-121087002D01*
X74199172Y-122778909D01*
X74174260Y-122768565D01*
X74174260Y-122220361D01*
X74110590Y-122066268D01*
X73992799Y-121948271D01*
X73838818Y-121884333D01*
X73672090Y-121884187D01*
X73517997Y-121947857D01*
X73400000Y-122065648D01*
X73336062Y-122219629D01*
X73335916Y-122386357D01*
X73399586Y-122540450D01*
X73517377Y-122658447D01*
X73671358Y-122722385D01*
X73838086Y-122722531D01*
X73992179Y-122658861D01*
X74110176Y-122541070D01*
X74174114Y-122387089D01*
X74174260Y-122220361D01*
X74174260Y-122768565D01*
X74083730Y-122730974D01*
X73917002Y-122730828D01*
X73762909Y-122794498D01*
X73644912Y-122912289D01*
X73580974Y-123066270D01*
X73580828Y-123232998D01*
X73644498Y-123387091D01*
X73762289Y-123505088D01*
X73916270Y-123569026D01*
X74082998Y-123569172D01*
X74237091Y-123505502D01*
X74355088Y-123387711D01*
X74419026Y-123233730D01*
X74419172Y-123067002D01*
X74419172Y-124621250D01*
X74362909Y-124644498D01*
X74244912Y-124762289D01*
X74180974Y-124916270D01*
X74180828Y-125082998D01*
X74244498Y-125237091D01*
X74362289Y-125355088D01*
X74516270Y-125419026D01*
X74682998Y-125419172D01*
X74837091Y-125355502D01*
X74955088Y-125237711D01*
X75019026Y-125083730D01*
X75019172Y-124917002D01*
X75019172Y-142436500D01*
X74789172Y-142436500D01*
X74789172Y-126559950D01*
X74725502Y-126405857D01*
X74607711Y-126287860D01*
X74453730Y-126223922D01*
X74287002Y-126223776D01*
X74132909Y-126287446D01*
X74014912Y-126405237D01*
X73950974Y-126559218D01*
X73950828Y-126725946D01*
X74014498Y-126880039D01*
X74132289Y-126998036D01*
X74286270Y-127061974D01*
X74452998Y-127062120D01*
X74607091Y-126998450D01*
X74725088Y-126880659D01*
X74789026Y-126726678D01*
X74789172Y-126559950D01*
X74789172Y-142436500D01*
X73659172Y-142436500D01*
X73659172Y-126717002D01*
X73595502Y-126562909D01*
X73477711Y-126444912D01*
X73323730Y-126380974D01*
X73157002Y-126380828D01*
X73002909Y-126444498D01*
X72884912Y-126562289D01*
X72820974Y-126716270D01*
X72820828Y-126882998D01*
X72884498Y-127037091D01*
X73002289Y-127155088D01*
X73156270Y-127219026D01*
X73322998Y-127219172D01*
X73477091Y-127155502D01*
X73595088Y-127037711D01*
X73659026Y-126883730D01*
X73659172Y-126717002D01*
X73659172Y-142436500D01*
X72369753Y-142436500D01*
X72369753Y-104084942D01*
X72306083Y-103930849D01*
X72188291Y-103812851D01*
X72034310Y-103748913D01*
X71867582Y-103748767D01*
X71713489Y-103812437D01*
X71595491Y-103930229D01*
X71571173Y-103988792D01*
X71544083Y-103923229D01*
X71426291Y-103805231D01*
X71272310Y-103741293D01*
X71105582Y-103741147D01*
X70951489Y-103804817D01*
X70833491Y-103922609D01*
X70769553Y-104076590D01*
X70769407Y-104243318D01*
X70833077Y-104397411D01*
X70950869Y-104515409D01*
X71104850Y-104579347D01*
X71271578Y-104579493D01*
X71425671Y-104515823D01*
X71543669Y-104398031D01*
X71567986Y-104339467D01*
X71595077Y-104405031D01*
X71712869Y-104523029D01*
X71866850Y-104586967D01*
X72033578Y-104587113D01*
X72187671Y-104523443D01*
X72305669Y-104405651D01*
X72369607Y-104251670D01*
X72369753Y-104084942D01*
X72369753Y-142436500D01*
X70695386Y-142436500D01*
X70695386Y-135151911D01*
X70620140Y-134969801D01*
X70480932Y-134830350D01*
X70457133Y-134820467D01*
X70457133Y-110727042D01*
X70393463Y-110572949D01*
X70275671Y-110454951D01*
X70121690Y-110391013D01*
X69994853Y-110390901D01*
X69994853Y-104255122D01*
X69931183Y-104101029D01*
X69813391Y-103983031D01*
X69659410Y-103919093D01*
X69492682Y-103918947D01*
X69338589Y-103982617D01*
X69232385Y-104088634D01*
X69181883Y-103966409D01*
X69064091Y-103848411D01*
X68910110Y-103784473D01*
X68743382Y-103784327D01*
X68589289Y-103847997D01*
X68471291Y-103965789D01*
X68407353Y-104119770D01*
X68407207Y-104286498D01*
X68470877Y-104440591D01*
X68588669Y-104558589D01*
X68742650Y-104622527D01*
X68909378Y-104622673D01*
X69063471Y-104559003D01*
X69169674Y-104452985D01*
X69220177Y-104575211D01*
X69337969Y-104693209D01*
X69491950Y-104757147D01*
X69658678Y-104757293D01*
X69812771Y-104693623D01*
X69930769Y-104575831D01*
X69994707Y-104421850D01*
X69994853Y-104255122D01*
X69994853Y-110390901D01*
X69954962Y-110390867D01*
X69800869Y-110454537D01*
X69682871Y-110572329D01*
X69618933Y-110726310D01*
X69618922Y-110738871D01*
X69618922Y-110597552D01*
X69555252Y-110443459D01*
X69437460Y-110325461D01*
X69283479Y-110261523D01*
X69116751Y-110261377D01*
X68962658Y-110325047D01*
X68844660Y-110442839D01*
X68780722Y-110596820D01*
X68780576Y-110763548D01*
X68780914Y-110764366D01*
X68722152Y-110764315D01*
X68722167Y-110764280D01*
X68722313Y-110597552D01*
X68658643Y-110443459D01*
X68540851Y-110325461D01*
X68386870Y-110261523D01*
X68220142Y-110261377D01*
X68066049Y-110325047D01*
X67948051Y-110442839D01*
X67884113Y-110596820D01*
X67884066Y-110650462D01*
X67784283Y-110650375D01*
X67650433Y-110705680D01*
X67650433Y-104051922D01*
X67586763Y-103897829D01*
X67468971Y-103779831D01*
X67314990Y-103715893D01*
X67148262Y-103715747D01*
X66994169Y-103779417D01*
X66876171Y-103897209D01*
X66812233Y-104051190D01*
X66812220Y-104065807D01*
X66763803Y-103948629D01*
X66646011Y-103830631D01*
X66492030Y-103766693D01*
X66325302Y-103766547D01*
X66171209Y-103830217D01*
X66053211Y-103948009D01*
X65989273Y-104101990D01*
X65989243Y-104136075D01*
X65930683Y-103994349D01*
X65812891Y-103876351D01*
X65658910Y-103812413D01*
X65492182Y-103812267D01*
X65338089Y-103875937D01*
X65220091Y-103993729D01*
X65191122Y-104063492D01*
X65163603Y-103996889D01*
X65045811Y-103878891D01*
X64891830Y-103814953D01*
X64725102Y-103814807D01*
X64571009Y-103878477D01*
X64453011Y-103996269D01*
X64413110Y-104092359D01*
X64373663Y-103996889D01*
X64255871Y-103878891D01*
X64101890Y-103814953D01*
X63935162Y-103814807D01*
X63781069Y-103878477D01*
X63663071Y-103996269D01*
X63616877Y-104107515D01*
X63616913Y-104067162D01*
X63553243Y-103913069D01*
X63435451Y-103795071D01*
X63281470Y-103731133D01*
X63114742Y-103730987D01*
X62960649Y-103794657D01*
X62842651Y-103912449D01*
X62814567Y-103980083D01*
X62796323Y-103935929D01*
X62678531Y-103817931D01*
X62524550Y-103753993D01*
X62357822Y-103753847D01*
X62203729Y-103817517D01*
X62085731Y-103935309D01*
X62021793Y-104089290D01*
X62021647Y-104256018D01*
X62085317Y-104410111D01*
X62203109Y-104528109D01*
X62357090Y-104592047D01*
X62523818Y-104592193D01*
X62677911Y-104528523D01*
X62795909Y-104410731D01*
X62823992Y-104343096D01*
X62842237Y-104387251D01*
X62960029Y-104505249D01*
X63114010Y-104569187D01*
X63280738Y-104569333D01*
X63434831Y-104505663D01*
X63552829Y-104387871D01*
X63599022Y-104276624D01*
X63598987Y-104316978D01*
X63662657Y-104471071D01*
X63780449Y-104589069D01*
X63934430Y-104653007D01*
X64101158Y-104653153D01*
X64255251Y-104589483D01*
X64373249Y-104471691D01*
X64413149Y-104375600D01*
X64452597Y-104471071D01*
X64570389Y-104589069D01*
X64724370Y-104653007D01*
X64891098Y-104653153D01*
X65045191Y-104589483D01*
X65163189Y-104471691D01*
X65192157Y-104401927D01*
X65219677Y-104468531D01*
X65337469Y-104586529D01*
X65491450Y-104650467D01*
X65658178Y-104650613D01*
X65812271Y-104586943D01*
X65930269Y-104469151D01*
X65994207Y-104315170D01*
X65994236Y-104281084D01*
X66052797Y-104422811D01*
X66170589Y-104540809D01*
X66324570Y-104604747D01*
X66491298Y-104604893D01*
X66645391Y-104541223D01*
X66763389Y-104423431D01*
X66827327Y-104269450D01*
X66827339Y-104254832D01*
X66875757Y-104372011D01*
X66993549Y-104490009D01*
X67147530Y-104553947D01*
X67314258Y-104554093D01*
X67468351Y-104490423D01*
X67586349Y-104372631D01*
X67650287Y-104218650D01*
X67650433Y-104051922D01*
X67650433Y-110705680D01*
X67630190Y-110714045D01*
X67512192Y-110831837D01*
X67448254Y-110985818D01*
X67448108Y-111152546D01*
X67511778Y-111306639D01*
X67629570Y-111424637D01*
X67783551Y-111488575D01*
X67950279Y-111488721D01*
X68104372Y-111425051D01*
X68222370Y-111307259D01*
X68286308Y-111153278D01*
X68286354Y-111099635D01*
X68308307Y-111099654D01*
X68308293Y-111099690D01*
X68308147Y-111266418D01*
X68371817Y-111420511D01*
X68489609Y-111538509D01*
X68643590Y-111602447D01*
X68810318Y-111602593D01*
X68964411Y-111538923D01*
X69082409Y-111421131D01*
X69146347Y-111267150D01*
X69146493Y-111100422D01*
X69146154Y-111099603D01*
X69282747Y-111099723D01*
X69436840Y-111036053D01*
X69554838Y-110918261D01*
X69618776Y-110764280D01*
X69618922Y-110597552D01*
X69618922Y-110738871D01*
X69618787Y-110893038D01*
X69682457Y-111047131D01*
X69710156Y-111074879D01*
X69702580Y-111071733D01*
X69535852Y-111071587D01*
X69381759Y-111135257D01*
X69263761Y-111253049D01*
X69199823Y-111407030D01*
X69199677Y-111573758D01*
X69263347Y-111727851D01*
X69381139Y-111845849D01*
X69535120Y-111909787D01*
X69701848Y-111909933D01*
X69855941Y-111846263D01*
X69973939Y-111728471D01*
X70037877Y-111574490D01*
X70038023Y-111407762D01*
X69974353Y-111253669D01*
X69946653Y-111225920D01*
X69954230Y-111229067D01*
X70120958Y-111229213D01*
X70275051Y-111165543D01*
X70393049Y-111047751D01*
X70456987Y-110893770D01*
X70457133Y-110727042D01*
X70457133Y-134820467D01*
X70298954Y-134754786D01*
X70101911Y-134754614D01*
X69919801Y-134829860D01*
X69780350Y-134969068D01*
X69704786Y-135151046D01*
X69704614Y-135348089D01*
X69779860Y-135530199D01*
X69919068Y-135669650D01*
X70101046Y-135745214D01*
X70298089Y-135745386D01*
X70480199Y-135670140D01*
X70619650Y-135530932D01*
X70695214Y-135348954D01*
X70695386Y-135151911D01*
X70695386Y-142436500D01*
X69195386Y-142436500D01*
X69195386Y-139051911D01*
X69120140Y-138869801D01*
X68980932Y-138730350D01*
X68798954Y-138654786D01*
X68601911Y-138654614D01*
X68419801Y-138729860D01*
X68280350Y-138869068D01*
X68204786Y-139051046D01*
X68204614Y-139248089D01*
X68279860Y-139430199D01*
X68419068Y-139569650D01*
X68601046Y-139645214D01*
X68798089Y-139645386D01*
X68980199Y-139570140D01*
X69119650Y-139430932D01*
X69195214Y-139248954D01*
X69195386Y-139051911D01*
X69195386Y-142436500D01*
X67027053Y-142436500D01*
X67027053Y-130509102D01*
X66963383Y-130355009D01*
X66845591Y-130237011D01*
X66783296Y-130211144D01*
X66783296Y-128567059D01*
X66719626Y-128412966D01*
X66601834Y-128294968D01*
X66447853Y-128231030D01*
X66281125Y-128230884D01*
X66127032Y-128294554D01*
X66009034Y-128412346D01*
X65945096Y-128566327D01*
X65944950Y-128733055D01*
X66008620Y-128887148D01*
X66126412Y-129005146D01*
X66280393Y-129069084D01*
X66447121Y-129069230D01*
X66601214Y-129005560D01*
X66719212Y-128887768D01*
X66783150Y-128733787D01*
X66783296Y-128567059D01*
X66783296Y-130211144D01*
X66691610Y-130173073D01*
X66524882Y-130172927D01*
X66370789Y-130236597D01*
X66252791Y-130354389D01*
X66188853Y-130508370D01*
X66188707Y-130675098D01*
X66252377Y-130829191D01*
X66370169Y-130947189D01*
X66524150Y-131011127D01*
X66690878Y-131011273D01*
X66844971Y-130947603D01*
X66962969Y-130829811D01*
X67026907Y-130675830D01*
X67027053Y-130509102D01*
X67027053Y-142436500D01*
X65920386Y-142436500D01*
X65920386Y-118226911D01*
X65920386Y-116926911D01*
X65920386Y-115626911D01*
X65920386Y-114326911D01*
X65920386Y-113026911D01*
X65920386Y-111576911D01*
X65845140Y-111394801D01*
X65705932Y-111255350D01*
X65523954Y-111179786D01*
X65326911Y-111179614D01*
X65144801Y-111254860D01*
X65005350Y-111394068D01*
X64929786Y-111576046D01*
X64929614Y-111773089D01*
X65004860Y-111955199D01*
X65144068Y-112094650D01*
X65326046Y-112170214D01*
X65523089Y-112170386D01*
X65705199Y-112095140D01*
X65844650Y-111955932D01*
X65920214Y-111773954D01*
X65920386Y-111576911D01*
X65920386Y-113026911D01*
X65845140Y-112844801D01*
X65705932Y-112705350D01*
X65523954Y-112629786D01*
X65326911Y-112629614D01*
X65144801Y-112704860D01*
X65005350Y-112844068D01*
X64929786Y-113026046D01*
X64929614Y-113223089D01*
X65004860Y-113405199D01*
X65144068Y-113544650D01*
X65326046Y-113620214D01*
X65523089Y-113620386D01*
X65705199Y-113545140D01*
X65844650Y-113405932D01*
X65920214Y-113223954D01*
X65920386Y-113026911D01*
X65920386Y-114326911D01*
X65845140Y-114144801D01*
X65705932Y-114005350D01*
X65523954Y-113929786D01*
X65326911Y-113929614D01*
X65144801Y-114004860D01*
X65005350Y-114144068D01*
X64929786Y-114326046D01*
X64929614Y-114523089D01*
X65004860Y-114705199D01*
X65144068Y-114844650D01*
X65326046Y-114920214D01*
X65523089Y-114920386D01*
X65705199Y-114845140D01*
X65844650Y-114705932D01*
X65920214Y-114523954D01*
X65920386Y-114326911D01*
X65920386Y-115626911D01*
X65845140Y-115444801D01*
X65705932Y-115305350D01*
X65523954Y-115229786D01*
X65326911Y-115229614D01*
X65144801Y-115304860D01*
X65005350Y-115444068D01*
X64929786Y-115626046D01*
X64929614Y-115823089D01*
X65004860Y-116005199D01*
X65144068Y-116144650D01*
X65326046Y-116220214D01*
X65523089Y-116220386D01*
X65705199Y-116145140D01*
X65844650Y-116005932D01*
X65920214Y-115823954D01*
X65920386Y-115626911D01*
X65920386Y-116926911D01*
X65845140Y-116744801D01*
X65705932Y-116605350D01*
X65523954Y-116529786D01*
X65326911Y-116529614D01*
X65144801Y-116604860D01*
X65005350Y-116744068D01*
X64929786Y-116926046D01*
X64929614Y-117123089D01*
X65004860Y-117305199D01*
X65144068Y-117444650D01*
X65326046Y-117520214D01*
X65523089Y-117520386D01*
X65705199Y-117445140D01*
X65844650Y-117305932D01*
X65920214Y-117123954D01*
X65920386Y-116926911D01*
X65920386Y-118226911D01*
X65845140Y-118044801D01*
X65705932Y-117905350D01*
X65523954Y-117829786D01*
X65326911Y-117829614D01*
X65144801Y-117904860D01*
X65005350Y-118044068D01*
X64929786Y-118226046D01*
X64929614Y-118423089D01*
X65004860Y-118605199D01*
X65144068Y-118744650D01*
X65326046Y-118820214D01*
X65523089Y-118820386D01*
X65705199Y-118745140D01*
X65844650Y-118605932D01*
X65920214Y-118423954D01*
X65920386Y-118226911D01*
X65920386Y-142436500D01*
X65560753Y-142436500D01*
X65560753Y-139400763D01*
X65338874Y-138863774D01*
X64928387Y-138452570D01*
X64391786Y-138229754D01*
X63810763Y-138229247D01*
X63273774Y-138451126D01*
X62862570Y-138861613D01*
X62639754Y-139398214D01*
X62639247Y-139979237D01*
X62861126Y-140516226D01*
X63271613Y-140927430D01*
X63808214Y-141150246D01*
X64389237Y-141150753D01*
X64926226Y-140928874D01*
X65337430Y-140518387D01*
X65560246Y-139981786D01*
X65560753Y-139400763D01*
X65560753Y-142436500D01*
X60063500Y-142436500D01*
X60063500Y-100063500D01*
X99936500Y-100063500D01*
X99936500Y-142436500D01*
M02*
