%FSLAX46Y46*%
G04 Gerber Fmt 4.6, Leading zero omitted, Abs format (unit mm)*
G04 Created by KiCad (PCBNEW (2014-10-25 BZR 5223)-product) date 02/11/2014 18:34:45*
%MOMM*%
G01*
G04 APERTURE LIST*
%ADD10C,0.100000*%
%ADD11R,0.800000X0.750000*%
%ADD12R,0.750000X0.800000*%
%ADD13R,0.600000X0.500000*%
%ADD14R,0.500000X0.600000*%
%ADD15R,0.914400X1.219200*%
%ADD16R,2.540000X2.540000*%
%ADD17C,2.540000*%
%ADD18R,1.727200X1.727200*%
%ADD19O,1.727200X1.727200*%
%ADD20C,0.909320*%
%ADD21C,0.609600*%
%ADD22C,0.457199*%
%ADD23C,0.457200*%
%ADD24C,1.016000*%
%ADD25C,0.127000*%
%ADD26C,0.254000*%
G04 APERTURE END LIST*
D10*
D11*
X82810000Y-117530000D03*
X84310000Y-117530000D03*
D12*
X91050000Y-128500000D03*
X91050000Y-130000000D03*
D13*
X82150000Y-118850000D03*
X83250000Y-118850000D03*
X78700000Y-120850000D03*
X79800000Y-120850000D03*
X79650000Y-116500000D03*
X80750000Y-116500000D03*
D14*
X77750000Y-118900000D03*
X77750000Y-117800000D03*
D12*
X76300000Y-119150000D03*
X76300000Y-117650000D03*
D11*
X77950000Y-116300000D03*
X76450000Y-116300000D03*
D12*
X75250000Y-110700000D03*
X75250000Y-109200000D03*
X82000000Y-110900000D03*
X82000000Y-109400000D03*
D15*
X80511700Y-102500000D03*
X83788300Y-102500000D03*
D16*
X64100000Y-134610000D03*
D17*
X64100000Y-139690000D03*
D18*
X95980000Y-135910000D03*
D19*
X98520000Y-135910000D03*
X95980000Y-138450000D03*
X98520000Y-138450000D03*
X95980000Y-140990000D03*
X98520000Y-140990000D03*
D20*
X77800360Y-136399820D03*
X82199640Y-136399820D03*
D21*
X63134809Y-129750000D03*
D22*
X74000000Y-112750000D03*
X78820484Y-117582091D03*
X89000000Y-124550000D03*
D21*
X91050000Y-130850000D03*
X82000000Y-108400000D03*
X75250000Y-108350000D03*
D22*
X77194788Y-116744776D03*
X84367862Y-123129526D03*
X84379630Y-121517782D03*
D21*
X96750000Y-121500000D03*
X75050000Y-127400000D03*
X75850000Y-127300000D03*
X77800000Y-132000000D03*
D23*
X86001860Y-112737900D03*
X84388456Y-114351581D03*
X82000249Y-113539453D03*
X82770566Y-115992626D03*
X85202810Y-116742056D03*
X78799849Y-113539453D03*
X75575725Y-114336416D03*
X74799350Y-116739853D03*
X81200150Y-117539953D03*
X80428792Y-119167600D03*
X74812273Y-119973752D03*
X78747494Y-119987557D03*
X82798386Y-120742357D03*
X85210547Y-119950151D03*
X81976308Y-123186609D03*
X85984080Y-123979940D03*
X73941940Y-124787660D03*
X77999750Y-123140653D03*
D21*
X88000840Y-105851960D03*
X97609660Y-105849420D03*
X97622360Y-104152700D03*
X93596460Y-105877360D03*
X93609160Y-104165400D03*
X87980520Y-104165400D03*
X90403680Y-105796080D03*
X85595460Y-105836720D03*
X85582760Y-104233980D03*
X79994760Y-105862120D03*
X79994760Y-104099360D03*
X77597000Y-104152700D03*
X77571600Y-105808780D03*
X75158600Y-105796080D03*
X75158600Y-104193340D03*
X72801480Y-105821480D03*
X72776080Y-104152700D03*
X70365620Y-104233980D03*
X70403720Y-105849420D03*
X67980560Y-104233980D03*
X68008500Y-105849420D03*
X68484940Y-129746280D03*
X64621600Y-130068860D03*
X65706180Y-128593120D03*
X63902780Y-127518700D03*
X60890340Y-128301020D03*
X70758240Y-130399060D03*
X91658240Y-136967720D03*
X89659260Y-138334240D03*
X90166009Y-137217873D03*
X88211460Y-136683240D03*
X91516000Y-136180320D03*
X92933320Y-139436600D03*
X91246760Y-140968220D03*
X93917400Y-128339920D03*
X97580080Y-128614240D03*
X95926540Y-128830140D03*
X97290520Y-127778580D03*
X95458746Y-130181764D03*
X98603700Y-131205040D03*
X71500000Y-134450000D03*
X70300000Y-137350000D03*
X71400000Y-139350000D03*
X72800000Y-137050000D03*
X94150000Y-113700000D03*
X98850000Y-119200000D03*
X97450000Y-123050000D03*
X95250000Y-123150000D03*
X63125000Y-112175000D03*
X60675000Y-114425000D03*
X60675000Y-115725000D03*
X60675000Y-117025000D03*
X60675000Y-118375000D03*
X86575000Y-131875000D03*
X83975000Y-131875000D03*
X82725000Y-131875000D03*
X92100000Y-122100000D03*
D22*
X82800350Y-118359848D03*
X80390151Y-120750251D03*
X80409949Y-115949650D03*
X77199650Y-117559748D03*
X76404412Y-123145575D03*
D21*
X85250000Y-131900000D03*
X82300000Y-133800000D03*
X81450000Y-132250000D03*
X82399661Y-104300094D03*
X98654690Y-132567562D03*
X93276220Y-140866620D03*
X87370720Y-139794740D03*
X93135080Y-131486980D03*
X65425000Y-113125000D03*
X65425000Y-115725000D03*
D22*
X81200000Y-120742349D03*
X77994888Y-119955125D03*
X79567776Y-116770325D03*
X85171008Y-118392757D03*
D21*
X81950000Y-111750000D03*
X75350000Y-111550000D03*
D22*
X77189752Y-119150049D03*
X78789951Y-115949649D03*
X73780000Y-121170000D03*
X77199651Y-121560248D03*
X74800000Y-118350000D03*
X74820367Y-115182230D03*
X81176064Y-115913422D03*
X85204953Y-122355984D03*
X83580044Y-123182530D03*
X82800000Y-122350000D03*
D21*
X95300000Y-120600000D03*
X88150000Y-135850000D03*
X95750000Y-124950000D03*
X65425000Y-114425000D03*
X88550000Y-119900000D03*
D22*
X82000000Y-117550000D03*
X77989851Y-120750250D03*
X78850000Y-121600000D03*
X79605094Y-115944958D03*
X77179349Y-118318089D03*
X77189752Y-119150049D03*
X77200000Y-123150000D03*
X79600000Y-123950000D03*
X82820756Y-119918170D03*
X73997828Y-113550000D03*
X77204455Y-114354482D03*
X79590051Y-114349451D03*
X82794924Y-114345039D03*
X83600000Y-115950000D03*
X84390652Y-115149550D03*
D21*
X91506030Y-105600000D03*
X91050000Y-127650000D03*
X93998680Y-127438220D03*
X65425000Y-111675000D03*
D22*
X81200000Y-119150000D03*
X80400000Y-117550000D03*
X79600000Y-119950000D03*
X82000249Y-118340052D03*
X78767892Y-118329564D03*
D21*
X75535766Y-130175091D03*
X68700000Y-139150000D03*
X65425000Y-118325000D03*
X80250000Y-131900000D03*
X77700000Y-133800000D03*
X76750000Y-131650000D03*
X70200000Y-135250000D03*
X65425000Y-117025000D03*
X96950000Y-124950000D03*
D22*
X93150000Y-115800000D03*
X93150000Y-114750000D03*
D21*
X82900000Y-105550000D03*
D23*
X62440820Y-104173020D03*
X67867281Y-111069548D03*
X68303140Y-110680550D03*
X63197740Y-104150160D03*
X64018160Y-104233980D03*
X68727320Y-111183420D03*
X69199749Y-110680550D03*
X64808100Y-104233980D03*
X65575180Y-104231440D03*
X69618850Y-111490760D03*
X70037960Y-110810040D03*
X66408300Y-104185720D03*
X92001340Y-104018080D03*
X91826080Y-110159840D03*
X92788740Y-104053640D03*
X92788740Y-110159840D03*
X94452440Y-110167420D03*
X94416880Y-104030780D03*
X95204280Y-104013000D03*
X95222060Y-109966760D03*
X96009460Y-104048560D03*
X96027240Y-109161580D03*
X96814640Y-104099360D03*
X96832420Y-108389420D03*
D22*
X83600450Y-122340551D03*
X73240000Y-126800000D03*
X84395689Y-113554324D03*
X74370000Y-126642948D03*
X74600000Y-125000000D03*
X86065141Y-123239870D03*
D23*
X66364123Y-128650057D03*
X66607880Y-130592100D03*
D22*
X76399551Y-119960049D03*
X89860000Y-120010000D03*
X77200000Y-123950000D03*
X78450000Y-127500000D03*
X80420853Y-123918215D03*
X79750000Y-127500000D03*
X78800000Y-123950000D03*
X79100000Y-127500000D03*
X76350000Y-120800000D03*
X76950000Y-127400000D03*
X76400000Y-122350000D03*
X77100000Y-128250000D03*
X86120143Y-127104434D03*
D23*
X82800000Y-123150000D03*
X80900000Y-126850000D03*
X79600000Y-123150000D03*
D22*
X81138104Y-123105616D03*
D23*
X81550000Y-126850000D03*
D22*
X93280891Y-125850000D03*
X83602764Y-126196262D03*
D23*
X96650000Y-113650000D03*
X82779364Y-123918008D03*
D22*
X81966743Y-122397957D03*
D23*
X82200000Y-126850000D03*
X85100000Y-127100000D03*
X82169108Y-124859433D03*
D22*
X89250000Y-122300000D03*
X76143510Y-124906490D03*
X77800000Y-127500000D03*
X76400000Y-123950000D03*
X83255405Y-126665975D03*
D23*
X82031835Y-123970711D03*
D22*
X74000000Y-123150000D03*
D23*
X67231260Y-104134920D03*
D22*
X73755088Y-122303359D03*
D23*
X68826380Y-104203500D03*
D22*
X74820003Y-120782513D03*
D23*
X69575680Y-104338120D03*
X71188580Y-104160320D03*
X74798903Y-119159488D03*
X71950580Y-104167940D03*
X74789453Y-117549850D03*
X73591420Y-104167940D03*
X74799350Y-115939754D03*
X74442320Y-104137460D03*
X74816478Y-114377718D03*
X76024740Y-104137460D03*
X76358584Y-113606231D03*
X76758800Y-104195880D03*
X77999750Y-113539453D03*
X78458060Y-104167940D03*
X79570580Y-113576100D03*
X79220060Y-104167940D03*
X81180454Y-113580520D03*
X80772000Y-104167940D03*
X82810247Y-113549350D03*
D22*
X83600000Y-113550000D03*
D23*
X81592420Y-104079040D03*
X84025740Y-104137460D03*
X85210547Y-113549351D03*
X84759800Y-104226360D03*
X85210548Y-114349449D03*
X86408260Y-104226360D03*
X85163873Y-115974209D03*
D22*
X86249383Y-117149383D03*
D23*
X87170260Y-104226360D03*
D22*
X87650000Y-116652059D03*
D23*
X88783160Y-104155240D03*
D22*
X90162085Y-112612085D03*
X89300000Y-119350000D03*
X86500000Y-120100000D03*
D23*
X89588340Y-104028240D03*
D24*
X80511700Y-102500000D02*
X80511700Y-102461700D01*
X80511700Y-102461700D02*
X79650000Y-101600000D01*
X79650000Y-101600000D02*
X62400000Y-101600000D01*
X62400000Y-101600000D02*
X61400000Y-102600000D01*
X61400000Y-102600000D02*
X61400000Y-113211304D01*
X61400000Y-113211304D02*
X62194999Y-114006303D01*
X62194999Y-114006303D02*
X62194999Y-137784999D01*
X62194999Y-137784999D02*
X62830001Y-138420001D01*
X62830001Y-138420001D02*
X64100000Y-139690000D01*
X64100000Y-139690000D02*
X62150000Y-137740000D01*
D25*
X89152573Y-123979940D02*
X89229940Y-123979940D01*
D26*
X91050000Y-130000000D02*
X91050000Y-130850000D01*
X82000000Y-109400000D02*
X82000000Y-108400000D01*
X75250000Y-109200000D02*
X75250000Y-108350000D01*
X76300000Y-117650000D02*
X77109398Y-117650000D01*
X77109398Y-117650000D02*
X77199650Y-117559748D01*
X76450000Y-116300000D02*
X76750012Y-116300000D01*
X76750012Y-116300000D02*
X77194788Y-116744776D01*
X84310000Y-117530000D02*
X84414866Y-117530000D01*
X84414866Y-117530000D02*
X85202810Y-116742056D01*
D25*
X83250000Y-118809498D02*
X82800350Y-118359848D01*
X83250000Y-118850000D02*
X83250000Y-118809498D01*
X80290402Y-120850000D02*
X80390151Y-120750251D01*
X79800000Y-120850000D02*
X80290402Y-120850000D01*
X80750000Y-116289701D02*
X80409949Y-115949650D01*
X80750000Y-116500000D02*
X80750000Y-116289701D01*
X77439902Y-117800000D02*
X77199650Y-117559748D01*
X77750000Y-117800000D02*
X77439902Y-117800000D01*
D26*
X82000000Y-110900000D02*
X82000000Y-111700000D01*
X82000000Y-111700000D02*
X81950000Y-111750000D01*
X75250000Y-110700000D02*
X75250000Y-111450000D01*
X75250000Y-111450000D02*
X75350000Y-111550000D01*
X76300000Y-119150000D02*
X77189703Y-119150000D01*
X77189703Y-119150000D02*
X77189752Y-119150049D01*
X77950000Y-116300000D02*
X78439600Y-116300000D01*
X78439600Y-116300000D02*
X78789951Y-115949649D01*
D25*
X78089601Y-120850000D02*
X77989851Y-120750250D01*
X78700000Y-120850000D02*
X78089601Y-120850000D01*
X79650000Y-115989864D02*
X79605094Y-115944958D01*
X79650000Y-116500000D02*
X79650000Y-115989864D01*
X77439801Y-118900000D02*
X77189752Y-119150049D01*
X77750000Y-118900000D02*
X77439801Y-118900000D01*
D26*
X91050000Y-128500000D02*
X91050000Y-127650000D01*
X82810000Y-117530000D02*
X82810000Y-117530301D01*
X82810000Y-117530301D02*
X82000249Y-118340052D01*
D25*
X82150000Y-118489803D02*
X82000249Y-118340052D01*
X82150000Y-118850000D02*
X82150000Y-118489803D01*
X93150000Y-114750000D02*
X93150000Y-115800000D01*
D26*
X83788300Y-102500000D02*
X83788300Y-103660650D01*
X83788300Y-103660650D02*
X82900000Y-104548950D01*
X82900000Y-104548950D02*
X82900000Y-105550000D01*
D25*
X63428900Y-105161100D02*
X63849457Y-105161101D01*
X62440820Y-104173020D02*
X63428900Y-105161100D01*
X63849457Y-105161101D02*
X64610001Y-105161101D01*
X67867281Y-108418381D02*
X67867281Y-111069548D01*
X64610001Y-105161101D02*
X67867281Y-108418381D01*
X68303140Y-108298118D02*
X66878200Y-106873178D01*
X68303140Y-110680550D02*
X68303140Y-108298118D01*
X63954671Y-104907091D02*
X63197740Y-104150160D01*
X64912113Y-104907091D02*
X63954671Y-104907091D01*
X66878200Y-106873178D02*
X64912113Y-104907091D01*
X64437261Y-104653081D02*
X64996061Y-104653081D01*
X64018160Y-104233980D02*
X64437261Y-104653081D01*
X64996061Y-104653081D02*
X65017327Y-104653081D01*
X68780648Y-111130092D02*
X68727320Y-111183420D01*
X68780648Y-108416402D02*
X68780648Y-111130092D01*
X65017327Y-104653081D02*
X68780648Y-108416402D01*
X64957450Y-104233980D02*
X64808100Y-104233980D01*
X69199749Y-108476279D02*
X64957450Y-104233980D01*
X69199749Y-110680550D02*
X69199749Y-108476279D01*
X69618859Y-111490751D02*
X69618850Y-111490760D01*
X69618859Y-108275119D02*
X69618859Y-111490751D01*
X65575180Y-104231440D02*
X69618859Y-108275119D01*
X66408300Y-104705336D02*
X67057083Y-105354119D01*
X67057083Y-105354119D02*
X68246245Y-105354119D01*
X68246245Y-105354119D02*
X70037960Y-107145834D01*
X66408300Y-104185720D02*
X66408300Y-104705336D01*
X70037960Y-110810040D02*
X70037960Y-107145834D01*
X92001340Y-109984580D02*
X91826080Y-110159840D01*
X92001340Y-104018080D02*
X92001340Y-109984580D01*
X92788740Y-104053640D02*
X92788740Y-110159840D01*
X94452440Y-104066340D02*
X94416880Y-104030780D01*
X94452440Y-110167420D02*
X94452440Y-104066340D01*
X95204280Y-109948980D02*
X95222060Y-109966760D01*
X95204280Y-104013000D02*
X95204280Y-109948980D01*
X96009460Y-109143800D02*
X96027240Y-109161580D01*
X96009460Y-104048560D02*
X96009460Y-109143800D01*
X96814640Y-108371640D02*
X96832420Y-108389420D01*
X96814640Y-104099360D02*
X96814640Y-108371640D01*
X83600450Y-122340551D02*
X83829048Y-122569149D01*
X83829048Y-122569149D02*
X84797848Y-122569149D01*
X84797848Y-122569149D02*
X85049469Y-122820770D01*
X99700000Y-128150000D02*
X99700000Y-133400000D01*
X85049469Y-122820770D02*
X89570770Y-122820770D01*
X93250000Y-126500000D02*
X98050000Y-126500000D01*
X89570770Y-122820770D02*
X93250000Y-126500000D01*
X98050000Y-126500000D02*
X99700000Y-128150000D01*
X99700000Y-133400000D02*
X98250000Y-134850000D01*
X98250000Y-134850000D02*
X96049400Y-134850000D01*
X96049400Y-134850000D02*
X95980000Y-134919400D01*
X95980000Y-134919400D02*
X95980000Y-135910000D01*
X75550000Y-120700000D02*
X74419101Y-121830899D01*
X74419101Y-121830899D02*
X74419101Y-123690229D01*
X74419101Y-123690229D02*
X73240000Y-124869330D01*
X73240000Y-124869330D02*
X73240000Y-126800000D01*
X75550000Y-115400000D02*
X75550000Y-120700000D01*
X75800000Y-115150000D02*
X75550000Y-115400000D01*
X75850000Y-115150000D02*
X75800000Y-115150000D01*
X82800013Y-115150000D02*
X75850000Y-115150000D01*
X84395689Y-113554324D02*
X82800013Y-115150000D01*
X74600000Y-125000000D02*
X74371402Y-125228598D01*
X74371402Y-125228598D02*
X74371402Y-126641546D01*
X74371402Y-126641546D02*
X74370000Y-126642948D01*
X95980000Y-140990000D02*
X95240000Y-140990000D01*
X95240000Y-140990000D02*
X94700000Y-140450000D01*
X94700000Y-140450000D02*
X94700000Y-134750000D01*
X94700000Y-134750000D02*
X95100000Y-134350000D01*
X95100000Y-134350000D02*
X98150000Y-134350000D01*
X97792919Y-126942919D02*
X93092919Y-126942919D01*
X98150000Y-134350000D02*
X99345990Y-133154010D01*
X99345990Y-133154010D02*
X99345990Y-128495990D01*
X99345990Y-128495990D02*
X97792919Y-126942919D01*
X93092919Y-126942919D02*
X89389870Y-123239870D01*
X89389870Y-123239870D02*
X86065141Y-123239870D01*
X66364123Y-129950929D02*
X66364123Y-128650057D01*
X66364123Y-130025054D02*
X66364123Y-129950929D01*
X66607880Y-130268811D02*
X66364123Y-130025054D01*
X66607880Y-130592100D02*
X66607880Y-130268811D01*
X76399551Y-119960049D02*
X78458603Y-122019101D01*
X78458603Y-122019101D02*
X79741572Y-122019101D01*
X79741572Y-122019101D02*
X80599215Y-121161458D01*
X80599215Y-121161458D02*
X84115685Y-121161458D01*
X84115685Y-121161458D02*
X84608042Y-120669101D01*
X84608042Y-120669101D02*
X89200899Y-120669101D01*
X89200899Y-120669101D02*
X89631402Y-120238598D01*
X89631402Y-120238598D02*
X89860000Y-120010000D01*
X78450000Y-125200000D02*
X78450000Y-127500000D01*
X77200000Y-123950000D02*
X78450000Y-125200000D01*
X79750000Y-124589068D02*
X79750000Y-127500000D01*
X80420853Y-123918215D02*
X79750000Y-124589068D01*
X79100000Y-124573287D02*
X79100000Y-127500000D01*
X78800000Y-124273287D02*
X79100000Y-124573287D01*
X78800000Y-123950000D02*
X78800000Y-124273287D01*
X76350000Y-120800000D02*
X75227183Y-121922817D01*
X75227183Y-121922817D02*
X75227183Y-123360588D01*
X75227183Y-123360588D02*
X75156312Y-123431459D01*
X75156312Y-123431459D02*
X75156312Y-125606312D01*
X75156312Y-125606312D02*
X75227183Y-125677183D01*
X75227183Y-125677183D02*
X76950000Y-127400000D01*
X76400000Y-122350000D02*
X75980900Y-122769100D01*
X75980900Y-124151170D02*
X75980900Y-122769100D01*
X77380900Y-125551170D02*
X75980900Y-124151170D01*
X77380900Y-127969100D02*
X77380900Y-125551170D01*
X77100000Y-128250000D02*
X77380900Y-127969100D01*
X83400000Y-123750000D02*
X83400000Y-124400000D01*
X82800000Y-123150000D02*
X83400000Y-123750000D01*
X83400000Y-124400000D02*
X83415709Y-124400000D01*
X83415709Y-124400000D02*
X86120143Y-127104434D01*
X80900000Y-125900000D02*
X80900000Y-126850000D01*
X79600000Y-123150000D02*
X80272908Y-123150000D01*
X80272908Y-123150000D02*
X80900000Y-123777092D01*
X80900000Y-123777092D02*
X80900000Y-125900000D01*
X81550000Y-126850000D02*
X81550000Y-126800000D01*
X81550000Y-126800000D02*
X81154010Y-126404010D01*
X81154010Y-126404010D02*
X81154010Y-123671878D01*
X81154010Y-123671878D02*
X81138104Y-123655972D01*
X81138104Y-123655972D02*
X81138104Y-123105616D01*
X93280891Y-125850000D02*
X93509489Y-125621402D01*
X93509489Y-125621402D02*
X93509489Y-121657465D01*
X93509489Y-121657465D02*
X96650000Y-118516954D01*
X96650000Y-118516954D02*
X96650000Y-114000000D01*
X96650000Y-114000000D02*
X96650000Y-113650000D01*
X83050000Y-124511933D02*
X83050000Y-125643498D01*
X83050000Y-125643498D02*
X83602764Y-126196262D01*
X82779364Y-123918008D02*
X82779364Y-124241297D01*
X82779364Y-124241297D02*
X83050000Y-124511933D01*
X81966743Y-122397957D02*
X81557207Y-122807493D01*
X81557207Y-122807493D02*
X81557207Y-124116353D01*
X81557207Y-124116353D02*
X81750000Y-124309146D01*
X81750000Y-124309146D02*
X81750000Y-126400000D01*
X81750000Y-126400000D02*
X82200000Y-126850000D01*
X82169108Y-126172386D02*
X83096722Y-127100000D01*
X83096722Y-127100000D02*
X85100000Y-127100000D01*
X82169108Y-124859433D02*
X82169108Y-126172386D01*
X84178461Y-121936883D02*
X88886883Y-121936883D01*
X88886883Y-121936883D02*
X89250000Y-122300000D01*
X75700000Y-122429731D02*
X75700000Y-124462980D01*
X75700000Y-124462980D02*
X76143510Y-124906490D01*
X77449301Y-122610000D02*
X77280270Y-122610000D01*
X77280270Y-122610000D02*
X76601170Y-121930900D01*
X76601170Y-121930900D02*
X76198831Y-121930900D01*
X76198831Y-121930900D02*
X75700000Y-122429731D01*
X81710000Y-121662000D02*
X83903578Y-121662000D01*
X83903578Y-121662000D02*
X84178461Y-121936883D01*
X77449301Y-122610000D02*
X80762000Y-122610000D01*
X80762000Y-122610000D02*
X81710000Y-121662000D01*
X77800000Y-126150000D02*
X77800000Y-127500000D01*
X77800000Y-125350000D02*
X77800000Y-126150000D01*
X76400000Y-123950000D02*
X77800000Y-125350000D01*
X82700000Y-126023119D02*
X82700000Y-126110570D01*
X82700000Y-126110570D02*
X83255405Y-126665975D01*
X82031835Y-123970711D02*
X82700000Y-124638876D01*
X82700000Y-124638876D02*
X82700000Y-126023119D01*
X74000000Y-123150000D02*
X72308671Y-121458671D01*
X72308671Y-121458671D02*
X72308670Y-120669901D01*
X72308670Y-120669901D02*
X72308669Y-120229316D01*
X72308669Y-120229316D02*
X72308669Y-107353761D01*
X72308669Y-107353761D02*
X71175015Y-107353761D01*
X71175015Y-107353761D02*
X68550535Y-104729281D01*
X67742815Y-104729281D02*
X67231260Y-104217726D01*
X68550535Y-104729281D02*
X67742815Y-104729281D01*
X67231260Y-104217726D02*
X67231260Y-104134920D01*
X73755088Y-122303359D02*
X72562680Y-121110951D01*
X72562680Y-121110951D02*
X72562679Y-107248547D01*
X72562679Y-107248547D02*
X70297423Y-104983291D01*
X70297423Y-104983291D02*
X69474091Y-104983291D01*
X69474091Y-104983291D02*
X68826380Y-104335580D01*
X68826380Y-104335580D02*
X68826380Y-104203500D01*
X73675416Y-120275416D02*
X74182513Y-120782513D01*
X74182513Y-120782513D02*
X74820003Y-120782513D01*
X73675416Y-120274584D02*
X73675416Y-120275416D01*
X69575680Y-104338120D02*
X69966841Y-104729281D01*
X69966841Y-104729281D02*
X70402637Y-104729281D01*
X70402637Y-104729281D02*
X72816689Y-107143333D01*
X72816689Y-107143333D02*
X72816689Y-119415857D01*
X72816689Y-119415857D02*
X73675416Y-120274584D01*
X73070699Y-107038119D02*
X71188580Y-105156000D01*
X71188580Y-105156000D02*
X71188580Y-104160320D01*
X74798903Y-119159488D02*
X73070699Y-117431284D01*
X73070699Y-117431284D02*
X73070699Y-107038119D01*
X73324709Y-114501048D02*
X73324709Y-105611663D01*
X73324709Y-105611663D02*
X71950580Y-104237534D01*
X71950580Y-104237534D02*
X71950580Y-104167940D01*
X74789453Y-117549850D02*
X73324709Y-116085106D01*
X73324709Y-116085106D02*
X73324709Y-114501048D01*
X74799350Y-115939754D02*
X74476061Y-115939754D01*
X74476061Y-115939754D02*
X73578719Y-115042412D01*
X73578719Y-115042412D02*
X73578719Y-104180641D01*
X73578719Y-104180641D02*
X73591420Y-104167940D01*
X74816478Y-114377718D02*
X74451012Y-114012252D01*
X74451012Y-114012252D02*
X74451012Y-104146152D01*
X74451012Y-104146152D02*
X74442320Y-104137460D01*
X76358584Y-113606231D02*
X76358584Y-104471304D01*
X76358584Y-104471304D02*
X76024740Y-104137460D01*
X77999750Y-106881770D02*
X77422061Y-106304081D01*
X77422061Y-106304081D02*
X77333855Y-106304081D01*
X77333855Y-106304081D02*
X76758800Y-105729026D01*
X76758800Y-105729026D02*
X76758800Y-104195880D01*
X77999750Y-113539453D02*
X77999750Y-106881770D01*
X79570580Y-107066080D02*
X78458060Y-105953560D01*
X78458060Y-105953560D02*
X78458060Y-104167940D01*
X79570580Y-113576100D02*
X79570580Y-107066080D01*
X81180454Y-113580520D02*
X81180454Y-106048344D01*
X81180454Y-106048344D02*
X79300050Y-104167940D01*
X79300050Y-104167940D02*
X79220060Y-104167940D01*
X82810247Y-107318913D02*
X80772000Y-105280666D01*
X80772000Y-105280666D02*
X80772000Y-104167940D01*
X82810247Y-113549350D02*
X82810247Y-107318913D01*
X83600000Y-107110240D02*
X81592420Y-105102660D01*
X83600000Y-113550000D02*
X83600000Y-107110240D01*
X81592420Y-105102660D02*
X81592420Y-104079040D01*
X84041994Y-105016300D02*
X84041994Y-104153714D01*
X84041994Y-104153714D02*
X84025740Y-104137460D01*
X85210547Y-113549351D02*
X85210547Y-106184853D01*
X85210547Y-106184853D02*
X84041994Y-105016300D01*
X85579486Y-104871520D02*
X85487254Y-104871520D01*
X85928130Y-104871520D02*
X85579486Y-104871520D01*
X85487254Y-104871520D02*
X84842094Y-104226360D01*
X84842094Y-104226360D02*
X84759800Y-104226360D01*
X88572300Y-114035718D02*
X88572300Y-107515690D01*
X88572300Y-107515690D02*
X85928130Y-104871520D01*
X88258569Y-114349449D02*
X88572300Y-114035718D01*
X85210548Y-114349449D02*
X88258569Y-114349449D01*
X86497160Y-105081326D02*
X86497160Y-104315260D01*
X86497160Y-104315260D02*
X86408260Y-104226360D01*
X88826310Y-115349050D02*
X88826310Y-107410476D01*
X88826310Y-107410476D02*
X86497160Y-105081326D01*
X85491893Y-115978940D02*
X88196420Y-115978940D01*
X88196420Y-115978940D02*
X88826310Y-115349050D01*
X85163873Y-115974209D02*
X85487162Y-115974209D01*
X85487162Y-115974209D02*
X85491893Y-115978940D01*
X86249383Y-117149383D02*
X87165816Y-116232950D01*
X87165816Y-116232950D02*
X88301634Y-116232950D01*
X88301634Y-116232950D02*
X89080320Y-115454264D01*
X89080320Y-115454264D02*
X89080320Y-106198394D01*
X87341966Y-104460040D02*
X87341966Y-104398066D01*
X87341966Y-104398066D02*
X87170260Y-104226360D01*
X89080320Y-106198394D02*
X87341966Y-104460040D01*
X87650000Y-116652059D02*
X88582271Y-116652059D01*
X88582271Y-116652059D02*
X89334330Y-115900000D01*
X89334330Y-115900000D02*
X89334330Y-104706410D01*
X89334330Y-104706410D02*
X88783160Y-104155240D01*
X89588340Y-111553123D02*
X89588340Y-104028240D01*
X90162085Y-112612085D02*
X90162085Y-112288798D01*
X90162085Y-112288798D02*
X89588340Y-111715053D01*
X89588340Y-111715053D02*
X89588340Y-111553123D01*
X86500000Y-120100000D02*
X87250000Y-119350000D01*
X87250000Y-119350000D02*
X89300000Y-119350000D01*
M02*
