G04 (created by PCBNEW-RS274X (2011-12-28 BZR 3254)-stable) date 12/14/2012 5:03:44 PM*
G01*
G70*
G90*
%MOIN*%
G04 Gerber Fmt 3.4, Leading zero omitted, Abs format*
%FSLAX34Y34*%
G04 APERTURE LIST*
%ADD10C,0.006000*%
%ADD11R,0.056000X0.040000*%
%ADD12R,0.118000X0.098000*%
%ADD13R,0.149000X0.098000*%
%ADD14R,0.142000X0.040000*%
%ADD15C,0.056000*%
%ADD16R,0.036500X0.085000*%
%ADD17R,0.100000X0.164000*%
%ADD18R,0.100000X0.060000*%
%ADD19R,0.090000X0.130000*%
%ADD20R,0.055000X0.075000*%
%ADD21R,0.075000X0.055000*%
%ADD22R,0.045000X0.065000*%
%ADD23R,0.080000X0.080000*%
%ADD24C,0.080000*%
%ADD25R,0.067200X0.067200*%
%ADD26C,0.076000*%
G04 APERTURE END LIST*
G54D10*
G54D11*
X50583Y-27975D03*
X51211Y-27975D03*
X50583Y-27660D03*
X51211Y-27660D03*
X50583Y-27346D03*
X51211Y-27346D03*
X50583Y-27031D03*
X51211Y-27031D03*
G54D12*
X38355Y-25310D03*
X38355Y-28810D03*
G54D13*
X40700Y-25310D03*
X40700Y-28810D03*
G54D14*
X40735Y-26440D03*
X40735Y-26770D03*
X40735Y-27060D03*
X40735Y-27350D03*
X40735Y-27680D03*
G54D15*
X39555Y-26200D03*
X39555Y-27920D03*
G54D16*
X48372Y-29950D03*
X48628Y-29950D03*
X48884Y-29950D03*
X49140Y-29950D03*
X47608Y-27450D03*
X47604Y-29950D03*
X47860Y-29950D03*
X48116Y-29950D03*
X49396Y-27450D03*
X49140Y-27450D03*
X48884Y-27450D03*
X48628Y-27450D03*
X48372Y-27450D03*
X48116Y-27450D03*
X49396Y-29950D03*
X47860Y-27450D03*
X47348Y-29950D03*
X49652Y-29950D03*
X49652Y-27450D03*
X47348Y-27450D03*
G54D17*
X38090Y-31005D03*
G54D18*
X40690Y-31005D03*
X40690Y-30105D03*
X40690Y-31905D03*
G54D19*
X43300Y-32690D03*
X44700Y-32690D03*
G54D20*
X48191Y-33145D03*
X48941Y-33145D03*
G54D21*
X44040Y-29545D03*
X44040Y-28795D03*
X51100Y-31425D03*
X51100Y-32175D03*
G54D20*
X45995Y-29000D03*
X45245Y-29000D03*
X48150Y-26292D03*
X47400Y-26292D03*
X42734Y-29844D03*
X41984Y-29844D03*
X41975Y-30772D03*
X42725Y-30772D03*
X41966Y-28940D03*
X42716Y-28940D03*
X45994Y-29981D03*
X45244Y-29981D03*
X45972Y-28104D03*
X45222Y-28104D03*
X47282Y-33138D03*
X46532Y-33138D03*
G54D22*
X43200Y-27270D03*
X43800Y-27270D03*
X43210Y-26460D03*
X43810Y-26460D03*
G54D23*
X52800Y-26800D03*
G54D24*
X53800Y-26800D03*
X52800Y-27800D03*
X53800Y-27800D03*
X52800Y-28800D03*
X53800Y-28800D03*
X52800Y-29800D03*
X53800Y-29800D03*
X52800Y-30800D03*
X53800Y-30800D03*
X52800Y-31800D03*
X53800Y-31800D03*
X52800Y-32800D03*
X53800Y-32800D03*
G54D23*
X38795Y-33180D03*
G54D24*
X39795Y-33180D03*
X40795Y-33180D03*
G54D23*
X51200Y-33300D03*
G54D24*
X50200Y-33300D03*
G54D23*
X43200Y-25300D03*
G54D24*
X44200Y-25300D03*
X45200Y-25300D03*
X46200Y-25300D03*
X47200Y-25300D03*
X48200Y-25300D03*
G54D25*
X44070Y-31253D03*
X44070Y-30427D03*
G54D26*
X46730Y-31620D03*
X48730Y-31620D03*
M02*
