G04 (created by PCBNEW-RS274X (2011-12-28 BZR 3254)-stable) date 12/14/2012 5:03:44 PM*
G01*
G70*
G90*
%MOIN*%
G04 Gerber Fmt 3.4, Leading zero omitted, Abs format*
%FSLAX34Y34*%
G04 APERTURE LIST*
%ADD10C,0.006000*%
%ADD11R,0.060000X0.060000*%
%ADD12C,0.060000*%
%ADD13C,0.056000*%
%ADD14C,0.030000*%
%ADD15C,0.024000*%
%ADD16C,0.030000*%
%ADD17C,0.016000*%
%ADD18C,0.012000*%
%ADD19C,0.010000*%
G04 APERTURE END LIST*
G54D10*
G54D11*
X52800Y-26800D03*
G54D12*
X53800Y-26800D03*
X52800Y-27800D03*
X53800Y-27800D03*
X52800Y-28800D03*
X53800Y-28800D03*
X52800Y-29800D03*
X53800Y-29800D03*
X52800Y-30800D03*
X53800Y-30800D03*
X52800Y-31800D03*
X53800Y-31800D03*
X52800Y-32800D03*
X53800Y-32800D03*
G54D11*
X38795Y-33180D03*
G54D12*
X39795Y-33180D03*
X40795Y-33180D03*
G54D11*
X51200Y-33300D03*
G54D12*
X50200Y-33300D03*
G54D11*
X43200Y-25300D03*
G54D12*
X44200Y-25300D03*
X45200Y-25300D03*
X46200Y-25300D03*
X47200Y-25300D03*
X48200Y-25300D03*
G54D13*
X46730Y-31620D03*
X48730Y-31620D03*
G54D14*
X41940Y-28430D03*
X42130Y-26220D03*
X50675Y-30720D03*
X46566Y-29405D03*
X50675Y-30715D03*
X45405Y-26895D03*
X48375Y-34020D03*
X47979Y-28931D03*
X47138Y-29309D03*
X45810Y-31830D03*
X46605Y-30705D03*
X54750Y-25000D03*
X55140Y-28360D03*
X55140Y-30320D03*
X55140Y-32290D03*
X42600Y-27645D03*
X44665Y-28165D03*
X54113Y-33818D03*
X55350Y-25200D03*
X55350Y-25800D03*
X37960Y-32515D03*
X55134Y-33822D03*
X46865Y-25970D03*
X47741Y-31203D03*
X38385Y-27585D03*
X42355Y-33420D03*
X41601Y-25284D03*
X53042Y-33840D03*
X42561Y-26019D03*
X39570Y-31505D03*
X39564Y-28810D03*
X50275Y-30420D03*
X51375Y-29455D03*
X52150Y-30740D03*
X52150Y-31820D03*
X52150Y-32630D03*
X49050Y-30950D03*
X52443Y-33845D03*
X42355Y-31950D03*
X48490Y-28470D03*
X51890Y-33845D03*
X38430Y-26685D03*
X44649Y-26898D03*
G54D15*
X42130Y-27935D02*
X42130Y-27950D01*
X42130Y-27950D02*
X41940Y-28140D01*
X41940Y-28140D02*
X41940Y-28430D01*
X41980Y-28100D02*
X41958Y-28122D01*
X42130Y-26220D02*
X42130Y-27935D01*
X42013Y-28067D02*
X41980Y-28100D01*
X42130Y-27950D02*
X42013Y-28067D01*
X53800Y-26800D02*
X53194Y-26194D01*
X52016Y-26496D02*
X51884Y-26628D01*
G54D16*
X50360Y-31035D02*
X50675Y-30720D01*
X48980Y-34020D02*
X49460Y-33540D01*
G54D15*
X51884Y-28076D02*
X50675Y-29285D01*
G54D17*
X46566Y-28056D02*
X46566Y-29405D01*
G54D16*
X50360Y-31711D02*
X50360Y-31932D01*
G54D15*
X51884Y-26628D02*
X51884Y-28076D01*
X50675Y-29285D02*
X50675Y-30720D01*
G54D16*
X50360Y-31932D02*
X50360Y-31035D01*
X48375Y-34020D02*
X48980Y-34020D01*
G54D15*
X52016Y-26496D02*
X52318Y-26194D01*
G54D16*
X49460Y-33540D02*
X49460Y-32832D01*
G54D15*
X52318Y-26194D02*
X53194Y-26194D01*
G54D16*
X49460Y-32832D02*
X49460Y-33476D01*
X50360Y-31932D02*
X49460Y-32832D01*
G54D17*
X45405Y-26895D02*
X46566Y-28056D01*
X46566Y-29405D02*
X46566Y-29426D01*
X43919Y-26019D02*
X45061Y-26019D01*
X46122Y-27068D02*
X46164Y-27110D01*
X46122Y-27068D02*
X47979Y-28925D01*
X45061Y-26019D02*
X45073Y-26019D01*
X45073Y-26019D02*
X46122Y-27068D01*
X43200Y-25300D02*
X43919Y-26019D01*
X47979Y-28925D02*
X47979Y-28931D01*
G54D18*
X46605Y-29842D02*
X47138Y-29309D01*
X46605Y-30705D02*
X46605Y-29842D01*
X55350Y-28150D02*
X55350Y-26850D01*
X55350Y-27130D02*
X55350Y-26850D01*
X55350Y-26850D02*
X55350Y-25800D01*
X42161Y-25619D02*
X42561Y-26019D01*
X49050Y-30950D02*
X49745Y-30950D01*
X55350Y-25800D02*
X55350Y-25200D01*
X55140Y-32290D02*
X55140Y-30320D01*
X55140Y-28360D02*
X55350Y-28150D01*
X39570Y-31960D02*
X39015Y-32515D01*
X39564Y-28810D02*
X39564Y-31499D01*
X52800Y-32800D02*
X53042Y-33042D01*
X39015Y-32515D02*
X37960Y-32515D01*
X50220Y-33300D02*
X50890Y-32630D01*
X47400Y-27380D02*
X48490Y-28470D01*
X50200Y-33300D02*
X50220Y-33300D01*
X53042Y-33042D02*
X53042Y-33840D01*
X41603Y-25282D02*
X41824Y-25282D01*
X41824Y-25282D02*
X42161Y-25619D01*
X47741Y-31203D02*
X47747Y-31203D01*
X49050Y-30950D02*
X48000Y-30950D01*
X39570Y-31505D02*
X39570Y-31960D01*
X46865Y-25970D02*
X47400Y-26505D01*
X41601Y-25284D02*
X41603Y-25282D01*
X39564Y-31499D02*
X39570Y-31505D01*
X42355Y-31950D02*
X42355Y-33420D01*
X52150Y-30740D02*
X52150Y-30230D01*
X52065Y-30145D02*
X51375Y-29455D01*
X52150Y-30230D02*
X52065Y-30145D01*
X52150Y-31820D02*
X52150Y-30740D01*
X52150Y-32630D02*
X52150Y-31820D01*
X55130Y-33818D02*
X55134Y-33822D01*
X50890Y-32630D02*
X50900Y-32620D01*
X50900Y-32620D02*
X52140Y-32620D01*
X52140Y-32620D02*
X52150Y-32630D01*
X47747Y-31203D02*
X48000Y-30950D01*
X39564Y-28810D02*
X39566Y-28810D01*
X52443Y-33845D02*
X51890Y-33845D01*
X54113Y-33818D02*
X55130Y-33818D01*
X44649Y-28149D02*
X44665Y-28165D01*
X49745Y-30950D02*
X50275Y-30420D01*
X44649Y-26898D02*
X44649Y-28149D01*
X47400Y-26505D02*
X47400Y-27380D01*
X38430Y-26685D02*
X38385Y-26730D01*
X38385Y-26730D02*
X38385Y-27585D01*
G54D10*
G36*
X52850Y-26850D02*
X52750Y-26850D01*
X52750Y-26750D01*
X52850Y-26750D01*
X52850Y-26850D01*
X52850Y-26850D01*
G37*
G54D19*
X52850Y-26850D02*
X52750Y-26850D01*
X52750Y-26750D01*
X52850Y-26750D01*
X52850Y-26850D01*
G54D10*
G36*
X55625Y-34335D02*
X53108Y-34335D01*
X53108Y-33178D01*
X52800Y-32871D01*
X52729Y-32941D01*
X52729Y-32800D01*
X52422Y-32492D01*
X52328Y-32519D01*
X52257Y-32721D01*
X52268Y-32934D01*
X52328Y-33081D01*
X52422Y-33108D01*
X52729Y-32800D01*
X52729Y-32941D01*
X52492Y-33178D01*
X52519Y-33272D01*
X52721Y-33343D01*
X52934Y-33332D01*
X53081Y-33272D01*
X53108Y-33178D01*
X53108Y-34335D01*
X51749Y-34335D01*
X51749Y-33650D01*
X51749Y-33551D01*
X51749Y-32951D01*
X51711Y-32859D01*
X51641Y-32789D01*
X51550Y-32751D01*
X51451Y-32751D01*
X50851Y-32751D01*
X50759Y-32789D01*
X50689Y-32859D01*
X50651Y-32950D01*
X50651Y-33012D01*
X50578Y-32992D01*
X50271Y-33300D01*
X50578Y-33608D01*
X50651Y-33587D01*
X50651Y-33649D01*
X50689Y-33741D01*
X50759Y-33811D01*
X50850Y-33849D01*
X50949Y-33849D01*
X51549Y-33849D01*
X51641Y-33811D01*
X51711Y-33741D01*
X51749Y-33650D01*
X51749Y-34335D01*
X50508Y-34335D01*
X49215Y-34335D01*
X49263Y-34303D01*
X49739Y-33825D01*
X49742Y-33823D01*
X49743Y-33823D01*
X49818Y-33709D01*
X49875Y-33766D01*
X49907Y-33733D01*
X49919Y-33772D01*
X50121Y-33843D01*
X50334Y-33832D01*
X50481Y-33772D01*
X50508Y-33678D01*
X50235Y-33406D01*
X50200Y-33371D01*
X50129Y-33300D01*
X50200Y-33229D01*
X50235Y-33194D01*
X50508Y-32922D01*
X50481Y-32828D01*
X50279Y-32757D01*
X50090Y-32766D01*
X50639Y-32217D01*
X50642Y-32215D01*
X50643Y-32215D01*
X50729Y-32086D01*
X50730Y-32085D01*
X50753Y-31963D01*
X50760Y-31933D01*
X50759Y-31932D01*
X50760Y-31932D01*
X50760Y-31711D01*
X50760Y-31201D01*
X50958Y-31003D01*
X50962Y-30997D01*
X51013Y-30946D01*
X51041Y-30877D01*
X51044Y-30874D01*
X51044Y-30869D01*
X51074Y-30800D01*
X51074Y-30795D01*
X51074Y-30724D01*
X51075Y-30720D01*
X51074Y-30715D01*
X51074Y-30641D01*
X51074Y-30636D01*
X51045Y-30566D01*
X51045Y-29438D01*
X52143Y-28339D01*
X52145Y-28338D01*
X52146Y-28338D01*
X52226Y-28218D01*
X52254Y-28077D01*
X52253Y-28076D01*
X52254Y-28076D01*
X52254Y-27156D01*
X52289Y-27241D01*
X52359Y-27311D01*
X52450Y-27349D01*
X52512Y-27349D01*
X52492Y-27422D01*
X52800Y-27729D01*
X53108Y-27422D01*
X53087Y-27349D01*
X53150Y-27349D01*
X53241Y-27311D01*
X53311Y-27241D01*
X53349Y-27149D01*
X53349Y-27125D01*
X53489Y-27265D01*
X53573Y-27300D01*
X53489Y-27335D01*
X53335Y-27489D01*
X53297Y-27580D01*
X53272Y-27519D01*
X53178Y-27492D01*
X52871Y-27800D01*
X53178Y-28108D01*
X53272Y-28081D01*
X53295Y-28015D01*
X53335Y-28111D01*
X53489Y-28265D01*
X53573Y-28300D01*
X53489Y-28335D01*
X53335Y-28489D01*
X53297Y-28580D01*
X53272Y-28519D01*
X53178Y-28492D01*
X53108Y-28562D01*
X53108Y-28422D01*
X53081Y-28328D01*
X53007Y-28302D01*
X53081Y-28272D01*
X53108Y-28178D01*
X52800Y-27871D01*
X52729Y-27941D01*
X52729Y-27800D01*
X52422Y-27492D01*
X52328Y-27519D01*
X52257Y-27721D01*
X52268Y-27934D01*
X52328Y-28081D01*
X52422Y-28108D01*
X52729Y-27800D01*
X52729Y-27941D01*
X52492Y-28178D01*
X52519Y-28272D01*
X52592Y-28297D01*
X52519Y-28328D01*
X52492Y-28422D01*
X52800Y-28729D01*
X53108Y-28422D01*
X53108Y-28562D01*
X52871Y-28800D01*
X53178Y-29108D01*
X53272Y-29081D01*
X53295Y-29015D01*
X53335Y-29111D01*
X53489Y-29265D01*
X53573Y-29300D01*
X53489Y-29335D01*
X53335Y-29489D01*
X53297Y-29580D01*
X53272Y-29519D01*
X53178Y-29492D01*
X53108Y-29562D01*
X53108Y-29422D01*
X53081Y-29328D01*
X53007Y-29302D01*
X53081Y-29272D01*
X53108Y-29178D01*
X52800Y-28871D01*
X52729Y-28941D01*
X52729Y-28800D01*
X52422Y-28492D01*
X52328Y-28519D01*
X52257Y-28721D01*
X52268Y-28934D01*
X52328Y-29081D01*
X52422Y-29108D01*
X52729Y-28800D01*
X52729Y-28941D01*
X52492Y-29178D01*
X52519Y-29272D01*
X52592Y-29297D01*
X52519Y-29328D01*
X52492Y-29422D01*
X52800Y-29729D01*
X53108Y-29422D01*
X53108Y-29562D01*
X52871Y-29800D01*
X53178Y-30108D01*
X53272Y-30081D01*
X53295Y-30015D01*
X53335Y-30111D01*
X53489Y-30265D01*
X53573Y-30300D01*
X53489Y-30335D01*
X53335Y-30489D01*
X53297Y-30580D01*
X53272Y-30519D01*
X53178Y-30492D01*
X53108Y-30562D01*
X53108Y-30422D01*
X53081Y-30328D01*
X53007Y-30302D01*
X53081Y-30272D01*
X53108Y-30178D01*
X52800Y-29871D01*
X52729Y-29941D01*
X52729Y-29800D01*
X52422Y-29492D01*
X52328Y-29519D01*
X52257Y-29721D01*
X52268Y-29934D01*
X52328Y-30081D01*
X52422Y-30108D01*
X52729Y-29800D01*
X52729Y-29941D01*
X52492Y-30178D01*
X52519Y-30272D01*
X52592Y-30297D01*
X52519Y-30328D01*
X52492Y-30422D01*
X52800Y-30729D01*
X53108Y-30422D01*
X53108Y-30562D01*
X52871Y-30800D01*
X53178Y-31108D01*
X53272Y-31081D01*
X53295Y-31015D01*
X53335Y-31111D01*
X53489Y-31265D01*
X53573Y-31300D01*
X53489Y-31335D01*
X53335Y-31489D01*
X53297Y-31580D01*
X53272Y-31519D01*
X53178Y-31492D01*
X53108Y-31562D01*
X53108Y-31422D01*
X53081Y-31328D01*
X53007Y-31302D01*
X53081Y-31272D01*
X53108Y-31178D01*
X52800Y-30871D01*
X52729Y-30941D01*
X52729Y-30800D01*
X52422Y-30492D01*
X52328Y-30519D01*
X52257Y-30721D01*
X52268Y-30934D01*
X52328Y-31081D01*
X52422Y-31108D01*
X52729Y-30800D01*
X52729Y-30941D01*
X52492Y-31178D01*
X52519Y-31272D01*
X52592Y-31297D01*
X52519Y-31328D01*
X52492Y-31422D01*
X52800Y-31729D01*
X53108Y-31422D01*
X53108Y-31562D01*
X52871Y-31800D01*
X53178Y-32108D01*
X53272Y-32081D01*
X53295Y-32015D01*
X53335Y-32111D01*
X53489Y-32265D01*
X53573Y-32300D01*
X53489Y-32335D01*
X53335Y-32489D01*
X53297Y-32580D01*
X53272Y-32519D01*
X53178Y-32492D01*
X53108Y-32562D01*
X53108Y-32422D01*
X53081Y-32328D01*
X53007Y-32302D01*
X53081Y-32272D01*
X53108Y-32178D01*
X52800Y-31871D01*
X52729Y-31941D01*
X52729Y-31800D01*
X52422Y-31492D01*
X52328Y-31519D01*
X52257Y-31721D01*
X52268Y-31934D01*
X52328Y-32081D01*
X52422Y-32108D01*
X52729Y-31800D01*
X52729Y-31941D01*
X52492Y-32178D01*
X52519Y-32272D01*
X52592Y-32297D01*
X52519Y-32328D01*
X52492Y-32422D01*
X52800Y-32729D01*
X53108Y-32422D01*
X53108Y-32562D01*
X52871Y-32800D01*
X53178Y-33108D01*
X53272Y-33081D01*
X53295Y-33015D01*
X53335Y-33111D01*
X53489Y-33265D01*
X53691Y-33349D01*
X53909Y-33349D01*
X54111Y-33265D01*
X54265Y-33111D01*
X54349Y-32909D01*
X54349Y-32691D01*
X54265Y-32489D01*
X54111Y-32335D01*
X54026Y-32300D01*
X54111Y-32265D01*
X54265Y-32111D01*
X54349Y-31909D01*
X54349Y-31691D01*
X54265Y-31489D01*
X54111Y-31335D01*
X54026Y-31300D01*
X54111Y-31265D01*
X54265Y-31111D01*
X54349Y-30909D01*
X54349Y-30691D01*
X54265Y-30489D01*
X54111Y-30335D01*
X54026Y-30300D01*
X54111Y-30265D01*
X54265Y-30111D01*
X54349Y-29909D01*
X54349Y-29691D01*
X54265Y-29489D01*
X54111Y-29335D01*
X54026Y-29300D01*
X54111Y-29265D01*
X54265Y-29111D01*
X54349Y-28909D01*
X54349Y-28691D01*
X54265Y-28489D01*
X54111Y-28335D01*
X54026Y-28300D01*
X54111Y-28265D01*
X54265Y-28111D01*
X54349Y-27909D01*
X54349Y-27691D01*
X54265Y-27489D01*
X54111Y-27335D01*
X54026Y-27300D01*
X54111Y-27265D01*
X54265Y-27111D01*
X54349Y-26909D01*
X54349Y-26691D01*
X54265Y-26489D01*
X54111Y-26335D01*
X53909Y-26251D01*
X53775Y-26251D01*
X53456Y-25932D01*
X53336Y-25852D01*
X53311Y-25847D01*
X53194Y-25823D01*
X53189Y-25824D01*
X52318Y-25824D01*
X52176Y-25852D01*
X52056Y-25932D01*
X51754Y-26234D01*
X51752Y-26236D01*
X51622Y-26366D01*
X51542Y-26486D01*
X51537Y-26510D01*
X51513Y-26628D01*
X51514Y-26632D01*
X51514Y-27922D01*
X50413Y-29023D01*
X50333Y-29143D01*
X50328Y-29167D01*
X50304Y-29285D01*
X50305Y-29289D01*
X50305Y-30524D01*
X50077Y-30752D01*
X49990Y-30882D01*
X49960Y-31035D01*
X49960Y-31711D01*
X49960Y-31766D01*
X49260Y-32466D01*
X49260Y-31726D01*
X49260Y-31515D01*
X49179Y-31320D01*
X49031Y-31171D01*
X48836Y-31090D01*
X48749Y-31090D01*
X48749Y-25409D01*
X48749Y-25191D01*
X48665Y-24989D01*
X48511Y-24835D01*
X48309Y-24751D01*
X48091Y-24751D01*
X47889Y-24835D01*
X47735Y-24989D01*
X47700Y-25073D01*
X47665Y-24989D01*
X47511Y-24835D01*
X47309Y-24751D01*
X47091Y-24751D01*
X46889Y-24835D01*
X46735Y-24989D01*
X46700Y-25073D01*
X46665Y-24989D01*
X46511Y-24835D01*
X46309Y-24751D01*
X46091Y-24751D01*
X45889Y-24835D01*
X45735Y-24989D01*
X45697Y-25080D01*
X45672Y-25019D01*
X45578Y-24992D01*
X45508Y-25062D01*
X45508Y-24922D01*
X45481Y-24828D01*
X45279Y-24757D01*
X45066Y-24768D01*
X44919Y-24828D01*
X44892Y-24922D01*
X45200Y-25229D01*
X45508Y-24922D01*
X45508Y-25062D01*
X45271Y-25300D01*
X45578Y-25608D01*
X45672Y-25581D01*
X45695Y-25515D01*
X45735Y-25611D01*
X45889Y-25765D01*
X46091Y-25849D01*
X46309Y-25849D01*
X46511Y-25765D01*
X46665Y-25611D01*
X46700Y-25526D01*
X46735Y-25611D01*
X46889Y-25765D01*
X47091Y-25849D01*
X47309Y-25849D01*
X47511Y-25765D01*
X47665Y-25611D01*
X47700Y-25526D01*
X47735Y-25611D01*
X47889Y-25765D01*
X48091Y-25849D01*
X48309Y-25849D01*
X48511Y-25765D01*
X48665Y-25611D01*
X48749Y-25409D01*
X48749Y-31090D01*
X48625Y-31090D01*
X48430Y-31171D01*
X48378Y-31222D01*
X48378Y-29011D01*
X48378Y-28852D01*
X48317Y-28705D01*
X48205Y-28593D01*
X48059Y-28532D01*
X48052Y-28532D01*
X46398Y-26878D01*
X46397Y-26876D01*
X46356Y-26836D01*
X46355Y-26835D01*
X46355Y-26834D01*
X45346Y-25826D01*
X45481Y-25772D01*
X45508Y-25678D01*
X45235Y-25406D01*
X45200Y-25371D01*
X45129Y-25300D01*
X45094Y-25265D01*
X44822Y-24992D01*
X44728Y-25019D01*
X44704Y-25084D01*
X44665Y-24989D01*
X44511Y-24835D01*
X44309Y-24751D01*
X44091Y-24751D01*
X43889Y-24835D01*
X43749Y-24975D01*
X43749Y-24951D01*
X43711Y-24859D01*
X43641Y-24789D01*
X43550Y-24751D01*
X43451Y-24751D01*
X42851Y-24751D01*
X42759Y-24789D01*
X42689Y-24859D01*
X42651Y-24950D01*
X42651Y-25049D01*
X42651Y-25649D01*
X42689Y-25741D01*
X42759Y-25811D01*
X42850Y-25849D01*
X42949Y-25849D01*
X43282Y-25849D01*
X43685Y-26252D01*
X43686Y-26252D01*
X43757Y-26299D01*
X43792Y-26323D01*
X43793Y-26324D01*
X43918Y-26348D01*
X43919Y-26349D01*
X44936Y-26349D01*
X45161Y-26574D01*
X45067Y-26669D01*
X45006Y-26815D01*
X45006Y-26974D01*
X45067Y-27121D01*
X45179Y-27233D01*
X45325Y-27294D01*
X45337Y-27294D01*
X46236Y-28192D01*
X46236Y-29171D01*
X46228Y-29179D01*
X46167Y-29325D01*
X46167Y-29484D01*
X46228Y-29631D01*
X46340Y-29743D01*
X46486Y-29804D01*
X46645Y-29804D01*
X46792Y-29743D01*
X46904Y-29631D01*
X46965Y-29485D01*
X46965Y-29326D01*
X46904Y-29179D01*
X46896Y-29171D01*
X46896Y-28308D01*
X47580Y-28992D01*
X47580Y-29010D01*
X47641Y-29157D01*
X47753Y-29269D01*
X47899Y-29330D01*
X48058Y-29330D01*
X48205Y-29269D01*
X48317Y-29157D01*
X48378Y-29011D01*
X48378Y-31222D01*
X48281Y-31319D01*
X48200Y-31514D01*
X48200Y-31725D01*
X48281Y-31920D01*
X48429Y-32069D01*
X48624Y-32150D01*
X48835Y-32150D01*
X49030Y-32069D01*
X49179Y-31921D01*
X49260Y-31726D01*
X49260Y-32466D01*
X49177Y-32549D01*
X49090Y-32679D01*
X49060Y-32832D01*
X49060Y-33374D01*
X48814Y-33620D01*
X48375Y-33620D01*
X48369Y-33621D01*
X48296Y-33621D01*
X48229Y-33648D01*
X48222Y-33650D01*
X48215Y-33654D01*
X48149Y-33682D01*
X48098Y-33732D01*
X48092Y-33737D01*
X48087Y-33743D01*
X48037Y-33794D01*
X48008Y-33861D01*
X48005Y-33867D01*
X48003Y-33873D01*
X47976Y-33940D01*
X47976Y-34014D01*
X47975Y-34020D01*
X47976Y-34025D01*
X47976Y-34099D01*
X48003Y-34165D01*
X48005Y-34173D01*
X48009Y-34179D01*
X48037Y-34246D01*
X48087Y-34296D01*
X48092Y-34303D01*
X48098Y-34307D01*
X48126Y-34335D01*
X47260Y-34335D01*
X47260Y-31726D01*
X47260Y-31515D01*
X47179Y-31320D01*
X47031Y-31171D01*
X46836Y-31090D01*
X46625Y-31090D01*
X46430Y-31171D01*
X46281Y-31319D01*
X46200Y-31514D01*
X46200Y-31725D01*
X46281Y-31920D01*
X46429Y-32069D01*
X46624Y-32150D01*
X46835Y-32150D01*
X47030Y-32069D01*
X47179Y-31921D01*
X47260Y-31726D01*
X47260Y-34335D01*
X42529Y-34335D01*
X42529Y-26300D01*
X42529Y-26141D01*
X42468Y-25994D01*
X42356Y-25882D01*
X42210Y-25821D01*
X42051Y-25821D01*
X41904Y-25882D01*
X41792Y-25994D01*
X41731Y-26140D01*
X41731Y-26299D01*
X41760Y-26368D01*
X41760Y-27796D01*
X41751Y-27805D01*
X41750Y-27806D01*
X41749Y-27807D01*
X41726Y-27829D01*
X41718Y-27837D01*
X41718Y-27838D01*
X41717Y-27838D01*
X41696Y-27860D01*
X41695Y-27860D01*
X41678Y-27878D01*
X41598Y-27998D01*
X41593Y-28022D01*
X41569Y-28140D01*
X41570Y-28144D01*
X41570Y-28280D01*
X41541Y-28350D01*
X41541Y-28509D01*
X41602Y-28656D01*
X41714Y-28768D01*
X41860Y-28829D01*
X42019Y-28829D01*
X42166Y-28768D01*
X42278Y-28656D01*
X42339Y-28510D01*
X42339Y-28351D01*
X42313Y-28289D01*
X42389Y-28213D01*
X42391Y-28212D01*
X42392Y-28212D01*
X42472Y-28092D01*
X42500Y-27950D01*
X42500Y-27935D01*
X42500Y-26369D01*
X42529Y-26300D01*
X42529Y-34335D01*
X41344Y-34335D01*
X41344Y-33289D01*
X41344Y-33071D01*
X41260Y-32869D01*
X41106Y-32715D01*
X40904Y-32631D01*
X40686Y-32631D01*
X40484Y-32715D01*
X40330Y-32869D01*
X40295Y-32953D01*
X40260Y-32869D01*
X40106Y-32715D01*
X39985Y-32664D01*
X39985Y-28006D01*
X39985Y-27835D01*
X39985Y-26286D01*
X39985Y-26115D01*
X39920Y-25957D01*
X39799Y-25836D01*
X39641Y-25770D01*
X39470Y-25770D01*
X39312Y-25835D01*
X39191Y-25956D01*
X39125Y-26114D01*
X39125Y-26285D01*
X39190Y-26443D01*
X39311Y-26564D01*
X39469Y-26630D01*
X39640Y-26630D01*
X39798Y-26565D01*
X39919Y-26444D01*
X39985Y-26286D01*
X39985Y-27835D01*
X39920Y-27677D01*
X39799Y-27556D01*
X39641Y-27490D01*
X39470Y-27490D01*
X39312Y-27555D01*
X39191Y-27676D01*
X39125Y-27834D01*
X39125Y-28005D01*
X39190Y-28163D01*
X39311Y-28284D01*
X39469Y-28350D01*
X39640Y-28350D01*
X39798Y-28285D01*
X39919Y-28164D01*
X39985Y-28006D01*
X39985Y-32664D01*
X39904Y-32631D01*
X39686Y-32631D01*
X39484Y-32715D01*
X39344Y-32855D01*
X39344Y-32831D01*
X39306Y-32739D01*
X39236Y-32669D01*
X39145Y-32631D01*
X39046Y-32631D01*
X38446Y-32631D01*
X38354Y-32669D01*
X38284Y-32739D01*
X38246Y-32830D01*
X38246Y-32929D01*
X38246Y-33529D01*
X38284Y-33621D01*
X38354Y-33691D01*
X38445Y-33729D01*
X38544Y-33729D01*
X39144Y-33729D01*
X39236Y-33691D01*
X39306Y-33621D01*
X39344Y-33530D01*
X39344Y-33505D01*
X39484Y-33645D01*
X39686Y-33729D01*
X39904Y-33729D01*
X40106Y-33645D01*
X40260Y-33491D01*
X40295Y-33406D01*
X40330Y-33491D01*
X40484Y-33645D01*
X40686Y-33729D01*
X40904Y-33729D01*
X41106Y-33645D01*
X41260Y-33491D01*
X41344Y-33289D01*
X41344Y-34335D01*
X37684Y-34335D01*
X37684Y-24713D01*
X55625Y-24713D01*
X55625Y-34335D01*
X55625Y-34335D01*
G37*
G54D19*
X55625Y-34335D02*
X53108Y-34335D01*
X53108Y-33178D01*
X52800Y-32871D01*
X52729Y-32941D01*
X52729Y-32800D01*
X52422Y-32492D01*
X52328Y-32519D01*
X52257Y-32721D01*
X52268Y-32934D01*
X52328Y-33081D01*
X52422Y-33108D01*
X52729Y-32800D01*
X52729Y-32941D01*
X52492Y-33178D01*
X52519Y-33272D01*
X52721Y-33343D01*
X52934Y-33332D01*
X53081Y-33272D01*
X53108Y-33178D01*
X53108Y-34335D01*
X51749Y-34335D01*
X51749Y-33650D01*
X51749Y-33551D01*
X51749Y-32951D01*
X51711Y-32859D01*
X51641Y-32789D01*
X51550Y-32751D01*
X51451Y-32751D01*
X50851Y-32751D01*
X50759Y-32789D01*
X50689Y-32859D01*
X50651Y-32950D01*
X50651Y-33012D01*
X50578Y-32992D01*
X50271Y-33300D01*
X50578Y-33608D01*
X50651Y-33587D01*
X50651Y-33649D01*
X50689Y-33741D01*
X50759Y-33811D01*
X50850Y-33849D01*
X50949Y-33849D01*
X51549Y-33849D01*
X51641Y-33811D01*
X51711Y-33741D01*
X51749Y-33650D01*
X51749Y-34335D01*
X50508Y-34335D01*
X49215Y-34335D01*
X49263Y-34303D01*
X49739Y-33825D01*
X49742Y-33823D01*
X49743Y-33823D01*
X49818Y-33709D01*
X49875Y-33766D01*
X49907Y-33733D01*
X49919Y-33772D01*
X50121Y-33843D01*
X50334Y-33832D01*
X50481Y-33772D01*
X50508Y-33678D01*
X50235Y-33406D01*
X50200Y-33371D01*
X50129Y-33300D01*
X50200Y-33229D01*
X50235Y-33194D01*
X50508Y-32922D01*
X50481Y-32828D01*
X50279Y-32757D01*
X50090Y-32766D01*
X50639Y-32217D01*
X50642Y-32215D01*
X50643Y-32215D01*
X50729Y-32086D01*
X50730Y-32085D01*
X50753Y-31963D01*
X50760Y-31933D01*
X50759Y-31932D01*
X50760Y-31932D01*
X50760Y-31711D01*
X50760Y-31201D01*
X50958Y-31003D01*
X50962Y-30997D01*
X51013Y-30946D01*
X51041Y-30877D01*
X51044Y-30874D01*
X51044Y-30869D01*
X51074Y-30800D01*
X51074Y-30795D01*
X51074Y-30724D01*
X51075Y-30720D01*
X51074Y-30715D01*
X51074Y-30641D01*
X51074Y-30636D01*
X51045Y-30566D01*
X51045Y-29438D01*
X52143Y-28339D01*
X52145Y-28338D01*
X52146Y-28338D01*
X52226Y-28218D01*
X52254Y-28077D01*
X52253Y-28076D01*
X52254Y-28076D01*
X52254Y-27156D01*
X52289Y-27241D01*
X52359Y-27311D01*
X52450Y-27349D01*
X52512Y-27349D01*
X52492Y-27422D01*
X52800Y-27729D01*
X53108Y-27422D01*
X53087Y-27349D01*
X53150Y-27349D01*
X53241Y-27311D01*
X53311Y-27241D01*
X53349Y-27149D01*
X53349Y-27125D01*
X53489Y-27265D01*
X53573Y-27300D01*
X53489Y-27335D01*
X53335Y-27489D01*
X53297Y-27580D01*
X53272Y-27519D01*
X53178Y-27492D01*
X52871Y-27800D01*
X53178Y-28108D01*
X53272Y-28081D01*
X53295Y-28015D01*
X53335Y-28111D01*
X53489Y-28265D01*
X53573Y-28300D01*
X53489Y-28335D01*
X53335Y-28489D01*
X53297Y-28580D01*
X53272Y-28519D01*
X53178Y-28492D01*
X53108Y-28562D01*
X53108Y-28422D01*
X53081Y-28328D01*
X53007Y-28302D01*
X53081Y-28272D01*
X53108Y-28178D01*
X52800Y-27871D01*
X52729Y-27941D01*
X52729Y-27800D01*
X52422Y-27492D01*
X52328Y-27519D01*
X52257Y-27721D01*
X52268Y-27934D01*
X52328Y-28081D01*
X52422Y-28108D01*
X52729Y-27800D01*
X52729Y-27941D01*
X52492Y-28178D01*
X52519Y-28272D01*
X52592Y-28297D01*
X52519Y-28328D01*
X52492Y-28422D01*
X52800Y-28729D01*
X53108Y-28422D01*
X53108Y-28562D01*
X52871Y-28800D01*
X53178Y-29108D01*
X53272Y-29081D01*
X53295Y-29015D01*
X53335Y-29111D01*
X53489Y-29265D01*
X53573Y-29300D01*
X53489Y-29335D01*
X53335Y-29489D01*
X53297Y-29580D01*
X53272Y-29519D01*
X53178Y-29492D01*
X53108Y-29562D01*
X53108Y-29422D01*
X53081Y-29328D01*
X53007Y-29302D01*
X53081Y-29272D01*
X53108Y-29178D01*
X52800Y-28871D01*
X52729Y-28941D01*
X52729Y-28800D01*
X52422Y-28492D01*
X52328Y-28519D01*
X52257Y-28721D01*
X52268Y-28934D01*
X52328Y-29081D01*
X52422Y-29108D01*
X52729Y-28800D01*
X52729Y-28941D01*
X52492Y-29178D01*
X52519Y-29272D01*
X52592Y-29297D01*
X52519Y-29328D01*
X52492Y-29422D01*
X52800Y-29729D01*
X53108Y-29422D01*
X53108Y-29562D01*
X52871Y-29800D01*
X53178Y-30108D01*
X53272Y-30081D01*
X53295Y-30015D01*
X53335Y-30111D01*
X53489Y-30265D01*
X53573Y-30300D01*
X53489Y-30335D01*
X53335Y-30489D01*
X53297Y-30580D01*
X53272Y-30519D01*
X53178Y-30492D01*
X53108Y-30562D01*
X53108Y-30422D01*
X53081Y-30328D01*
X53007Y-30302D01*
X53081Y-30272D01*
X53108Y-30178D01*
X52800Y-29871D01*
X52729Y-29941D01*
X52729Y-29800D01*
X52422Y-29492D01*
X52328Y-29519D01*
X52257Y-29721D01*
X52268Y-29934D01*
X52328Y-30081D01*
X52422Y-30108D01*
X52729Y-29800D01*
X52729Y-29941D01*
X52492Y-30178D01*
X52519Y-30272D01*
X52592Y-30297D01*
X52519Y-30328D01*
X52492Y-30422D01*
X52800Y-30729D01*
X53108Y-30422D01*
X53108Y-30562D01*
X52871Y-30800D01*
X53178Y-31108D01*
X53272Y-31081D01*
X53295Y-31015D01*
X53335Y-31111D01*
X53489Y-31265D01*
X53573Y-31300D01*
X53489Y-31335D01*
X53335Y-31489D01*
X53297Y-31580D01*
X53272Y-31519D01*
X53178Y-31492D01*
X53108Y-31562D01*
X53108Y-31422D01*
X53081Y-31328D01*
X53007Y-31302D01*
X53081Y-31272D01*
X53108Y-31178D01*
X52800Y-30871D01*
X52729Y-30941D01*
X52729Y-30800D01*
X52422Y-30492D01*
X52328Y-30519D01*
X52257Y-30721D01*
X52268Y-30934D01*
X52328Y-31081D01*
X52422Y-31108D01*
X52729Y-30800D01*
X52729Y-30941D01*
X52492Y-31178D01*
X52519Y-31272D01*
X52592Y-31297D01*
X52519Y-31328D01*
X52492Y-31422D01*
X52800Y-31729D01*
X53108Y-31422D01*
X53108Y-31562D01*
X52871Y-31800D01*
X53178Y-32108D01*
X53272Y-32081D01*
X53295Y-32015D01*
X53335Y-32111D01*
X53489Y-32265D01*
X53573Y-32300D01*
X53489Y-32335D01*
X53335Y-32489D01*
X53297Y-32580D01*
X53272Y-32519D01*
X53178Y-32492D01*
X53108Y-32562D01*
X53108Y-32422D01*
X53081Y-32328D01*
X53007Y-32302D01*
X53081Y-32272D01*
X53108Y-32178D01*
X52800Y-31871D01*
X52729Y-31941D01*
X52729Y-31800D01*
X52422Y-31492D01*
X52328Y-31519D01*
X52257Y-31721D01*
X52268Y-31934D01*
X52328Y-32081D01*
X52422Y-32108D01*
X52729Y-31800D01*
X52729Y-31941D01*
X52492Y-32178D01*
X52519Y-32272D01*
X52592Y-32297D01*
X52519Y-32328D01*
X52492Y-32422D01*
X52800Y-32729D01*
X53108Y-32422D01*
X53108Y-32562D01*
X52871Y-32800D01*
X53178Y-33108D01*
X53272Y-33081D01*
X53295Y-33015D01*
X53335Y-33111D01*
X53489Y-33265D01*
X53691Y-33349D01*
X53909Y-33349D01*
X54111Y-33265D01*
X54265Y-33111D01*
X54349Y-32909D01*
X54349Y-32691D01*
X54265Y-32489D01*
X54111Y-32335D01*
X54026Y-32300D01*
X54111Y-32265D01*
X54265Y-32111D01*
X54349Y-31909D01*
X54349Y-31691D01*
X54265Y-31489D01*
X54111Y-31335D01*
X54026Y-31300D01*
X54111Y-31265D01*
X54265Y-31111D01*
X54349Y-30909D01*
X54349Y-30691D01*
X54265Y-30489D01*
X54111Y-30335D01*
X54026Y-30300D01*
X54111Y-30265D01*
X54265Y-30111D01*
X54349Y-29909D01*
X54349Y-29691D01*
X54265Y-29489D01*
X54111Y-29335D01*
X54026Y-29300D01*
X54111Y-29265D01*
X54265Y-29111D01*
X54349Y-28909D01*
X54349Y-28691D01*
X54265Y-28489D01*
X54111Y-28335D01*
X54026Y-28300D01*
X54111Y-28265D01*
X54265Y-28111D01*
X54349Y-27909D01*
X54349Y-27691D01*
X54265Y-27489D01*
X54111Y-27335D01*
X54026Y-27300D01*
X54111Y-27265D01*
X54265Y-27111D01*
X54349Y-26909D01*
X54349Y-26691D01*
X54265Y-26489D01*
X54111Y-26335D01*
X53909Y-26251D01*
X53775Y-26251D01*
X53456Y-25932D01*
X53336Y-25852D01*
X53311Y-25847D01*
X53194Y-25823D01*
X53189Y-25824D01*
X52318Y-25824D01*
X52176Y-25852D01*
X52056Y-25932D01*
X51754Y-26234D01*
X51752Y-26236D01*
X51622Y-26366D01*
X51542Y-26486D01*
X51537Y-26510D01*
X51513Y-26628D01*
X51514Y-26632D01*
X51514Y-27922D01*
X50413Y-29023D01*
X50333Y-29143D01*
X50328Y-29167D01*
X50304Y-29285D01*
X50305Y-29289D01*
X50305Y-30524D01*
X50077Y-30752D01*
X49990Y-30882D01*
X49960Y-31035D01*
X49960Y-31711D01*
X49960Y-31766D01*
X49260Y-32466D01*
X49260Y-31726D01*
X49260Y-31515D01*
X49179Y-31320D01*
X49031Y-31171D01*
X48836Y-31090D01*
X48749Y-31090D01*
X48749Y-25409D01*
X48749Y-25191D01*
X48665Y-24989D01*
X48511Y-24835D01*
X48309Y-24751D01*
X48091Y-24751D01*
X47889Y-24835D01*
X47735Y-24989D01*
X47700Y-25073D01*
X47665Y-24989D01*
X47511Y-24835D01*
X47309Y-24751D01*
X47091Y-24751D01*
X46889Y-24835D01*
X46735Y-24989D01*
X46700Y-25073D01*
X46665Y-24989D01*
X46511Y-24835D01*
X46309Y-24751D01*
X46091Y-24751D01*
X45889Y-24835D01*
X45735Y-24989D01*
X45697Y-25080D01*
X45672Y-25019D01*
X45578Y-24992D01*
X45508Y-25062D01*
X45508Y-24922D01*
X45481Y-24828D01*
X45279Y-24757D01*
X45066Y-24768D01*
X44919Y-24828D01*
X44892Y-24922D01*
X45200Y-25229D01*
X45508Y-24922D01*
X45508Y-25062D01*
X45271Y-25300D01*
X45578Y-25608D01*
X45672Y-25581D01*
X45695Y-25515D01*
X45735Y-25611D01*
X45889Y-25765D01*
X46091Y-25849D01*
X46309Y-25849D01*
X46511Y-25765D01*
X46665Y-25611D01*
X46700Y-25526D01*
X46735Y-25611D01*
X46889Y-25765D01*
X47091Y-25849D01*
X47309Y-25849D01*
X47511Y-25765D01*
X47665Y-25611D01*
X47700Y-25526D01*
X47735Y-25611D01*
X47889Y-25765D01*
X48091Y-25849D01*
X48309Y-25849D01*
X48511Y-25765D01*
X48665Y-25611D01*
X48749Y-25409D01*
X48749Y-31090D01*
X48625Y-31090D01*
X48430Y-31171D01*
X48378Y-31222D01*
X48378Y-29011D01*
X48378Y-28852D01*
X48317Y-28705D01*
X48205Y-28593D01*
X48059Y-28532D01*
X48052Y-28532D01*
X46398Y-26878D01*
X46397Y-26876D01*
X46356Y-26836D01*
X46355Y-26835D01*
X46355Y-26834D01*
X45346Y-25826D01*
X45481Y-25772D01*
X45508Y-25678D01*
X45235Y-25406D01*
X45200Y-25371D01*
X45129Y-25300D01*
X45094Y-25265D01*
X44822Y-24992D01*
X44728Y-25019D01*
X44704Y-25084D01*
X44665Y-24989D01*
X44511Y-24835D01*
X44309Y-24751D01*
X44091Y-24751D01*
X43889Y-24835D01*
X43749Y-24975D01*
X43749Y-24951D01*
X43711Y-24859D01*
X43641Y-24789D01*
X43550Y-24751D01*
X43451Y-24751D01*
X42851Y-24751D01*
X42759Y-24789D01*
X42689Y-24859D01*
X42651Y-24950D01*
X42651Y-25049D01*
X42651Y-25649D01*
X42689Y-25741D01*
X42759Y-25811D01*
X42850Y-25849D01*
X42949Y-25849D01*
X43282Y-25849D01*
X43685Y-26252D01*
X43686Y-26252D01*
X43757Y-26299D01*
X43792Y-26323D01*
X43793Y-26324D01*
X43918Y-26348D01*
X43919Y-26349D01*
X44936Y-26349D01*
X45161Y-26574D01*
X45067Y-26669D01*
X45006Y-26815D01*
X45006Y-26974D01*
X45067Y-27121D01*
X45179Y-27233D01*
X45325Y-27294D01*
X45337Y-27294D01*
X46236Y-28192D01*
X46236Y-29171D01*
X46228Y-29179D01*
X46167Y-29325D01*
X46167Y-29484D01*
X46228Y-29631D01*
X46340Y-29743D01*
X46486Y-29804D01*
X46645Y-29804D01*
X46792Y-29743D01*
X46904Y-29631D01*
X46965Y-29485D01*
X46965Y-29326D01*
X46904Y-29179D01*
X46896Y-29171D01*
X46896Y-28308D01*
X47580Y-28992D01*
X47580Y-29010D01*
X47641Y-29157D01*
X47753Y-29269D01*
X47899Y-29330D01*
X48058Y-29330D01*
X48205Y-29269D01*
X48317Y-29157D01*
X48378Y-29011D01*
X48378Y-31222D01*
X48281Y-31319D01*
X48200Y-31514D01*
X48200Y-31725D01*
X48281Y-31920D01*
X48429Y-32069D01*
X48624Y-32150D01*
X48835Y-32150D01*
X49030Y-32069D01*
X49179Y-31921D01*
X49260Y-31726D01*
X49260Y-32466D01*
X49177Y-32549D01*
X49090Y-32679D01*
X49060Y-32832D01*
X49060Y-33374D01*
X48814Y-33620D01*
X48375Y-33620D01*
X48369Y-33621D01*
X48296Y-33621D01*
X48229Y-33648D01*
X48222Y-33650D01*
X48215Y-33654D01*
X48149Y-33682D01*
X48098Y-33732D01*
X48092Y-33737D01*
X48087Y-33743D01*
X48037Y-33794D01*
X48008Y-33861D01*
X48005Y-33867D01*
X48003Y-33873D01*
X47976Y-33940D01*
X47976Y-34014D01*
X47975Y-34020D01*
X47976Y-34025D01*
X47976Y-34099D01*
X48003Y-34165D01*
X48005Y-34173D01*
X48009Y-34179D01*
X48037Y-34246D01*
X48087Y-34296D01*
X48092Y-34303D01*
X48098Y-34307D01*
X48126Y-34335D01*
X47260Y-34335D01*
X47260Y-31726D01*
X47260Y-31515D01*
X47179Y-31320D01*
X47031Y-31171D01*
X46836Y-31090D01*
X46625Y-31090D01*
X46430Y-31171D01*
X46281Y-31319D01*
X46200Y-31514D01*
X46200Y-31725D01*
X46281Y-31920D01*
X46429Y-32069D01*
X46624Y-32150D01*
X46835Y-32150D01*
X47030Y-32069D01*
X47179Y-31921D01*
X47260Y-31726D01*
X47260Y-34335D01*
X42529Y-34335D01*
X42529Y-26300D01*
X42529Y-26141D01*
X42468Y-25994D01*
X42356Y-25882D01*
X42210Y-25821D01*
X42051Y-25821D01*
X41904Y-25882D01*
X41792Y-25994D01*
X41731Y-26140D01*
X41731Y-26299D01*
X41760Y-26368D01*
X41760Y-27796D01*
X41751Y-27805D01*
X41750Y-27806D01*
X41749Y-27807D01*
X41726Y-27829D01*
X41718Y-27837D01*
X41718Y-27838D01*
X41717Y-27838D01*
X41696Y-27860D01*
X41695Y-27860D01*
X41678Y-27878D01*
X41598Y-27998D01*
X41593Y-28022D01*
X41569Y-28140D01*
X41570Y-28144D01*
X41570Y-28280D01*
X41541Y-28350D01*
X41541Y-28509D01*
X41602Y-28656D01*
X41714Y-28768D01*
X41860Y-28829D01*
X42019Y-28829D01*
X42166Y-28768D01*
X42278Y-28656D01*
X42339Y-28510D01*
X42339Y-28351D01*
X42313Y-28289D01*
X42389Y-28213D01*
X42391Y-28212D01*
X42392Y-28212D01*
X42472Y-28092D01*
X42500Y-27950D01*
X42500Y-27935D01*
X42500Y-26369D01*
X42529Y-26300D01*
X42529Y-34335D01*
X41344Y-34335D01*
X41344Y-33289D01*
X41344Y-33071D01*
X41260Y-32869D01*
X41106Y-32715D01*
X40904Y-32631D01*
X40686Y-32631D01*
X40484Y-32715D01*
X40330Y-32869D01*
X40295Y-32953D01*
X40260Y-32869D01*
X40106Y-32715D01*
X39985Y-32664D01*
X39985Y-28006D01*
X39985Y-27835D01*
X39985Y-26286D01*
X39985Y-26115D01*
X39920Y-25957D01*
X39799Y-25836D01*
X39641Y-25770D01*
X39470Y-25770D01*
X39312Y-25835D01*
X39191Y-25956D01*
X39125Y-26114D01*
X39125Y-26285D01*
X39190Y-26443D01*
X39311Y-26564D01*
X39469Y-26630D01*
X39640Y-26630D01*
X39798Y-26565D01*
X39919Y-26444D01*
X39985Y-26286D01*
X39985Y-27835D01*
X39920Y-27677D01*
X39799Y-27556D01*
X39641Y-27490D01*
X39470Y-27490D01*
X39312Y-27555D01*
X39191Y-27676D01*
X39125Y-27834D01*
X39125Y-28005D01*
X39190Y-28163D01*
X39311Y-28284D01*
X39469Y-28350D01*
X39640Y-28350D01*
X39798Y-28285D01*
X39919Y-28164D01*
X39985Y-28006D01*
X39985Y-32664D01*
X39904Y-32631D01*
X39686Y-32631D01*
X39484Y-32715D01*
X39344Y-32855D01*
X39344Y-32831D01*
X39306Y-32739D01*
X39236Y-32669D01*
X39145Y-32631D01*
X39046Y-32631D01*
X38446Y-32631D01*
X38354Y-32669D01*
X38284Y-32739D01*
X38246Y-32830D01*
X38246Y-32929D01*
X38246Y-33529D01*
X38284Y-33621D01*
X38354Y-33691D01*
X38445Y-33729D01*
X38544Y-33729D01*
X39144Y-33729D01*
X39236Y-33691D01*
X39306Y-33621D01*
X39344Y-33530D01*
X39344Y-33505D01*
X39484Y-33645D01*
X39686Y-33729D01*
X39904Y-33729D01*
X40106Y-33645D01*
X40260Y-33491D01*
X40295Y-33406D01*
X40330Y-33491D01*
X40484Y-33645D01*
X40686Y-33729D01*
X40904Y-33729D01*
X41106Y-33645D01*
X41260Y-33491D01*
X41344Y-33289D01*
X41344Y-34335D01*
X37684Y-34335D01*
X37684Y-24713D01*
X55625Y-24713D01*
X55625Y-34335D01*
M02*
