M48
;DRILL file {Pcbnew (2011-12-28 BZR 3254)-stable} date 12/14/2012 5:03:37 PM
;FORMAT={-:-/ absolute / inch / decimal}
FMAT,2
INCH,TZ
T1C0.020
T2C0.030
T3C0.040
%
G90
G05
M72
T1
X3.796Y3.252
X3.839Y2.759
X3.843Y2.669
X3.956Y2.881
X3.957Y3.151
X4.160Y2.528
X4.194Y2.843
X4.213Y2.622
X4.236Y3.195
X4.236Y3.342
X4.256Y2.602
X4.260Y2.765
X4.465Y2.690
X4.466Y2.817
X4.541Y2.690
X4.581Y3.183
X4.657Y2.941
X4.660Y3.071
X4.687Y2.597
X4.714Y2.931
X4.774Y3.120
X4.798Y2.893
X4.838Y3.402
X4.849Y2.847
X4.905Y3.095
X5.027Y3.042
X5.067Y3.072
X5.067Y3.072
X5.138Y2.946
X5.189Y3.385
X5.215Y3.074
X5.215Y3.182
X5.215Y3.263
X5.244Y3.385
X5.304Y3.384
X5.411Y3.382
X5.475Y2.500
X5.513Y3.382
X5.514Y2.836
X5.514Y3.032
X5.514Y3.229
X5.535Y2.520
X5.535Y2.580
T2
X4.673Y3.162
X4.873Y3.162
T3
X3.880Y3.318
X3.980Y3.318
X4.080Y3.318
X4.320Y2.530
X4.420Y2.530
X4.520Y2.530
X4.620Y2.530
X4.720Y2.530
X4.820Y2.530
X5.020Y3.330
X5.120Y3.330
X5.280Y2.680
X5.280Y2.780
X5.280Y2.880
X5.280Y2.980
X5.280Y3.080
X5.280Y3.180
X5.280Y3.280
X5.380Y2.680
X5.380Y2.780
X5.380Y2.880
X5.380Y2.980
X5.380Y3.080
X5.380Y3.180
X5.380Y3.280
T0
M30
