G04 (created by PCBNEW-RS274X (2011-12-28 BZR 3254)-stable) date 12/14/2012 5:03:44 PM*
G01*
G70*
G90*
%MOIN*%
G04 Gerber Fmt 3.4, Leading zero omitted, Abs format*
%FSLAX34Y34*%
G04 APERTURE LIST*
%ADD10C,0.006000*%
%ADD11C,0.015000*%
%ADD12C,0.005000*%
%ADD13C,0.007500*%
%ADD14C,0.010000*%
%ADD15C,0.006300*%
%ADD16C,0.008800*%
%ADD17C,0.008000*%
%ADD18C,0.012000*%
%ADD19C,0.002600*%
%ADD20C,0.004000*%
%ADD21C,0.002000*%
%ADD22C,0.012500*%
%ADD23C,0.000100*%
%ADD24C,0.003900*%
%ADD25C,0.004500*%
G04 APERTURE END LIST*
G54D10*
G54D11*
X51900Y-26400D02*
X52200Y-26400D01*
X51900Y-29150D02*
X51900Y-26400D01*
X51900Y-30450D02*
X51900Y-30350D01*
X51900Y-30450D02*
X51900Y-30400D01*
X51950Y-26400D02*
X52200Y-26400D01*
X51900Y-33300D02*
X51900Y-30450D01*
X52200Y-33300D02*
X51900Y-33300D01*
X42238Y-25469D02*
X42246Y-25469D01*
X42238Y-25584D02*
X42238Y-25469D01*
X42238Y-24961D02*
X42238Y-25584D01*
X42549Y-25272D02*
X42238Y-24961D01*
X42238Y-25583D02*
X42549Y-25272D01*
X42237Y-24966D02*
X42237Y-25583D01*
X42507Y-25236D02*
X42237Y-24966D01*
G54D12*
X55299Y-34164D02*
X55366Y-34364D01*
X55432Y-34164D01*
X55603Y-34364D02*
X55489Y-34364D01*
X55546Y-34364D02*
X55546Y-34164D01*
X55527Y-34193D01*
X55508Y-34212D01*
X55489Y-34221D01*
X51138Y-25821D02*
X51195Y-26021D01*
X51252Y-25879D01*
X51309Y-26021D01*
X51366Y-25821D01*
X51452Y-25821D02*
X51509Y-26021D01*
X51566Y-25879D01*
X51623Y-26021D01*
X51680Y-25821D01*
X51766Y-25821D02*
X51823Y-26021D01*
X51880Y-25879D01*
X51937Y-26021D01*
X51994Y-25821D01*
X52108Y-25993D02*
X52123Y-26007D01*
X52108Y-26021D01*
X52094Y-26007D01*
X52108Y-25993D01*
X52108Y-26021D01*
X52251Y-25821D02*
X52251Y-26021D01*
X52251Y-25850D02*
X52266Y-25836D01*
X52294Y-25821D01*
X52337Y-25821D01*
X52366Y-25836D01*
X52380Y-25864D01*
X52380Y-26021D01*
X52651Y-25821D02*
X52651Y-26021D01*
X52522Y-25821D02*
X52522Y-25979D01*
X52537Y-26007D01*
X52565Y-26021D01*
X52608Y-26021D01*
X52637Y-26007D01*
X52651Y-25993D01*
X52793Y-26021D02*
X52793Y-25821D01*
X52793Y-25850D02*
X52808Y-25836D01*
X52836Y-25821D01*
X52879Y-25821D01*
X52908Y-25836D01*
X52922Y-25864D01*
X52922Y-26021D01*
X52922Y-25864D02*
X52936Y-25836D01*
X52965Y-25821D01*
X53008Y-25821D01*
X53036Y-25836D01*
X53051Y-25864D01*
X53051Y-26021D01*
X53322Y-26021D02*
X53322Y-25864D01*
X53308Y-25836D01*
X53279Y-25821D01*
X53222Y-25821D01*
X53193Y-25836D01*
X53322Y-26007D02*
X53293Y-26021D01*
X53222Y-26021D01*
X53193Y-26007D01*
X53179Y-25979D01*
X53179Y-25950D01*
X53193Y-25921D01*
X53222Y-25907D01*
X53293Y-25907D01*
X53322Y-25893D01*
X53422Y-25821D02*
X53536Y-25821D01*
X53464Y-25721D02*
X53464Y-25979D01*
X53479Y-26007D01*
X53507Y-26021D01*
X53536Y-26021D01*
X53678Y-26021D02*
X53650Y-26007D01*
X53635Y-25993D01*
X53621Y-25964D01*
X53621Y-25879D01*
X53635Y-25850D01*
X53650Y-25836D01*
X53678Y-25821D01*
X53721Y-25821D01*
X53750Y-25836D01*
X53764Y-25850D01*
X53778Y-25879D01*
X53778Y-25964D01*
X53764Y-25993D01*
X53750Y-26007D01*
X53721Y-26021D01*
X53678Y-26021D01*
X53906Y-25993D02*
X53921Y-26007D01*
X53906Y-26021D01*
X53892Y-26007D01*
X53906Y-25993D01*
X53906Y-26021D01*
X54178Y-26007D02*
X54149Y-26021D01*
X54092Y-26021D01*
X54064Y-26007D01*
X54049Y-25993D01*
X54035Y-25964D01*
X54035Y-25879D01*
X54049Y-25850D01*
X54064Y-25836D01*
X54092Y-25821D01*
X54149Y-25821D01*
X54178Y-25836D01*
X54349Y-26021D02*
X54321Y-26007D01*
X54306Y-25993D01*
X54292Y-25964D01*
X54292Y-25879D01*
X54306Y-25850D01*
X54321Y-25836D01*
X54349Y-25821D01*
X54392Y-25821D01*
X54421Y-25836D01*
X54435Y-25850D01*
X54449Y-25879D01*
X54449Y-25964D01*
X54435Y-25993D01*
X54421Y-26007D01*
X54392Y-26021D01*
X54349Y-26021D01*
X54577Y-26021D02*
X54577Y-25821D01*
X54577Y-25850D02*
X54592Y-25836D01*
X54620Y-25821D01*
X54663Y-25821D01*
X54692Y-25836D01*
X54706Y-25864D01*
X54706Y-26021D01*
X54706Y-25864D02*
X54720Y-25836D01*
X54749Y-25821D01*
X54792Y-25821D01*
X54820Y-25836D01*
X54835Y-25864D01*
X54835Y-26021D01*
G54D13*
X51171Y-25121D02*
X51171Y-24821D01*
X51343Y-25121D01*
X51343Y-24821D01*
X51485Y-24821D02*
X51485Y-25064D01*
X51500Y-25093D01*
X51514Y-25107D01*
X51543Y-25121D01*
X51600Y-25121D01*
X51628Y-25107D01*
X51643Y-25093D01*
X51657Y-25064D01*
X51657Y-24821D01*
X51799Y-25121D02*
X51799Y-24821D01*
X51899Y-25036D01*
X51999Y-24821D01*
X51999Y-25121D01*
X52128Y-25036D02*
X52271Y-25036D01*
X52100Y-25121D02*
X52200Y-24821D01*
X52300Y-25121D01*
X52357Y-24821D02*
X52528Y-24821D01*
X52442Y-25121D02*
X52442Y-24821D01*
X52686Y-24821D02*
X52743Y-24821D01*
X52771Y-24836D01*
X52800Y-24864D01*
X52814Y-24921D01*
X52814Y-25021D01*
X52800Y-25079D01*
X52771Y-25107D01*
X52743Y-25121D01*
X52686Y-25121D01*
X52657Y-25107D01*
X52628Y-25079D01*
X52614Y-25021D01*
X52614Y-24921D01*
X52628Y-24864D01*
X52657Y-24836D01*
X52686Y-24821D01*
X53314Y-25121D02*
X53171Y-25121D01*
X53171Y-24821D01*
X53400Y-25036D02*
X53543Y-25036D01*
X53372Y-25121D02*
X53472Y-24821D01*
X53572Y-25121D01*
X53771Y-24964D02*
X53814Y-24979D01*
X53829Y-24993D01*
X53843Y-25021D01*
X53843Y-25064D01*
X53829Y-25093D01*
X53814Y-25107D01*
X53786Y-25121D01*
X53671Y-25121D01*
X53671Y-24821D01*
X53771Y-24821D01*
X53800Y-24836D01*
X53814Y-24850D01*
X53829Y-24879D01*
X53829Y-24907D01*
X53814Y-24936D01*
X53800Y-24950D01*
X53771Y-24964D01*
X53671Y-24964D01*
X51343Y-25588D02*
X51329Y-25602D01*
X51286Y-25616D01*
X51257Y-25616D01*
X51214Y-25602D01*
X51186Y-25574D01*
X51171Y-25545D01*
X51157Y-25488D01*
X51157Y-25445D01*
X51171Y-25388D01*
X51186Y-25359D01*
X51214Y-25331D01*
X51257Y-25316D01*
X51286Y-25316D01*
X51329Y-25331D01*
X51343Y-25345D01*
X51471Y-25616D02*
X51471Y-25316D01*
X51471Y-25459D02*
X51643Y-25459D01*
X51643Y-25616D02*
X51643Y-25316D01*
X51785Y-25616D02*
X51785Y-25316D01*
X51928Y-25616D02*
X51928Y-25316D01*
X52043Y-25316D01*
X52071Y-25331D01*
X52086Y-25345D01*
X52100Y-25374D01*
X52100Y-25416D01*
X52086Y-25445D01*
X52071Y-25459D01*
X52043Y-25474D01*
X51928Y-25474D01*
X52228Y-25616D02*
X52228Y-25316D01*
X52328Y-25531D01*
X52428Y-25316D01*
X52428Y-25616D01*
X52571Y-25316D02*
X52571Y-25559D01*
X52586Y-25588D01*
X52600Y-25602D01*
X52629Y-25616D01*
X52686Y-25616D01*
X52714Y-25602D01*
X52729Y-25588D01*
X52743Y-25559D01*
X52743Y-25316D01*
X52885Y-25616D02*
X52885Y-25316D01*
X53057Y-25616D01*
X53057Y-25316D01*
X53199Y-25616D02*
X53199Y-25316D01*
X53371Y-25616D02*
X53242Y-25445D01*
X53371Y-25316D02*
X53199Y-25488D01*
X53814Y-25316D02*
X53814Y-25531D01*
X53800Y-25574D01*
X53771Y-25602D01*
X53728Y-25616D01*
X53700Y-25616D01*
X53915Y-25316D02*
X54086Y-25316D01*
X54000Y-25616D02*
X54000Y-25316D01*
X54172Y-25531D02*
X54315Y-25531D01*
X54144Y-25616D02*
X54244Y-25316D01*
X54344Y-25616D01*
X54601Y-25331D02*
X54572Y-25316D01*
X54529Y-25316D01*
X54486Y-25331D01*
X54458Y-25359D01*
X54443Y-25388D01*
X54429Y-25445D01*
X54429Y-25488D01*
X54443Y-25545D01*
X54458Y-25574D01*
X54486Y-25602D01*
X54529Y-25616D01*
X54558Y-25616D01*
X54601Y-25602D01*
X54615Y-25588D01*
X54615Y-25488D01*
X54558Y-25488D01*
G54D14*
X54650Y-33012D02*
X54650Y-32612D01*
X54916Y-32612D02*
X54993Y-32612D01*
X55031Y-32631D01*
X55069Y-32669D01*
X55088Y-32745D01*
X55088Y-32879D01*
X55069Y-32955D01*
X55031Y-32993D01*
X54993Y-33012D01*
X54916Y-33012D01*
X54878Y-32993D01*
X54840Y-32955D01*
X54821Y-32879D01*
X54821Y-32745D01*
X54840Y-32669D01*
X54878Y-32631D01*
X54916Y-32612D01*
X55469Y-33012D02*
X55240Y-33012D01*
X55354Y-33012D02*
X55354Y-32612D01*
X55316Y-32669D01*
X55278Y-32707D01*
X55240Y-32726D01*
X54650Y-31987D02*
X54650Y-31587D01*
X54916Y-31587D02*
X54993Y-31587D01*
X55031Y-31606D01*
X55069Y-31644D01*
X55088Y-31720D01*
X55088Y-31854D01*
X55069Y-31930D01*
X55031Y-31968D01*
X54993Y-31987D01*
X54916Y-31987D01*
X54878Y-31968D01*
X54840Y-31930D01*
X54821Y-31854D01*
X54821Y-31720D01*
X54840Y-31644D01*
X54878Y-31606D01*
X54916Y-31587D01*
X55335Y-31587D02*
X55374Y-31587D01*
X55412Y-31606D01*
X55431Y-31625D01*
X55450Y-31663D01*
X55469Y-31739D01*
X55469Y-31835D01*
X55450Y-31911D01*
X55431Y-31949D01*
X55412Y-31968D01*
X55374Y-31987D01*
X55335Y-31987D01*
X55297Y-31968D01*
X55278Y-31949D01*
X55259Y-31911D01*
X55240Y-31835D01*
X55240Y-31739D01*
X55259Y-31663D01*
X55278Y-31625D01*
X55297Y-31606D01*
X55335Y-31587D01*
X54541Y-30637D02*
X54770Y-30637D01*
X54655Y-31037D02*
X54655Y-30637D01*
X54903Y-31037D02*
X54903Y-30637D01*
X54998Y-30637D01*
X55056Y-30656D01*
X55094Y-30694D01*
X55113Y-30732D01*
X55132Y-30808D01*
X55132Y-30865D01*
X55113Y-30942D01*
X55094Y-30980D01*
X55056Y-31018D01*
X54998Y-31037D01*
X54903Y-31037D01*
X55303Y-31037D02*
X55303Y-30637D01*
X54526Y-29587D02*
X54755Y-29587D01*
X54640Y-29987D02*
X54640Y-29587D01*
X54888Y-29987D02*
X54888Y-29587D01*
X54983Y-29587D01*
X55041Y-29606D01*
X55079Y-29644D01*
X55098Y-29682D01*
X55117Y-29758D01*
X55117Y-29815D01*
X55098Y-29892D01*
X55079Y-29930D01*
X55041Y-29968D01*
X54983Y-29987D01*
X54888Y-29987D01*
X55364Y-29587D02*
X55441Y-29587D01*
X55479Y-29606D01*
X55517Y-29644D01*
X55536Y-29720D01*
X55536Y-29854D01*
X55517Y-29930D01*
X55479Y-29968D01*
X55441Y-29987D01*
X55364Y-29987D01*
X55326Y-29968D01*
X55288Y-29930D01*
X55269Y-29854D01*
X55269Y-29720D01*
X55288Y-29644D01*
X55326Y-29606D01*
X55364Y-29587D01*
X54536Y-28612D02*
X54765Y-28612D01*
X54650Y-29012D02*
X54650Y-28612D01*
X55127Y-28974D02*
X55108Y-28993D01*
X55051Y-29012D01*
X55013Y-29012D01*
X54955Y-28993D01*
X54917Y-28955D01*
X54898Y-28917D01*
X54879Y-28840D01*
X54879Y-28783D01*
X54898Y-28707D01*
X54917Y-28669D01*
X54955Y-28631D01*
X55013Y-28612D01*
X55051Y-28612D01*
X55108Y-28631D01*
X55127Y-28650D01*
X55298Y-29012D02*
X55298Y-28612D01*
X55527Y-29012D02*
X55355Y-28783D01*
X55527Y-28612D02*
X55298Y-28840D01*
X54517Y-27587D02*
X54746Y-27587D01*
X54631Y-27987D02*
X54631Y-27587D01*
X54879Y-27987D02*
X54879Y-27587D01*
X55013Y-27873D01*
X55146Y-27587D01*
X55146Y-27987D01*
X55317Y-27968D02*
X55374Y-27987D01*
X55470Y-27987D01*
X55508Y-27968D01*
X55527Y-27949D01*
X55546Y-27911D01*
X55546Y-27873D01*
X55527Y-27835D01*
X55508Y-27815D01*
X55470Y-27796D01*
X55393Y-27777D01*
X55355Y-27758D01*
X55336Y-27739D01*
X55317Y-27701D01*
X55317Y-27663D01*
X55336Y-27625D01*
X55355Y-27606D01*
X55393Y-27587D01*
X55489Y-27587D01*
X55546Y-27606D01*
G54D15*
X44807Y-31131D02*
X44557Y-31131D01*
X44557Y-31036D01*
X44569Y-31012D01*
X44581Y-31001D01*
X44605Y-30989D01*
X44641Y-30989D01*
X44664Y-31001D01*
X44676Y-31012D01*
X44688Y-31036D01*
X44688Y-31131D01*
X44557Y-30905D02*
X44807Y-30846D01*
X44629Y-30798D01*
X44807Y-30751D01*
X44557Y-30691D01*
X44807Y-30453D02*
X44688Y-30536D01*
X44807Y-30595D02*
X44557Y-30595D01*
X44557Y-30500D01*
X44569Y-30476D01*
X44581Y-30465D01*
X44605Y-30453D01*
X44641Y-30453D01*
X44664Y-30465D01*
X44676Y-30476D01*
X44688Y-30500D01*
X44688Y-30595D01*
G54D16*
X50192Y-34158D02*
X50075Y-34158D01*
X50075Y-34342D02*
X50075Y-33992D01*
X50242Y-33992D01*
X50342Y-33992D02*
X50425Y-34342D01*
X50492Y-34092D01*
X50559Y-34342D01*
X50642Y-33992D01*
X50775Y-33992D02*
X50775Y-34275D01*
X50792Y-34308D01*
X50809Y-34325D01*
X50842Y-34342D01*
X50909Y-34342D01*
X50942Y-34325D01*
X50959Y-34308D01*
X50975Y-34275D01*
X50975Y-33992D01*
X51142Y-34342D02*
X51142Y-33992D01*
X51276Y-33992D01*
X51309Y-34008D01*
X51326Y-34025D01*
X51342Y-34058D01*
X51342Y-34108D01*
X51326Y-34142D01*
X51309Y-34158D01*
X51276Y-34175D01*
X51142Y-34175D01*
G54D14*
X54517Y-26562D02*
X54650Y-26962D01*
X54784Y-26562D01*
X54917Y-26962D02*
X54917Y-26562D01*
X55012Y-26562D01*
X55070Y-26581D01*
X55108Y-26619D01*
X55127Y-26657D01*
X55146Y-26733D01*
X55146Y-26790D01*
X55127Y-26867D01*
X55108Y-26905D01*
X55070Y-26943D01*
X55012Y-26962D01*
X54917Y-26962D01*
X55317Y-26962D02*
X55317Y-26562D01*
X55412Y-26562D01*
X55470Y-26581D01*
X55508Y-26619D01*
X55527Y-26657D01*
X55546Y-26733D01*
X55546Y-26790D01*
X55527Y-26867D01*
X55508Y-26905D01*
X55470Y-26943D01*
X55412Y-26962D01*
X55317Y-26962D01*
G54D13*
X51778Y-30016D02*
X51762Y-30050D01*
X51762Y-30100D01*
X51778Y-30150D01*
X51812Y-30183D01*
X51845Y-30200D01*
X51912Y-30216D01*
X51962Y-30216D01*
X52028Y-30200D01*
X52062Y-30183D01*
X52095Y-30150D01*
X52112Y-30100D01*
X52112Y-30066D01*
X52095Y-30016D01*
X52078Y-30000D01*
X51962Y-30000D01*
X51962Y-30066D01*
X52112Y-29850D02*
X51762Y-29850D01*
X52112Y-29650D01*
X51762Y-29650D01*
X52112Y-29483D02*
X51762Y-29483D01*
X51762Y-29399D01*
X51778Y-29349D01*
X51812Y-29316D01*
X51845Y-29299D01*
X51912Y-29283D01*
X51962Y-29283D01*
X52028Y-29299D01*
X52062Y-29316D01*
X52095Y-29349D01*
X52112Y-29399D01*
X52112Y-29483D01*
X38660Y-33868D02*
X38517Y-33868D01*
X38503Y-34011D01*
X38517Y-33997D01*
X38546Y-33983D01*
X38617Y-33983D01*
X38646Y-33997D01*
X38660Y-34011D01*
X38675Y-34040D01*
X38675Y-34111D01*
X38660Y-34140D01*
X38646Y-34154D01*
X38617Y-34168D01*
X38546Y-34168D01*
X38517Y-34154D01*
X38503Y-34140D01*
X38761Y-33868D02*
X38861Y-34168D01*
X38961Y-33868D01*
X39461Y-34140D02*
X39447Y-34154D01*
X39404Y-34168D01*
X39375Y-34168D01*
X39332Y-34154D01*
X39304Y-34126D01*
X39289Y-34097D01*
X39275Y-34040D01*
X39275Y-33997D01*
X39289Y-33940D01*
X39304Y-33911D01*
X39332Y-33883D01*
X39375Y-33868D01*
X39404Y-33868D01*
X39447Y-33883D01*
X39461Y-33897D01*
X39647Y-33868D02*
X39704Y-33868D01*
X39732Y-33883D01*
X39761Y-33911D01*
X39775Y-33968D01*
X39775Y-34068D01*
X39761Y-34126D01*
X39732Y-34154D01*
X39704Y-34168D01*
X39647Y-34168D01*
X39618Y-34154D01*
X39589Y-34126D01*
X39575Y-34068D01*
X39575Y-33968D01*
X39589Y-33911D01*
X39618Y-33883D01*
X39647Y-33868D01*
X39903Y-34168D02*
X39903Y-33868D01*
X40003Y-34083D01*
X40103Y-33868D01*
X40103Y-34168D01*
X40447Y-33868D02*
X40633Y-33868D01*
X40533Y-33983D01*
X40575Y-33983D01*
X40604Y-33997D01*
X40618Y-34011D01*
X40633Y-34040D01*
X40633Y-34111D01*
X40618Y-34140D01*
X40604Y-34154D01*
X40575Y-34168D01*
X40490Y-34168D01*
X40461Y-34154D01*
X40447Y-34140D01*
X40719Y-33868D02*
X40819Y-34168D01*
X40919Y-33868D01*
X40990Y-33868D02*
X41176Y-33868D01*
X41076Y-33983D01*
X41118Y-33983D01*
X41147Y-33997D01*
X41161Y-34011D01*
X41176Y-34040D01*
X41176Y-34111D01*
X41161Y-34140D01*
X41147Y-34154D01*
X41118Y-34168D01*
X41033Y-34168D01*
X41004Y-34154D01*
X40990Y-34140D01*
X45183Y-26382D02*
X45183Y-26032D01*
X45550Y-26348D02*
X45534Y-26365D01*
X45484Y-26382D01*
X45450Y-26382D01*
X45400Y-26365D01*
X45367Y-26332D01*
X45350Y-26298D01*
X45334Y-26232D01*
X45334Y-26182D01*
X45350Y-26115D01*
X45367Y-26082D01*
X45400Y-26048D01*
X45450Y-26032D01*
X45484Y-26032D01*
X45534Y-26048D01*
X45550Y-26065D01*
X45684Y-26365D02*
X45734Y-26382D01*
X45817Y-26382D01*
X45850Y-26365D01*
X45867Y-26348D01*
X45884Y-26315D01*
X45884Y-26282D01*
X45867Y-26248D01*
X45850Y-26232D01*
X45817Y-26215D01*
X45750Y-26198D01*
X45717Y-26182D01*
X45700Y-26165D01*
X45684Y-26132D01*
X45684Y-26098D01*
X45700Y-26065D01*
X45717Y-26048D01*
X45750Y-26032D01*
X45834Y-26032D01*
X45884Y-26048D01*
X46033Y-26382D02*
X46033Y-26032D01*
X46167Y-26032D01*
X46200Y-26048D01*
X46217Y-26065D01*
X46233Y-26098D01*
X46233Y-26148D01*
X46217Y-26182D01*
X46200Y-26198D01*
X46167Y-26215D01*
X46033Y-26215D01*
G54D11*
X38905Y-28580D02*
X39935Y-28580D01*
X38885Y-25540D02*
X39955Y-25540D01*
X37235Y-28580D02*
X37785Y-28580D01*
X37235Y-25540D02*
X37785Y-25540D01*
X37235Y-25540D02*
X37235Y-28580D01*
X47030Y-27200D02*
X49930Y-27200D01*
X49930Y-27200D02*
X49930Y-30200D01*
X49930Y-30200D02*
X47030Y-30200D01*
X47030Y-30200D02*
X47030Y-27200D01*
G54D12*
X47661Y-29300D02*
X47658Y-29321D01*
X47652Y-29342D01*
X47642Y-29361D01*
X47628Y-29378D01*
X47612Y-29392D01*
X47593Y-29402D01*
X47572Y-29408D01*
X47550Y-29410D01*
X47530Y-29409D01*
X47509Y-29402D01*
X47490Y-29392D01*
X47473Y-29379D01*
X47459Y-29362D01*
X47448Y-29343D01*
X47442Y-29323D01*
X47440Y-29301D01*
X47441Y-29280D01*
X47447Y-29260D01*
X47457Y-29240D01*
X47471Y-29223D01*
X47487Y-29209D01*
X47506Y-29199D01*
X47527Y-29192D01*
X47548Y-29190D01*
X47569Y-29191D01*
X47590Y-29197D01*
X47609Y-29207D01*
X47626Y-29220D01*
X47640Y-29237D01*
X47651Y-29255D01*
X47658Y-29276D01*
X47660Y-29297D01*
X47661Y-29300D01*
G54D17*
X39990Y-32405D02*
X41190Y-32405D01*
X41190Y-32405D02*
X41190Y-29605D01*
X41190Y-29605D02*
X39990Y-29605D01*
X38790Y-32405D02*
X38490Y-32405D01*
X38490Y-32405D02*
X37590Y-31805D01*
X37590Y-31805D02*
X37590Y-30205D01*
X37590Y-30205D02*
X38490Y-29605D01*
X38490Y-29605D02*
X38790Y-29605D01*
G54D12*
X42920Y-33340D02*
X42918Y-33353D01*
X42914Y-33366D01*
X42908Y-33378D01*
X42899Y-33389D01*
X42889Y-33398D01*
X42877Y-33404D01*
X42864Y-33408D01*
X42850Y-33409D01*
X42837Y-33408D01*
X42824Y-33404D01*
X42812Y-33398D01*
X42802Y-33390D01*
X42793Y-33379D01*
X42786Y-33367D01*
X42782Y-33354D01*
X42781Y-33340D01*
X42782Y-33328D01*
X42785Y-33315D01*
X42792Y-33303D01*
X42800Y-33292D01*
X42811Y-33283D01*
X42822Y-33276D01*
X42835Y-33272D01*
X42849Y-33271D01*
X42862Y-33272D01*
X42875Y-33275D01*
X42887Y-33281D01*
X42898Y-33290D01*
X42907Y-33300D01*
X42913Y-33312D01*
X42918Y-33325D01*
X42919Y-33339D01*
X42920Y-33340D01*
X44350Y-33290D02*
X45100Y-33290D01*
X45100Y-33290D02*
X45100Y-32090D01*
X45100Y-32090D02*
X44350Y-32090D01*
X43700Y-32090D02*
X42900Y-32090D01*
X42900Y-32090D02*
X42900Y-33290D01*
X42900Y-33290D02*
X43700Y-33290D01*
X47966Y-33445D02*
X47965Y-33454D01*
X47962Y-33464D01*
X47957Y-33472D01*
X47951Y-33480D01*
X47943Y-33486D01*
X47935Y-33491D01*
X47926Y-33493D01*
X47916Y-33494D01*
X47907Y-33494D01*
X47898Y-33491D01*
X47889Y-33486D01*
X47882Y-33480D01*
X47875Y-33473D01*
X47871Y-33464D01*
X47868Y-33455D01*
X47867Y-33445D01*
X47867Y-33436D01*
X47870Y-33427D01*
X47874Y-33418D01*
X47881Y-33411D01*
X47888Y-33404D01*
X47896Y-33400D01*
X47906Y-33397D01*
X47915Y-33396D01*
X47924Y-33396D01*
X47934Y-33399D01*
X47942Y-33403D01*
X47950Y-33409D01*
X47956Y-33417D01*
X47961Y-33425D01*
X47964Y-33434D01*
X47965Y-33444D01*
X47966Y-33445D01*
X48366Y-33445D02*
X47966Y-33445D01*
X47966Y-33445D02*
X47966Y-32845D01*
X47966Y-32845D02*
X48366Y-32845D01*
X48766Y-32845D02*
X49166Y-32845D01*
X49166Y-32845D02*
X49166Y-33445D01*
X49166Y-33445D02*
X48766Y-33445D01*
X44390Y-29820D02*
X44389Y-29829D01*
X44386Y-29839D01*
X44381Y-29847D01*
X44375Y-29855D01*
X44367Y-29861D01*
X44359Y-29866D01*
X44350Y-29868D01*
X44340Y-29869D01*
X44331Y-29869D01*
X44322Y-29866D01*
X44313Y-29861D01*
X44306Y-29855D01*
X44299Y-29848D01*
X44295Y-29839D01*
X44292Y-29830D01*
X44291Y-29820D01*
X44291Y-29811D01*
X44294Y-29802D01*
X44298Y-29793D01*
X44305Y-29786D01*
X44312Y-29779D01*
X44320Y-29775D01*
X44330Y-29772D01*
X44339Y-29771D01*
X44348Y-29771D01*
X44358Y-29774D01*
X44366Y-29778D01*
X44374Y-29784D01*
X44380Y-29792D01*
X44385Y-29800D01*
X44388Y-29809D01*
X44389Y-29819D01*
X44390Y-29820D01*
X44340Y-29370D02*
X44340Y-29770D01*
X44340Y-29770D02*
X43740Y-29770D01*
X43740Y-29770D02*
X43740Y-29370D01*
X43740Y-28970D02*
X43740Y-28570D01*
X43740Y-28570D02*
X44340Y-28570D01*
X44340Y-28570D02*
X44340Y-28970D01*
X50850Y-31150D02*
X50849Y-31159D01*
X50846Y-31169D01*
X50841Y-31177D01*
X50835Y-31185D01*
X50827Y-31191D01*
X50819Y-31196D01*
X50810Y-31198D01*
X50800Y-31199D01*
X50791Y-31199D01*
X50782Y-31196D01*
X50773Y-31191D01*
X50766Y-31185D01*
X50759Y-31178D01*
X50755Y-31169D01*
X50752Y-31160D01*
X50751Y-31150D01*
X50751Y-31141D01*
X50754Y-31132D01*
X50758Y-31123D01*
X50765Y-31116D01*
X50772Y-31109D01*
X50780Y-31105D01*
X50790Y-31102D01*
X50799Y-31101D01*
X50808Y-31101D01*
X50818Y-31104D01*
X50826Y-31108D01*
X50834Y-31114D01*
X50840Y-31122D01*
X50845Y-31130D01*
X50848Y-31139D01*
X50849Y-31149D01*
X50850Y-31150D01*
X50800Y-31600D02*
X50800Y-31200D01*
X50800Y-31200D02*
X51400Y-31200D01*
X51400Y-31200D02*
X51400Y-31600D01*
X51400Y-32000D02*
X51400Y-32400D01*
X51400Y-32400D02*
X50800Y-32400D01*
X50800Y-32400D02*
X50800Y-32000D01*
X46320Y-28700D02*
X46319Y-28709D01*
X46316Y-28719D01*
X46311Y-28727D01*
X46305Y-28735D01*
X46297Y-28741D01*
X46289Y-28746D01*
X46280Y-28748D01*
X46270Y-28749D01*
X46261Y-28749D01*
X46252Y-28746D01*
X46243Y-28741D01*
X46236Y-28735D01*
X46229Y-28728D01*
X46225Y-28719D01*
X46222Y-28710D01*
X46221Y-28700D01*
X46221Y-28691D01*
X46224Y-28682D01*
X46228Y-28673D01*
X46235Y-28666D01*
X46242Y-28659D01*
X46250Y-28655D01*
X46260Y-28652D01*
X46269Y-28651D01*
X46278Y-28651D01*
X46288Y-28654D01*
X46296Y-28658D01*
X46304Y-28664D01*
X46310Y-28672D01*
X46315Y-28680D01*
X46318Y-28689D01*
X46319Y-28699D01*
X46320Y-28700D01*
X45820Y-28700D02*
X46220Y-28700D01*
X46220Y-28700D02*
X46220Y-29300D01*
X46220Y-29300D02*
X45820Y-29300D01*
X45420Y-29300D02*
X45020Y-29300D01*
X45020Y-29300D02*
X45020Y-28700D01*
X45020Y-28700D02*
X45420Y-28700D01*
X48475Y-25992D02*
X48474Y-26001D01*
X48471Y-26011D01*
X48466Y-26019D01*
X48460Y-26027D01*
X48452Y-26033D01*
X48444Y-26038D01*
X48435Y-26040D01*
X48425Y-26041D01*
X48416Y-26041D01*
X48407Y-26038D01*
X48398Y-26033D01*
X48391Y-26027D01*
X48384Y-26020D01*
X48380Y-26011D01*
X48377Y-26002D01*
X48376Y-25992D01*
X48376Y-25983D01*
X48379Y-25974D01*
X48383Y-25965D01*
X48390Y-25958D01*
X48397Y-25951D01*
X48405Y-25947D01*
X48415Y-25944D01*
X48424Y-25943D01*
X48433Y-25943D01*
X48443Y-25946D01*
X48451Y-25950D01*
X48459Y-25956D01*
X48465Y-25964D01*
X48470Y-25972D01*
X48473Y-25981D01*
X48474Y-25991D01*
X48475Y-25992D01*
X47975Y-25992D02*
X48375Y-25992D01*
X48375Y-25992D02*
X48375Y-26592D01*
X48375Y-26592D02*
X47975Y-26592D01*
X47575Y-26592D02*
X47175Y-26592D01*
X47175Y-26592D02*
X47175Y-25992D01*
X47175Y-25992D02*
X47575Y-25992D01*
X43059Y-29544D02*
X43058Y-29553D01*
X43055Y-29563D01*
X43050Y-29571D01*
X43044Y-29579D01*
X43036Y-29585D01*
X43028Y-29590D01*
X43019Y-29592D01*
X43009Y-29593D01*
X43000Y-29593D01*
X42991Y-29590D01*
X42982Y-29585D01*
X42975Y-29579D01*
X42968Y-29572D01*
X42964Y-29563D01*
X42961Y-29554D01*
X42960Y-29544D01*
X42960Y-29535D01*
X42963Y-29526D01*
X42967Y-29517D01*
X42974Y-29510D01*
X42981Y-29503D01*
X42989Y-29499D01*
X42999Y-29496D01*
X43008Y-29495D01*
X43017Y-29495D01*
X43027Y-29498D01*
X43035Y-29502D01*
X43043Y-29508D01*
X43049Y-29516D01*
X43054Y-29524D01*
X43057Y-29533D01*
X43058Y-29543D01*
X43059Y-29544D01*
X42559Y-29544D02*
X42959Y-29544D01*
X42959Y-29544D02*
X42959Y-30144D01*
X42959Y-30144D02*
X42559Y-30144D01*
X42159Y-30144D02*
X41759Y-30144D01*
X41759Y-30144D02*
X41759Y-29544D01*
X41759Y-29544D02*
X42159Y-29544D01*
X41750Y-31072D02*
X41749Y-31081D01*
X41746Y-31091D01*
X41741Y-31099D01*
X41735Y-31107D01*
X41727Y-31113D01*
X41719Y-31118D01*
X41710Y-31120D01*
X41700Y-31121D01*
X41691Y-31121D01*
X41682Y-31118D01*
X41673Y-31113D01*
X41666Y-31107D01*
X41659Y-31100D01*
X41655Y-31091D01*
X41652Y-31082D01*
X41651Y-31072D01*
X41651Y-31063D01*
X41654Y-31054D01*
X41658Y-31045D01*
X41665Y-31038D01*
X41672Y-31031D01*
X41680Y-31027D01*
X41690Y-31024D01*
X41699Y-31023D01*
X41708Y-31023D01*
X41718Y-31026D01*
X41726Y-31030D01*
X41734Y-31036D01*
X41740Y-31044D01*
X41745Y-31052D01*
X41748Y-31061D01*
X41749Y-31071D01*
X41750Y-31072D01*
X42150Y-31072D02*
X41750Y-31072D01*
X41750Y-31072D02*
X41750Y-30472D01*
X41750Y-30472D02*
X42150Y-30472D01*
X42550Y-30472D02*
X42950Y-30472D01*
X42950Y-30472D02*
X42950Y-31072D01*
X42950Y-31072D02*
X42550Y-31072D01*
X41741Y-29240D02*
X41740Y-29249D01*
X41737Y-29259D01*
X41732Y-29267D01*
X41726Y-29275D01*
X41718Y-29281D01*
X41710Y-29286D01*
X41701Y-29288D01*
X41691Y-29289D01*
X41682Y-29289D01*
X41673Y-29286D01*
X41664Y-29281D01*
X41657Y-29275D01*
X41650Y-29268D01*
X41646Y-29259D01*
X41643Y-29250D01*
X41642Y-29240D01*
X41642Y-29231D01*
X41645Y-29222D01*
X41649Y-29213D01*
X41656Y-29206D01*
X41663Y-29199D01*
X41671Y-29195D01*
X41681Y-29192D01*
X41690Y-29191D01*
X41699Y-29191D01*
X41709Y-29194D01*
X41717Y-29198D01*
X41725Y-29204D01*
X41731Y-29212D01*
X41736Y-29220D01*
X41739Y-29229D01*
X41740Y-29239D01*
X41741Y-29240D01*
X42141Y-29240D02*
X41741Y-29240D01*
X41741Y-29240D02*
X41741Y-28640D01*
X41741Y-28640D02*
X42141Y-28640D01*
X42541Y-28640D02*
X42941Y-28640D01*
X42941Y-28640D02*
X42941Y-29240D01*
X42941Y-29240D02*
X42541Y-29240D01*
X46319Y-29681D02*
X46318Y-29690D01*
X46315Y-29700D01*
X46310Y-29708D01*
X46304Y-29716D01*
X46296Y-29722D01*
X46288Y-29727D01*
X46279Y-29729D01*
X46269Y-29730D01*
X46260Y-29730D01*
X46251Y-29727D01*
X46242Y-29722D01*
X46235Y-29716D01*
X46228Y-29709D01*
X46224Y-29700D01*
X46221Y-29691D01*
X46220Y-29681D01*
X46220Y-29672D01*
X46223Y-29663D01*
X46227Y-29654D01*
X46234Y-29647D01*
X46241Y-29640D01*
X46249Y-29636D01*
X46259Y-29633D01*
X46268Y-29632D01*
X46277Y-29632D01*
X46287Y-29635D01*
X46295Y-29639D01*
X46303Y-29645D01*
X46309Y-29653D01*
X46314Y-29661D01*
X46317Y-29670D01*
X46318Y-29680D01*
X46319Y-29681D01*
X45819Y-29681D02*
X46219Y-29681D01*
X46219Y-29681D02*
X46219Y-30281D01*
X46219Y-30281D02*
X45819Y-30281D01*
X45419Y-30281D02*
X45019Y-30281D01*
X45019Y-30281D02*
X45019Y-29681D01*
X45019Y-29681D02*
X45419Y-29681D01*
X46297Y-27804D02*
X46296Y-27813D01*
X46293Y-27823D01*
X46288Y-27831D01*
X46282Y-27839D01*
X46274Y-27845D01*
X46266Y-27850D01*
X46257Y-27852D01*
X46247Y-27853D01*
X46238Y-27853D01*
X46229Y-27850D01*
X46220Y-27845D01*
X46213Y-27839D01*
X46206Y-27832D01*
X46202Y-27823D01*
X46199Y-27814D01*
X46198Y-27804D01*
X46198Y-27795D01*
X46201Y-27786D01*
X46205Y-27777D01*
X46212Y-27770D01*
X46219Y-27763D01*
X46227Y-27759D01*
X46237Y-27756D01*
X46246Y-27755D01*
X46255Y-27755D01*
X46265Y-27758D01*
X46273Y-27762D01*
X46281Y-27768D01*
X46287Y-27776D01*
X46292Y-27784D01*
X46295Y-27793D01*
X46296Y-27803D01*
X46297Y-27804D01*
X45797Y-27804D02*
X46197Y-27804D01*
X46197Y-27804D02*
X46197Y-28404D01*
X46197Y-28404D02*
X45797Y-28404D01*
X45397Y-28404D02*
X44997Y-28404D01*
X44997Y-28404D02*
X44997Y-27804D01*
X44997Y-27804D02*
X45397Y-27804D01*
X47607Y-32838D02*
X47606Y-32847D01*
X47603Y-32857D01*
X47598Y-32865D01*
X47592Y-32873D01*
X47584Y-32879D01*
X47576Y-32884D01*
X47567Y-32886D01*
X47557Y-32887D01*
X47548Y-32887D01*
X47539Y-32884D01*
X47530Y-32879D01*
X47523Y-32873D01*
X47516Y-32866D01*
X47512Y-32857D01*
X47509Y-32848D01*
X47508Y-32838D01*
X47508Y-32829D01*
X47511Y-32820D01*
X47515Y-32811D01*
X47522Y-32804D01*
X47529Y-32797D01*
X47537Y-32793D01*
X47547Y-32790D01*
X47556Y-32789D01*
X47565Y-32789D01*
X47575Y-32792D01*
X47583Y-32796D01*
X47591Y-32802D01*
X47597Y-32810D01*
X47602Y-32818D01*
X47605Y-32827D01*
X47606Y-32837D01*
X47607Y-32838D01*
X47107Y-32838D02*
X47507Y-32838D01*
X47507Y-32838D02*
X47507Y-33438D01*
X47507Y-33438D02*
X47107Y-33438D01*
X46707Y-33438D02*
X46307Y-33438D01*
X46307Y-33438D02*
X46307Y-32838D01*
X46307Y-32838D02*
X46707Y-32838D01*
X43050Y-27020D02*
X43950Y-27020D01*
X43950Y-27020D02*
X43950Y-27520D01*
X43950Y-27520D02*
X43050Y-27520D01*
X43050Y-27520D02*
X43050Y-27020D01*
X43060Y-26210D02*
X43960Y-26210D01*
X43960Y-26210D02*
X43960Y-26710D01*
X43960Y-26710D02*
X43060Y-26710D01*
X43060Y-26710D02*
X43060Y-26210D01*
G54D11*
X52394Y-26398D02*
X52394Y-33296D01*
X54206Y-26410D02*
X54206Y-33296D01*
X54182Y-33300D02*
X52465Y-33300D01*
G54D18*
X52400Y-26400D02*
X54200Y-26400D01*
G54D10*
X38295Y-33680D02*
X38295Y-32680D01*
X38295Y-32680D02*
X41295Y-32680D01*
X41295Y-32680D02*
X41295Y-33680D01*
X41295Y-33680D02*
X38295Y-33680D01*
X39295Y-32680D02*
X39295Y-33680D01*
X51700Y-32800D02*
X51700Y-33800D01*
X51700Y-33800D02*
X49700Y-33800D01*
X49700Y-33800D02*
X49700Y-32800D01*
X49700Y-32800D02*
X51700Y-32800D01*
G54D18*
X42700Y-25800D02*
X42700Y-24800D01*
X42700Y-24800D02*
X48700Y-24800D01*
X48700Y-24800D02*
X48700Y-25800D01*
X48700Y-25800D02*
X42700Y-25800D01*
X43700Y-25800D02*
X43700Y-24800D01*
G54D19*
X44188Y-30644D02*
X44316Y-30644D01*
X44316Y-30644D02*
X44316Y-30447D01*
X44188Y-30447D02*
X44316Y-30447D01*
X44188Y-30644D02*
X44188Y-30447D01*
X43943Y-30644D02*
X44002Y-30644D01*
X44002Y-30644D02*
X44002Y-30545D01*
X43943Y-30545D02*
X44002Y-30545D01*
X43943Y-30644D02*
X43943Y-30545D01*
X44138Y-30644D02*
X44197Y-30644D01*
X44197Y-30644D02*
X44197Y-30545D01*
X44138Y-30545D02*
X44197Y-30545D01*
X44138Y-30644D02*
X44138Y-30545D01*
X43992Y-30644D02*
X44148Y-30644D01*
X44148Y-30644D02*
X44148Y-30575D01*
X43992Y-30575D02*
X44148Y-30575D01*
X43992Y-30644D02*
X43992Y-30575D01*
X44188Y-31233D02*
X44316Y-31233D01*
X44316Y-31233D02*
X44316Y-31036D01*
X44188Y-31036D02*
X44316Y-31036D01*
X44188Y-31233D02*
X44188Y-31036D01*
X43824Y-31233D02*
X43952Y-31233D01*
X43952Y-31233D02*
X43952Y-31036D01*
X43824Y-31036D02*
X43952Y-31036D01*
X43824Y-31233D02*
X43824Y-31036D01*
X44138Y-31135D02*
X44197Y-31135D01*
X44197Y-31135D02*
X44197Y-31036D01*
X44138Y-31036D02*
X44197Y-31036D01*
X44138Y-31135D02*
X44138Y-31036D01*
X43943Y-31135D02*
X44002Y-31135D01*
X44002Y-31135D02*
X44002Y-31036D01*
X43943Y-31036D02*
X44002Y-31036D01*
X43943Y-31135D02*
X43943Y-31036D01*
X43992Y-31105D02*
X44148Y-31105D01*
X44148Y-31105D02*
X44148Y-31036D01*
X43992Y-31036D02*
X44148Y-31036D01*
X43992Y-31105D02*
X43992Y-31036D01*
X44031Y-30840D02*
X44109Y-30840D01*
X44109Y-30840D02*
X44109Y-30762D01*
X44031Y-30762D02*
X44109Y-30762D01*
X44031Y-30840D02*
X44031Y-30762D01*
X43834Y-30644D02*
X43952Y-30644D01*
X43952Y-30644D02*
X43952Y-30526D01*
X43834Y-30526D02*
X43952Y-30526D01*
X43834Y-30644D02*
X43834Y-30526D01*
X43824Y-30476D02*
X43913Y-30476D01*
X43913Y-30476D02*
X43913Y-30447D01*
X43824Y-30447D02*
X43913Y-30447D01*
X43824Y-30476D02*
X43824Y-30447D01*
G54D20*
X44296Y-30634D02*
X44296Y-31046D01*
X43844Y-31036D02*
X43844Y-30476D01*
G54D21*
X43921Y-30506D02*
X43920Y-30511D01*
X43918Y-30516D01*
X43916Y-30521D01*
X43912Y-30525D01*
X43908Y-30529D01*
X43903Y-30531D01*
X43898Y-30533D01*
X43893Y-30533D01*
X43888Y-30533D01*
X43883Y-30531D01*
X43878Y-30529D01*
X43874Y-30526D01*
X43870Y-30521D01*
X43868Y-30517D01*
X43866Y-30511D01*
X43866Y-30506D01*
X43866Y-30501D01*
X43867Y-30496D01*
X43870Y-30491D01*
X43873Y-30487D01*
X43878Y-30484D01*
X43882Y-30481D01*
X43887Y-30479D01*
X43893Y-30479D01*
X43897Y-30479D01*
X43903Y-30480D01*
X43908Y-30483D01*
X43912Y-30486D01*
X43915Y-30490D01*
X43918Y-30495D01*
X43920Y-30500D01*
X43920Y-30506D01*
X43921Y-30506D01*
G54D20*
X43933Y-30447D02*
X43934Y-30458D01*
X43936Y-30470D01*
X43938Y-30482D01*
X43942Y-30493D01*
X43946Y-30504D01*
X43952Y-30515D01*
X43958Y-30525D01*
X43966Y-30535D01*
X43974Y-30543D01*
X43982Y-30551D01*
X43992Y-30559D01*
X44002Y-30565D01*
X44013Y-30571D01*
X44024Y-30575D01*
X44035Y-30579D01*
X44047Y-30581D01*
X44059Y-30583D01*
X44070Y-30584D01*
X44081Y-30583D01*
X44093Y-30581D01*
X44105Y-30579D01*
X44116Y-30575D01*
X44127Y-30571D01*
X44138Y-30565D01*
X44148Y-30559D01*
X44158Y-30551D01*
X44166Y-30543D01*
X44174Y-30535D01*
X44182Y-30525D01*
X44188Y-30515D01*
X44194Y-30504D01*
X44198Y-30493D01*
X44202Y-30482D01*
X44204Y-30470D01*
X44206Y-30458D01*
X44207Y-30447D01*
X44207Y-31233D02*
X44206Y-31222D01*
X44204Y-31210D01*
X44202Y-31198D01*
X44198Y-31187D01*
X44194Y-31176D01*
X44188Y-31165D01*
X44182Y-31155D01*
X44174Y-31145D01*
X44166Y-31137D01*
X44158Y-31129D01*
X44148Y-31121D01*
X44138Y-31115D01*
X44127Y-31109D01*
X44116Y-31105D01*
X44105Y-31101D01*
X44093Y-31099D01*
X44081Y-31097D01*
X44070Y-31096D01*
X44059Y-31097D01*
X44047Y-31099D01*
X44035Y-31101D01*
X44024Y-31105D01*
X44013Y-31109D01*
X44002Y-31115D01*
X43992Y-31121D01*
X43982Y-31129D01*
X43974Y-31137D01*
X43966Y-31145D01*
X43958Y-31155D01*
X43952Y-31165D01*
X43946Y-31176D01*
X43942Y-31187D01*
X43938Y-31198D01*
X43936Y-31210D01*
X43934Y-31222D01*
X43933Y-31233D01*
G54D22*
X46480Y-32620D02*
X48980Y-32620D01*
X46480Y-30620D02*
X48980Y-30620D01*
X49980Y-31620D02*
X49976Y-31533D01*
X49964Y-31447D01*
X49945Y-31362D01*
X49919Y-31278D01*
X49886Y-31198D01*
X49846Y-31121D01*
X49799Y-31047D01*
X49746Y-30978D01*
X49687Y-30913D01*
X49622Y-30854D01*
X49553Y-30801D01*
X49480Y-30754D01*
X49402Y-30714D01*
X49322Y-30681D01*
X49238Y-30655D01*
X49153Y-30636D01*
X49067Y-30624D01*
X48980Y-30620D01*
X48980Y-32620D02*
X49067Y-32616D01*
X49153Y-32604D01*
X49238Y-32585D01*
X49322Y-32559D01*
X49402Y-32526D01*
X49480Y-32486D01*
X49553Y-32439D01*
X49622Y-32386D01*
X49687Y-32327D01*
X49746Y-32262D01*
X49799Y-32193D01*
X49846Y-32119D01*
X49886Y-32042D01*
X49919Y-31962D01*
X49945Y-31878D01*
X49964Y-31793D01*
X49976Y-31707D01*
X49980Y-31620D01*
X46480Y-30620D02*
X46393Y-30624D01*
X46307Y-30636D01*
X46222Y-30655D01*
X46138Y-30681D01*
X46058Y-30714D01*
X45981Y-30754D01*
X45907Y-30801D01*
X45838Y-30854D01*
X45773Y-30913D01*
X45714Y-30978D01*
X45661Y-31047D01*
X45614Y-31121D01*
X45574Y-31198D01*
X45541Y-31278D01*
X45515Y-31362D01*
X45496Y-31447D01*
X45484Y-31533D01*
X45480Y-31620D01*
X45480Y-31620D02*
X45484Y-31707D01*
X45496Y-31793D01*
X45515Y-31878D01*
X45541Y-31962D01*
X45574Y-32042D01*
X45614Y-32119D01*
X45661Y-32193D01*
X45714Y-32262D01*
X45773Y-32327D01*
X45838Y-32386D01*
X45907Y-32439D01*
X45981Y-32486D01*
X46058Y-32526D01*
X46138Y-32559D01*
X46222Y-32585D01*
X46307Y-32604D01*
X46393Y-32616D01*
X46480Y-32620D01*
G54D23*
G36*
X51050Y-26793D02*
X50950Y-26793D01*
X50950Y-25794D01*
X50925Y-25546D01*
X50856Y-25297D01*
X50750Y-25077D01*
X50750Y-25076D01*
X50706Y-25014D01*
X50657Y-24978D01*
X50582Y-24957D01*
X50465Y-24942D01*
X50206Y-24939D01*
X49981Y-24990D01*
X49797Y-25089D01*
X49656Y-25234D01*
X49563Y-25422D01*
X49522Y-25649D01*
X49520Y-25727D01*
X49525Y-25828D01*
X49538Y-25934D01*
X49555Y-26033D01*
X49574Y-26113D01*
X49592Y-26162D01*
X49606Y-26169D01*
X49613Y-26123D01*
X49641Y-26000D01*
X49707Y-25854D01*
X49799Y-25703D01*
X49906Y-25570D01*
X49987Y-25493D01*
X50095Y-25419D01*
X50222Y-25349D01*
X50351Y-25290D01*
X50466Y-25250D01*
X50548Y-25236D01*
X50567Y-25239D01*
X50604Y-25284D01*
X50637Y-25379D01*
X50664Y-25508D01*
X50680Y-25655D01*
X50684Y-25752D01*
X50664Y-25981D01*
X50599Y-26175D01*
X50514Y-26301D01*
X50514Y-25846D01*
X50505Y-25639D01*
X50453Y-25477D01*
X50414Y-25398D01*
X50390Y-25375D01*
X50372Y-25399D01*
X50368Y-25410D01*
X50237Y-25699D01*
X50064Y-25941D01*
X49852Y-26131D01*
X49683Y-26232D01*
X49583Y-26277D01*
X49509Y-26304D01*
X49479Y-26307D01*
X49460Y-26271D01*
X49431Y-26187D01*
X49399Y-26078D01*
X49356Y-25812D01*
X49370Y-25557D01*
X49440Y-25324D01*
X49561Y-25120D01*
X49716Y-24967D01*
X49858Y-24858D01*
X49712Y-24879D01*
X49488Y-24939D01*
X49310Y-25045D01*
X49178Y-25200D01*
X49093Y-25402D01*
X49077Y-25468D01*
X49057Y-25587D01*
X49057Y-25696D01*
X49075Y-25825D01*
X49090Y-25899D01*
X49143Y-26100D01*
X49205Y-26278D01*
X49273Y-26422D01*
X49341Y-26520D01*
X49390Y-26558D01*
X49524Y-26588D01*
X49692Y-26592D01*
X49868Y-26573D01*
X50027Y-26531D01*
X50071Y-26513D01*
X50244Y-26398D01*
X50378Y-26239D01*
X50470Y-26051D01*
X50514Y-25846D01*
X50514Y-26301D01*
X50483Y-26348D01*
X50309Y-26513D01*
X50283Y-26533D01*
X50167Y-26623D01*
X50317Y-26625D01*
X50498Y-26595D01*
X50589Y-26551D01*
X50753Y-26417D01*
X50867Y-26242D01*
X50932Y-26025D01*
X50950Y-25794D01*
X50950Y-26793D01*
X49967Y-26793D01*
X48884Y-26793D01*
X48884Y-25760D01*
X48884Y-24727D01*
X49967Y-24727D01*
X51050Y-24727D01*
X51050Y-25760D01*
X51050Y-26793D01*
X51050Y-26793D01*
X51050Y-26793D01*
G37*
G54D12*
X50859Y-28451D02*
X50776Y-28332D01*
X50717Y-28451D02*
X50717Y-28201D01*
X50812Y-28201D01*
X50836Y-28213D01*
X50847Y-28225D01*
X50859Y-28249D01*
X50859Y-28285D01*
X50847Y-28308D01*
X50836Y-28320D01*
X50812Y-28332D01*
X50717Y-28332D01*
X50943Y-28201D02*
X51097Y-28201D01*
X51014Y-28296D01*
X51050Y-28296D01*
X51074Y-28308D01*
X51086Y-28320D01*
X51097Y-28344D01*
X51097Y-28404D01*
X51086Y-28427D01*
X51074Y-28439D01*
X51050Y-28451D01*
X50978Y-28451D01*
X50955Y-28439D01*
X50943Y-28427D01*
G54D24*
X48310Y-28751D02*
X48310Y-28954D01*
X48321Y-28977D01*
X48333Y-28989D01*
X48357Y-29001D01*
X48405Y-29001D01*
X48429Y-28989D01*
X48440Y-28977D01*
X48452Y-28954D01*
X48452Y-28751D01*
X48702Y-29001D02*
X48560Y-29001D01*
X48631Y-29001D02*
X48631Y-28751D01*
X48607Y-28787D01*
X48583Y-28811D01*
X48560Y-28823D01*
G54D15*
X39046Y-31225D02*
X39249Y-31225D01*
X39272Y-31214D01*
X39284Y-31202D01*
X39296Y-31178D01*
X39296Y-31130D01*
X39284Y-31106D01*
X39272Y-31095D01*
X39249Y-31083D01*
X39046Y-31083D01*
X39070Y-30975D02*
X39058Y-30963D01*
X39046Y-30940D01*
X39046Y-30880D01*
X39058Y-30856D01*
X39070Y-30844D01*
X39094Y-30833D01*
X39118Y-30833D01*
X39153Y-30844D01*
X39296Y-30987D01*
X39296Y-30833D01*
G54D12*
X42785Y-32743D02*
X42799Y-32757D01*
X42813Y-32800D01*
X42813Y-32829D01*
X42799Y-32872D01*
X42771Y-32900D01*
X42742Y-32915D01*
X42685Y-32929D01*
X42642Y-32929D01*
X42585Y-32915D01*
X42556Y-32900D01*
X42528Y-32872D01*
X42513Y-32829D01*
X42513Y-32800D01*
X42528Y-32757D01*
X42542Y-32743D01*
X42513Y-32486D02*
X42513Y-32543D01*
X42528Y-32572D01*
X42542Y-32586D01*
X42585Y-32615D01*
X42642Y-32629D01*
X42756Y-32629D01*
X42785Y-32615D01*
X42799Y-32600D01*
X42813Y-32572D01*
X42813Y-32515D01*
X42799Y-32486D01*
X42785Y-32472D01*
X42756Y-32457D01*
X42685Y-32457D01*
X42656Y-32472D01*
X42642Y-32486D01*
X42628Y-32515D01*
X42628Y-32572D01*
X42642Y-32600D01*
X42656Y-32615D01*
X42685Y-32629D01*
X48519Y-33770D02*
X48507Y-33782D01*
X48472Y-33794D01*
X48448Y-33794D01*
X48412Y-33782D01*
X48388Y-33758D01*
X48377Y-33735D01*
X48365Y-33687D01*
X48365Y-33651D01*
X48377Y-33604D01*
X48388Y-33580D01*
X48412Y-33556D01*
X48448Y-33544D01*
X48472Y-33544D01*
X48507Y-33556D01*
X48519Y-33568D01*
X48757Y-33794D02*
X48615Y-33794D01*
X48686Y-33794D02*
X48686Y-33544D01*
X48662Y-33580D01*
X48638Y-33604D01*
X48615Y-33616D01*
X44009Y-28495D02*
X43926Y-28376D01*
X43867Y-28495D02*
X43867Y-28245D01*
X43962Y-28245D01*
X43986Y-28257D01*
X43997Y-28269D01*
X44009Y-28293D01*
X44009Y-28329D01*
X43997Y-28352D01*
X43986Y-28364D01*
X43962Y-28376D01*
X43867Y-28376D01*
X44093Y-28245D02*
X44259Y-28245D01*
X44152Y-28495D01*
X50698Y-31839D02*
X50579Y-31922D01*
X50698Y-31981D02*
X50448Y-31981D01*
X50448Y-31886D01*
X50460Y-31862D01*
X50472Y-31851D01*
X50496Y-31839D01*
X50532Y-31839D01*
X50555Y-31851D01*
X50567Y-31862D01*
X50579Y-31886D01*
X50579Y-31981D01*
X50448Y-31624D02*
X50448Y-31672D01*
X50460Y-31696D01*
X50472Y-31708D01*
X50508Y-31731D01*
X50555Y-31743D01*
X50651Y-31743D01*
X50674Y-31731D01*
X50686Y-31720D01*
X50698Y-31696D01*
X50698Y-31648D01*
X50686Y-31624D01*
X50674Y-31612D01*
X50651Y-31601D01*
X50591Y-31601D01*
X50567Y-31612D01*
X50555Y-31624D01*
X50543Y-31648D01*
X50543Y-31696D01*
X50555Y-31720D01*
X50567Y-31731D01*
X50591Y-31743D01*
X46551Y-29042D02*
X46432Y-29125D01*
X46551Y-29184D02*
X46301Y-29184D01*
X46301Y-29089D01*
X46313Y-29065D01*
X46325Y-29054D01*
X46349Y-29042D01*
X46385Y-29042D01*
X46408Y-29054D01*
X46420Y-29065D01*
X46432Y-29089D01*
X46432Y-29184D01*
X46301Y-28815D02*
X46301Y-28934D01*
X46420Y-28946D01*
X46408Y-28934D01*
X46396Y-28911D01*
X46396Y-28851D01*
X46408Y-28827D01*
X46420Y-28815D01*
X46444Y-28804D01*
X46504Y-28804D01*
X46527Y-28815D01*
X46539Y-28827D01*
X46551Y-28851D01*
X46551Y-28911D01*
X46539Y-28934D01*
X46527Y-28946D01*
X48711Y-26332D02*
X48592Y-26415D01*
X48711Y-26474D02*
X48461Y-26474D01*
X48461Y-26379D01*
X48473Y-26355D01*
X48485Y-26344D01*
X48509Y-26332D01*
X48545Y-26332D01*
X48568Y-26344D01*
X48580Y-26355D01*
X48592Y-26379D01*
X48592Y-26474D01*
X48545Y-26117D02*
X48711Y-26117D01*
X48449Y-26177D02*
X48628Y-26236D01*
X48628Y-26082D01*
X43285Y-29920D02*
X43166Y-30003D01*
X43285Y-30062D02*
X43035Y-30062D01*
X43035Y-29967D01*
X43047Y-29943D01*
X43059Y-29932D01*
X43083Y-29920D01*
X43119Y-29920D01*
X43142Y-29932D01*
X43154Y-29943D01*
X43166Y-29967D01*
X43166Y-30062D01*
X43059Y-29824D02*
X43047Y-29812D01*
X43035Y-29789D01*
X43035Y-29729D01*
X43047Y-29705D01*
X43059Y-29693D01*
X43083Y-29682D01*
X43107Y-29682D01*
X43142Y-29693D01*
X43285Y-29836D01*
X43285Y-29682D01*
X43277Y-30800D02*
X43158Y-30883D01*
X43277Y-30942D02*
X43027Y-30942D01*
X43027Y-30847D01*
X43039Y-30823D01*
X43051Y-30812D01*
X43075Y-30800D01*
X43111Y-30800D01*
X43134Y-30812D01*
X43146Y-30823D01*
X43158Y-30847D01*
X43158Y-30942D01*
X43277Y-30562D02*
X43277Y-30704D01*
X43277Y-30633D02*
X43027Y-30633D01*
X43063Y-30657D01*
X43087Y-30681D01*
X43099Y-30704D01*
X43244Y-28980D02*
X43256Y-28992D01*
X43268Y-29027D01*
X43268Y-29051D01*
X43256Y-29087D01*
X43232Y-29111D01*
X43209Y-29122D01*
X43161Y-29134D01*
X43125Y-29134D01*
X43078Y-29122D01*
X43054Y-29111D01*
X43030Y-29087D01*
X43018Y-29051D01*
X43018Y-29027D01*
X43030Y-28992D01*
X43042Y-28980D01*
X43018Y-28753D02*
X43018Y-28872D01*
X43137Y-28884D01*
X43125Y-28872D01*
X43113Y-28849D01*
X43113Y-28789D01*
X43125Y-28765D01*
X43137Y-28753D01*
X43161Y-28742D01*
X43221Y-28742D01*
X43244Y-28753D01*
X43256Y-28765D01*
X43268Y-28789D01*
X43268Y-28849D01*
X43256Y-28872D01*
X43244Y-28884D01*
X46532Y-30027D02*
X46544Y-30039D01*
X46556Y-30074D01*
X46556Y-30098D01*
X46544Y-30134D01*
X46520Y-30158D01*
X46497Y-30169D01*
X46449Y-30181D01*
X46413Y-30181D01*
X46366Y-30169D01*
X46342Y-30158D01*
X46318Y-30134D01*
X46306Y-30098D01*
X46306Y-30074D01*
X46318Y-30039D01*
X46330Y-30027D01*
X46390Y-29812D02*
X46556Y-29812D01*
X46294Y-29872D02*
X46473Y-29931D01*
X46473Y-29777D01*
X46507Y-28147D02*
X46519Y-28159D01*
X46531Y-28194D01*
X46531Y-28218D01*
X46519Y-28254D01*
X46495Y-28278D01*
X46472Y-28289D01*
X46424Y-28301D01*
X46388Y-28301D01*
X46341Y-28289D01*
X46317Y-28278D01*
X46293Y-28254D01*
X46281Y-28218D01*
X46281Y-28194D01*
X46293Y-28159D01*
X46305Y-28147D01*
X46281Y-28063D02*
X46281Y-27909D01*
X46376Y-27992D01*
X46376Y-27956D01*
X46388Y-27932D01*
X46400Y-27920D01*
X46424Y-27909D01*
X46484Y-27909D01*
X46507Y-27920D01*
X46519Y-27932D01*
X46531Y-27956D01*
X46531Y-28028D01*
X46519Y-28051D01*
X46507Y-28063D01*
X46866Y-33761D02*
X46854Y-33773D01*
X46819Y-33785D01*
X46795Y-33785D01*
X46759Y-33773D01*
X46735Y-33749D01*
X46724Y-33726D01*
X46712Y-33678D01*
X46712Y-33642D01*
X46724Y-33595D01*
X46735Y-33571D01*
X46759Y-33547D01*
X46795Y-33535D01*
X46819Y-33535D01*
X46854Y-33547D01*
X46866Y-33559D01*
X46962Y-33559D02*
X46974Y-33547D01*
X46997Y-33535D01*
X47057Y-33535D01*
X47081Y-33547D01*
X47093Y-33559D01*
X47104Y-33583D01*
X47104Y-33607D01*
X47093Y-33642D01*
X46950Y-33785D01*
X47104Y-33785D01*
G54D25*
X44050Y-27507D02*
X44250Y-27447D01*
X44050Y-27387D01*
X44250Y-27224D02*
X44155Y-27284D01*
X44250Y-27327D02*
X44050Y-27327D01*
X44050Y-27259D01*
X44059Y-27241D01*
X44069Y-27233D01*
X44088Y-27224D01*
X44117Y-27224D01*
X44136Y-27233D01*
X44145Y-27241D01*
X44155Y-27259D01*
X44155Y-27327D01*
X44250Y-27053D02*
X44250Y-27156D01*
X44250Y-27104D02*
X44050Y-27104D01*
X44079Y-27121D01*
X44098Y-27139D01*
X44107Y-27156D01*
X44058Y-26699D02*
X44258Y-26639D01*
X44058Y-26579D01*
X44258Y-26416D02*
X44163Y-26476D01*
X44258Y-26519D02*
X44058Y-26519D01*
X44058Y-26451D01*
X44067Y-26433D01*
X44077Y-26425D01*
X44096Y-26416D01*
X44125Y-26416D01*
X44144Y-26425D01*
X44153Y-26433D01*
X44163Y-26451D01*
X44163Y-26519D01*
X44077Y-26348D02*
X44067Y-26339D01*
X44058Y-26322D01*
X44058Y-26279D01*
X44067Y-26262D01*
X44077Y-26253D01*
X44096Y-26245D01*
X44115Y-26245D01*
X44144Y-26253D01*
X44258Y-26356D01*
X44258Y-26245D01*
G54D12*
X43894Y-31871D02*
X43894Y-31621D01*
X43953Y-31621D01*
X43989Y-31633D01*
X44013Y-31657D01*
X44024Y-31681D01*
X44036Y-31728D01*
X44036Y-31764D01*
X44024Y-31812D01*
X44013Y-31835D01*
X43989Y-31859D01*
X43953Y-31871D01*
X43894Y-31871D01*
X44274Y-31871D02*
X44132Y-31871D01*
X44203Y-31871D02*
X44203Y-31621D01*
X44179Y-31657D01*
X44155Y-31681D01*
X44132Y-31693D01*
G54D15*
X47578Y-31491D02*
X47744Y-31741D01*
X47744Y-31491D02*
X47578Y-31741D01*
X47970Y-31741D02*
X47828Y-31741D01*
X47899Y-31741D02*
X47899Y-31491D01*
X47875Y-31527D01*
X47851Y-31551D01*
X47828Y-31563D01*
M02*
