G04 (created by PCBNEW-RS274X (2011-12-28 BZR 3254)-stable) date 12/14/2012 5:03:44 PM*
G01*
G70*
G90*
%MOIN*%
G04 Gerber Fmt 3.4, Leading zero omitted, Abs format*
%FSLAX34Y34*%
G04 APERTURE LIST*
%ADD10C,0.006000*%
%ADD11R,0.036000X0.020000*%
%ADD12R,0.098000X0.078000*%
%ADD13R,0.129000X0.078000*%
%ADD14R,0.122000X0.020000*%
%ADD15R,0.016500X0.065000*%
%ADD16R,0.080000X0.144000*%
%ADD17R,0.080000X0.040000*%
%ADD18R,0.070000X0.110000*%
%ADD19R,0.035000X0.055000*%
%ADD20R,0.055000X0.035000*%
%ADD21R,0.025000X0.045000*%
%ADD22R,0.060000X0.060000*%
%ADD23C,0.060000*%
%ADD24R,0.047200X0.047200*%
%ADD25C,0.056000*%
%ADD26C,0.030000*%
%ADD27C,0.024000*%
%ADD28C,0.030000*%
%ADD29C,0.012000*%
%ADD30C,0.016000*%
%ADD31C,0.010000*%
G04 APERTURE END LIST*
G54D10*
G54D11*
X50583Y-27975D03*
X51211Y-27975D03*
X50583Y-27660D03*
X51211Y-27660D03*
X50583Y-27346D03*
X51211Y-27346D03*
X50583Y-27031D03*
X51211Y-27031D03*
G54D12*
X38355Y-25310D03*
X38355Y-28810D03*
G54D13*
X40700Y-25310D03*
X40700Y-28810D03*
G54D14*
X40735Y-26440D03*
X40735Y-26770D03*
X40735Y-27060D03*
X40735Y-27350D03*
X40735Y-27680D03*
G54D15*
X48372Y-29950D03*
X48628Y-29950D03*
X48884Y-29950D03*
X49140Y-29950D03*
X47608Y-27450D03*
X47604Y-29950D03*
X47860Y-29950D03*
X48116Y-29950D03*
X49396Y-27450D03*
X49140Y-27450D03*
X48884Y-27450D03*
X48628Y-27450D03*
X48372Y-27450D03*
X48116Y-27450D03*
X49396Y-29950D03*
X47860Y-27450D03*
X47348Y-29950D03*
X49652Y-29950D03*
X49652Y-27450D03*
X47348Y-27450D03*
G54D16*
X38090Y-31005D03*
G54D17*
X40690Y-31005D03*
X40690Y-30105D03*
X40690Y-31905D03*
G54D18*
X43300Y-32690D03*
X44700Y-32690D03*
G54D19*
X48191Y-33145D03*
X48941Y-33145D03*
G54D20*
X44040Y-29545D03*
X44040Y-28795D03*
X51100Y-31425D03*
X51100Y-32175D03*
G54D19*
X45995Y-29000D03*
X45245Y-29000D03*
X48150Y-26292D03*
X47400Y-26292D03*
X42734Y-29844D03*
X41984Y-29844D03*
X41975Y-30772D03*
X42725Y-30772D03*
X41966Y-28940D03*
X42716Y-28940D03*
X45994Y-29981D03*
X45244Y-29981D03*
X45972Y-28104D03*
X45222Y-28104D03*
X47282Y-33138D03*
X46532Y-33138D03*
G54D21*
X43200Y-27270D03*
X43800Y-27270D03*
X43210Y-26460D03*
X43810Y-26460D03*
G54D22*
X52800Y-26800D03*
G54D23*
X53800Y-26800D03*
X52800Y-27800D03*
X53800Y-27800D03*
X52800Y-28800D03*
X53800Y-28800D03*
X52800Y-29800D03*
X53800Y-29800D03*
X52800Y-30800D03*
X53800Y-30800D03*
X52800Y-31800D03*
X53800Y-31800D03*
X52800Y-32800D03*
X53800Y-32800D03*
G54D22*
X38795Y-33180D03*
G54D23*
X39795Y-33180D03*
X40795Y-33180D03*
G54D22*
X51200Y-33300D03*
G54D23*
X50200Y-33300D03*
G54D22*
X43200Y-25300D03*
G54D23*
X44200Y-25300D03*
X45200Y-25300D03*
X46200Y-25300D03*
X47200Y-25300D03*
X48200Y-25300D03*
G54D24*
X44070Y-31253D03*
X44070Y-30427D03*
G54D25*
X46730Y-31620D03*
X48730Y-31620D03*
G54D26*
X41940Y-28430D03*
X42130Y-26220D03*
X50675Y-30720D03*
X46566Y-29405D03*
X50675Y-30715D03*
X45405Y-26895D03*
X48375Y-34020D03*
X47979Y-28931D03*
X47138Y-29309D03*
X45810Y-31830D03*
X46605Y-30705D03*
X54750Y-25000D03*
X55140Y-28360D03*
X55140Y-30320D03*
X55140Y-32290D03*
X42600Y-27645D03*
X44665Y-28165D03*
X54113Y-33818D03*
X55350Y-25200D03*
X55350Y-25800D03*
X37960Y-32515D03*
X55134Y-33822D03*
X46865Y-25970D03*
X47741Y-31203D03*
X38385Y-27585D03*
X42355Y-33420D03*
X41601Y-25284D03*
X53042Y-33840D03*
X42561Y-26019D03*
X39570Y-31505D03*
X39564Y-28810D03*
X50275Y-30420D03*
X51375Y-29455D03*
X52150Y-30740D03*
X52150Y-31820D03*
X52150Y-32630D03*
X49050Y-30950D03*
X52443Y-33845D03*
X42355Y-31950D03*
X48490Y-28470D03*
X51890Y-33845D03*
X38430Y-26685D03*
X44649Y-26898D03*
G54D27*
X40795Y-33154D02*
X39978Y-32337D01*
G54D28*
X40690Y-31005D02*
X41256Y-31005D01*
X42180Y-32690D02*
X43300Y-32690D01*
G54D27*
X40795Y-33180D02*
X40795Y-33154D01*
G54D28*
X41468Y-30360D02*
X41984Y-29844D01*
X41256Y-31005D02*
X41468Y-30793D01*
G54D27*
X40158Y-31005D02*
X40690Y-31005D01*
X39978Y-31185D02*
X40158Y-31005D01*
G54D28*
X40795Y-33180D02*
X41690Y-33180D01*
X41468Y-30793D02*
X41468Y-30360D01*
X41690Y-33180D02*
X42180Y-32690D01*
G54D27*
X39978Y-32337D02*
X39978Y-31185D01*
G54D29*
X47224Y-25300D02*
X47767Y-25843D01*
X47599Y-28161D02*
X47860Y-27900D01*
X39963Y-26887D02*
X39963Y-27852D01*
X39963Y-27852D02*
X40195Y-28084D01*
X43210Y-26460D02*
X43210Y-26423D01*
X47767Y-26739D02*
X47860Y-26832D01*
X46398Y-27664D02*
X46895Y-28161D01*
X40195Y-28084D02*
X44177Y-28084D01*
X42630Y-26770D02*
X42940Y-26460D01*
X40735Y-26770D02*
X42630Y-26770D01*
X47860Y-27900D02*
X47860Y-27450D01*
X44597Y-27664D02*
X46398Y-27664D01*
X47860Y-26832D02*
X47860Y-27450D01*
X40080Y-26770D02*
X39963Y-26887D01*
X44177Y-28084D02*
X44597Y-27664D01*
X40735Y-26770D02*
X40080Y-26770D01*
X47767Y-25843D02*
X47767Y-26739D01*
X46895Y-28161D02*
X47599Y-28161D01*
X42940Y-26460D02*
X43210Y-26460D01*
X47200Y-25300D02*
X47224Y-25300D01*
X46987Y-27939D02*
X46831Y-27783D01*
X46200Y-25872D02*
X46200Y-25300D01*
X46487Y-27441D02*
X44231Y-27441D01*
X47488Y-26789D02*
X47117Y-26789D01*
X47608Y-26909D02*
X47488Y-26789D01*
X43988Y-27684D02*
X43614Y-27684D01*
X47507Y-27939D02*
X46987Y-27939D01*
X47608Y-27450D02*
X47608Y-26909D01*
X47608Y-27450D02*
X47608Y-27836D01*
X47117Y-26789D02*
X46200Y-25872D01*
X46829Y-27783D02*
X46487Y-27441D01*
X42700Y-27270D02*
X43200Y-27270D01*
X40735Y-27060D02*
X42490Y-27060D01*
X47608Y-27838D02*
X47507Y-27939D01*
X46831Y-27783D02*
X46732Y-27684D01*
X42490Y-27060D02*
X42700Y-27270D01*
X43614Y-27684D02*
X43200Y-27270D01*
X46831Y-27783D02*
X46829Y-27783D01*
X47608Y-27450D02*
X47608Y-27838D01*
X44231Y-27441D02*
X43988Y-27684D01*
X49396Y-29569D02*
X49396Y-29950D01*
X53800Y-31800D02*
X53714Y-31800D01*
X52129Y-31294D02*
X50298Y-29463D01*
X53714Y-31800D02*
X53208Y-31294D01*
X50298Y-29463D02*
X49502Y-29463D01*
X49502Y-29463D02*
X49396Y-29569D01*
X53208Y-31294D02*
X52129Y-31294D01*
X53800Y-32800D02*
X53740Y-32800D01*
X50119Y-29950D02*
X49652Y-29950D01*
X50470Y-29950D02*
X50119Y-29950D01*
X52153Y-32304D02*
X51665Y-31816D01*
X53740Y-32800D02*
X53244Y-32304D01*
X53244Y-32304D02*
X52153Y-32304D01*
X51665Y-31816D02*
X51665Y-31145D01*
X51665Y-31145D02*
X50470Y-29950D01*
X50190Y-27215D02*
X50321Y-27346D01*
X49140Y-27011D02*
X49412Y-26739D01*
X49412Y-26739D02*
X49903Y-26739D01*
X49903Y-26739D02*
X50190Y-27026D01*
X49140Y-27450D02*
X49140Y-27011D01*
X50190Y-27026D02*
X50190Y-27215D01*
X50321Y-27346D02*
X50583Y-27346D01*
X49812Y-26964D02*
X49968Y-27120D01*
X50109Y-27660D02*
X50583Y-27660D01*
X49396Y-27070D02*
X49502Y-26964D01*
X49502Y-26964D02*
X49812Y-26964D01*
X49396Y-27450D02*
X49396Y-27070D01*
X49968Y-27519D02*
X50109Y-27660D01*
X49968Y-27120D02*
X49968Y-27519D01*
X49652Y-27450D02*
X49652Y-27806D01*
X49821Y-27975D02*
X50583Y-27975D01*
X49652Y-27806D02*
X49821Y-27975D01*
X48372Y-27450D02*
X48372Y-28016D01*
X48372Y-28016D02*
X47783Y-28605D01*
X46392Y-29016D02*
X46011Y-29016D01*
X46011Y-29016D02*
X45995Y-29000D01*
X46803Y-28605D02*
X46392Y-29016D01*
X47783Y-28605D02*
X46803Y-28605D01*
X48628Y-27450D02*
X48628Y-26488D01*
X48628Y-26488D02*
X48432Y-26292D01*
X48432Y-26292D02*
X48150Y-26292D01*
X48884Y-26955D02*
X49322Y-26517D01*
X50233Y-26517D02*
X50583Y-26867D01*
X49322Y-26517D02*
X50233Y-26517D01*
X50583Y-26867D02*
X50583Y-27031D01*
X48884Y-27450D02*
X48884Y-26955D01*
X53312Y-29312D02*
X53800Y-29800D01*
X50435Y-29018D02*
X51958Y-29018D01*
X48884Y-29950D02*
X48884Y-29450D01*
X52252Y-29312D02*
X53312Y-29312D01*
X49316Y-29018D02*
X50435Y-29018D01*
X48884Y-29450D02*
X49316Y-29018D01*
X51958Y-29018D02*
X52252Y-29312D01*
X50435Y-29018D02*
X50482Y-29018D01*
X52468Y-28286D02*
X53286Y-28286D01*
X53286Y-28286D02*
X53800Y-28800D01*
X48628Y-29393D02*
X49225Y-28796D01*
X49225Y-28796D02*
X51958Y-28796D01*
X48628Y-29950D02*
X48628Y-29393D01*
X51958Y-28796D02*
X52468Y-28286D01*
X52266Y-27454D02*
X52405Y-27315D01*
X53315Y-27315D02*
X53800Y-27800D01*
X51861Y-28575D02*
X52266Y-28170D01*
X48372Y-29950D02*
X48372Y-29335D01*
X48372Y-29335D02*
X49132Y-28575D01*
X49132Y-28575D02*
X51861Y-28575D01*
X52405Y-27315D02*
X53315Y-27315D01*
X52266Y-28170D02*
X52266Y-27454D01*
X50390Y-29240D02*
X49408Y-29240D01*
X53297Y-30305D02*
X51455Y-30305D01*
X49140Y-29508D02*
X49140Y-29950D01*
X53800Y-30800D02*
X53792Y-30800D01*
X51455Y-30305D02*
X50390Y-29240D01*
X49408Y-29240D02*
X49140Y-29508D01*
X53792Y-30800D02*
X53297Y-30305D01*
G54D27*
X38795Y-31500D02*
X38795Y-31270D01*
X39855Y-30105D02*
X40690Y-30105D01*
X40690Y-30105D02*
X40842Y-30105D01*
X40735Y-26440D02*
X41824Y-26440D01*
X40842Y-30105D02*
X41966Y-28981D01*
X41966Y-28869D02*
X41966Y-28940D01*
X41824Y-26440D02*
X41910Y-26440D01*
X41966Y-28981D02*
X41966Y-28940D01*
X41966Y-28456D02*
X41966Y-28940D01*
X41966Y-28928D02*
X41966Y-28940D01*
G54D29*
X40690Y-30105D02*
X41015Y-30105D01*
G54D27*
X41910Y-26440D02*
X42130Y-26220D01*
X41958Y-28920D02*
X41966Y-28928D01*
X41958Y-28861D02*
X41966Y-28869D01*
X41940Y-28430D02*
X41966Y-28456D01*
X38795Y-31165D02*
X39855Y-30105D01*
X38795Y-33180D02*
X38795Y-31500D01*
X38795Y-31500D02*
X38795Y-31165D01*
G54D28*
X43620Y-34020D02*
X43025Y-34020D01*
G54D27*
X51100Y-30978D02*
X51100Y-31425D01*
X50675Y-30715D02*
X50837Y-30715D01*
G54D28*
X44070Y-31253D02*
X44943Y-31253D01*
X50675Y-30720D02*
X50675Y-30715D01*
G54D30*
X46565Y-29406D02*
X46565Y-29640D01*
G54D28*
X43025Y-34020D02*
X48375Y-34020D01*
G54D29*
X46025Y-29950D02*
X45994Y-29981D01*
G54D30*
X46565Y-29406D02*
X46566Y-29405D01*
X44200Y-25675D02*
X45405Y-26880D01*
X45994Y-29981D02*
X46224Y-29981D01*
X46565Y-29640D02*
X46224Y-29981D01*
G54D29*
X39795Y-33180D02*
X39837Y-33180D01*
G54D28*
X39795Y-33180D02*
X39795Y-33187D01*
G54D29*
X47348Y-29950D02*
X46025Y-29950D01*
G54D28*
X39985Y-34020D02*
X43025Y-34020D01*
X44070Y-33400D02*
X44070Y-33570D01*
X39795Y-33180D02*
X39795Y-33830D01*
X39795Y-33830D02*
X39985Y-34020D01*
G54D30*
X44200Y-25300D02*
X44200Y-25675D01*
G54D28*
X44070Y-33570D02*
X43620Y-34020D01*
X44943Y-31253D02*
X45994Y-30202D01*
G54D29*
X45405Y-26880D02*
X45405Y-26895D01*
X46049Y-29943D02*
X46011Y-29981D01*
G54D27*
X50837Y-30715D02*
X51100Y-30978D01*
G54D28*
X44070Y-33490D02*
X44070Y-33400D01*
X44070Y-33400D02*
X44070Y-31253D01*
X45994Y-30202D02*
X45994Y-29981D01*
G54D29*
X46011Y-29981D02*
X45994Y-29981D01*
X48116Y-29950D02*
X48122Y-29944D01*
X50697Y-32175D02*
X51100Y-32175D01*
X50225Y-31703D02*
X50697Y-32175D01*
X48218Y-30438D02*
X49583Y-30438D01*
X50225Y-31080D02*
X50225Y-31703D01*
X48116Y-29950D02*
X48116Y-30336D01*
X48116Y-30336D02*
X48218Y-30438D01*
X48122Y-29944D02*
X48122Y-29074D01*
X48122Y-29074D02*
X47979Y-28931D01*
X49583Y-30438D02*
X50225Y-31080D01*
G54D30*
X47979Y-28931D02*
X47979Y-28942D01*
G54D29*
X51200Y-32275D02*
X51100Y-32175D01*
X51200Y-33300D02*
X51200Y-32275D01*
X44700Y-32690D02*
X45460Y-32690D01*
X45810Y-31500D02*
X46605Y-30705D01*
X45810Y-31830D02*
X45810Y-31500D01*
X45810Y-32340D02*
X45810Y-31830D01*
X45460Y-32690D02*
X45810Y-32340D01*
X55134Y-33822D02*
X55134Y-32296D01*
X55134Y-33822D02*
X55139Y-33822D01*
X45245Y-29980D02*
X45244Y-29981D01*
X55140Y-30320D02*
X55140Y-28360D01*
X47187Y-26292D02*
X46865Y-25970D01*
X55134Y-32296D02*
X55140Y-32290D01*
X38385Y-28780D02*
X38385Y-27585D01*
X44733Y-28795D02*
X44954Y-28574D01*
X42561Y-26019D02*
X42575Y-26033D01*
X44665Y-28165D02*
X44726Y-28104D01*
X40735Y-27680D02*
X40770Y-27645D01*
X55139Y-33822D02*
X55148Y-33831D01*
X53042Y-33840D02*
X54091Y-33840D01*
X42725Y-30772D02*
X42725Y-31580D01*
X53042Y-33840D02*
X53037Y-33845D01*
X43133Y-30772D02*
X43310Y-30595D01*
X50275Y-30420D02*
X50285Y-30430D01*
X43310Y-29105D02*
X43145Y-28940D01*
X51950Y-26800D02*
X51950Y-26200D01*
X48184Y-33138D02*
X48191Y-33145D01*
X52350Y-25800D02*
X55350Y-25800D01*
X51950Y-26200D02*
X52350Y-25800D01*
X38355Y-26610D02*
X38355Y-25310D01*
X47741Y-32130D02*
X47741Y-31203D01*
X42960Y-28940D02*
X43391Y-28940D01*
X45222Y-28614D02*
X45222Y-28977D01*
X45222Y-28104D02*
X45222Y-28614D01*
X38355Y-26610D02*
X38430Y-26685D01*
X39564Y-28810D02*
X38355Y-28810D01*
X38385Y-28780D02*
X38355Y-28810D01*
X40700Y-25310D02*
X41575Y-25310D01*
X43391Y-28940D02*
X43536Y-28795D01*
X45222Y-28977D02*
X45245Y-29000D01*
X42960Y-28940D02*
X42716Y-28940D01*
X54950Y-25200D02*
X54750Y-25000D01*
X42725Y-30772D02*
X43133Y-30772D01*
X45245Y-29000D02*
X45245Y-29980D01*
X55350Y-25200D02*
X54950Y-25200D01*
X42955Y-28940D02*
X42960Y-28940D01*
X43536Y-28795D02*
X44040Y-28795D01*
X47741Y-33138D02*
X47805Y-33138D01*
X47805Y-33138D02*
X48184Y-33138D01*
X47741Y-33138D02*
X47741Y-32130D01*
X40735Y-27350D02*
X40735Y-27680D01*
X47400Y-26292D02*
X47187Y-26292D01*
X45720Y-25820D02*
X45720Y-26120D01*
X43145Y-28940D02*
X42955Y-28940D01*
X47282Y-33138D02*
X47741Y-33138D01*
X51211Y-27031D02*
X51719Y-27031D01*
X42355Y-33420D02*
X42355Y-33440D01*
X38385Y-28780D02*
X38355Y-28810D01*
X43310Y-30595D02*
X43310Y-29105D01*
X40770Y-27645D02*
X42600Y-27645D01*
X52150Y-31820D02*
X52140Y-31810D01*
X52140Y-30730D02*
X52140Y-30690D01*
X52150Y-30740D02*
X52140Y-30730D01*
X52140Y-31810D02*
X52130Y-31810D01*
X52140Y-32640D02*
X52140Y-32660D01*
X52150Y-32630D02*
X52140Y-32640D01*
X45720Y-26120D02*
X47050Y-27450D01*
X45218Y-28104D02*
X45222Y-28104D01*
X51719Y-27031D02*
X51950Y-26800D01*
X50285Y-30430D02*
X50300Y-30430D01*
X39564Y-28810D02*
X40700Y-28810D01*
X45202Y-28088D02*
X45218Y-28104D01*
X51876Y-33845D02*
X51863Y-33858D01*
X45182Y-28574D02*
X45222Y-28614D01*
X43800Y-26470D02*
X43810Y-26460D01*
X51890Y-33845D02*
X51876Y-33845D01*
X54091Y-33840D02*
X54113Y-33818D01*
X53037Y-33845D02*
X52443Y-33845D01*
X42725Y-31580D02*
X42355Y-31950D01*
X44954Y-28574D02*
X45182Y-28574D01*
X44040Y-28795D02*
X44733Y-28795D01*
X47050Y-27450D02*
X47348Y-27450D01*
X44726Y-28104D02*
X45222Y-28104D01*
X41575Y-25310D02*
X41601Y-25284D01*
X45200Y-25300D02*
X45720Y-25820D01*
X43800Y-27270D02*
X43800Y-26470D01*
X44211Y-26460D02*
X44649Y-26898D01*
X43810Y-26460D02*
X44211Y-26460D01*
X44070Y-29575D02*
X44040Y-29545D01*
X44070Y-30427D02*
X44070Y-29575D01*
X41975Y-30686D02*
X42332Y-30329D01*
G54D27*
X40690Y-31905D02*
X41575Y-31905D01*
G54D29*
X41975Y-30772D02*
X41975Y-30685D01*
X42561Y-30329D02*
X42734Y-30156D01*
X42734Y-30156D02*
X42734Y-29844D01*
X42332Y-30329D02*
X42561Y-30329D01*
G54D27*
X41975Y-31505D02*
X41975Y-30772D01*
G54D29*
X41975Y-30772D02*
X41975Y-30686D01*
G54D27*
X41575Y-31905D02*
X41975Y-31505D01*
G54D29*
X47691Y-28383D02*
X46803Y-28383D01*
X46803Y-28383D02*
X46524Y-28104D01*
X48116Y-27958D02*
X47691Y-28383D01*
X46524Y-28104D02*
X45972Y-28104D01*
X48116Y-27450D02*
X48116Y-27958D01*
X48730Y-31620D02*
X49010Y-31900D01*
X49010Y-33076D02*
X48941Y-33145D01*
X49010Y-31900D02*
X49010Y-33076D01*
X47860Y-29950D02*
X47860Y-30750D01*
X47860Y-30750D02*
X48730Y-31620D01*
X46532Y-33138D02*
X46532Y-31818D01*
X46532Y-31818D02*
X46730Y-31620D01*
X47604Y-29950D02*
X47604Y-30746D01*
X47604Y-30746D02*
X46730Y-31620D01*
G54D10*
G36*
X39749Y-34335D02*
X37684Y-34335D01*
X37684Y-31974D01*
X37739Y-31974D01*
X38425Y-31974D01*
X38425Y-32639D01*
X38354Y-32669D01*
X38284Y-32739D01*
X38246Y-32830D01*
X38246Y-32929D01*
X38246Y-33529D01*
X38284Y-33621D01*
X38354Y-33691D01*
X38445Y-33729D01*
X38544Y-33729D01*
X39144Y-33729D01*
X39236Y-33691D01*
X39306Y-33621D01*
X39344Y-33530D01*
X39344Y-33505D01*
X39395Y-33556D01*
X39395Y-33830D01*
X39425Y-33983D01*
X39512Y-34113D01*
X39699Y-34300D01*
X39702Y-34303D01*
X39749Y-34335D01*
X39749Y-34335D01*
G37*
G54D31*
X39749Y-34335D02*
X37684Y-34335D01*
X37684Y-31974D01*
X37739Y-31974D01*
X38425Y-31974D01*
X38425Y-32639D01*
X38354Y-32669D01*
X38284Y-32739D01*
X38246Y-32830D01*
X38246Y-32929D01*
X38246Y-33529D01*
X38284Y-33621D01*
X38354Y-33691D01*
X38445Y-33729D01*
X38544Y-33729D01*
X39144Y-33729D01*
X39236Y-33691D01*
X39306Y-33621D01*
X39344Y-33530D01*
X39344Y-33505D01*
X39395Y-33556D01*
X39395Y-33830D01*
X39425Y-33983D01*
X39512Y-34113D01*
X39699Y-34300D01*
X39702Y-34303D01*
X39749Y-34335D01*
G54D10*
G36*
X41068Y-30556D02*
X41041Y-30556D01*
X40241Y-30556D01*
X40149Y-30594D01*
X40095Y-30647D01*
X40016Y-30663D01*
X39896Y-30743D01*
X39894Y-30745D01*
X39716Y-30923D01*
X39636Y-31043D01*
X39631Y-31067D01*
X39607Y-31185D01*
X39608Y-31189D01*
X39608Y-32332D01*
X39607Y-32337D01*
X39631Y-32454D01*
X39636Y-32479D01*
X39716Y-32599D01*
X39748Y-32631D01*
X39686Y-32631D01*
X39484Y-32715D01*
X39344Y-32855D01*
X39344Y-32831D01*
X39306Y-32739D01*
X39236Y-32669D01*
X39165Y-32639D01*
X39165Y-31500D01*
X39165Y-31319D01*
X40009Y-30475D01*
X40108Y-30475D01*
X40149Y-30516D01*
X40240Y-30554D01*
X40339Y-30554D01*
X41068Y-30554D01*
X41068Y-30556D01*
X41068Y-30556D01*
G37*
G54D31*
X41068Y-30556D02*
X41041Y-30556D01*
X40241Y-30556D01*
X40149Y-30594D01*
X40095Y-30647D01*
X40016Y-30663D01*
X39896Y-30743D01*
X39894Y-30745D01*
X39716Y-30923D01*
X39636Y-31043D01*
X39631Y-31067D01*
X39607Y-31185D01*
X39608Y-31189D01*
X39608Y-32332D01*
X39607Y-32337D01*
X39631Y-32454D01*
X39636Y-32479D01*
X39716Y-32599D01*
X39748Y-32631D01*
X39686Y-32631D01*
X39484Y-32715D01*
X39344Y-32855D01*
X39344Y-32831D01*
X39306Y-32739D01*
X39236Y-32669D01*
X39165Y-32639D01*
X39165Y-31500D01*
X39165Y-31319D01*
X40009Y-30475D01*
X40108Y-30475D01*
X40149Y-30516D01*
X40240Y-30554D01*
X40339Y-30554D01*
X41068Y-30554D01*
X41068Y-30556D01*
G54D10*
G36*
X43265Y-27774D02*
X41594Y-27774D01*
X41577Y-27774D01*
X41533Y-27730D01*
X40835Y-27730D01*
X40785Y-27730D01*
X40685Y-27730D01*
X40685Y-27638D01*
X40685Y-27630D01*
X40785Y-27630D01*
X40785Y-27638D01*
X40847Y-27700D01*
X41394Y-27699D01*
X41486Y-27661D01*
X41517Y-27630D01*
X41533Y-27630D01*
X41594Y-27569D01*
X41594Y-27530D01*
X41587Y-27515D01*
X41594Y-27500D01*
X41594Y-27461D01*
X41583Y-27450D01*
X41595Y-27450D01*
X41595Y-27370D01*
X42361Y-27370D01*
X42480Y-27489D01*
X42481Y-27489D01*
X42581Y-27556D01*
X42699Y-27579D01*
X42700Y-27580D01*
X42840Y-27580D01*
X42864Y-27636D01*
X42934Y-27706D01*
X43025Y-27744D01*
X43124Y-27744D01*
X43235Y-27744D01*
X43265Y-27774D01*
X43265Y-27774D01*
G37*
G54D31*
X43265Y-27774D02*
X41594Y-27774D01*
X41577Y-27774D01*
X41533Y-27730D01*
X40835Y-27730D01*
X40785Y-27730D01*
X40685Y-27730D01*
X40685Y-27638D01*
X40685Y-27630D01*
X40785Y-27630D01*
X40785Y-27638D01*
X40847Y-27700D01*
X41394Y-27699D01*
X41486Y-27661D01*
X41517Y-27630D01*
X41533Y-27630D01*
X41594Y-27569D01*
X41594Y-27530D01*
X41587Y-27515D01*
X41594Y-27500D01*
X41594Y-27461D01*
X41583Y-27450D01*
X41595Y-27450D01*
X41595Y-27370D01*
X42361Y-27370D01*
X42480Y-27489D01*
X42481Y-27489D01*
X42581Y-27556D01*
X42699Y-27579D01*
X42700Y-27580D01*
X42840Y-27580D01*
X42864Y-27636D01*
X42934Y-27706D01*
X43025Y-27744D01*
X43124Y-27744D01*
X43235Y-27744D01*
X43265Y-27774D01*
G54D10*
G36*
X43585Y-33489D02*
X43454Y-33620D01*
X43025Y-33620D01*
X41131Y-33620D01*
X41171Y-33580D01*
X41690Y-33580D01*
X41843Y-33550D01*
X41973Y-33463D01*
X42346Y-33090D01*
X42701Y-33090D01*
X42701Y-33289D01*
X42739Y-33381D01*
X42809Y-33451D01*
X42900Y-33489D01*
X42999Y-33489D01*
X43585Y-33489D01*
X43585Y-33489D01*
G37*
G54D31*
X43585Y-33489D02*
X43454Y-33620D01*
X43025Y-33620D01*
X41131Y-33620D01*
X41171Y-33580D01*
X41690Y-33580D01*
X41843Y-33550D01*
X41973Y-33463D01*
X42346Y-33090D01*
X42701Y-33090D01*
X42701Y-33289D01*
X42739Y-33381D01*
X42809Y-33451D01*
X42900Y-33489D01*
X42999Y-33489D01*
X43585Y-33489D01*
G54D10*
G36*
X45322Y-29490D02*
X45294Y-29518D01*
X45294Y-29881D01*
X45294Y-29931D01*
X45294Y-30031D01*
X45195Y-30031D01*
X45195Y-29463D01*
X45195Y-29050D01*
X45195Y-28950D01*
X45195Y-28537D01*
X45172Y-28514D01*
X45172Y-28154D01*
X44859Y-28154D01*
X44797Y-28216D01*
X44798Y-28330D01*
X44798Y-28429D01*
X44836Y-28520D01*
X44879Y-28563D01*
X44859Y-28584D01*
X44821Y-28675D01*
X44821Y-28774D01*
X44820Y-28888D01*
X44882Y-28950D01*
X45195Y-28950D01*
X45195Y-29050D01*
X44882Y-29050D01*
X44820Y-29112D01*
X44821Y-29226D01*
X44821Y-29325D01*
X44859Y-29416D01*
X44929Y-29486D01*
X44939Y-29490D01*
X44928Y-29495D01*
X44858Y-29565D01*
X44820Y-29656D01*
X44820Y-29755D01*
X44819Y-29869D01*
X44881Y-29931D01*
X45194Y-29931D01*
X45194Y-29518D01*
X45167Y-29491D01*
X45195Y-29463D01*
X45195Y-30031D01*
X45194Y-30031D01*
X45144Y-30031D01*
X44881Y-30031D01*
X44819Y-30093D01*
X44820Y-30207D01*
X44820Y-30306D01*
X44858Y-30397D01*
X44928Y-30467D01*
X45020Y-30505D01*
X45124Y-30505D01*
X44777Y-30853D01*
X44494Y-30853D01*
X44481Y-30840D01*
X44517Y-30804D01*
X44555Y-30713D01*
X44555Y-30614D01*
X44555Y-30142D01*
X44517Y-30050D01*
X44447Y-29980D01*
X44392Y-29957D01*
X44456Y-29931D01*
X44526Y-29861D01*
X44564Y-29770D01*
X44564Y-29671D01*
X44564Y-29321D01*
X44526Y-29229D01*
X44467Y-29170D01*
X44526Y-29111D01*
X44564Y-29019D01*
X44565Y-28907D01*
X44503Y-28845D01*
X44140Y-28845D01*
X44090Y-28845D01*
X43990Y-28845D01*
X43940Y-28845D01*
X43577Y-28845D01*
X43515Y-28907D01*
X43516Y-29019D01*
X43554Y-29111D01*
X43613Y-29170D01*
X43554Y-29229D01*
X43516Y-29320D01*
X43516Y-29419D01*
X43516Y-29769D01*
X43554Y-29861D01*
X43624Y-29931D01*
X43715Y-29969D01*
X43719Y-29969D01*
X43693Y-29980D01*
X43623Y-30050D01*
X43585Y-30141D01*
X43585Y-30240D01*
X43585Y-30712D01*
X43623Y-30804D01*
X43659Y-30840D01*
X43623Y-30876D01*
X43585Y-30967D01*
X43585Y-31066D01*
X43585Y-31538D01*
X43623Y-31630D01*
X43670Y-31677D01*
X43670Y-31891D01*
X43601Y-31891D01*
X43150Y-31891D01*
X43150Y-30884D01*
X43088Y-30822D01*
X42775Y-30822D01*
X42775Y-31235D01*
X42837Y-31297D01*
X42949Y-31296D01*
X43041Y-31258D01*
X43111Y-31188D01*
X43149Y-31097D01*
X43149Y-30998D01*
X43150Y-30884D01*
X43150Y-31891D01*
X42901Y-31891D01*
X42809Y-31929D01*
X42739Y-31999D01*
X42701Y-32090D01*
X42701Y-32189D01*
X42701Y-32290D01*
X42180Y-32290D01*
X42179Y-32290D01*
X42149Y-32296D01*
X42027Y-32320D01*
X41897Y-32407D01*
X41896Y-32407D01*
X41896Y-32408D01*
X41524Y-32780D01*
X41171Y-32780D01*
X41106Y-32715D01*
X40904Y-32631D01*
X40795Y-32631D01*
X40518Y-32354D01*
X41139Y-32354D01*
X41231Y-32316D01*
X41272Y-32275D01*
X41570Y-32275D01*
X41575Y-32276D01*
X41575Y-32275D01*
X41692Y-32251D01*
X41716Y-32247D01*
X41717Y-32247D01*
X41837Y-32167D01*
X42234Y-31768D01*
X42236Y-31767D01*
X42237Y-31767D01*
X42317Y-31647D01*
X42345Y-31505D01*
X42345Y-31204D01*
X42350Y-31199D01*
X42409Y-31258D01*
X42501Y-31296D01*
X42613Y-31297D01*
X42675Y-31235D01*
X42675Y-30872D01*
X42675Y-30822D01*
X42675Y-30722D01*
X42775Y-30722D01*
X42825Y-30722D01*
X43088Y-30722D01*
X43150Y-30660D01*
X43149Y-30546D01*
X43149Y-30447D01*
X43111Y-30356D01*
X43067Y-30312D01*
X43120Y-30260D01*
X43158Y-30169D01*
X43158Y-30070D01*
X43158Y-29520D01*
X43120Y-29428D01*
X43075Y-29383D01*
X43102Y-29356D01*
X43140Y-29265D01*
X43140Y-29166D01*
X43141Y-29052D01*
X43141Y-28828D01*
X43140Y-28714D01*
X43140Y-28615D01*
X43102Y-28524D01*
X43032Y-28454D01*
X42940Y-28416D01*
X42828Y-28415D01*
X42766Y-28477D01*
X42766Y-28890D01*
X43079Y-28890D01*
X43141Y-28828D01*
X43141Y-29052D01*
X43079Y-28990D01*
X42816Y-28990D01*
X42766Y-28990D01*
X42666Y-28990D01*
X42666Y-28890D01*
X42666Y-28840D01*
X42666Y-28477D01*
X42604Y-28415D01*
X42492Y-28416D01*
X42400Y-28454D01*
X42341Y-28513D01*
X42338Y-28510D01*
X42339Y-28510D01*
X42339Y-28394D01*
X43659Y-28394D01*
X43624Y-28409D01*
X43554Y-28479D01*
X43516Y-28571D01*
X43515Y-28683D01*
X43577Y-28745D01*
X43940Y-28745D01*
X43990Y-28745D01*
X44090Y-28745D01*
X44140Y-28745D01*
X44503Y-28745D01*
X44565Y-28683D01*
X44564Y-28571D01*
X44526Y-28479D01*
X44456Y-28409D01*
X44365Y-28371D01*
X44291Y-28371D01*
X44295Y-28370D01*
X44296Y-28370D01*
X44396Y-28303D01*
X44725Y-27974D01*
X44797Y-27974D01*
X44797Y-27992D01*
X44859Y-28054D01*
X45122Y-28054D01*
X45172Y-28054D01*
X45272Y-28054D01*
X45272Y-28154D01*
X45272Y-28204D01*
X45272Y-28567D01*
X45295Y-28590D01*
X45295Y-28900D01*
X45295Y-28950D01*
X45295Y-29050D01*
X45295Y-29100D01*
X45295Y-29463D01*
X45322Y-29490D01*
X45322Y-29490D01*
G37*
G54D31*
X45322Y-29490D02*
X45294Y-29518D01*
X45294Y-29881D01*
X45294Y-29931D01*
X45294Y-30031D01*
X45195Y-30031D01*
X45195Y-29463D01*
X45195Y-29050D01*
X45195Y-28950D01*
X45195Y-28537D01*
X45172Y-28514D01*
X45172Y-28154D01*
X44859Y-28154D01*
X44797Y-28216D01*
X44798Y-28330D01*
X44798Y-28429D01*
X44836Y-28520D01*
X44879Y-28563D01*
X44859Y-28584D01*
X44821Y-28675D01*
X44821Y-28774D01*
X44820Y-28888D01*
X44882Y-28950D01*
X45195Y-28950D01*
X45195Y-29050D01*
X44882Y-29050D01*
X44820Y-29112D01*
X44821Y-29226D01*
X44821Y-29325D01*
X44859Y-29416D01*
X44929Y-29486D01*
X44939Y-29490D01*
X44928Y-29495D01*
X44858Y-29565D01*
X44820Y-29656D01*
X44820Y-29755D01*
X44819Y-29869D01*
X44881Y-29931D01*
X45194Y-29931D01*
X45194Y-29518D01*
X45167Y-29491D01*
X45195Y-29463D01*
X45195Y-30031D01*
X45194Y-30031D01*
X45144Y-30031D01*
X44881Y-30031D01*
X44819Y-30093D01*
X44820Y-30207D01*
X44820Y-30306D01*
X44858Y-30397D01*
X44928Y-30467D01*
X45020Y-30505D01*
X45124Y-30505D01*
X44777Y-30853D01*
X44494Y-30853D01*
X44481Y-30840D01*
X44517Y-30804D01*
X44555Y-30713D01*
X44555Y-30614D01*
X44555Y-30142D01*
X44517Y-30050D01*
X44447Y-29980D01*
X44392Y-29957D01*
X44456Y-29931D01*
X44526Y-29861D01*
X44564Y-29770D01*
X44564Y-29671D01*
X44564Y-29321D01*
X44526Y-29229D01*
X44467Y-29170D01*
X44526Y-29111D01*
X44564Y-29019D01*
X44565Y-28907D01*
X44503Y-28845D01*
X44140Y-28845D01*
X44090Y-28845D01*
X43990Y-28845D01*
X43940Y-28845D01*
X43577Y-28845D01*
X43515Y-28907D01*
X43516Y-29019D01*
X43554Y-29111D01*
X43613Y-29170D01*
X43554Y-29229D01*
X43516Y-29320D01*
X43516Y-29419D01*
X43516Y-29769D01*
X43554Y-29861D01*
X43624Y-29931D01*
X43715Y-29969D01*
X43719Y-29969D01*
X43693Y-29980D01*
X43623Y-30050D01*
X43585Y-30141D01*
X43585Y-30240D01*
X43585Y-30712D01*
X43623Y-30804D01*
X43659Y-30840D01*
X43623Y-30876D01*
X43585Y-30967D01*
X43585Y-31066D01*
X43585Y-31538D01*
X43623Y-31630D01*
X43670Y-31677D01*
X43670Y-31891D01*
X43601Y-31891D01*
X43150Y-31891D01*
X43150Y-30884D01*
X43088Y-30822D01*
X42775Y-30822D01*
X42775Y-31235D01*
X42837Y-31297D01*
X42949Y-31296D01*
X43041Y-31258D01*
X43111Y-31188D01*
X43149Y-31097D01*
X43149Y-30998D01*
X43150Y-30884D01*
X43150Y-31891D01*
X42901Y-31891D01*
X42809Y-31929D01*
X42739Y-31999D01*
X42701Y-32090D01*
X42701Y-32189D01*
X42701Y-32290D01*
X42180Y-32290D01*
X42179Y-32290D01*
X42149Y-32296D01*
X42027Y-32320D01*
X41897Y-32407D01*
X41896Y-32407D01*
X41896Y-32408D01*
X41524Y-32780D01*
X41171Y-32780D01*
X41106Y-32715D01*
X40904Y-32631D01*
X40795Y-32631D01*
X40518Y-32354D01*
X41139Y-32354D01*
X41231Y-32316D01*
X41272Y-32275D01*
X41570Y-32275D01*
X41575Y-32276D01*
X41575Y-32275D01*
X41692Y-32251D01*
X41716Y-32247D01*
X41717Y-32247D01*
X41837Y-32167D01*
X42234Y-31768D01*
X42236Y-31767D01*
X42237Y-31767D01*
X42317Y-31647D01*
X42345Y-31505D01*
X42345Y-31204D01*
X42350Y-31199D01*
X42409Y-31258D01*
X42501Y-31296D01*
X42613Y-31297D01*
X42675Y-31235D01*
X42675Y-30872D01*
X42675Y-30822D01*
X42675Y-30722D01*
X42775Y-30722D01*
X42825Y-30722D01*
X43088Y-30722D01*
X43150Y-30660D01*
X43149Y-30546D01*
X43149Y-30447D01*
X43111Y-30356D01*
X43067Y-30312D01*
X43120Y-30260D01*
X43158Y-30169D01*
X43158Y-30070D01*
X43158Y-29520D01*
X43120Y-29428D01*
X43075Y-29383D01*
X43102Y-29356D01*
X43140Y-29265D01*
X43140Y-29166D01*
X43141Y-29052D01*
X43141Y-28828D01*
X43140Y-28714D01*
X43140Y-28615D01*
X43102Y-28524D01*
X43032Y-28454D01*
X42940Y-28416D01*
X42828Y-28415D01*
X42766Y-28477D01*
X42766Y-28890D01*
X43079Y-28890D01*
X43141Y-28828D01*
X43141Y-29052D01*
X43079Y-28990D01*
X42816Y-28990D01*
X42766Y-28990D01*
X42666Y-28990D01*
X42666Y-28890D01*
X42666Y-28840D01*
X42666Y-28477D01*
X42604Y-28415D01*
X42492Y-28416D01*
X42400Y-28454D01*
X42341Y-28513D01*
X42338Y-28510D01*
X42339Y-28510D01*
X42339Y-28394D01*
X43659Y-28394D01*
X43624Y-28409D01*
X43554Y-28479D01*
X43516Y-28571D01*
X43515Y-28683D01*
X43577Y-28745D01*
X43940Y-28745D01*
X43990Y-28745D01*
X44090Y-28745D01*
X44140Y-28745D01*
X44503Y-28745D01*
X44565Y-28683D01*
X44564Y-28571D01*
X44526Y-28479D01*
X44456Y-28409D01*
X44365Y-28371D01*
X44291Y-28371D01*
X44295Y-28370D01*
X44296Y-28370D01*
X44396Y-28303D01*
X44725Y-27974D01*
X44797Y-27974D01*
X44797Y-27992D01*
X44859Y-28054D01*
X45122Y-28054D01*
X45172Y-28054D01*
X45272Y-28054D01*
X45272Y-28154D01*
X45272Y-28204D01*
X45272Y-28567D01*
X45295Y-28590D01*
X45295Y-28900D01*
X45295Y-28950D01*
X45295Y-29050D01*
X45295Y-29100D01*
X45295Y-29463D01*
X45322Y-29490D01*
G54D10*
G36*
X47055Y-25834D02*
X47014Y-25876D01*
X46976Y-25967D01*
X46976Y-26066D01*
X46975Y-26180D01*
X46987Y-26192D01*
X46975Y-26192D01*
X46975Y-26208D01*
X46521Y-25754D01*
X46665Y-25611D01*
X46700Y-25526D01*
X46735Y-25611D01*
X46889Y-25765D01*
X47055Y-25834D01*
X47055Y-25834D01*
G37*
G54D31*
X47055Y-25834D02*
X47014Y-25876D01*
X46976Y-25967D01*
X46976Y-26066D01*
X46975Y-26180D01*
X46987Y-26192D01*
X46975Y-26192D01*
X46975Y-26208D01*
X46521Y-25754D01*
X46665Y-25611D01*
X46700Y-25526D01*
X46735Y-25611D01*
X46889Y-25765D01*
X47055Y-25834D01*
G54D10*
G36*
X47294Y-30618D02*
X46822Y-31090D01*
X46625Y-31090D01*
X46430Y-31171D01*
X46281Y-31319D01*
X46200Y-31514D01*
X46200Y-31725D01*
X46227Y-31791D01*
X46222Y-31818D01*
X46222Y-32649D01*
X46216Y-32652D01*
X46146Y-32722D01*
X46108Y-32813D01*
X46108Y-32912D01*
X46108Y-33462D01*
X46146Y-33554D01*
X46212Y-33620D01*
X45300Y-33620D01*
X45300Y-32802D01*
X45300Y-32578D01*
X45299Y-32189D01*
X45299Y-32090D01*
X45261Y-31999D01*
X45191Y-31929D01*
X45099Y-31891D01*
X44812Y-31890D01*
X44750Y-31952D01*
X44750Y-32640D01*
X45238Y-32640D01*
X45300Y-32578D01*
X45300Y-32802D01*
X45238Y-32740D01*
X44750Y-32740D01*
X44750Y-33428D01*
X44812Y-33490D01*
X45099Y-33489D01*
X45191Y-33451D01*
X45261Y-33381D01*
X45299Y-33290D01*
X45299Y-33191D01*
X45300Y-32802D01*
X45300Y-33620D01*
X44460Y-33620D01*
X44470Y-33570D01*
X44470Y-33490D01*
X44470Y-33489D01*
X44588Y-33490D01*
X44650Y-33428D01*
X44650Y-32790D01*
X44650Y-32740D01*
X44650Y-32640D01*
X44650Y-32590D01*
X44650Y-31952D01*
X44588Y-31890D01*
X44470Y-31890D01*
X44470Y-31677D01*
X44494Y-31653D01*
X44943Y-31653D01*
X45096Y-31623D01*
X45226Y-31536D01*
X46277Y-30485D01*
X46281Y-30478D01*
X46310Y-30467D01*
X46380Y-30397D01*
X46418Y-30306D01*
X46418Y-30260D01*
X47017Y-30260D01*
X47017Y-30324D01*
X47055Y-30416D01*
X47125Y-30486D01*
X47216Y-30524D01*
X47294Y-30524D01*
X47294Y-30618D01*
X47294Y-30618D01*
G37*
G54D31*
X47294Y-30618D02*
X46822Y-31090D01*
X46625Y-31090D01*
X46430Y-31171D01*
X46281Y-31319D01*
X46200Y-31514D01*
X46200Y-31725D01*
X46227Y-31791D01*
X46222Y-31818D01*
X46222Y-32649D01*
X46216Y-32652D01*
X46146Y-32722D01*
X46108Y-32813D01*
X46108Y-32912D01*
X46108Y-33462D01*
X46146Y-33554D01*
X46212Y-33620D01*
X45300Y-33620D01*
X45300Y-32802D01*
X45300Y-32578D01*
X45299Y-32189D01*
X45299Y-32090D01*
X45261Y-31999D01*
X45191Y-31929D01*
X45099Y-31891D01*
X44812Y-31890D01*
X44750Y-31952D01*
X44750Y-32640D01*
X45238Y-32640D01*
X45300Y-32578D01*
X45300Y-32802D01*
X45238Y-32740D01*
X44750Y-32740D01*
X44750Y-33428D01*
X44812Y-33490D01*
X45099Y-33489D01*
X45191Y-33451D01*
X45261Y-33381D01*
X45299Y-33290D01*
X45299Y-33191D01*
X45300Y-32802D01*
X45300Y-33620D01*
X44460Y-33620D01*
X44470Y-33570D01*
X44470Y-33490D01*
X44470Y-33489D01*
X44588Y-33490D01*
X44650Y-33428D01*
X44650Y-32790D01*
X44650Y-32740D01*
X44650Y-32640D01*
X44650Y-32590D01*
X44650Y-31952D01*
X44588Y-31890D01*
X44470Y-31890D01*
X44470Y-31677D01*
X44494Y-31653D01*
X44943Y-31653D01*
X45096Y-31623D01*
X45226Y-31536D01*
X46277Y-30485D01*
X46281Y-30478D01*
X46310Y-30467D01*
X46380Y-30397D01*
X46418Y-30306D01*
X46418Y-30260D01*
X47017Y-30260D01*
X47017Y-30324D01*
X47055Y-30416D01*
X47125Y-30486D01*
X47216Y-30524D01*
X47294Y-30524D01*
X47294Y-30618D01*
G54D10*
G36*
X47450Y-26342D02*
X47350Y-26342D01*
X47350Y-26242D01*
X47450Y-26242D01*
X47450Y-26342D01*
X47450Y-26342D01*
G37*
G54D31*
X47450Y-26342D02*
X47350Y-26342D01*
X47350Y-26242D01*
X47450Y-26242D01*
X47450Y-26342D01*
G54D10*
G36*
X47812Y-29376D02*
X47736Y-29376D01*
X47729Y-29376D01*
X47637Y-29376D01*
X47480Y-29376D01*
X47473Y-29376D01*
X47381Y-29376D01*
X47217Y-29376D01*
X47125Y-29414D01*
X47055Y-29484D01*
X47017Y-29575D01*
X47017Y-29640D01*
X46895Y-29640D01*
X46904Y-29631D01*
X46965Y-29485D01*
X46965Y-29326D01*
X46904Y-29179D01*
X46792Y-29067D01*
X46782Y-29063D01*
X46931Y-28915D01*
X47580Y-28915D01*
X47580Y-29010D01*
X47641Y-29157D01*
X47753Y-29269D01*
X47812Y-29293D01*
X47812Y-29376D01*
X47812Y-29376D01*
G37*
G54D31*
X47812Y-29376D02*
X47736Y-29376D01*
X47729Y-29376D01*
X47637Y-29376D01*
X47480Y-29376D01*
X47473Y-29376D01*
X47381Y-29376D01*
X47217Y-29376D01*
X47125Y-29414D01*
X47055Y-29484D01*
X47017Y-29575D01*
X47017Y-29640D01*
X46895Y-29640D01*
X46904Y-29631D01*
X46965Y-29485D01*
X46965Y-29326D01*
X46904Y-29179D01*
X46792Y-29067D01*
X46782Y-29063D01*
X46931Y-28915D01*
X47580Y-28915D01*
X47580Y-29010D01*
X47641Y-29157D01*
X47753Y-29269D01*
X47812Y-29293D01*
X47812Y-29376D01*
G54D10*
G36*
X48700Y-32628D02*
X48625Y-32659D01*
X48566Y-32718D01*
X48507Y-32659D01*
X48415Y-32621D01*
X48303Y-32620D01*
X48241Y-32682D01*
X48241Y-33045D01*
X48241Y-33095D01*
X48241Y-33195D01*
X48141Y-33195D01*
X48141Y-33095D01*
X48141Y-32682D01*
X48079Y-32620D01*
X47967Y-32621D01*
X47875Y-32659D01*
X47805Y-32729D01*
X47767Y-32820D01*
X47767Y-32919D01*
X47766Y-33033D01*
X47828Y-33095D01*
X48141Y-33095D01*
X48141Y-33195D01*
X48091Y-33195D01*
X47828Y-33195D01*
X47766Y-33257D01*
X47767Y-33371D01*
X47767Y-33470D01*
X47805Y-33561D01*
X47864Y-33620D01*
X47602Y-33620D01*
X47668Y-33554D01*
X47706Y-33463D01*
X47706Y-33364D01*
X47707Y-33250D01*
X47707Y-33026D01*
X47706Y-32912D01*
X47706Y-32813D01*
X47668Y-32722D01*
X47598Y-32652D01*
X47506Y-32614D01*
X47394Y-32613D01*
X47332Y-32675D01*
X47332Y-33088D01*
X47645Y-33088D01*
X47707Y-33026D01*
X47707Y-33250D01*
X47645Y-33188D01*
X47382Y-33188D01*
X47332Y-33188D01*
X47232Y-33188D01*
X47232Y-33088D01*
X47232Y-33038D01*
X47232Y-32675D01*
X47170Y-32613D01*
X47058Y-32614D01*
X46966Y-32652D01*
X46907Y-32711D01*
X46848Y-32652D01*
X46842Y-32649D01*
X46842Y-32147D01*
X47030Y-32069D01*
X47179Y-31921D01*
X47260Y-31726D01*
X47260Y-31528D01*
X47730Y-31058D01*
X48200Y-31528D01*
X48200Y-31725D01*
X48281Y-31920D01*
X48429Y-32069D01*
X48624Y-32150D01*
X48700Y-32150D01*
X48700Y-32628D01*
X48700Y-32628D01*
G37*
G54D31*
X48700Y-32628D02*
X48625Y-32659D01*
X48566Y-32718D01*
X48507Y-32659D01*
X48415Y-32621D01*
X48303Y-32620D01*
X48241Y-32682D01*
X48241Y-33045D01*
X48241Y-33095D01*
X48241Y-33195D01*
X48141Y-33195D01*
X48141Y-33095D01*
X48141Y-32682D01*
X48079Y-32620D01*
X47967Y-32621D01*
X47875Y-32659D01*
X47805Y-32729D01*
X47767Y-32820D01*
X47767Y-32919D01*
X47766Y-33033D01*
X47828Y-33095D01*
X48141Y-33095D01*
X48141Y-33195D01*
X48091Y-33195D01*
X47828Y-33195D01*
X47766Y-33257D01*
X47767Y-33371D01*
X47767Y-33470D01*
X47805Y-33561D01*
X47864Y-33620D01*
X47602Y-33620D01*
X47668Y-33554D01*
X47706Y-33463D01*
X47706Y-33364D01*
X47707Y-33250D01*
X47707Y-33026D01*
X47706Y-32912D01*
X47706Y-32813D01*
X47668Y-32722D01*
X47598Y-32652D01*
X47506Y-32614D01*
X47394Y-32613D01*
X47332Y-32675D01*
X47332Y-33088D01*
X47645Y-33088D01*
X47707Y-33026D01*
X47707Y-33250D01*
X47645Y-33188D01*
X47382Y-33188D01*
X47332Y-33188D01*
X47232Y-33188D01*
X47232Y-33088D01*
X47232Y-33038D01*
X47232Y-32675D01*
X47170Y-32613D01*
X47058Y-32614D01*
X46966Y-32652D01*
X46907Y-32711D01*
X46848Y-32652D01*
X46842Y-32649D01*
X46842Y-32147D01*
X47030Y-32069D01*
X47179Y-31921D01*
X47260Y-31726D01*
X47260Y-31528D01*
X47730Y-31058D01*
X48200Y-31528D01*
X48200Y-31725D01*
X48281Y-31920D01*
X48429Y-32069D01*
X48624Y-32150D01*
X48700Y-32150D01*
X48700Y-32628D01*
G54D10*
G36*
X49721Y-28265D02*
X49132Y-28265D01*
X49013Y-28289D01*
X48912Y-28356D01*
X48378Y-28890D01*
X48378Y-28852D01*
X48317Y-28705D01*
X48219Y-28607D01*
X48591Y-28236D01*
X48591Y-28235D01*
X48658Y-28135D01*
X48680Y-28024D01*
X48752Y-28024D01*
X48759Y-28024D01*
X48851Y-28024D01*
X49008Y-28024D01*
X49015Y-28024D01*
X49107Y-28024D01*
X49264Y-28024D01*
X49271Y-28024D01*
X49363Y-28024D01*
X49432Y-28024D01*
X49433Y-28025D01*
X49602Y-28194D01*
X49702Y-28261D01*
X49703Y-28261D01*
X49721Y-28265D01*
X49721Y-28265D01*
G37*
G54D31*
X49721Y-28265D02*
X49132Y-28265D01*
X49013Y-28289D01*
X48912Y-28356D01*
X48378Y-28890D01*
X48378Y-28852D01*
X48317Y-28705D01*
X48219Y-28607D01*
X48591Y-28236D01*
X48591Y-28235D01*
X48658Y-28135D01*
X48680Y-28024D01*
X48752Y-28024D01*
X48759Y-28024D01*
X48851Y-28024D01*
X49008Y-28024D01*
X49015Y-28024D01*
X49107Y-28024D01*
X49264Y-28024D01*
X49271Y-28024D01*
X49363Y-28024D01*
X49432Y-28024D01*
X49433Y-28025D01*
X49602Y-28194D01*
X49702Y-28261D01*
X49703Y-28261D01*
X49721Y-28265D01*
G54D10*
G36*
X50455Y-30374D02*
X50449Y-30377D01*
X50398Y-30427D01*
X50392Y-30432D01*
X50387Y-30438D01*
X50337Y-30489D01*
X50308Y-30556D01*
X50305Y-30562D01*
X50303Y-30568D01*
X50276Y-30635D01*
X50276Y-30640D01*
X50276Y-30692D01*
X49960Y-30377D01*
X49983Y-30325D01*
X49983Y-30260D01*
X50119Y-30260D01*
X50341Y-30260D01*
X50455Y-30374D01*
X50455Y-30374D01*
G37*
G54D31*
X50455Y-30374D02*
X50449Y-30377D01*
X50398Y-30427D01*
X50392Y-30432D01*
X50387Y-30438D01*
X50337Y-30489D01*
X50308Y-30556D01*
X50305Y-30562D01*
X50303Y-30568D01*
X50276Y-30635D01*
X50276Y-30640D01*
X50276Y-30692D01*
X49960Y-30377D01*
X49983Y-30325D01*
X49983Y-30260D01*
X50119Y-30260D01*
X50341Y-30260D01*
X50455Y-30374D01*
G54D10*
G36*
X52292Y-29995D02*
X51583Y-29995D01*
X50916Y-29328D01*
X51829Y-29328D01*
X52032Y-29531D01*
X52033Y-29531D01*
X52133Y-29598D01*
X52251Y-29621D01*
X52252Y-29622D01*
X52291Y-29622D01*
X52257Y-29721D01*
X52268Y-29934D01*
X52292Y-29995D01*
X52292Y-29995D01*
G37*
G54D31*
X52292Y-29995D02*
X51583Y-29995D01*
X50916Y-29328D01*
X51829Y-29328D01*
X52032Y-29531D01*
X52033Y-29531D01*
X52133Y-29598D01*
X52251Y-29621D01*
X52252Y-29622D01*
X52291Y-29622D01*
X52257Y-29721D01*
X52268Y-29934D01*
X52292Y-29995D01*
G54D10*
G36*
X52294Y-30615D02*
X52257Y-30721D01*
X52268Y-30934D01*
X52288Y-30984D01*
X52257Y-30984D01*
X51888Y-30615D01*
X52294Y-30615D01*
X52294Y-30615D01*
G37*
G54D31*
X52294Y-30615D02*
X52257Y-30721D01*
X52268Y-30934D01*
X52288Y-30984D01*
X52257Y-30984D01*
X51888Y-30615D01*
X52294Y-30615D01*
G54D10*
G36*
X52298Y-31604D02*
X52257Y-31721D01*
X52268Y-31934D01*
X52292Y-31994D01*
X52281Y-31994D01*
X51975Y-31688D01*
X51975Y-31556D01*
X52010Y-31580D01*
X52011Y-31580D01*
X52129Y-31604D01*
X52298Y-31604D01*
X52298Y-31604D01*
G37*
G54D31*
X52298Y-31604D02*
X52257Y-31721D01*
X52268Y-31934D01*
X52292Y-31994D01*
X52281Y-31994D01*
X51975Y-31688D01*
X51975Y-31556D01*
X52010Y-31580D01*
X52011Y-31580D01*
X52129Y-31604D01*
X52298Y-31604D01*
G54D10*
G36*
X52871Y-27800D02*
X52800Y-27871D01*
X52729Y-27800D01*
X52800Y-27729D01*
X52871Y-27800D01*
X52871Y-27800D01*
G37*
G54D31*
X52871Y-27800D02*
X52800Y-27871D01*
X52729Y-27800D01*
X52800Y-27729D01*
X52871Y-27800D01*
G54D10*
G36*
X52871Y-28800D02*
X52800Y-28871D01*
X52729Y-28800D01*
X52800Y-28729D01*
X52871Y-28800D01*
X52871Y-28800D01*
G37*
G54D31*
X52871Y-28800D02*
X52800Y-28871D01*
X52729Y-28800D01*
X52800Y-28729D01*
X52871Y-28800D01*
G54D10*
G36*
X52871Y-29800D02*
X52800Y-29871D01*
X52729Y-29800D01*
X52800Y-29729D01*
X52871Y-29800D01*
X52871Y-29800D01*
G37*
G54D31*
X52871Y-29800D02*
X52800Y-29871D01*
X52729Y-29800D01*
X52800Y-29729D01*
X52871Y-29800D01*
G54D10*
G36*
X52871Y-30800D02*
X52800Y-30871D01*
X52729Y-30800D01*
X52800Y-30729D01*
X52871Y-30800D01*
X52871Y-30800D01*
G37*
G54D31*
X52871Y-30800D02*
X52800Y-30871D01*
X52729Y-30800D01*
X52800Y-30729D01*
X52871Y-30800D01*
G54D10*
G36*
X52871Y-31800D02*
X52800Y-31871D01*
X52729Y-31800D01*
X52800Y-31729D01*
X52871Y-31800D01*
X52871Y-31800D01*
G37*
G54D31*
X52871Y-31800D02*
X52800Y-31871D01*
X52729Y-31800D01*
X52800Y-31729D01*
X52871Y-31800D01*
G54D10*
G36*
X55625Y-34335D02*
X53108Y-34335D01*
X53108Y-33178D01*
X52800Y-32871D01*
X52492Y-33178D01*
X52519Y-33272D01*
X52721Y-33343D01*
X52934Y-33332D01*
X53081Y-33272D01*
X53108Y-33178D01*
X53108Y-34335D01*
X50508Y-34335D01*
X50508Y-33678D01*
X50200Y-33371D01*
X50129Y-33441D01*
X50129Y-33300D01*
X49822Y-32992D01*
X49728Y-33019D01*
X49657Y-33221D01*
X49668Y-33434D01*
X49728Y-33581D01*
X49822Y-33608D01*
X50129Y-33300D01*
X50129Y-33441D01*
X49892Y-33678D01*
X49919Y-33772D01*
X50121Y-33843D01*
X50334Y-33832D01*
X50481Y-33772D01*
X50508Y-33678D01*
X50508Y-34335D01*
X48624Y-34335D01*
X48651Y-34307D01*
X48658Y-34303D01*
X48662Y-34296D01*
X48713Y-34246D01*
X48741Y-34178D01*
X48745Y-34173D01*
X48746Y-34166D01*
X48774Y-34100D01*
X48774Y-34025D01*
X48775Y-34020D01*
X48774Y-34014D01*
X48774Y-33941D01*
X48746Y-33874D01*
X48745Y-33867D01*
X48740Y-33860D01*
X48713Y-33794D01*
X48662Y-33743D01*
X48658Y-33737D01*
X48651Y-33732D01*
X48601Y-33682D01*
X48533Y-33653D01*
X48528Y-33650D01*
X48521Y-33648D01*
X48492Y-33636D01*
X48507Y-33631D01*
X48566Y-33572D01*
X48625Y-33631D01*
X48716Y-33669D01*
X48815Y-33669D01*
X49165Y-33669D01*
X49257Y-33631D01*
X49327Y-33561D01*
X49365Y-33470D01*
X49365Y-33371D01*
X49365Y-32821D01*
X49327Y-32729D01*
X49320Y-32722D01*
X49320Y-31900D01*
X49319Y-31899D01*
X49296Y-31781D01*
X49260Y-31726D01*
X49260Y-31515D01*
X49179Y-31320D01*
X49031Y-31171D01*
X48836Y-31090D01*
X48638Y-31090D01*
X48296Y-30748D01*
X49454Y-30748D01*
X49915Y-31208D01*
X49915Y-31703D01*
X49939Y-31822D01*
X50006Y-31922D01*
X50477Y-32394D01*
X50478Y-32394D01*
X50528Y-32427D01*
X50578Y-32461D01*
X50579Y-32461D01*
X50603Y-32466D01*
X50614Y-32491D01*
X50684Y-32561D01*
X50775Y-32599D01*
X50874Y-32599D01*
X50890Y-32599D01*
X50890Y-32751D01*
X50851Y-32751D01*
X50759Y-32789D01*
X50689Y-32859D01*
X50651Y-32950D01*
X50651Y-33012D01*
X50578Y-32992D01*
X50508Y-33062D01*
X50508Y-32922D01*
X50481Y-32828D01*
X50279Y-32757D01*
X50066Y-32768D01*
X49919Y-32828D01*
X49892Y-32922D01*
X50200Y-33229D01*
X50508Y-32922D01*
X50508Y-33062D01*
X50271Y-33300D01*
X50578Y-33608D01*
X50651Y-33587D01*
X50651Y-33649D01*
X50689Y-33741D01*
X50759Y-33811D01*
X50850Y-33849D01*
X50949Y-33849D01*
X51549Y-33849D01*
X51641Y-33811D01*
X51711Y-33741D01*
X51749Y-33650D01*
X51749Y-33551D01*
X51749Y-32951D01*
X51711Y-32859D01*
X51641Y-32789D01*
X51550Y-32751D01*
X51510Y-32751D01*
X51510Y-32563D01*
X51516Y-32561D01*
X51586Y-32491D01*
X51624Y-32400D01*
X51624Y-32301D01*
X51624Y-32213D01*
X51934Y-32523D01*
X52034Y-32590D01*
X52035Y-32590D01*
X52153Y-32614D01*
X52294Y-32614D01*
X52257Y-32721D01*
X52268Y-32934D01*
X52328Y-33081D01*
X52422Y-33108D01*
X52694Y-32835D01*
X52729Y-32800D01*
X52800Y-32729D01*
X52871Y-32800D01*
X52906Y-32835D01*
X53178Y-33108D01*
X53272Y-33081D01*
X53295Y-33015D01*
X53335Y-33111D01*
X53489Y-33265D01*
X53691Y-33349D01*
X53909Y-33349D01*
X54111Y-33265D01*
X54265Y-33111D01*
X54349Y-32909D01*
X54349Y-32691D01*
X54265Y-32489D01*
X54111Y-32335D01*
X54026Y-32300D01*
X54111Y-32265D01*
X54265Y-32111D01*
X54349Y-31909D01*
X54349Y-31691D01*
X54265Y-31489D01*
X54111Y-31335D01*
X54026Y-31300D01*
X54111Y-31265D01*
X54265Y-31111D01*
X54349Y-30909D01*
X54349Y-30691D01*
X54265Y-30489D01*
X54111Y-30335D01*
X54026Y-30300D01*
X54111Y-30265D01*
X54265Y-30111D01*
X54349Y-29909D01*
X54349Y-29691D01*
X54265Y-29489D01*
X54111Y-29335D01*
X54026Y-29300D01*
X54111Y-29265D01*
X54265Y-29111D01*
X54349Y-28909D01*
X54349Y-28691D01*
X54265Y-28489D01*
X54111Y-28335D01*
X54026Y-28300D01*
X54111Y-28265D01*
X54265Y-28111D01*
X54349Y-27909D01*
X54349Y-27691D01*
X54265Y-27489D01*
X54111Y-27335D01*
X54026Y-27300D01*
X54111Y-27265D01*
X54265Y-27111D01*
X54349Y-26909D01*
X54349Y-26691D01*
X54265Y-26489D01*
X54111Y-26335D01*
X53909Y-26251D01*
X53691Y-26251D01*
X53489Y-26335D01*
X53349Y-26474D01*
X53349Y-26451D01*
X53311Y-26359D01*
X53241Y-26289D01*
X53150Y-26251D01*
X53051Y-26251D01*
X52912Y-26250D01*
X52850Y-26312D01*
X52850Y-26700D01*
X52850Y-26750D01*
X52850Y-26850D01*
X52750Y-26850D01*
X52750Y-26750D01*
X52750Y-26312D01*
X52688Y-26250D01*
X52549Y-26251D01*
X52450Y-26251D01*
X52359Y-26289D01*
X52289Y-26359D01*
X52251Y-26451D01*
X52250Y-26688D01*
X52312Y-26750D01*
X52750Y-26750D01*
X52750Y-26850D01*
X52700Y-26850D01*
X52312Y-26850D01*
X52250Y-26912D01*
X52250Y-27052D01*
X52236Y-27062D01*
X52185Y-27096D01*
X52047Y-27235D01*
X51980Y-27335D01*
X51956Y-27454D01*
X51956Y-28041D01*
X51732Y-28265D01*
X51553Y-28265D01*
X51602Y-28216D01*
X51640Y-28124D01*
X51641Y-28087D01*
X51641Y-27863D01*
X51640Y-27826D01*
X51636Y-27817D01*
X51640Y-27809D01*
X51641Y-27772D01*
X51579Y-27710D01*
X51578Y-27710D01*
X51532Y-27664D01*
X51523Y-27660D01*
X51532Y-27657D01*
X51579Y-27610D01*
X51602Y-27587D01*
X51641Y-27548D01*
X51640Y-27511D01*
X51636Y-27503D01*
X51640Y-27495D01*
X51641Y-27458D01*
X51602Y-27419D01*
X51579Y-27396D01*
X51532Y-27349D01*
X51523Y-27345D01*
X51532Y-27342D01*
X51578Y-27296D01*
X51579Y-27296D01*
X51602Y-27272D01*
X51641Y-27234D01*
X51640Y-27197D01*
X51636Y-27188D01*
X51640Y-27180D01*
X51641Y-27143D01*
X51641Y-26919D01*
X51640Y-26882D01*
X51602Y-26790D01*
X51532Y-26720D01*
X51441Y-26682D01*
X51342Y-26682D01*
X51323Y-26681D01*
X51261Y-26743D01*
X51261Y-26981D01*
X51579Y-26981D01*
X51641Y-26919D01*
X51641Y-27143D01*
X51579Y-27081D01*
X51578Y-27081D01*
X51532Y-27035D01*
X51441Y-26997D01*
X51342Y-26997D01*
X51323Y-26996D01*
X51261Y-27058D01*
X51261Y-27081D01*
X51261Y-27296D01*
X51261Y-27319D01*
X51287Y-27345D01*
X51261Y-27372D01*
X51261Y-27396D01*
X51261Y-27610D01*
X51261Y-27634D01*
X51287Y-27660D01*
X51261Y-27687D01*
X51261Y-27710D01*
X51261Y-27925D01*
X51261Y-27948D01*
X51323Y-28010D01*
X51342Y-28009D01*
X51441Y-28009D01*
X51532Y-27971D01*
X51578Y-27925D01*
X51579Y-27925D01*
X51602Y-27901D01*
X51641Y-27863D01*
X51641Y-28087D01*
X51579Y-28025D01*
X51311Y-28025D01*
X51261Y-28025D01*
X51161Y-28025D01*
X51161Y-27948D01*
X51161Y-27925D01*
X51161Y-27875D01*
X51161Y-27760D01*
X51161Y-27710D01*
X51161Y-27687D01*
X51161Y-27634D01*
X51161Y-27610D01*
X51161Y-27560D01*
X51161Y-27446D01*
X51161Y-27396D01*
X51161Y-27372D01*
X51161Y-27319D01*
X51161Y-27296D01*
X51161Y-27246D01*
X51161Y-27131D01*
X51161Y-27081D01*
X51161Y-27058D01*
X51161Y-26981D01*
X51161Y-26931D01*
X51161Y-26743D01*
X51099Y-26681D01*
X51080Y-26682D01*
X50981Y-26682D01*
X50897Y-26717D01*
X50829Y-26689D01*
X50829Y-26688D01*
X50802Y-26648D01*
X50802Y-26647D01*
X50452Y-26298D01*
X50352Y-26231D01*
X50233Y-26207D01*
X49322Y-26207D01*
X49203Y-26231D01*
X49153Y-26264D01*
X49102Y-26298D01*
X48933Y-26466D01*
X48914Y-26370D01*
X48914Y-26369D01*
X48847Y-26269D01*
X48651Y-26073D01*
X48574Y-26021D01*
X48574Y-25968D01*
X48536Y-25876D01*
X48466Y-25806D01*
X48439Y-25794D01*
X48511Y-25765D01*
X48665Y-25611D01*
X48749Y-25409D01*
X48749Y-25191D01*
X48665Y-24989D01*
X48511Y-24835D01*
X48309Y-24751D01*
X48091Y-24751D01*
X47889Y-24835D01*
X47735Y-24989D01*
X47700Y-25073D01*
X47665Y-24989D01*
X47511Y-24835D01*
X47309Y-24751D01*
X47091Y-24751D01*
X46889Y-24835D01*
X46735Y-24989D01*
X46700Y-25073D01*
X46665Y-24989D01*
X46511Y-24835D01*
X46309Y-24751D01*
X46091Y-24751D01*
X45889Y-24835D01*
X45735Y-24989D01*
X45697Y-25080D01*
X45672Y-25019D01*
X45578Y-24992D01*
X45508Y-25062D01*
X45508Y-24922D01*
X45481Y-24828D01*
X45279Y-24757D01*
X45066Y-24768D01*
X44919Y-24828D01*
X44892Y-24922D01*
X45200Y-25229D01*
X45508Y-24922D01*
X45508Y-25062D01*
X45271Y-25300D01*
X45578Y-25608D01*
X45672Y-25581D01*
X45695Y-25515D01*
X45735Y-25611D01*
X45889Y-25765D01*
X45890Y-25765D01*
X45890Y-25872D01*
X45914Y-25991D01*
X45981Y-26091D01*
X46897Y-27008D01*
X46898Y-27008D01*
X46998Y-27075D01*
X47017Y-27078D01*
X47017Y-27174D01*
X47016Y-27338D01*
X47078Y-27400D01*
X47248Y-27400D01*
X47277Y-27400D01*
X47277Y-27500D01*
X47248Y-27500D01*
X47078Y-27500D01*
X47032Y-27546D01*
X46951Y-27465D01*
X46947Y-27462D01*
X46706Y-27222D01*
X46606Y-27155D01*
X46487Y-27131D01*
X45733Y-27131D01*
X45743Y-27121D01*
X45804Y-26975D01*
X45804Y-26816D01*
X45743Y-26669D01*
X45631Y-26557D01*
X45508Y-26505D01*
X45508Y-25678D01*
X45200Y-25371D01*
X44892Y-25678D01*
X44919Y-25772D01*
X45121Y-25843D01*
X45334Y-25832D01*
X45481Y-25772D01*
X45508Y-25678D01*
X45508Y-26505D01*
X45488Y-26497D01*
X44633Y-25642D01*
X44665Y-25611D01*
X44702Y-25519D01*
X44728Y-25581D01*
X44822Y-25608D01*
X45129Y-25300D01*
X44822Y-24992D01*
X44728Y-25019D01*
X44704Y-25084D01*
X44665Y-24989D01*
X44511Y-24835D01*
X44309Y-24751D01*
X44091Y-24751D01*
X43889Y-24835D01*
X43749Y-24975D01*
X43749Y-24951D01*
X43711Y-24859D01*
X43641Y-24789D01*
X43550Y-24751D01*
X43451Y-24751D01*
X42851Y-24751D01*
X42759Y-24789D01*
X42689Y-24859D01*
X42651Y-24950D01*
X42651Y-25049D01*
X42651Y-25649D01*
X42689Y-25741D01*
X42759Y-25811D01*
X42850Y-25849D01*
X42949Y-25849D01*
X43549Y-25849D01*
X43641Y-25811D01*
X43711Y-25741D01*
X43749Y-25650D01*
X43749Y-25625D01*
X43887Y-25763D01*
X43895Y-25802D01*
X43967Y-25908D01*
X45006Y-26947D01*
X45006Y-26974D01*
X45067Y-27121D01*
X45077Y-27131D01*
X44231Y-27131D01*
X44174Y-27142D01*
X44174Y-27094D01*
X44174Y-26995D01*
X44136Y-26904D01*
X44102Y-26870D01*
X44146Y-26826D01*
X44184Y-26735D01*
X44184Y-26636D01*
X44185Y-26572D01*
X44185Y-26348D01*
X44184Y-26284D01*
X44184Y-26185D01*
X44146Y-26094D01*
X44076Y-26024D01*
X43984Y-25986D01*
X43922Y-25985D01*
X43860Y-26047D01*
X43860Y-26410D01*
X44123Y-26410D01*
X44185Y-26348D01*
X44185Y-26572D01*
X44123Y-26510D01*
X43860Y-26510D01*
X43860Y-26847D01*
X43850Y-26857D01*
X43850Y-27170D01*
X43850Y-27220D01*
X43850Y-27320D01*
X43750Y-27320D01*
X43750Y-27220D01*
X43750Y-27170D01*
X43750Y-26883D01*
X43760Y-26873D01*
X43760Y-26560D01*
X43760Y-26510D01*
X43760Y-26410D01*
X43760Y-26360D01*
X43760Y-26047D01*
X43698Y-25985D01*
X43636Y-25986D01*
X43544Y-26024D01*
X43510Y-26058D01*
X43476Y-26024D01*
X43385Y-25986D01*
X43286Y-25986D01*
X43036Y-25986D01*
X42944Y-26024D01*
X42874Y-26094D01*
X42842Y-26169D01*
X42821Y-26174D01*
X42721Y-26241D01*
X42502Y-26460D01*
X42454Y-26460D01*
X42468Y-26446D01*
X42529Y-26300D01*
X42529Y-26141D01*
X42468Y-25994D01*
X42356Y-25882D01*
X42210Y-25821D01*
X42051Y-25821D01*
X41904Y-25882D01*
X41792Y-25994D01*
X41763Y-26062D01*
X41756Y-26070D01*
X41595Y-26070D01*
X41595Y-25422D01*
X41533Y-25360D01*
X40750Y-25360D01*
X40750Y-25888D01*
X40812Y-25950D01*
X41394Y-25949D01*
X41486Y-25911D01*
X41556Y-25841D01*
X41594Y-25750D01*
X41594Y-25651D01*
X41595Y-25422D01*
X41595Y-26070D01*
X40735Y-26070D01*
X40650Y-26086D01*
X40650Y-25888D01*
X40650Y-25360D01*
X39867Y-25360D01*
X39805Y-25422D01*
X39806Y-25651D01*
X39806Y-25750D01*
X39844Y-25841D01*
X39914Y-25911D01*
X40006Y-25949D01*
X40588Y-25950D01*
X40650Y-25888D01*
X40650Y-26086D01*
X40628Y-26091D01*
X40076Y-26091D01*
X39985Y-26128D01*
X39985Y-26115D01*
X39920Y-25957D01*
X39799Y-25836D01*
X39641Y-25770D01*
X39470Y-25770D01*
X39312Y-25835D01*
X39191Y-25956D01*
X39125Y-26114D01*
X39125Y-26285D01*
X39190Y-26443D01*
X39311Y-26564D01*
X39469Y-26630D01*
X39640Y-26630D01*
X39798Y-26565D01*
X39876Y-26487D01*
X39876Y-26540D01*
X39860Y-26551D01*
X39744Y-26668D01*
X39677Y-26768D01*
X39653Y-26887D01*
X39653Y-27495D01*
X39641Y-27490D01*
X39470Y-27490D01*
X39312Y-27555D01*
X39191Y-27676D01*
X39125Y-27834D01*
X39125Y-28005D01*
X39190Y-28163D01*
X39311Y-28284D01*
X39469Y-28350D01*
X39640Y-28350D01*
X39798Y-28285D01*
X39878Y-28205D01*
X39898Y-28225D01*
X39844Y-28279D01*
X39806Y-28370D01*
X39806Y-28469D01*
X39805Y-28698D01*
X39867Y-28760D01*
X40600Y-28760D01*
X40650Y-28760D01*
X40750Y-28760D01*
X40750Y-28860D01*
X40750Y-28910D01*
X40750Y-29388D01*
X40812Y-29450D01*
X40973Y-29449D01*
X40767Y-29656D01*
X40650Y-29656D01*
X40650Y-29388D01*
X40650Y-28860D01*
X39867Y-28860D01*
X39805Y-28922D01*
X39806Y-29151D01*
X39806Y-29250D01*
X39844Y-29341D01*
X39914Y-29411D01*
X40006Y-29449D01*
X40588Y-29450D01*
X40650Y-29388D01*
X40650Y-29656D01*
X40241Y-29656D01*
X40149Y-29694D01*
X40108Y-29735D01*
X39855Y-29735D01*
X39713Y-29763D01*
X39593Y-29843D01*
X39095Y-30341D01*
X39095Y-28922D01*
X39095Y-28698D01*
X39095Y-25422D01*
X39033Y-25360D01*
X38405Y-25360D01*
X38405Y-25888D01*
X38467Y-25950D01*
X38894Y-25949D01*
X38986Y-25911D01*
X39056Y-25841D01*
X39094Y-25750D01*
X39094Y-25651D01*
X39095Y-25422D01*
X39095Y-28698D01*
X39094Y-28469D01*
X39094Y-28370D01*
X39056Y-28279D01*
X38986Y-28209D01*
X38894Y-28171D01*
X38467Y-28170D01*
X38405Y-28232D01*
X38405Y-28760D01*
X39033Y-28760D01*
X39095Y-28698D01*
X39095Y-28922D01*
X39033Y-28860D01*
X38405Y-28860D01*
X38405Y-29388D01*
X38467Y-29450D01*
X38894Y-29449D01*
X38986Y-29411D01*
X39056Y-29341D01*
X39094Y-29250D01*
X39094Y-29151D01*
X39095Y-28922D01*
X39095Y-30341D01*
X38739Y-30697D01*
X38739Y-30236D01*
X38701Y-30144D01*
X38631Y-30074D01*
X38540Y-30036D01*
X38441Y-30036D01*
X37684Y-30036D01*
X37684Y-29371D01*
X37724Y-29411D01*
X37816Y-29449D01*
X38243Y-29450D01*
X38305Y-29388D01*
X38305Y-28910D01*
X38305Y-28860D01*
X38305Y-28760D01*
X38305Y-28710D01*
X38305Y-28232D01*
X38243Y-28170D01*
X37816Y-28171D01*
X37724Y-28209D01*
X37684Y-28249D01*
X37684Y-25871D01*
X37724Y-25911D01*
X37816Y-25949D01*
X38243Y-25950D01*
X38305Y-25888D01*
X38305Y-25410D01*
X38305Y-25360D01*
X38305Y-25260D01*
X38405Y-25260D01*
X38455Y-25260D01*
X39033Y-25260D01*
X39095Y-25198D01*
X39094Y-24969D01*
X39094Y-24870D01*
X39056Y-24779D01*
X38990Y-24713D01*
X39910Y-24713D01*
X39844Y-24779D01*
X39806Y-24870D01*
X39806Y-24969D01*
X39805Y-25198D01*
X39867Y-25260D01*
X40600Y-25260D01*
X40650Y-25260D01*
X40750Y-25260D01*
X40800Y-25260D01*
X41533Y-25260D01*
X41595Y-25198D01*
X41594Y-24969D01*
X41594Y-24870D01*
X41556Y-24779D01*
X41490Y-24713D01*
X55625Y-24713D01*
X55625Y-34335D01*
X55625Y-34335D01*
G37*
G54D31*
X55625Y-34335D02*
X53108Y-34335D01*
X53108Y-33178D01*
X52800Y-32871D01*
X52492Y-33178D01*
X52519Y-33272D01*
X52721Y-33343D01*
X52934Y-33332D01*
X53081Y-33272D01*
X53108Y-33178D01*
X53108Y-34335D01*
X50508Y-34335D01*
X50508Y-33678D01*
X50200Y-33371D01*
X50129Y-33441D01*
X50129Y-33300D01*
X49822Y-32992D01*
X49728Y-33019D01*
X49657Y-33221D01*
X49668Y-33434D01*
X49728Y-33581D01*
X49822Y-33608D01*
X50129Y-33300D01*
X50129Y-33441D01*
X49892Y-33678D01*
X49919Y-33772D01*
X50121Y-33843D01*
X50334Y-33832D01*
X50481Y-33772D01*
X50508Y-33678D01*
X50508Y-34335D01*
X48624Y-34335D01*
X48651Y-34307D01*
X48658Y-34303D01*
X48662Y-34296D01*
X48713Y-34246D01*
X48741Y-34178D01*
X48745Y-34173D01*
X48746Y-34166D01*
X48774Y-34100D01*
X48774Y-34025D01*
X48775Y-34020D01*
X48774Y-34014D01*
X48774Y-33941D01*
X48746Y-33874D01*
X48745Y-33867D01*
X48740Y-33860D01*
X48713Y-33794D01*
X48662Y-33743D01*
X48658Y-33737D01*
X48651Y-33732D01*
X48601Y-33682D01*
X48533Y-33653D01*
X48528Y-33650D01*
X48521Y-33648D01*
X48492Y-33636D01*
X48507Y-33631D01*
X48566Y-33572D01*
X48625Y-33631D01*
X48716Y-33669D01*
X48815Y-33669D01*
X49165Y-33669D01*
X49257Y-33631D01*
X49327Y-33561D01*
X49365Y-33470D01*
X49365Y-33371D01*
X49365Y-32821D01*
X49327Y-32729D01*
X49320Y-32722D01*
X49320Y-31900D01*
X49319Y-31899D01*
X49296Y-31781D01*
X49260Y-31726D01*
X49260Y-31515D01*
X49179Y-31320D01*
X49031Y-31171D01*
X48836Y-31090D01*
X48638Y-31090D01*
X48296Y-30748D01*
X49454Y-30748D01*
X49915Y-31208D01*
X49915Y-31703D01*
X49939Y-31822D01*
X50006Y-31922D01*
X50477Y-32394D01*
X50478Y-32394D01*
X50528Y-32427D01*
X50578Y-32461D01*
X50579Y-32461D01*
X50603Y-32466D01*
X50614Y-32491D01*
X50684Y-32561D01*
X50775Y-32599D01*
X50874Y-32599D01*
X50890Y-32599D01*
X50890Y-32751D01*
X50851Y-32751D01*
X50759Y-32789D01*
X50689Y-32859D01*
X50651Y-32950D01*
X50651Y-33012D01*
X50578Y-32992D01*
X50508Y-33062D01*
X50508Y-32922D01*
X50481Y-32828D01*
X50279Y-32757D01*
X50066Y-32768D01*
X49919Y-32828D01*
X49892Y-32922D01*
X50200Y-33229D01*
X50508Y-32922D01*
X50508Y-33062D01*
X50271Y-33300D01*
X50578Y-33608D01*
X50651Y-33587D01*
X50651Y-33649D01*
X50689Y-33741D01*
X50759Y-33811D01*
X50850Y-33849D01*
X50949Y-33849D01*
X51549Y-33849D01*
X51641Y-33811D01*
X51711Y-33741D01*
X51749Y-33650D01*
X51749Y-33551D01*
X51749Y-32951D01*
X51711Y-32859D01*
X51641Y-32789D01*
X51550Y-32751D01*
X51510Y-32751D01*
X51510Y-32563D01*
X51516Y-32561D01*
X51586Y-32491D01*
X51624Y-32400D01*
X51624Y-32301D01*
X51624Y-32213D01*
X51934Y-32523D01*
X52034Y-32590D01*
X52035Y-32590D01*
X52153Y-32614D01*
X52294Y-32614D01*
X52257Y-32721D01*
X52268Y-32934D01*
X52328Y-33081D01*
X52422Y-33108D01*
X52694Y-32835D01*
X52729Y-32800D01*
X52800Y-32729D01*
X52871Y-32800D01*
X52906Y-32835D01*
X53178Y-33108D01*
X53272Y-33081D01*
X53295Y-33015D01*
X53335Y-33111D01*
X53489Y-33265D01*
X53691Y-33349D01*
X53909Y-33349D01*
X54111Y-33265D01*
X54265Y-33111D01*
X54349Y-32909D01*
X54349Y-32691D01*
X54265Y-32489D01*
X54111Y-32335D01*
X54026Y-32300D01*
X54111Y-32265D01*
X54265Y-32111D01*
X54349Y-31909D01*
X54349Y-31691D01*
X54265Y-31489D01*
X54111Y-31335D01*
X54026Y-31300D01*
X54111Y-31265D01*
X54265Y-31111D01*
X54349Y-30909D01*
X54349Y-30691D01*
X54265Y-30489D01*
X54111Y-30335D01*
X54026Y-30300D01*
X54111Y-30265D01*
X54265Y-30111D01*
X54349Y-29909D01*
X54349Y-29691D01*
X54265Y-29489D01*
X54111Y-29335D01*
X54026Y-29300D01*
X54111Y-29265D01*
X54265Y-29111D01*
X54349Y-28909D01*
X54349Y-28691D01*
X54265Y-28489D01*
X54111Y-28335D01*
X54026Y-28300D01*
X54111Y-28265D01*
X54265Y-28111D01*
X54349Y-27909D01*
X54349Y-27691D01*
X54265Y-27489D01*
X54111Y-27335D01*
X54026Y-27300D01*
X54111Y-27265D01*
X54265Y-27111D01*
X54349Y-26909D01*
X54349Y-26691D01*
X54265Y-26489D01*
X54111Y-26335D01*
X53909Y-26251D01*
X53691Y-26251D01*
X53489Y-26335D01*
X53349Y-26474D01*
X53349Y-26451D01*
X53311Y-26359D01*
X53241Y-26289D01*
X53150Y-26251D01*
X53051Y-26251D01*
X52912Y-26250D01*
X52850Y-26312D01*
X52850Y-26700D01*
X52850Y-26750D01*
X52850Y-26850D01*
X52750Y-26850D01*
X52750Y-26750D01*
X52750Y-26312D01*
X52688Y-26250D01*
X52549Y-26251D01*
X52450Y-26251D01*
X52359Y-26289D01*
X52289Y-26359D01*
X52251Y-26451D01*
X52250Y-26688D01*
X52312Y-26750D01*
X52750Y-26750D01*
X52750Y-26850D01*
X52700Y-26850D01*
X52312Y-26850D01*
X52250Y-26912D01*
X52250Y-27052D01*
X52236Y-27062D01*
X52185Y-27096D01*
X52047Y-27235D01*
X51980Y-27335D01*
X51956Y-27454D01*
X51956Y-28041D01*
X51732Y-28265D01*
X51553Y-28265D01*
X51602Y-28216D01*
X51640Y-28124D01*
X51641Y-28087D01*
X51641Y-27863D01*
X51640Y-27826D01*
X51636Y-27817D01*
X51640Y-27809D01*
X51641Y-27772D01*
X51579Y-27710D01*
X51578Y-27710D01*
X51532Y-27664D01*
X51523Y-27660D01*
X51532Y-27657D01*
X51579Y-27610D01*
X51602Y-27587D01*
X51641Y-27548D01*
X51640Y-27511D01*
X51636Y-27503D01*
X51640Y-27495D01*
X51641Y-27458D01*
X51602Y-27419D01*
X51579Y-27396D01*
X51532Y-27349D01*
X51523Y-27345D01*
X51532Y-27342D01*
X51578Y-27296D01*
X51579Y-27296D01*
X51602Y-27272D01*
X51641Y-27234D01*
X51640Y-27197D01*
X51636Y-27188D01*
X51640Y-27180D01*
X51641Y-27143D01*
X51641Y-26919D01*
X51640Y-26882D01*
X51602Y-26790D01*
X51532Y-26720D01*
X51441Y-26682D01*
X51342Y-26682D01*
X51323Y-26681D01*
X51261Y-26743D01*
X51261Y-26981D01*
X51579Y-26981D01*
X51641Y-26919D01*
X51641Y-27143D01*
X51579Y-27081D01*
X51578Y-27081D01*
X51532Y-27035D01*
X51441Y-26997D01*
X51342Y-26997D01*
X51323Y-26996D01*
X51261Y-27058D01*
X51261Y-27081D01*
X51261Y-27296D01*
X51261Y-27319D01*
X51287Y-27345D01*
X51261Y-27372D01*
X51261Y-27396D01*
X51261Y-27610D01*
X51261Y-27634D01*
X51287Y-27660D01*
X51261Y-27687D01*
X51261Y-27710D01*
X51261Y-27925D01*
X51261Y-27948D01*
X51323Y-28010D01*
X51342Y-28009D01*
X51441Y-28009D01*
X51532Y-27971D01*
X51578Y-27925D01*
X51579Y-27925D01*
X51602Y-27901D01*
X51641Y-27863D01*
X51641Y-28087D01*
X51579Y-28025D01*
X51311Y-28025D01*
X51261Y-28025D01*
X51161Y-28025D01*
X51161Y-27948D01*
X51161Y-27925D01*
X51161Y-27875D01*
X51161Y-27760D01*
X51161Y-27710D01*
X51161Y-27687D01*
X51161Y-27634D01*
X51161Y-27610D01*
X51161Y-27560D01*
X51161Y-27446D01*
X51161Y-27396D01*
X51161Y-27372D01*
X51161Y-27319D01*
X51161Y-27296D01*
X51161Y-27246D01*
X51161Y-27131D01*
X51161Y-27081D01*
X51161Y-27058D01*
X51161Y-26981D01*
X51161Y-26931D01*
X51161Y-26743D01*
X51099Y-26681D01*
X51080Y-26682D01*
X50981Y-26682D01*
X50897Y-26717D01*
X50829Y-26689D01*
X50829Y-26688D01*
X50802Y-26648D01*
X50802Y-26647D01*
X50452Y-26298D01*
X50352Y-26231D01*
X50233Y-26207D01*
X49322Y-26207D01*
X49203Y-26231D01*
X49153Y-26264D01*
X49102Y-26298D01*
X48933Y-26466D01*
X48914Y-26370D01*
X48914Y-26369D01*
X48847Y-26269D01*
X48651Y-26073D01*
X48574Y-26021D01*
X48574Y-25968D01*
X48536Y-25876D01*
X48466Y-25806D01*
X48439Y-25794D01*
X48511Y-25765D01*
X48665Y-25611D01*
X48749Y-25409D01*
X48749Y-25191D01*
X48665Y-24989D01*
X48511Y-24835D01*
X48309Y-24751D01*
X48091Y-24751D01*
X47889Y-24835D01*
X47735Y-24989D01*
X47700Y-25073D01*
X47665Y-24989D01*
X47511Y-24835D01*
X47309Y-24751D01*
X47091Y-24751D01*
X46889Y-24835D01*
X46735Y-24989D01*
X46700Y-25073D01*
X46665Y-24989D01*
X46511Y-24835D01*
X46309Y-24751D01*
X46091Y-24751D01*
X45889Y-24835D01*
X45735Y-24989D01*
X45697Y-25080D01*
X45672Y-25019D01*
X45578Y-24992D01*
X45508Y-25062D01*
X45508Y-24922D01*
X45481Y-24828D01*
X45279Y-24757D01*
X45066Y-24768D01*
X44919Y-24828D01*
X44892Y-24922D01*
X45200Y-25229D01*
X45508Y-24922D01*
X45508Y-25062D01*
X45271Y-25300D01*
X45578Y-25608D01*
X45672Y-25581D01*
X45695Y-25515D01*
X45735Y-25611D01*
X45889Y-25765D01*
X45890Y-25765D01*
X45890Y-25872D01*
X45914Y-25991D01*
X45981Y-26091D01*
X46897Y-27008D01*
X46898Y-27008D01*
X46998Y-27075D01*
X47017Y-27078D01*
X47017Y-27174D01*
X47016Y-27338D01*
X47078Y-27400D01*
X47248Y-27400D01*
X47277Y-27400D01*
X47277Y-27500D01*
X47248Y-27500D01*
X47078Y-27500D01*
X47032Y-27546D01*
X46951Y-27465D01*
X46947Y-27462D01*
X46706Y-27222D01*
X46606Y-27155D01*
X46487Y-27131D01*
X45733Y-27131D01*
X45743Y-27121D01*
X45804Y-26975D01*
X45804Y-26816D01*
X45743Y-26669D01*
X45631Y-26557D01*
X45508Y-26505D01*
X45508Y-25678D01*
X45200Y-25371D01*
X44892Y-25678D01*
X44919Y-25772D01*
X45121Y-25843D01*
X45334Y-25832D01*
X45481Y-25772D01*
X45508Y-25678D01*
X45508Y-26505D01*
X45488Y-26497D01*
X44633Y-25642D01*
X44665Y-25611D01*
X44702Y-25519D01*
X44728Y-25581D01*
X44822Y-25608D01*
X45129Y-25300D01*
X44822Y-24992D01*
X44728Y-25019D01*
X44704Y-25084D01*
X44665Y-24989D01*
X44511Y-24835D01*
X44309Y-24751D01*
X44091Y-24751D01*
X43889Y-24835D01*
X43749Y-24975D01*
X43749Y-24951D01*
X43711Y-24859D01*
X43641Y-24789D01*
X43550Y-24751D01*
X43451Y-24751D01*
X42851Y-24751D01*
X42759Y-24789D01*
X42689Y-24859D01*
X42651Y-24950D01*
X42651Y-25049D01*
X42651Y-25649D01*
X42689Y-25741D01*
X42759Y-25811D01*
X42850Y-25849D01*
X42949Y-25849D01*
X43549Y-25849D01*
X43641Y-25811D01*
X43711Y-25741D01*
X43749Y-25650D01*
X43749Y-25625D01*
X43887Y-25763D01*
X43895Y-25802D01*
X43967Y-25908D01*
X45006Y-26947D01*
X45006Y-26974D01*
X45067Y-27121D01*
X45077Y-27131D01*
X44231Y-27131D01*
X44174Y-27142D01*
X44174Y-27094D01*
X44174Y-26995D01*
X44136Y-26904D01*
X44102Y-26870D01*
X44146Y-26826D01*
X44184Y-26735D01*
X44184Y-26636D01*
X44185Y-26572D01*
X44185Y-26348D01*
X44184Y-26284D01*
X44184Y-26185D01*
X44146Y-26094D01*
X44076Y-26024D01*
X43984Y-25986D01*
X43922Y-25985D01*
X43860Y-26047D01*
X43860Y-26410D01*
X44123Y-26410D01*
X44185Y-26348D01*
X44185Y-26572D01*
X44123Y-26510D01*
X43860Y-26510D01*
X43860Y-26847D01*
X43850Y-26857D01*
X43850Y-27170D01*
X43850Y-27220D01*
X43850Y-27320D01*
X43750Y-27320D01*
X43750Y-27220D01*
X43750Y-27170D01*
X43750Y-26883D01*
X43760Y-26873D01*
X43760Y-26560D01*
X43760Y-26510D01*
X43760Y-26410D01*
X43760Y-26360D01*
X43760Y-26047D01*
X43698Y-25985D01*
X43636Y-25986D01*
X43544Y-26024D01*
X43510Y-26058D01*
X43476Y-26024D01*
X43385Y-25986D01*
X43286Y-25986D01*
X43036Y-25986D01*
X42944Y-26024D01*
X42874Y-26094D01*
X42842Y-26169D01*
X42821Y-26174D01*
X42721Y-26241D01*
X42502Y-26460D01*
X42454Y-26460D01*
X42468Y-26446D01*
X42529Y-26300D01*
X42529Y-26141D01*
X42468Y-25994D01*
X42356Y-25882D01*
X42210Y-25821D01*
X42051Y-25821D01*
X41904Y-25882D01*
X41792Y-25994D01*
X41763Y-26062D01*
X41756Y-26070D01*
X41595Y-26070D01*
X41595Y-25422D01*
X41533Y-25360D01*
X40750Y-25360D01*
X40750Y-25888D01*
X40812Y-25950D01*
X41394Y-25949D01*
X41486Y-25911D01*
X41556Y-25841D01*
X41594Y-25750D01*
X41594Y-25651D01*
X41595Y-25422D01*
X41595Y-26070D01*
X40735Y-26070D01*
X40650Y-26086D01*
X40650Y-25888D01*
X40650Y-25360D01*
X39867Y-25360D01*
X39805Y-25422D01*
X39806Y-25651D01*
X39806Y-25750D01*
X39844Y-25841D01*
X39914Y-25911D01*
X40006Y-25949D01*
X40588Y-25950D01*
X40650Y-25888D01*
X40650Y-26086D01*
X40628Y-26091D01*
X40076Y-26091D01*
X39985Y-26128D01*
X39985Y-26115D01*
X39920Y-25957D01*
X39799Y-25836D01*
X39641Y-25770D01*
X39470Y-25770D01*
X39312Y-25835D01*
X39191Y-25956D01*
X39125Y-26114D01*
X39125Y-26285D01*
X39190Y-26443D01*
X39311Y-26564D01*
X39469Y-26630D01*
X39640Y-26630D01*
X39798Y-26565D01*
X39876Y-26487D01*
X39876Y-26540D01*
X39860Y-26551D01*
X39744Y-26668D01*
X39677Y-26768D01*
X39653Y-26887D01*
X39653Y-27495D01*
X39641Y-27490D01*
X39470Y-27490D01*
X39312Y-27555D01*
X39191Y-27676D01*
X39125Y-27834D01*
X39125Y-28005D01*
X39190Y-28163D01*
X39311Y-28284D01*
X39469Y-28350D01*
X39640Y-28350D01*
X39798Y-28285D01*
X39878Y-28205D01*
X39898Y-28225D01*
X39844Y-28279D01*
X39806Y-28370D01*
X39806Y-28469D01*
X39805Y-28698D01*
X39867Y-28760D01*
X40600Y-28760D01*
X40650Y-28760D01*
X40750Y-28760D01*
X40750Y-28860D01*
X40750Y-28910D01*
X40750Y-29388D01*
X40812Y-29450D01*
X40973Y-29449D01*
X40767Y-29656D01*
X40650Y-29656D01*
X40650Y-29388D01*
X40650Y-28860D01*
X39867Y-28860D01*
X39805Y-28922D01*
X39806Y-29151D01*
X39806Y-29250D01*
X39844Y-29341D01*
X39914Y-29411D01*
X40006Y-29449D01*
X40588Y-29450D01*
X40650Y-29388D01*
X40650Y-29656D01*
X40241Y-29656D01*
X40149Y-29694D01*
X40108Y-29735D01*
X39855Y-29735D01*
X39713Y-29763D01*
X39593Y-29843D01*
X39095Y-30341D01*
X39095Y-28922D01*
X39095Y-28698D01*
X39095Y-25422D01*
X39033Y-25360D01*
X38405Y-25360D01*
X38405Y-25888D01*
X38467Y-25950D01*
X38894Y-25949D01*
X38986Y-25911D01*
X39056Y-25841D01*
X39094Y-25750D01*
X39094Y-25651D01*
X39095Y-25422D01*
X39095Y-28698D01*
X39094Y-28469D01*
X39094Y-28370D01*
X39056Y-28279D01*
X38986Y-28209D01*
X38894Y-28171D01*
X38467Y-28170D01*
X38405Y-28232D01*
X38405Y-28760D01*
X39033Y-28760D01*
X39095Y-28698D01*
X39095Y-28922D01*
X39033Y-28860D01*
X38405Y-28860D01*
X38405Y-29388D01*
X38467Y-29450D01*
X38894Y-29449D01*
X38986Y-29411D01*
X39056Y-29341D01*
X39094Y-29250D01*
X39094Y-29151D01*
X39095Y-28922D01*
X39095Y-30341D01*
X38739Y-30697D01*
X38739Y-30236D01*
X38701Y-30144D01*
X38631Y-30074D01*
X38540Y-30036D01*
X38441Y-30036D01*
X37684Y-30036D01*
X37684Y-29371D01*
X37724Y-29411D01*
X37816Y-29449D01*
X38243Y-29450D01*
X38305Y-29388D01*
X38305Y-28910D01*
X38305Y-28860D01*
X38305Y-28760D01*
X38305Y-28710D01*
X38305Y-28232D01*
X38243Y-28170D01*
X37816Y-28171D01*
X37724Y-28209D01*
X37684Y-28249D01*
X37684Y-25871D01*
X37724Y-25911D01*
X37816Y-25949D01*
X38243Y-25950D01*
X38305Y-25888D01*
X38305Y-25410D01*
X38305Y-25360D01*
X38305Y-25260D01*
X38405Y-25260D01*
X38455Y-25260D01*
X39033Y-25260D01*
X39095Y-25198D01*
X39094Y-24969D01*
X39094Y-24870D01*
X39056Y-24779D01*
X38990Y-24713D01*
X39910Y-24713D01*
X39844Y-24779D01*
X39806Y-24870D01*
X39806Y-24969D01*
X39805Y-25198D01*
X39867Y-25260D01*
X40600Y-25260D01*
X40650Y-25260D01*
X40750Y-25260D01*
X40800Y-25260D01*
X41533Y-25260D01*
X41595Y-25198D01*
X41594Y-24969D01*
X41594Y-24870D01*
X41556Y-24779D01*
X41490Y-24713D01*
X55625Y-24713D01*
X55625Y-34335D01*
M02*
